<?xml version="1.0" encoding="UTF-8"?>
<svg viewBox="0 0 27 18" version="1.1" xmlns="http://www.w3.org/2000/svg" xmlns:xlink="http://www.w3.org/1999/xlink">
    <!-- Generator: Sketch 58 (84663) - https://sketch.com -->
    <title>cloud-right</title>
    <desc>Created with Sketch.</desc>
    <g id="Symbols" stroke="none" stroke-width="1" fill="none" fill-rule="evenodd">
        <g id="Icon/Map/Mountains" transform="translate(-22.000000, -4.000000)">
            <g id="Mountain-Group">
                <g>
                    <g id="cloud-right" transform="translate(22.808960, 5.000000)">
                        <path d="M4.1910401,6.60817351 C6.91457415,5.87945231 18.0886175,7.18692414 20.1910401,9 C22.2934627,10.8130759 20.6517011,13.8416306 18.6236573,15.4404464 C16.5956135,17.0392622 5.55761247,16.4334078 1.68363674,15.4404464 C-2.190339,14.4474849 1.46750605,7.33689471 4.1910401,6.60817351 Z" id="Grey-Right" fill="#AFB4BB"></path>
                        <path d="M20.8473569,14 L3.86550573,14 C3.83398726,13.9941712 3.80173586,13.9905282 3.76948438,13.9887068 C1.762565,13.8816029 0.1910401,12.2342441 0.1910401,10.2386157 C0.1910401,8.16429878 1.88863887,6.47686705 3.97545385,6.47686705 L4.05828145,6.48123865 C4.06341234,6.48160297 4.14257501,6.48633881 4.14843891,6.48670312 C4.39105773,6.49508202 4.62341472,6.39198547 4.77367712,6.2025501 C4.92393952,6.01275049 4.97231666,5.76284152 4.90414885,5.53151182 C4.78613786,5.13151183 4.72603291,4.72313295 4.72603291,4.31766849 C4.72603291,1.93697631 6.6743133,0 9.06971603,0 C10.8897237,0 12.5294164,1.14571946 13.1495237,2.85063753 C13.2308853,3.07468127 13.4148651,3.24626591 13.6442902,3.31329692 C13.8759142,3.38032792 14.122198,3.33333337 14.3120416,3.18907106 C14.8815728,2.75482701 15.5588531,2.52531881 16.2705839,2.52531881 C17.7145689,2.52531881 18.9914329,3.49289622 19.3762513,4.87832427 C19.4766706,5.24153009 19.8314364,5.47140261 20.209658,5.41785066 C20.4544758,5.38178512 20.6567802,5.36502733 20.847357,5.36502733 C23.2427596,5.36502733 25.1910401,7.30200364 25.1910401,9.68269582 C25.1910401,12.063388 23.2427596,14 20.8473569,14 Z" id="Cloud-Right" stroke="#000000" stroke-width="2"></path>
                    </g>
                </g>
            </g>
        </g>
    </g>
</svg>
