<?xml version="1.0" encoding="UTF-8"?>
<svg viewBox="0 0 27 17" version="1.1" xmlns="http://www.w3.org/2000/svg" xmlns:xlink="http://www.w3.org/1999/xlink">
    <!-- Generator: Sketch 58 (84663) - https://sketch.com -->
    <title>cloud-left</title>
    <desc>Created with Sketch.</desc>
    <g id="Symbols" stroke="none" stroke-width="1" fill="none" fill-rule="evenodd">
        <g id="Icon/Map/Mountains" transform="translate(0.000000, -24.000000)">
            <g id="cloud-left">
                <g transform="translate(1.000000, 25.000000)">
                    <polygon id="Path-2" fill="#FFFFFF" points="13.5 1.44845674 12.0415164 2.85063753 10.0915994 3.26111903 7.67471638 3.26111903 6.18740373 4.7949102 5.39726889 5.63152357 3.11982139 6.09630877 0.563502776 8.83854147 1 11.5 3.35221399 13.3934365 23.4774133 8 20.6422236 7 20.0380028 6.09630877 19.4802605 3.26111903 19.1549109 1.44845674 17.4816842 0.518886335 14.4141018 0.518886335"></polygon>
                    <path d="M3.49259664,7.99323552 C6.21613069,7.26451433 22.6832585,6.18015967 24.785681,7.99323552 C26.8881036,9.80631138 26.0236511,12.8985916 23.9956072,14.4974074 C21.9675634,16.0962232 7.36657237,16.4334078 3.49259664,15.4404464 C-0.381379095,14.4474849 0.769062585,8.72195672 3.49259664,7.99323552 Z" id="Grey-Left" fill="#AFB4BB"></path>
                    <path d="M20.6563168,14 L3.67446563,14 C3.64294716,13.9941712 3.61069576,13.9905282 3.57844428,13.9887068 C1.5715249,13.8816029 0,12.2342441 0,10.2386157 C0,8.16429878 1.69759877,6.47686705 3.78441375,6.47686705 L3.86724135,6.48123865 C3.87237224,6.48160297 3.95153491,6.48633881 3.95739881,6.48670312 C4.20001763,6.49508202 4.43237462,6.39198547 4.58263702,6.2025501 C4.73289942,6.01275049 4.78127656,5.76284152 4.71310875,5.53151182 C4.59509776,5.13151183 4.53499281,4.72313295 4.53499281,4.31766849 C4.53499281,1.93697631 6.4832732,0 8.87867593,0 C10.6986836,0 12.3383763,1.14571946 12.9584836,2.85063753 C13.0398452,3.07468127 13.223825,3.24626591 13.4532501,3.31329692 C13.6848741,3.38032792 13.9311579,3.33333337 14.1210015,3.18907106 C14.6905327,2.75482701 15.367813,2.52531881 16.0795438,2.52531881 C17.5235288,2.52531881 18.8003928,3.49289622 19.1852112,4.87832427 C19.2856305,5.24153009 19.6403963,5.47140261 20.0186179,5.41785066 C20.2634357,5.38178512 20.4657401,5.36502733 20.6563169,5.36502733 C23.0517195,5.36502733 25,7.30200364 25,9.68269582 C25,12.063388 23.0517195,14 20.6563168,14 Z" id="Cloud-Left" stroke="#000000" stroke-width="2" transform="translate(12.500000, 7.000000) scale(-1, 1) translate(-12.500000, -7.000000) "></path>
                </g>
            </g>
        </g>
    </g>
</svg>
