<?xml version="1.0" encoding="UTF-8"?>
<svg viewBox="0 0 404 169" version="1.1" xmlns="http://www.w3.org/2000/svg" xmlns:xlink="http://www.w3.org/1999/xlink">
    <!-- Generator: Sketch 58 (84663) - https://sketch.com -->
    <title>Icon/Map/Gondel</title>
    <desc>Created with Sketch.</desc>
    <g id="Icon/Map/Gondel" stroke="none" stroke-width="1" fill="none" fill-rule="evenodd">
        <g id="Gondelbahn">
            <path d="M74.1679688,79.725 C78.1844013,75.75 115.94562,73.0998 122,77.8499 C128.05438,82.6 121.158562,97.7001 116.472925,101 C111.787288,104.2999 81.7615497,108.720457 75.956543,95.8 C70.1515363,82.8795427 70.1515363,83.7 74.1679688,79.725 Z" id="Rectangle" fill="#F0BC5E"></path>
            <path d="M245.212806,145.41778 C249.229239,141.44278 286.990458,138.79258 293.044838,143.54268 C299.099218,148.29278 293.044838,157.5 291.417438,162 C289.790039,166.5 247.708375,174 245.212806,160 C242.717238,146 241.196374,149.39278 245.212806,145.41778 Z" id="Rectangle" fill="#F0BC5E" transform="translate(269.208719, 154.540991) scale(-1, 1) translate(-269.208719, -154.540991) "></path>
            <path d="M79.2002,100.8999 C78.5002,100.8999 77.8002,100.4999 77.4002,99.7999 C75.8002,96.4999 71.6002,86.7999 71.6002,77.7999 C71.6002,68.8999 75.9002,59.1999 77.4002,55.8999 C77.7002,55.1999 78.4002,54.7999 79.2002,54.7999 L117.1002,54.7999 C117.8002,54.7999 118.5002,55.1999 118.9002,55.8999 C120.5002,59.1999 124.7002,68.7999 124.7002,77.7999 C124.7002,86.6999 120.4002,96.4999 118.9002,99.7999 C118.6002,100.4999 117.9002,100.8999 117.1002,100.8999 L79.2002,100.8999 Z" id="Stroke-1" stroke="#000000" stroke-width="2" stroke-linecap="round" stroke-linejoin="round"></path>
            <path d="M113.8999,58.7002 C114.4999,58.7002 115.0999,59.1002 115.3999,59.6002 C116.6999,62.3002 120.3999,70.3002 120.3999,77.7002 L106.2999,77.7002 L106.2999,58.7002 L113.8999,58.7002 Z" id="Stroke-3" stroke="#000000" stroke-width="2" stroke-linecap="round" stroke-linejoin="round"></path>
            <path d="M82.5,58.7002 C81.9,58.7002 81.3,59.1002 81,59.6002 C79.7,62.3002 76,70.3002 76,77.7002 L90.1,77.7002 L90.1,58.7002 L82.5,58.7002 Z" id="Stroke-5" stroke="#000000" stroke-width="2" stroke-linecap="round" stroke-linejoin="round"></path>
            <polygon id="Stroke-7" stroke="#000000" stroke-width="2" stroke-linecap="round" stroke-linejoin="round" points="90.025 100.825 106.225 100.825 106.225 58.625 90.025 58.625"></polygon>
            <path d="M404,154 L0,0" id="Stroke-9" stroke="#000000" stroke-width="2" stroke-linecap="round" stroke-linejoin="round"></path>
            <path d="M97.6001,45.1001 C99.6431,45.1001 101.3001,43.4431 101.3001,41.4001 C101.3001,39.3561 99.6431,37.7001 97.6001,37.7001 C95.5571,37.7001 93.9001,39.3561 93.9001,41.4001 C93.9001,43.4431 95.5571,45.1001 97.6001,45.1001 Z" id="Stroke-10" stroke="#000000" stroke-width="2" stroke-linecap="round" stroke-linejoin="round"></path>
            <path d="M81.7002,54.3999 L81.7002,53.7999 C81.7002,52.1999 83.0002,50.9999 84.5002,50.9999 L112.4002,50.9999 C114.0002,50.9999 115.2002,52.2999 115.2002,53.7999 L115.2002,54.3999" id="Stroke-11" stroke="#000000" stroke-width="2" stroke-linecap="round" stroke-linejoin="round"></path>
            <path d="M97.6001,45.2002 L97.6001,49.9002" id="Stroke-12" stroke="#000000" stroke-width="2" stroke-linecap="round" stroke-linejoin="round"></path>
            <path d="M250.2002,165.8999 C249.5002,165.8999 248.8002,165.4999 248.4002,164.7999 C246.8002,161.4999 242.6002,151.7999 242.6002,142.7999 C242.6002,133.8999 246.9002,124.1999 248.4002,120.8999 C248.7002,120.1999 249.4002,119.7999 250.2002,119.7999 L288.1002,119.7999 C288.8002,119.7999 289.5002,120.1999 289.9002,120.8999 C291.5002,124.1999 295.7002,133.7999 295.7002,142.7999 C295.7002,151.6999 291.4002,161.4999 289.9002,164.7999 C289.6002,165.4999 288.9002,165.8999 288.1002,165.8999 L250.2002,165.8999 Z" id="Stroke-13" stroke="#000000" stroke-width="2" stroke-linecap="round" stroke-linejoin="round"></path>
            <path d="M284.8999,123.7002 C285.4999,123.7002 286.0999,124.1002 286.3999,124.6002 C287.6999,127.3002 291.3999,135.3002 291.3999,142.7002 L277.2999,142.7002 L277.2999,123.7002 L284.8999,123.7002 Z" id="Stroke-14" stroke="#000000" stroke-width="2" stroke-linecap="round" stroke-linejoin="round"></path>
            <path d="M253.5,123.7002 C252.9,123.7002 252.3,124.1002 252,124.6002 C250.7,127.3002 247,135.3002 247,142.7002 L261.1,142.7002 L261.1,123.7002 L253.5,123.7002 Z" id="Stroke-15" stroke="#000000" stroke-width="2" stroke-linecap="round" stroke-linejoin="round"></path>
            <polygon id="Stroke-16" stroke="#000000" stroke-width="2" stroke-linecap="round" stroke-linejoin="round" points="261.025 165.825 277.225 165.825 277.225 123.625 261.025 123.625"></polygon>
            <path d="M268.6001,110.1001 C270.6431,110.1001 272.3001,108.4431 272.3001,106.4001 C272.3001,104.3561 270.6431,102.7001 268.6001,102.7001 C266.5571,102.7001 264.9001,104.3561 264.9001,106.4001 C264.9001,108.4431 266.5571,110.1001 268.6001,110.1001 Z" id="Stroke-17" stroke="#000000" stroke-width="2" stroke-linecap="round" stroke-linejoin="round"></path>
            <path d="M252.7002,119.3999 L252.7002,118.7999 C252.7002,117.1999 254.0002,115.9999 255.5002,115.9999 L283.4002,115.9999 C285.0002,115.9999 286.2002,117.2999 286.2002,118.7999 L286.2002,119.3999" id="Stroke-18" stroke="#000000" stroke-width="2" stroke-linecap="round" stroke-linejoin="round"></path>
            <path d="M268.6001,110.2002 L268.6001,114.9002" id="Stroke-19" stroke="#000000" stroke-width="2" stroke-linecap="round" stroke-linejoin="round"></path>
        </g>
    </g>
</svg>
