<svg xmlns="http://www.w3.org/2000/svg" viewBox="0 0 56 68">
    <g fill="none" fill-rule="evenodd">
        <path fill="#F0BC5E" d="M52.205 44.418c-4.017-3.975-41.778-6.625-47.832-1.875C-1.682 47.293 4.373 56.5 6 61s43.71 12 46.205-2c2.495-14 4.016-10.607 0-14.582z"/>
        <path stroke="#000" stroke-linecap="round" stroke-linejoin="round" stroke-width="2" d="M9.2 64.9c-.7 0-1.4-.4-1.8-1.1-1.6-3.3-5.8-13-5.8-22 0-8.9 4.3-18.6 5.8-21.9.3-.7 1-1.1 1.8-1.1h37.9c.7 0 1.4.4 1.8 1.1 1.6 3.3 5.8 12.9 5.8 21.9 0 8.9-4.3 18.7-5.8 22-.3.7-1 1.1-1.8 1.1H9.2z"/>
        <path stroke="#000" stroke-linecap="round" stroke-linejoin="round" stroke-width="2" d="M43.9 22.7c.6 0 1.2.4 1.5.9 1.3 2.7 5 10.7 5 18.1H36.3v-19h7.6zM12.5 22.7c-.6 0-1.2.4-1.5.9-1.3 2.7-5 10.7-5 18.1h14.1v-19h-7.6z"/>
        <path stroke="#000" stroke-linecap="round" stroke-linejoin="round" stroke-width="2" d="M20.025 64.825h16.2v-42.2h-16.2zM27.6 9.1A3.7 3.7 0 1 0 27.6 1.7 3.7 3.7 0 0 0 27.6 9.1zM11.7 18.4v-.6c0-1.6 1.3-2.8 2.8-2.8h27.9c1.6 0 2.8 1.3 2.8 2.8v.6M27.6 9.2v4.7"/>
    </g>
</svg>
