<?xml version="1.0" encoding="UTF-8"?>
<svg viewBox="0 0 44 45" version="1.1" xmlns="http://www.w3.org/2000/svg" xmlns:xlink="http://www.w3.org/1999/xlink">
    <!-- Generator: Sketch 58 (84663) - https://sketch.com -->
    <title>Icon/Map/Kajak</title>
    <desc>Created with Sketch.</desc>
    <defs>
        <polygon id="path-1" points="0.000101382488 0.196925346 43.8538065 0.196925346 43.8538065 44 0.000101382488 44"></polygon>
    </defs>
    <g id="Icon/Map/Kajak" stroke="none" stroke-width="1" fill="none" fill-rule="evenodd">
        <g id="Kayak">
            <path d="M43,2 C43,24.6610837 24.6610837,43 2,43 L8.70521675,36.2947833 L35.8678177,9.13218227 L43,2 Z" id="Fill-1" fill="#E5C5B7"></path>
            <path d="M19.8789457,27.8734044 C19.8524117,28.9150294 19.4210273,29.9064506 18.6633577,30.6642789 C17.1075958,32.2210114 14.6465692,32.2929978 13.1776646,30.8233959 C12.4701609,30.1155639 12.0949538,29.1573353 12.1210732,28.1264979 C12.1476072,27.0846655 12.5789917,26.0938666 13.3366612,25.3358308 C14.8928377,23.7797207 17.3538644,23.7077343 18.822147,25.1769213 C19.5296507,25.8847533 19.9048578,26.8423595 19.8789457,27.8734044 M12.5447877,24.5433577 C11.5831382,25.5051131 11.035253,26.7676762 11.0016709,28.0982842 C10.9674669,29.4394723 11.4593821,30.688551 12.3859984,31.6156615 C13.3105418,32.540905 14.5327633,33 15.7744706,33 C17.0912194,33 18.429527,32.4832329 19.4552312,31.456752 C20.4166734,30.4947892 20.9645587,29.2322261 20.998348,27.9018255 C21.0323447,26.5606374 20.5406369,25.3113513 19.6140205,24.3844482 C17.7091709,22.4779488 14.5379457,22.5495203 12.5447877,24.5433577" id="Fill-3" fill="#000000"></path>
            <path d="M23.1220369,17.1267133 C23.148599,16.0852264 23.5802331,15.0942043 24.3376681,14.3364006 C25.1451145,13.528755 26.1959776,13.1208826 27.2256741,13.1208826 C28.1796271,13.1208826 29.1151111,13.4708139 29.8212895,14.1775297 C30.5285055,14.8852839 30.9039027,15.8424551 30.8779632,16.8733506 C30.8514011,17.9150452 30.4197669,18.9056519 29.6625395,19.6636633 C28.1065813,21.2197673 25.6464741,21.2905842 24.178503,19.8225342 C23.471287,19.11478 23.0960973,18.1574012 23.1220369,17.1267133 M30.4550447,20.4569794 C31.4166758,19.494824 31.9647267,18.2321639 31.9983443,16.901802 C32.032377,15.5604333 31.5407706,14.3110643 30.6140023,13.3842137 C28.708379,11.477763 25.537943,11.549826 23.5449553,13.5432922 C22.5833242,14.5050322 22.0352733,15.7676923 22.0016557,17.0980542 C21.967623,18.4394229 22.4592294,19.6889996 23.3857902,20.6158502 C24.3104834,21.5408318 25.5329627,22.0002075 26.7745334,22 C28.0912251,22 29.4294985,21.4830984 30.4550447,20.4569794" id="Fill-5" fill="#000000"></path>
            <g>
                <mask id="mask-2" fill="white">
                    <use xlink:href="#path-1"></use>
                </mask>
                <g id="Clip-8"></g>
                <path d="M5.32288479,1.51915576 L10.1884332,6.3826765 C10.7225161,6.91675945 11.0167281,7.6268424 11.0167281,8.38254747 C11.0167281,9.13764424 10.7225161,9.84772719 10.1884332,10.3818101 C9.08539171,11.4842433 7.29051613,11.4842433 6.18747465,10.3818101 L1.32253456,5.5182894 L5.32288479,1.51915576 Z M42.5839908,1.47616959 C40.2081935,11.7575705 35.3073641,20.4971465 28.0925806,27.5059207 L16.5751244,15.9923171 C23.6481751,8.70068571 32.430129,3.74186544 42.5839908,1.47616959 L42.5839908,1.47616959 Z M1.40465438,42.6242802 C4.60874654,32.2615705 9.49984332,23.5613309 15.8157696,16.7818839 L27.3042304,28.2666949 C20.5539816,34.559506 11.8701659,39.3958562 1.40465438,42.6242802 L1.40465438,42.6242802 Z M35.6291521,32.9880774 C36.3536313,32.9880774 37.0779078,33.2640406 37.6294286,33.814953 L42.4947742,38.6788793 L38.494424,42.6778101 L33.6288756,37.8140866 C33.0945899,37.2800037 32.8003779,36.569718 32.8003779,35.8146212 C32.8003779,35.0595244 33.0945899,34.3492387 33.6288756,33.814953 C34.1801935,33.2640406 34.9048756,32.9880774 35.6291521,32.9880774 L35.6291521,32.9880774 Z M5.41291244,11.1561696 C6.17814747,11.9212018 7.18284793,12.3038194 8.18795392,12.3038194 C9.01989862,12.3038194 9.84941014,12.0373862 10.5452995,11.5132387 L15.0349217,16.0014415 C8.3982212,23.1170728 3.30942857,32.3096258 0.0591059908,43.2889438 C0.00212903226,43.481165 0.0550506912,43.6896074 0.19718894,43.8315429 C0.301207373,43.9357641 0.441317972,43.99193 0.584267281,43.99193 C0.636175115,43.99193 0.688691244,43.9846304 0.739788018,43.969423 C11.8310323,40.6880774 21.0002673,35.6558562 28.0832535,29.0455152 L32.4970415,33.4576811 C31.9854654,34.1341051 31.7048387,34.9518562 31.7048387,35.8146212 C31.7048387,36.8627134 32.1130046,37.8477456 32.8543134,38.5886488 L38.1073456,43.8396535 C38.2142028,43.9465106 38.3543134,44.0000406 38.494424,44.0000406 C38.6345346,44.0000406 38.7748479,43.9465106 38.8817051,43.8396535 L43.6568203,39.0659576 C43.7594194,38.9633585 43.8174101,38.8238562 43.8174101,38.6788793 C43.8174101,38.5334968 43.7594194,38.3941972 43.6568203,38.2913954 L38.4039908,33.0405935 C37.0057235,31.6421235 34.8081567,31.5263447 33.2720092,32.6837272 L28.8738341,28.2869714 C36.3538341,21.017847 41.394977,11.9169438 43.7723963,1.18743226 L43.8405253,0.880243318 C43.8814839,0.698363134 43.8269401,0.508575115 43.6963594,0.375764055 C43.565576,0.24315576 43.3761935,0.186178802 43.1941106,0.224095853 L43.1125991,0.241330876 C32.4175576,2.47357051 23.1883041,7.59581935 15.7958986,15.213294 L11.3202673,10.7392848 C11.8316406,10.0628608 12.1120645,9.24510968 12.1120645,8.38254747 C12.1120645,7.3344553 11.7038986,6.34901751 10.9627926,5.60831705 L5.7101659,0.357515207 C5.49604608,0.143395392 5.14952074,0.143395392 4.93560369,0.357515207 L0.160488479,5.13080553 C0.0576866359,5.23360737 0.000101382488,5.37290691 0.000101382488,5.5182894 C0.000101382488,5.66326636 0.0576866359,5.80276866 0.160488479,5.90536774 L5.41291244,11.1561696 Z" id="Fill-7" fill="#000000" mask="url(#mask-2)"></path>
            </g>
            <path d="M35.1573906,10.8552543 C35.2538716,10.9517514 35.3801374,11 35.5064031,11 C35.6328516,11 35.7593001,10.9517514 35.8554156,10.8552543 C36.0481948,10.6624429 36.0481948,10.3497411 35.8554156,10.1572952 L33.8424723,8.14474566 C33.6496932,7.95175145 33.336861,7.95175145 33.1444473,8.14474566 C32.9518509,8.33755711 32.9518509,8.65025891 33.1444473,8.84270484 L35.1573906,10.8552543 Z" id="Fill-10" fill="#000000"></path>
            <path d="M8.84253803,33.1446152 C8.64976474,32.9517949 8.33694212,32.9517949 8.14471701,33.1446152 C7.951761,33.3376182 7.951761,33.6501515 8.14471701,33.8426063 L10.1574163,35.8554305 C10.2538943,35.9517492 10.3801562,36 10.5064182,36 C10.6326801,36 10.7593075,35.9517492 10.85542,35.8554305 C11.0481933,35.6624275 11.0481933,35.3497114 10.85542,35.1572567 L8.84253803,33.1446152 Z" id="Fill-12" fill="#000000"></path>
        </g>
    </g>
</svg>
