<?xml version="1.0" encoding="UTF-8"?>
<svg viewBox="0 0 209 195" version="1.1" xmlns="http://www.w3.org/2000/svg" xmlns:xlink="http://www.w3.org/1999/xlink">
    <!-- Generator: Sketch 58 (84663) - https://sketch.com -->
    <title>Icon/Map/Lake</title>
    <desc>Created with Sketch.</desc>
    <g id="Icon/Map/Lake" stroke="none" stroke-width="1" fill="none" fill-rule="evenodd">
        <g id="Lake" transform="translate(104.500000, 97.500000) rotate(167.000000) translate(-104.500000, -97.500000) translate(16.000000, 18.000000)">
            <path d="M109.243612,153 C76.2100516,151.394847 48.7618425,139.716717 27.182969,115.861989 C12.6702923,99.8186641 15.6162605,80.4727236 23.959895,62.436547 C37.7414843,32.647368 60.6380841,14.0040025 92.0266977,8.85110227 C116.645873,4.81001409 137.012163,15.4132551 152.099687,35.2617675 C172.51904,62.1237217 176.627477,92.3498305 163.281199,123.877498 C156.447889,140.020312 141.637471,146.504515 126.107757,150.460474 C120.135244,151.982548 113.888573,152.330246 109.243612,153" id="Fill" fill="#AEC6CF"></path>
            <path d="M106.020256,159 C68.0531113,157.239867 36.5054943,144.434194 11.7038021,118.27625 C-4.9763524,100.683914 -1.59040189,79.47009 7.99935989,59.6924895 C23.8392385,27.0271139 50.1554603,6.58369934 86.2319837,0.933277665 C114.528049,-3.49798455 137.936058,8.12901768 155.276913,29.8939381 C178.74591,59.3494603 183.467944,92.4939521 168.128391,127.06567 C160.274522,144.767101 143.252158,151.877365 125.403072,156.215278 C118.53856,157.884312 111.358944,158.26558 106.020256,159" id="Outline" stroke="#000000" stroke-width="2"></path>
        </g>
    </g>
</svg>
