<svg xmlns="http://www.w3.org/2000/svg" width="22" height="30" viewBox="0 0 22 30">
    <g fill="none" fill-rule="evenodd">
        <path fill="#F0BC5E" d="M6.298 2.458l-3.5 3.992v5.045l2.312 4.401L1 26.443l3.582-1.348L6.87 29l3.98-9.432L15.057 29l1.804-3.905L21 26.443 16.862 15.28l2.039-3.313.382-3.466-1.188-3.86-2.157-2.184-2.993-1.208L10.04 1l-2.599.877z"/>
        <path fill="#000" fill-rule="nonzero" d="M9.467 9.526l-.4 2.154c0 .135 0 .202.133.27.067.067.2.067.267 0l1.933-1.01 1.933 1.01h.134c.066 0 .133 0 .133-.068.067-.067.133-.134.133-.269L13.4 9.459l1.533-1.548C15 7.844 15 7.71 15 7.641c0-.066-.133-.201-.2-.201l-2.133-.337-.934-1.952c-.066-.201-.4-.201-.466 0l-.934 1.952L8.2 7.44c-.133 0-.2.067-.2.202 0 .067 0 .202.067.27l1.4 1.614z"/>
        <path fill="#000" fill-rule="nonzero" stroke="#000" d="M.56 27.465l4.232-2.194 1.663 4.464c.037.152.188.227.34.265.15 0 .302-.113.34-.227l3.854-9.912 3.855 9.912c.037.151.189.227.34.227a.363.363 0 0 0 .34-.265l1.663-4.464 4.27 2.194a.405.405 0 0 0 .415-.038.427.427 0 0 0 .114-.416l-4.61-11.954A8.827 8.827 0 0 0 19.87 8.89c0-4.918-4.006-8.89-8.88-8.89-4.876 0-8.881 3.972-8.881 8.89 0 2.421.982 4.616 2.532 6.205L.03 26.974c-.076.15 0 .302.113.416.113.113.264.151.415.075zm6.272 1.097l-1.398-3.82 2.872-7.415c.87.264 1.776.416 2.721.416l-4.195 10.82zm8.352 0l-3.78-9.76.417-1.06c.68-.075 1.322-.188 1.927-.415l2.872 7.414-1.436 3.821zm5.744-2.232L17.3 24.477l-2.872-7.415c.87-.379 1.625-.87 2.343-1.438l4.157 10.706zM2.865 8.89c0-4.502 3.665-8.133 8.124-8.133 4.46 0 8.125 3.67 8.125 8.133 0 4.464-3.628 8.134-8.125 8.134s-8.124-3.67-8.124-8.134zm2.343 6.772A7.821 7.821 0 0 0 7.55 17.1l-2.872 7.377-3.627 1.853 4.157-10.668z"/>
    </g>
</svg>
