<?xml version="1.0" encoding="UTF-8"?>
<svg viewBox="0 0 132 134" version="1.1" xmlns="http://www.w3.org/2000/svg" xmlns:xlink="http://www.w3.org/1999/xlink">
    <!-- Generator: Sketch 58 (84663) - https://sketch.com -->
    <title>Icon/Map/Mountains</title>
    <desc>Created with Sketch.</desc>
    <g id="Symbols" stroke="none" stroke-width="1" fill="none" fill-rule="evenodd">
        <g id="Icon/Map/Mountains">
            <g id="Mountain-Group">
                <g>
                    <g id="Forest-and-River" transform="translate(0.000000, 48.000000)">
                        <path d="M11,69 C22,67.5322266 88.5085886,65.3481445 97,69 C105.491411,72.6518555 102,78.8802548 93.8089947,82.1005526 C85.6179894,85.3208505 26.6464844,86 11,84 C-4.6464844,82 2.72004641e-14,70.4677734 11,69 Z" id="Rectangle" fill="#AEC6CF"></path>
                        <path d="M50.0053267,44 C52.2757157,44 59.160138,57.5184572 57.8312001,59.5079102 C56.5022622,61.4973633 43.5569407,61.4973633 42.1794534,59.5079102 C40.801966,57.5184572 47.7349377,44 50.0053267,44 Z" id="Triangle" fill="#92AA83"></path>
                        <path d="M78.0053267,37 C80.2757157,37 87.160138,50.5184572 85.8312001,52.5079102 C84.5022622,54.4973633 71.5569407,54.4973633 70.1794534,52.5079102 C68.801966,50.5184572 75.7349377,37 78.0053267,37 Z" id="Triangle-Copy" fill="#92AA83"></path>
                        <path d="M21.0053267,42 C23.2757157,42 30.160138,55.5184572 28.8312001,57.5079102 C27.5022622,59.4973633 14.5569407,59.4973633 13.1794534,57.5079102 C11.801966,55.5184572 18.7349377,42 21.0053267,42 Z" id="Triangle-Copy-2" fill="#92AA83"></path>
                        <path d="M32.0053267,9 C34.2757157,9 41.160138,22.5184572 39.8312001,24.5079102 C38.5022622,26.4973633 25.5569407,26.4973633 24.1794534,24.5079102 C22.801966,22.5184572 29.7349377,9 32.0053267,9 Z" id="Triangle-Copy-3" fill="#92AA83"></path>
                        <path d="M68.0053267,6 C70.2757157,6 77.160138,19.5184572 75.8312001,21.5079102 C74.5022622,23.4973633 61.5569407,23.4973633 60.1794534,21.5079102 C58.801966,19.5184572 65.7349377,6 68.0053267,6 Z" id="Triangle-Copy-4" fill="#92AA83"></path>
                        <path d="M78.7578125,64.2280273 C79.3100586,64.2280273 79.7578125,63.7802734 79.7578125,63.2280273 L79.7578125,58.5351562 L89,58.5351562 C89.3476562,58.5351562 89.6699219,58.3549804 89.8520508,58.0585937 C90.0341797,57.7626953 90.0493164,57.3930664 89.8920899,57.083496 L86.0141602,49.4282226 L87.0273438,49.4282226 C87.3769532,49.4282226 87.7011719,49.2456054 87.8823243,48.9467773 C88.0634767,48.6479492 88.0756837,48.2763671 87.9140626,47.9663085 L84.473755,41.3603515 L84.9409181,41.3603515 C85.3037111,41.3603515 85.638672,41.1635742 85.8149415,40.8461913 C85.991211,40.5288084 85.9819337,40.1411132 85.7905274,39.8325194 L79.6074219,29.8789061 C79.4248047,29.5854491 79.1035157,29.4067381 78.7578125,29.4067381 C78.4121093,29.4067381 78.0908203,29.585449 77.9082031,29.8789061 L71.7246093,39.8325194 C71.5332031,40.1411132 71.5239257,40.5288085 71.7001952,40.8461913 C71.8764647,41.1635741 72.2114257,41.3603515 72.5742186,41.3603515 L73.0413817,41.3603515 L69.6010741,47.9663085 C69.439453,48.2763671 69.45166,48.6479491 69.6328124,48.9467773 C69.8139648,49.2456055 70.1381835,49.4282226 70.4877929,49.4282226 L71.5009765,49.4282226 L67.6230468,57.083496 C67.4658202,57.3930663 67.480957,57.7626952 67.6630859,58.0585937 C67.8452148,58.3549804 68.1674804,58.5351562 68.5151367,58.5351562 L77.7578125,58.5351562 L77.7578125,63.2280273 C77.7578125,63.7802734 78.2055664,64.2280273 78.7578125,64.2280273 Z M78.7578125,32.3017578 L83.1425781,39.3603516 L74.3725586,39.3603516 L78.7578125,32.3017578 Z M75.2959595,41.3603516 L82.2191773,41.3603516 L85.3789063,47.4282227 L72.1362305,47.4282227 L75.2959595,41.3603516 Z M73.7427368,49.4282227 L83.7723999,49.4282227 L87.3725586,56.5351563 L70.1425781,56.5351563 L73.7427368,49.4282227 Z" id="Shape" fill="#000000" fill-rule="nonzero"></path>
                        <path d="M21.2192383,64.2280273 C21.7714844,64.2280273 22.2192383,63.7802734 22.2192383,63.2280273 L22.2192383,58.5351562 L31.4614258,58.5351562 C31.809082,58.5351562 32.1313477,58.3549804 32.3134766,58.0585937 C32.4951172,57.7626953 32.5107422,57.3930664 32.3535157,57.083496 L28.4760133,49.4282226 L29.4887696,49.4282226 C29.838379,49.4282226 30.1625977,49.2456054 30.3437501,48.9467773 C30.5249025,48.6479492 30.5371095,48.2763671 30.3754884,47.9663085 L26.9351808,41.3603515 L27.4023439,41.3603515 C27.7651369,41.3603515 28.1000978,41.1635742 28.2763673,40.8461913 C28.4526368,40.5288084 28.4433595,40.1411132 28.2519532,39.8325194 L22.0688477,29.8789061 C21.7036133,29.291992 20.7348633,29.291992 20.3696289,29.8789061 L14.1865234,39.8325194 C13.9951172,40.1411132 13.9858398,40.5288085 14.1621093,40.8461913 C14.3383788,41.1635741 14.6733398,41.3603515 15.0361327,41.3603515 L15.5032958,41.3603515 L12.0629882,47.9663085 C11.9013671,48.2763671 11.9135741,48.6479491 12.0947265,48.9467773 C12.2758789,49.2456055 12.6000976,49.4282226 12.949707,49.4282226 L13.9624023,49.4282226 L10.0844726,57.083496 C9.927246,57.3930663 9.9423828,57.7626952 10.1245117,58.0585937 C10.3066406,58.3549804 10.6289062,58.5351562 10.9765625,58.5351562 L20.2192383,58.5351562 L20.2192383,63.2280273 C20.2192383,63.7802734 20.6669922,64.2280273 21.2192383,64.2280273 Z M21.2192383,32.3017578 L25.6040039,39.3603516 L16.8344727,39.3603516 L21.2192383,32.3017578 Z M17.7578735,41.3603516 L24.680603,41.3603516 L27.840332,47.4282227 L14.5981445,47.4282227 L17.7578735,41.3603516 Z M16.2041626,49.4282227 L26.2342529,49.4282227 L29.8339843,56.5351563 L12.6040039,56.5351563 L16.2041626,49.4282227 Z" id="Shape" fill="#000000" fill-rule="nonzero"></path>
                        <path d="M50.0454102,64.2280273 C50.5976563,64.2280273 51.0454102,63.7802734 51.0454102,63.2280273 L51.0454102,57.980957 L61.2851563,57.980957 C61.6328125,57.980957 61.9550782,57.8007812 62.1372071,57.5043945 C62.319336,57.2084961 62.3344727,56.8388672 62.1772462,56.5292968 L57.8500978,47.9868163 L59.1201173,47.9868163 C59.4697267,47.9868163 59.7939454,47.8041991 59.9750978,47.505371 C60.1562502,47.2065429 60.1684572,46.8349608 60.0068361,46.5249022 L56.1573488,39.1333006 L56.8305666,39.1333006 C57.1933596,39.1333006 57.5283205,38.9365233 57.70459,38.6191404 C57.8808595,38.3022459 57.8715822,37.9140623 57.6801759,37.6054685 L50.8950197,26.6821287 C50.7124025,26.3886717 50.3911135,26.2099607 50.0454103,26.2099607 C49.6997071,26.2099607 49.3784181,26.3886716 49.1958009,26.6821287 L42.4101564,37.6054685 C42.2187502,37.9140623 42.2094728,38.3017576 42.3857423,38.6191404 C42.5620118,38.9365232 42.8969728,39.1333006 43.2597657,39.1333006 L43.9329835,39.1333006 L40.0834962,46.5249022 C39.9218751,46.8349608 39.9340821,47.2065428 40.1152345,47.505371 C40.2963869,47.8041992 40.6206056,47.9868163 40.970215,47.9868163 L42.2402345,47.9868163 L37.9130861,56.5292968 C37.7558595,56.8388671 37.7709963,57.208496 37.9531252,57.5043945 C38.1352541,57.8007812 38.4575197,57.980957 38.805176,57.980957 L49.0454104,57.980957 L49.0454104,63.2280273 C49.0454102,63.7802734 49.4931641,64.2280273 50.0454102,64.2280273 Z M50.0454102,29.1049805 L55.0322266,37.1333008 L45.0581055,37.1333008 L50.0454102,29.1049805 Z M46.187561,39.1333008 L53.902771,39.1333008 L57.4716797,45.9868164 L42.6186523,45.9868164 L46.187561,39.1333008 Z M44.4819946,47.9868164 L55.6083374,47.9868164 L59.6577148,55.980957 L40.4326172,55.980957 L44.4819946,47.9868164 Z" id="Shape" fill="#000000" fill-rule="nonzero"></path>
                        <path d="M33.4072266,30.4067383 L33.4072266,26.3061524 L41.5839844,26.3061524 C41.9316406,26.3061524 42.2539063,26.1259766 42.4360352,25.8295899 C42.6181641,25.5336915 42.6333008,25.1640626 42.4760743,24.854004 L39.0784303,18.1469728 L39.8164064,18.1469728 C40.1660158,18.1469728 40.4902345,17.9643556 40.6713869,17.6655275 C40.8525393,17.3666994 40.8647463,16.9951173 40.7031252,16.6850587 L37.7002565,10.9184571 L37.9472658,10.9184571 C38.3100588,10.9184571 38.6450197,10.7216798 38.8212892,10.4042969 C38.9975587,10.086914 38.9882814,9.6992188 38.7968751,9.390625 L33.256836,0.472168 C32.8916016,-0.1147461 31.9228516,-0.1147461 31.5576172,0.472168 L26.0175781,9.390625 C25.8261719,9.6992188 25.8168945,10.0869141 25.993164,10.4042969 C26.1694335,10.7216797 26.5043945,10.9184571 26.8671874,10.9184571 L27.1146239,10.9184571 L24.111328,16.6850587 C23.9497069,16.9951173 23.9619139,17.3666993 24.1430663,17.6655275 C24.3242187,17.9643557 24.6484374,18.1469728 24.9980468,18.1469728 L25.7360229,18.1469728 L22.3383789,24.854004 C22.1811523,25.1640626 22.1962891,25.5336915 22.378418,25.8295899 C22.5605469,26.1259766 22.8828125,26.3061524 23.2304688,26.3061524 L31.4072266,26.3061524 L31.4072266,30.4067383 C31.4072266,30.9589844 31.8549805,31.4067383 32.4072266,31.4067383 C32.9594727,31.4067383 33.4072266,30.9589844 33.4072266,30.4067383 Z M32.4072266,2.8950195 L36.1489258,8.918457 L28.6655274,8.918457 L32.4072266,2.8950195 Z M29.3692017,10.918457 L35.4456788,10.918457 L38.1679688,16.1469726 L26.6464844,16.1469726 L29.3692017,10.918457 Z M27.9783325,18.1469727 L36.8361206,18.1469727 L39.956543,24.3061524 L24.8579102,24.3061524 L27.9783325,18.1469727 Z" id="Shape" fill="#000000" fill-rule="nonzero"></path>
                        <path d="M67.8227539,31.4067383 C68.375,31.4067383 68.8227539,30.9589844 68.8227539,30.4067383 L68.8227539,26.3061524 L76.9995117,26.3061524 C77.3471679,26.3061524 77.6694336,26.1259766 77.8515625,25.8295899 C78.0336914,25.5336915 78.0488281,25.1640626 77.8916016,24.8544922 L74.4940796,18.1469727 L75.2319336,18.1469727 C75.581543,18.1469727 75.9057617,17.9643555 76.0869141,17.6655274 C76.2680665,17.3666993 76.2802735,16.9951172 76.1186524,16.6850586 L73.1157837,10.918457 L73.362793,10.918457 C73.725586,10.918457 74.0605469,10.7216797 74.2368164,10.4042968 C74.4130859,10.0869139 74.4038086,9.6992187 74.2124023,9.3906249 L68.6723632,0.4721679 C68.3071288,-0.1147462 67.3383788,-0.1147462 66.9731444,0.4721679 L61.4331053,9.3906249 C61.2416991,9.6992187 61.2324217,10.086914 61.4086912,10.4042968 C61.5849607,10.7216796 61.9199217,10.918457 62.2827146,10.918457 L62.5301511,10.918457 L59.5268552,16.6850586 C59.3652341,16.9951172 59.3774411,17.3666992 59.5585935,17.6655274 C59.7397459,17.9643556 60.0639646,18.1469727 60.413574,18.1469727 L61.1515501,18.1469727 L57.7539061,24.8540039 C57.5966795,25.1640625 57.6118163,25.5336914 57.7939452,25.8295898 C57.9760741,26.1259765 58.2983397,26.3061523 58.645996,26.3061523 L66.8227538,26.3061523 L66.8227538,30.4067382 C66.8227539,30.9589844 67.2705078,31.4067383 67.8227539,31.4067383 Z M67.8227539,2.8950195 L71.5644531,8.918457 L64.0810547,8.918457 L67.8227539,2.8950195 Z M64.784729,10.918457 L70.8612061,10.918457 L73.5834961,16.1469726 L62.0620117,16.1469726 L64.784729,10.918457 Z M63.3938599,18.1469727 L72.2523804,18.1469727 L75.3720703,24.3061524 L60.2734375,24.3061524 L63.3938599,18.1469727 Z" id="Shape" fill="#000000" fill-rule="nonzero"></path>
                        <path d="M89.034668,74.8798828 C87.0053711,74.8798828 85.9423828,75.8989258 85.0878907,76.7177734 C84.3115234,77.4624023 83.7504883,78 82.5244141,78 C81.2988282,78 80.737793,77.4624023 79.9614258,76.7182617 C79.1069336,75.8989258 78.0439453,74.8798828 76.0141602,74.8798828 C73.9858399,74.8798828 72.9228516,75.899414 72.0688477,76.7182617 C71.293457,77.4624023 70.7329102,78 69.5083008,78 C68.2851563,78 67.7250977,77.4624023 66.9501953,76.7182617 C66.097168,75.899414 65.0351562,74.8798828 63.0078125,74.8798828 C60.9794922,74.8798828 59.9169922,75.899414 59.0634766,76.7182617 C58.2880859,77.4624023 57.7275391,78 56.5039062,78 C55.2807617,78 54.7207031,77.4624023 53.9453124,76.7182617 C53.0917968,75.899414 52.0297851,74.8798828 50.001953,74.8798828 C47.9741209,74.8798828 46.9121092,75.899414 46.0585936,76.7182617 C45.2832031,77.4624023 44.7231445,78 43.5,78 C42.2768555,78 41.7167969,77.4624023 40.9414062,76.7182617 C40.0878906,75.899414 39.0258789,74.8798828 36.9980468,74.8798828 C34.970703,74.8798828 33.9091796,75.899414 33.0561523,76.71875 C32.28125,77.4624023 31.7211914,78 30.4990234,78 C29.2773437,78 28.7182617,77.4624023 27.9438476,76.71875 C27.0908203,75.8994141 26.0292968,74.8798828 24.0029296,74.8798828 C21.9750976,74.8798828 20.9130858,75.899414 20.0595702,76.7182617 C19.2841797,77.4624023 18.7241211,78 17.5009766,78 C16.2778321,78 15.7182618,77.4624023 14.9428711,76.71875 C14.0893555,75.8994141 13.0273438,74.8798828 11,74.8798828 C10.4477539,74.8798828 10,75.3276367 10,75.8798828 C10,76.4321289 10.4477539,76.8798828 11,76.8798828 C12.2231445,76.8798828 12.7827148,77.4174805 13.5581055,78.1611328 C14.4116211,78.9804688 15.4736328,80 17.5009766,80 C19.5288086,80 20.5908204,78.9804688 21.444336,78.1616211 C22.2197266,77.4174805 22.7797852,76.8798828 24.0029298,76.8798828 C25.2246095,76.8798828 25.7836915,77.4174805 26.5581056,78.1611328 C27.4111328,78.9804688 28.4726562,80 30.4990234,80 C32.5263672,80 33.5878906,78.9804688 34.4409179,78.1611328 C35.2158202,77.4174805 35.7758788,76.8798828 36.9980468,76.8798828 C38.2211913,76.8798828 38.7812499,77.4174805 39.5566406,78.1616211 C40.4101562,78.9804688 41.472168,80 43.5,80 C45.527832,80 46.5898438,78.9804688 47.4433594,78.1616211 C48.21875,77.4174805 48.7788086,76.8798828 50.0019532,76.8798828 C51.2250978,76.8798828 51.7851563,77.4174805 52.560547,78.1616211 C53.4140625,78.9804688 54.4760742,80 56.5039062,80 C58.5322265,80 59.5947265,78.9804688 60.4482421,78.1616211 C61.2236327,77.4174805 61.7841796,76.8798828 63.0078124,76.8798828 C64.2304686,76.8798828 64.7905272,77.4174805 65.5654296,78.1611328 C66.418457,78.9804688 67.4804688,80 69.5083008,80 C71.5366211,80 72.5996094,78.9804688 73.4536133,78.1616211 C74.2290039,77.4174805 74.7895508,76.8798828 76.0141602,76.8798828 C77.2402344,76.8798828 77.8012696,77.4174805 78.5776368,78.1621094 C79.4321289,78.980957 80.4951172,80 82.5244141,80 C84.5541993,80 85.6171875,78.980957 86.4716797,78.1616211 C87.2480469,77.4174805 87.809082,76.8798828 89.034668,76.8798828 C89.5869141,76.8798828 90.034668,76.4321289 90.034668,75.8798828 C90.034668,75.3276367 89.5869141,74.8798828 89.034668,74.8798828 Z" id="Path" fill="#000000" fill-rule="nonzero"></path>
                        <path d="M89.034668,67.5322266 C87.0053711,67.5322266 85.9423828,68.5512696 85.0878907,69.3701172 C84.3115235,70.1142578 83.7504884,70.6518555 82.5244141,70.6518555 C81.2988282,70.6518555 80.737793,70.1142578 79.9614258,69.3701172 C79.1069336,68.5512695 78.0439453,67.5322266 76.0141602,67.5322266 C73.9858399,67.5322266 72.9228516,68.5512696 72.0688477,69.3701172 C71.2934571,70.1142578 70.7329102,70.6518555 69.5083008,70.6518555 C68.2851563,70.6518555 67.7250977,70.1142578 66.9501953,69.3706055 C66.097168,68.5512696 65.0351562,67.5322266 63.0078125,67.5322266 C60.9799805,67.5322266 59.9174805,68.5512696 59.0634766,69.3706055 C58.288086,70.1142578 57.7275391,70.6518555 56.5039063,70.6518555 C55.2807618,70.6518555 54.7207032,70.1142578 53.9453125,69.3706055 C53.0917969,68.5512696 52.0297852,67.5322266 50.0019531,67.5322266 C47.974121,67.5322266 46.9121093,68.5512696 46.0585937,69.3706055 C45.2832031,70.1142578 44.7231445,70.6518555 43.5,70.6518555 C42.2768553,70.6518555 41.7167968,70.1142578 40.9414061,69.3706055 C40.0878905,68.5512696 39.0258788,67.5322266 36.9980467,67.5322266 C34.9711912,67.5322266 33.9091795,68.5517578 33.0561522,69.3706055 C32.2812499,70.1142578 31.7216795,70.6518555 30.4990233,70.6518555 C29.2773436,70.6518555 28.7177733,70.1147461 27.9438475,69.3706055 C27.0908202,68.5517578 26.0292967,67.5322266 24.0029295,67.5322266 C21.9750975,67.5322266 20.9130857,68.5512696 20.0595701,69.3706055 C19.2841795,70.1142578 18.7241209,70.6518555 17.5009763,70.6518555 C16.2778317,70.6518555 15.7177732,70.1142578 14.9428708,69.3706055 C14.0893555,68.5517578 13.0273438,67.5322266 11,67.5322266 C10.4477539,67.5322266 10,67.9799805 10,68.5322266 C10,69.0844727 10.4477539,69.5322266 11,69.5322266 C12.2231445,69.5322266 12.7832031,70.0698243 13.5581055,70.8134766 C14.4116211,71.6323243 15.4736328,72.6518555 17.5009766,72.6518555 C19.5288086,72.6518555 20.5908204,71.6328125 21.444336,70.8134766 C22.2197266,70.0698243 22.7797852,69.5322266 24.0029298,69.5322266 C25.2246095,69.5322266 25.7841798,70.069336 26.5581056,70.8134766 C27.4111329,71.6323243 28.4726564,72.6518555 30.4990236,72.6518555 C32.5258791,72.6518555 33.5878908,71.6323243 34.4409181,70.8134766 C35.2158204,70.0698243 35.7753908,69.5322266 36.998047,69.5322266 C38.2211915,69.5322266 38.7812501,70.0698243 39.5566408,70.8134766 C40.4101562,71.6328125 41.472168,72.6518555 43.5,72.6518555 C45.527832,72.6518555 46.5898438,71.6328125 47.4433594,70.8134766 C48.21875,70.0698243 48.7788086,69.5322266 50.0019532,69.5322266 C51.2250978,69.5322266 51.7851563,70.0698243 52.560547,70.8134766 C53.4140626,71.6328125 54.4760743,72.6518555 56.5039064,72.6518555 C58.5317385,72.6518555 59.5942384,71.6328125 60.4482423,70.8134766 C61.2236329,70.0698243 61.7841798,69.5322266 63.0078126,69.5322266 C64.2304688,69.5322266 64.7905274,70.0698243 65.5654298,70.8134766 C66.4184571,71.6323243 67.4809571,72.6518555 69.5083009,72.6518555 C71.5366212,72.6518555 72.5996095,71.6328125 73.4536134,70.8139649 C74.229004,70.0698243 74.7895509,69.5322266 76.0141603,69.5322266 C77.2402345,69.5322266 77.8012697,70.0698243 78.5776369,70.8139649 C79.4321291,71.6328126 80.4951174,72.6518555 82.5244142,72.6518555 C84.5541994,72.6518555 85.6171876,71.6328125 86.4716798,70.8139649 C87.248047,70.0698243 87.8090821,69.5322266 89.0346681,69.5322266 C89.5869142,69.5322266 90.0346681,69.0844727 90.0346681,68.5322266 C90.0346681,67.9799805 89.5869141,67.5322266 89.034668,67.5322266 Z" id="Path" fill="#000000" fill-rule="nonzero"></path>
                    </g>
                    <g id="Moutain-Peaks" transform="translate(42.000000, 0.000000)" fill="#000000" fill-rule="nonzero">
                        <path d="M0.527836711,43.8258376 C0.714261809,43.9437132 0.921034299,44 1.125607,44 C1.50010704,44 1.86690814,43.8108251 2.08082962,43.4666504 L13.9770499,24.3047661 L17.305,29.127521 C17.7262438,29.7380279 18.7315098,29.7380279 19.1527536,29.127521 L22.5040068,24.2701541 L25.8536103,29.1269649 C26.2743043,29.738584 27.28067,29.7369159 27.701364,29.1269649 L31.0471179,24.271266 L34.3945217,29.1269649 C34.6051436,29.4327745 34.9499477,29.6145921 35.3183985,29.6145921 C35.6868493,29.6145921 36.0316534,29.4322185 36.2422753,29.1269649 L39.7002143,24.109326 L43.743894,30.7473382 L36.5991778,42.2556447 C36.2686719,42.7883093 36.4276006,43.4911151 36.9544305,43.8258375 C37.48291,44.1600038 38.1769175,43.9987589 38.5074234,43.4666503 L50.4036437,24.304766 L53.7315937,29.1275209 C54.1528375,29.7380278 55.1581036,29.7380278 55.5793474,29.1275209 L58.9306006,24.270154 L62.2802041,29.1269648 C62.7014479,29.7385839 63.7078137,29.7369157 64.1279577,29.1269648 L67.4737117,24.2712659 L70.8211154,29.1269648 C71.0317373,29.4327743 71.3765414,29.614592 71.7449923,29.614592 C72.1134431,29.614592 72.4582472,29.4322184 72.6688691,29.1269648 L76.1270143,24.1090479 L87.9144866,43.4583101 C88.1273082,43.8074889 88.496859,44 88.8746587,44 C89.0759318,44 89.2799547,43.9453811 89.4641801,43.8308416 C89.9937594,43.5011233 90.1587375,42.7994296 89.8326309,42.2639849 L64.4150196,0.541560783 C64.2109968,0.206282359 63.8496949,0.001668002 63.4608968,0 C63.4592471,0 63.4575973,0 63.4559475,0 C63.0687991,0 62.7080472,0.201278239 62.5018247,0.533220545 L45.0793223,28.5963854 L27.9884258,0.541560783 C27.784403,0.206282359 27.4231012,0.001668002 27.0343029,0 C27.0326532,0 27.0310034,0 27.0293536,0 C26.6422053,0 26.2814533,0.201278239 26.0752308,0.533220545 L0.172584058,42.2556449 C-0.157921846,42.7883094 0.000196298712,43.4911152 0.527836711,43.8258376 Z M63.4471486,3.29495838 L74.8389486,21.9947229 L71.7449924,26.4842148 L68.3970388,21.6285159 C67.975795,21.0168969 66.9694291,21.018009 66.5492851,21.6285159 L63.2035312,26.4842148 L59.8550276,21.6285159 C59.6444057,21.3227064 59.2996016,21.1408887 58.9311508,21.1408887 C58.5632498,21.1408887 58.2178958,21.3227064 58.0072739,21.6279599 L54.6554708,26.4858828 L51.7047016,22.209137 L63.4471486,3.29495838 Z M27.0205548,3.29495838 L38.4121486,21.9949314 L35.3183986,26.4842148 L31.970445,21.6285159 C31.5492012,21.0168969 30.5428353,21.018009 30.1226913,21.6285159 L26.7769374,26.4842148 L23.4284338,21.6285159 C23.2178119,21.3227064 22.8730078,21.1408887 22.504557,21.1408887 C22.136656,21.1408887 21.7913021,21.3227064 21.5806802,21.6279599 L18.228877,26.4858828 L15.2781077,22.209137 L27.0205548,3.29495838 Z" id="Shape"></path>
                    </g>
                </g>
            </g>
        </g>
    </g>
</svg>
