<?xml version="1.0" encoding="UTF-8"?>
<svg width="121px" height="104px" viewBox="0 0 121 104" version="1.1" xmlns="http://www.w3.org/2000/svg" xmlns:xlink="http://www.w3.org/1999/xlink">
    <!-- Generator: Sketch 58 (84663) - https://sketch.com -->
    <title>Icon/Map/Simple-Forest</title>
    <desc>Created with Sketch.</desc>
    <g id="Icon/Map/Simple-Forest" stroke="none" stroke-width="1" fill="none" fill-rule="evenodd">
        <g id="Simple-Forest-Group">
            <g id="Trees" transform="translate(34.000000, 0.000000)">
                <ellipse id="Oval-Left" fill="#92AA83" cx="18.5" cy="27" rx="13.5" ry="13"></ellipse>
                <ellipse id="Oval-Middle" fill="#92AA83" cx="45.5" cy="49" rx="8.5" ry="8"></ellipse>
                <ellipse id="Oval-Right" fill="#92AA83" cx="59.5" cy="23" rx="17.5" ry="17"></ellipse>
                <path d="M17,44.2 L17,69.7 C17,70.3 17.4,70.7 18,70.7 C18.6,70.7 19,70.3 19,69.7 L19,44.2 C28.1,43.7 35.4,36.1 35.4,26.8 C35.4,17.2 27.6,9.4 18,9.4 C8.4,9.4 0.6,17.3 0.6,26.9 C0.6,36.1 7.8,43.7 17,44.2 Z M18,11.5 C26.5,11.5 33.4,18.4 33.4,26.9 C33.4,35 27,41.7 19,42.2 L19,37.3 L26.3,30 C26.7,29.6 26.7,29 26.3,28.6 C25.9,28.2 25.3,28.2 24.9,28.6 L19,34.5 L19,24 C19,23.4 18.6,23 18,23 C17.4,23 17,23.4 17,24 L17,34.5 L11.1,28.6 C10.7,28.2 10.1,28.2 9.7,28.6 C9.3,29 9.3,29.6 9.7,30 L17,37.3 L17,42.2 C9,41.7 2.6,35 2.6,26.8 C2.6,18.4 9.5,11.5 18,11.5 Z" id="Shape" fill="#000000" fill-rule="nonzero"></path>
                <path d="M59.1,44.9 L59.1,77.7 C59.1,78.3 59.5,78.7 60.1,78.7 C60.7,78.7 61.1,78.3 61.1,77.7 L61.1,44.9 C72.8,44.4 82.1,34.7 82.1,22.9 C82.1,10.8 72.2,0.9 60.1,0.9 C48,0.9 38.1,10.8 38.1,22.9 C38.1,27.9 39.8,32.7 42.9,36.6 C37.3,37.7 33,42.6 33,48.5 C33,54.9 37.9,60.1 44.1,60.6 L44.0245592,72.7294477 C44.0245592,73.3294477 44.4245592,73.7294477 45.0245592,73.7294477 C45.6245592,73.7294477 46.0245592,73.3294477 46.0245592,72.7294477 L46.1,60.6 C52.3,60.1 57.2,54.9 57.2,48.5 C57.2,47.1 57,45.8 56.5,44.5 C57.5,44.8 58.3,44.9 59.1,44.9 Z M60.1,3 C71.1,3 80.1,12 80.1,23 C80.1,33.7 71.7,42.4 61.1,42.9 L61.1,36.2 L70.5,26.8 C70.9,26.4 70.9,25.8 70.5,25.4 C70.1,25 69.5,25 69.1,25.4 L61.1,33.4 L61.1,19.2 C61.1,18.6 60.7,18.2 60.1,18.2 C59.5,18.2 59.1,18.6 59.1,19.2 L59.1,33.3 L51.1,25.3 C50.7,24.9 50.1,24.9 49.7,25.3 C49.3,25.7 49.3,26.3 49.7,26.7 L59.1,36.1 L59.1,42.8 C58,42.7 56.8,42.6 55.6,42.3 C53.5,38.8 49.7,36.5 45.4,36.4 C42,32.8 40.1,28 40.1,23 C40.1,12 49.1,3 60.1,3 Z M46.2,58.7 L46.2,55.8 L51,51 C51.4,50.6 51.4,50 51,49.6 C50.6,49.2 50,49.2 49.6,49.6 L46.2,53 L46.2,46.6 C46.2,46 45.8,45.6 45.2,45.6 C44.6,45.6 44.2,46 44.2,46.6 L44.2,53 L40.8,49.6 C40.4,49.2 39.8,49.2 39.4,49.6 C39,50 39,50.6 39.4,51 L44.3,55.9 L44.3,58.8 C39.2,58.3 35.2,54 35.2,48.7 C35.2,43.2 39.6,38.7 45.1,38.6 C45.1,38.6 45.1,38.6 45.1,38.6 C45.1,38.6 45.3,38.6 45.3,38.6 C50.9,38.6 55.4,43.2 55.4,48.7 C55.3,53.9 51.3,58.2 46.2,58.7 Z" id="Shape" fill="#000000" fill-rule="nonzero"></path>
            </g>
            <g id="Hügel" transform="translate(0.000000, 70.000000)">
                <path d="M103.6421,25.3612931 C103.6421,14.3162931 82.3751,5.36129306 56.1421,5.36129306 C29.9091,5.36129306 8.6421,14.3162931 8.6421,25.3612931 C8.6421,36.4072931 103.6421,36.4072931 103.6421,25.3612931 Z" id="Hügel-Fill" fill="#E0D0B5"></path>
                <path d="M121,25.0038931 C120.16,24.3338931 119.31,23.6838931 118.47,23.0538931 C110.07,16.6938931 101.6,11.6538931 93.04,7.92389306 C63.04,-5.14610694 32.02,-2.04610694 0,17.2138931" id="Hügel-Border" stroke="#000000" stroke-width="2.229" stroke-linecap="round"></path>
            </g>
        </g>
    </g>
</svg>