<svg xmlns="http://www.w3.org/2000/svg" width="76" height="77" viewBox="0 0 76 77">
    <g fill="none" fill-rule="evenodd">
        <circle cx="39" cy="38" r="34" fill="#E3E4E0"/>
        <path fill="#000" fill-rule="nonzero" d="M38.1.8C17.3.8.3 17.7.3 38.6s16.9 37.8 37.8 37.8 37.8-16.9 37.8-37.8S59 .8 38.1.8zm0 73.4c-19.7 0-35.8-16-35.8-35.8 0-19.8 16-35.8 35.8-35.8 19.8 0 35.8 16 35.8 35.8 0 19.8-16 35.8-35.8 35.8z"/>
        <path fill="#000" fill-rule="nonzero" d="M27.7 31.8c3.1 0 5.6-3 5.6-6.8s-2.5-6.8-5.6-6.8c-3.1 0-5.6 3-5.6 6.8s2.5 6.8 5.6 6.8zm0-11.6c2 0 3.6 2.1 3.6 4.8 0 1.1-.3 2.2-.8 3v-.2c0-1.6-1.3-2.8-2.8-2.8-1.6 0-2.8 1.3-2.8 2.8v.2c-.5-.8-.8-1.8-.8-3 0-2.6 1.6-4.8 3.6-4.8zM48.6 31.8c3.1 0 5.6-3 5.6-6.8s-2.5-6.8-5.6-6.8c-3.1 0-5.6 3.1-5.6 6.8 0 3.7 2.5 6.8 5.6 6.8zm0-11.6c2 0 3.6 2.1 3.6 4.8 0 1.1-.3 2.2-.8 3v-.2c0-1.6-1.3-2.8-2.8-2.8-1.5 0-2.8 1.3-2.8 2.8v.2c-.5-.8-.8-1.8-.8-3 0-2.6 1.6-4.8 3.6-4.8zM55.9 42.7c-.6 0-1 .4-1 1 0 8-7.6 14.5-16.9 14.5-9.3 0-16.9-6.5-16.9-14.5 0-.6-.4-1-1-1s-1 .4-1 1c0 9.1 8.5 16.5 18.9 16.5 10.4 0 18.9-7.4 18.9-16.5 0-.6-.4-1-1-1z"/>
    </g>
</svg>
