<svg xmlns="http://www.w3.org/2000/svg" viewBox="0 0 77 77">
    <g fill="none" fill-rule="evenodd">
        <circle cx="38" cy="38" r="34" fill="#A5B4B3"/>
        <path fill="#000" fill-rule="nonzero" d="M38.5 0C17.271 0 0 17.271 0 38.5S17.271 77 38.5 77 77 59.729 77 38.5 59.729 0 38.5 0zm0 75.075c-20.167 0-36.575-16.408-36.575-36.575S18.333 1.925 38.5 1.925 75.075 18.333 75.075 38.5 58.667 75.075 38.5 75.075z"/>
        <path fill="#000" fill-rule="nonzero" d="M63.056 43.826l-49.096.064a.963.963 0 0 0-.93 1.203C16.024 56.7 26.498 64.805 38.5 64.805c12.033 0 22.515-8.133 25.488-19.777a.961.961 0 0 0-.932-1.202zM38.5 62.88c-10.705 0-20.098-6.957-23.265-17.066l46.549-.06C58.636 55.898 49.234 62.88 38.5 62.88zM17.13 28.708a.963.963 0 0 0 .963-.963 5.978 5.978 0 0 1 5.971-5.971 5.978 5.978 0 0 1 5.972 5.971.963.963 0 0 0 1.925 0c0-4.354-3.542-7.896-7.897-7.896-4.354 0-7.896 3.542-7.896 7.896 0 .531.431.963.963.963zM46.002 28.708a.963.963 0 0 0 .962-.963 5.978 5.978 0 0 1 5.972-5.971 5.978 5.978 0 0 1 5.97 5.971.963.963 0 0 0 1.926 0c0-4.354-3.542-7.896-7.896-7.896-4.355 0-7.897 3.542-7.897 7.896 0 .531.431.963.963.963z"/>
    </g>
</svg>
