<svg xmlns="http://www.w3.org/2000/svg" viewBox="0 0 76 77">
  <g fill="none" fill-rule="evenodd">
    <circle cx="38" cy="38" r="34" fill="#E5CBC0"/>
    <path fill="#000" fill-rule="nonzero"
          d="M38 76.2c20.8 0 37.8-16.9 37.8-37.8S58.8.8 38 .8C17.2.8.2 17.7.2 38.5c0 20.8 17 37.7 37.8 37.7zm0-73.4c19.7 0 35.8 16 35.8 35.8 0 19.8-16.1 35.6-35.8 35.6-19.7 0-35.8-16-35.8-35.8C2.2 18.6 18.3 2.8 38 2.8z"/>
    <path fill="#000" fill-rule="nonzero"
          d="M27.6 31.8c3.1 0 5.6-3 5.6-6.8s-2.5-6.8-5.6-6.8c-3.1 0-5.6 3-5.6 6.8s2.5 6.8 5.6 6.8zm0-11.6c2 0 3.6 2.1 3.6 4.8 0 1.1-.3 2.2-.8 3v-.2c0-1.6-1.3-2.8-2.8-2.8-1.5 0-2.8 1.3-2.8 2.8v.2c-.5-.8-.8-1.8-.8-3-.1-2.6 1.6-4.8 3.6-4.8zM48.4 31.8c3.1 0 5.6-3 5.6-6.8s-2.5-6.8-5.6-6.8c-3.1 0-5.6 3-5.6 6.8s2.5 6.8 5.6 6.8zm0-11.6c2 0 3.6 2.1 3.6 4.8 0 1.1-.3 2.2-.8 3v-.2c0-1.6-1.3-2.8-2.8-2.8-1.5 0-2.8 1.3-2.8 2.8v.2c-.5-.8-.8-1.8-.8-3 0-2.6 1.6-4.8 3.6-4.8zM19.6 45.6l35.9 10h.3c.4 0 .8-.3 1-.7.1-.5-.2-1.1-.7-1.2l-35.9-10c-.5-.1-1.1.2-1.2.7-.2.5.1 1.1.6 1.2z"/>
  </g>
</svg>
