<?xml version="1.0" encoding="UTF-8"?>
<svg width="353px" height="772px" viewBox="0 0 353 772" version="1.1" xmlns="http://www.w3.org/2000/svg" xmlns:xlink="http://www.w3.org/1999/xlink">
    <!-- Generator: Sketch 58 (84663) - https://sketch.com -->
    <title>Onboarding/Background/1</title>
    <desc>Created with Sketch.</desc>
    <g id="Onboarding/Background/1" stroke="none" stroke-width="1" fill="none" fill-rule="evenodd">
        <g id="Group-3-Copy-6" transform="translate(176.500000, 386.000000) rotate(90.000000) translate(-176.500000, -386.000000) translate(-209.000000, 210.000000)" stroke="#000000" stroke-width="2">
            <path d="M29.2861494,18.6823098 C66.4005253,-10.5001735 653.308943,-0.0663292059 709.2324,18.6823098 C765.155856,37.4309488 803.529919,285.507782 729.690332,322.668922 C655.850746,359.830061 80.508553,361.320027 34.2470844,325.67283 C-12.0143843,290.025633 -7.82822647,47.8647931 29.2861494,18.6823098 Z" id="Rectangle"></path>
        </g>
        <g id="Group-3-Copy-6" transform="translate(183.500000, 386.000000) rotate(90.000000) translate(-183.500000, -386.000000) translate(-193.500000, 219.500000)" fill="#F8EBEB">
            <path d="M28.1879957,17.2498837 C64.5311638,-10.436062 639.244082,-0.537286682 694.005493,17.2498837 C748.766903,35.037054 786.343583,270.391999 714.038325,305.647439 C641.733068,340.902879 78.3460376,342.316435 33.0458463,308.4973 C-12.2543451,274.678164 -8.15517242,44.9358293 28.1879957,17.2498837 Z" id="Rectangle"></path>
        </g>
    </g>
</svg>