<?xml version="1.0" encoding="UTF-8"?>
<svg width="154px" height="100px" viewBox="0 0 154 100" version="1.1" xmlns="http://www.w3.org/2000/svg" xmlns:xlink="http://www.w3.org/1999/xlink">
    <!-- Generator: Sketch 58 (84663) - https://sketch.com -->
    <title>Bank-und-Baume</title>
    <desc>Created with Sketch.</desc>
    <g id="App" stroke="none" stroke-width="1" fill="none" fill-rule="evenodd">
        <g id="Room-Playground" transform="translate(-92.000000, -169.000000)">
            <g id="Bank-und-Baume" transform="translate(169.000000, 219.000000) scale(-1, 1) translate(-169.000000, -219.000000) translate(92.000000, 169.000000)">
                <rect id="Rectangle" fill="#F0BC5E" x="67" y="68" width="51" height="13" rx="2"></rect>
                <g id="noun_park-bench_744586" transform="translate(60.000000, 17.000000)">
                    <ellipse id="Oval" fill="#A5B4B3" cx="81.5" cy="29.5" rx="8.5" ry="24.5"></ellipse>
                    <path d="M81.5524339,0 C74.531581,0 69,12.9987163 69,29.7265725 C69,45.6020539 73.9996982,58.0680359 80.4886683,59.3465982 L80.5950448,81.9345315 C80.5950448,82.5738126 81.0205511,83 81.6588104,83 C81.6588104,83 81.6588104,83 81.6588104,83 C82.2970698,83 82.722576,82.4672657 82.722576,81.9345315 L82.6161994,59.3465982 C89.1051695,58.0680359 93.9984912,45.4955071 93.9984912,29.7265725 C94.1048677,13.1052632 88.5732867,0 81.5524339,0 Z M82.6161994,57.1091142 L82.5098229,15.5558408 C82.5098229,14.9165597 82.0843167,14.4903723 81.4460573,14.4903723 C81.4460573,14.4903723 81.4460573,14.4903723 81.4460573,14.4903723 C80.807798,14.4903723 80.3822917,15.0231065 80.3822917,15.5558408 L80.4886683,57.1091142 C75.8080997,55.7240051 71.1275312,45.0693196 71.1275312,29.7265725 C71.1275312,13.21181 76.5527356,2.1309371 81.5524339,2.1309371 C86.5521321,2.1309371 91.9773366,13.21181 91.9773366,29.7265725 C91.9773366,45.0693196 87.296768,55.6174583 82.6161994,57.1091142 Z" id="Shape" fill="#000000" fill-rule="nonzero"></path>
                    <path d="M0.974122702,71.1071429 L2.89489902,71.1071429 L2.89489902,81.9285714 C2.89489902,82.5714286 3.3217382,83 3.96199698,83 C4.60225575,83 5.02909493,82.5714286 5.02909493,81.9285714 L5.02909493,71.1071429 L59.5578004,71.1071429 L59.5578004,81.9285714 C59.5578004,82.5714286 59.9846396,83 60.6248984,83 C61.2651572,83 61.6919963,82.5714286 61.6919963,81.9285714 L61.6919963,71.1071429 L63.932902,71.1071429 C64.5731608,71.1071429 65,70.6785714 65,70.0357143 L65,65.2142857 C65,64.5714286 64.5731608,64.1428571 63.932902,64.1428571 L59.3443808,64.1428571 L59.3443808,45.0714286 C59.3443808,44.4285714 58.9175417,44 58.2772829,44 C57.6370241,44 57.2101849,44.4285714 57.2101849,45.0714286 L57.2101849,46.25 L6.73645166,46.25 L6.73645166,45.0714286 C6.73645166,44.4285714 6.30961248,44 5.6693537,44 C5.02909493,44 4.60225575,44.4285714 4.60225575,45.0714286 L4.60225575,64.1428571 L1.0808325,64.1428571 C0.440573724,64.1428571 0.0137345422,64.5714286 0.0137345422,65.2142857 L0.0137345422,70.0357143 C-0.0929752533,70.5714286 0.440573724,71.1071429 0.974122702,71.1071429 Z M57.2101849,55.0357143 L6.73645166,55.0357143 L6.73645166,52.5714286 L57.2101849,52.5714286 L57.2101849,55.0357143 Z M6.73645166,57.1785714 L57.2101849,57.1785714 L57.2101849,59.5357143 L6.73645166,59.5357143 L6.73645166,57.1785714 Z M57.2101849,48.3928571 L57.2101849,50.4285714 L6.73645166,50.4285714 L6.73645166,48.3928571 L57.2101849,48.3928571 Z M6.73645166,61.6785714 L57.2101849,61.6785714 L57.2101849,64.25 L6.73645166,64.25 L6.73645166,61.6785714 Z M2.04122066,66.2857143 L62.8658041,66.2857143 L62.8658041,68.9642857 L2.04122066,68.9642857 L2.04122066,66.2857143 Z" id="Shape" fill="#000000" fill-rule="nonzero"></path>
                </g>
                <ellipse id="Oval" fill="#A5B4B3" cx="46.5" cy="29.5" rx="8.5" ry="24.5"></ellipse>
                <ellipse id="Oval-Copy" fill="#A5B4B3" cx="12.5" cy="44.5" rx="8.5" ry="24.5"></ellipse>
                <path d="M46.5524339,0 C39.531581,0 34,12.9987163 34,29.7265725 C34,45.6020539 38.9996982,58.0680359 45.4886683,59.3465982 L45.5950448,81.9345315 C45.5950448,82.5738126 46.0205511,83 46.6588104,83 C46.6588104,83 46.6588104,83 46.6588104,83 C47.2970698,83 47.722576,82.4672657 47.722576,81.9345315 L47.6161994,59.3465982 C54.1051695,58.0680359 58.9984912,45.4955071 58.9984912,29.7265725 C59.1048677,13.1052632 53.5732867,0 46.5524339,0 Z M47.6161994,57.1091142 L47.5098229,15.5558408 C47.5098229,14.9165597 47.0843167,14.4903723 46.4460573,14.4903723 C46.4460573,14.4903723 46.4460573,14.4903723 46.4460573,14.4903723 C45.807798,14.4903723 45.3822917,15.0231065 45.3822917,15.5558408 L45.4886683,57.1091142 C40.8080997,55.7240051 36.1275312,45.0693196 36.1275312,29.7265725 C36.1275312,13.21181 41.5527356,2.1309371 46.5524339,2.1309371 C51.5521321,2.1309371 56.9773366,13.21181 56.9773366,29.7265725 C56.9773366,45.0693196 52.296768,55.6174583 47.6161994,57.1091142 Z" id="Shape" fill="#000000" fill-rule="nonzero"></path>
                <path d="M12.5524339,15 C5.53158102,15 0,27.9987163 0,44.7265725 C0,60.6020539 4.99969823,73.0680359 11.4886683,74.3465982 L11.5950448,96.9345315 C11.5950448,97.5738126 12.0205511,98 12.6588104,98 C12.6588104,98 12.6588104,98 12.6588104,98 C13.2970698,98 13.722576,97.4672657 13.722576,96.9345315 L13.6161994,74.3465982 C20.1051695,73.0680359 24.9984912,60.4955071 24.9984912,44.7265725 C25.1048677,28.1052632 19.5732867,15 12.5524339,15 Z M13.6161994,72.1091142 L13.5098229,30.5558408 C13.5098229,29.9165597 13.0843167,29.4903723 12.4460573,29.4903723 C12.4460573,29.4903723 12.4460573,29.4903723 12.4460573,29.4903723 C11.807798,29.4903723 11.3822917,30.0231065 11.3822917,30.5558408 L11.4886683,72.1091142 C6.80809972,70.7240051 2.12753116,60.0693196 2.12753116,44.7265725 C2.12753116,28.21181 7.55273563,17.1309371 12.5524339,17.1309371 C17.5521321,17.1309371 22.9773366,28.21181 22.9773366,44.7265725 C22.9773366,60.0693196 18.296768,70.6174583 13.6161994,72.1091142 Z" id="Shape-Copy" fill="#000000" fill-rule="nonzero"></path>
            </g>
        </g>
    </g>
</svg>