<?xml version="1.0" encoding="UTF-8"?>
<svg viewBox="0 0 72 77" version="1.1" xmlns="http://www.w3.org/2000/svg" xmlns:xlink="http://www.w3.org/1999/xlink">
    <!-- Generator: Sketch 58 (84663) - https://sketch.com -->
    <title>Fischerrute</title>
    <desc>Created with Sketch.</desc>
    <g id="App" stroke="none" stroke-width="1" fill="none" fill-rule="evenodd">
        <g id="Feedback-after-Room-Copy" transform="translate(-149.000000, -495.000000)">
            <g id="Fischerrute" transform="translate(149.000000, 495.000000)">
                <path d="M18.2,56.6503907 C23.5,59.1629037 32.6419635,55.8 31.9343259,49.8 C31.2266884,43.8 30.1266884,41.2994195 23.3,40.7650445 C16.4733116,40.2306695 13.3823629,44.2383678 14,49 C14.5171833,52.9871907 15.4713858,55.3568663 18.2,56.6503907 Z" id="Oval" fill="#AEC6CF"></path>
                <g id="noun_Fishing_878392" fill="#000000" fill-rule="nonzero">
                    <circle id="Oval" cx="23.3" cy="45.4" r="1"></circle>
                    <circle id="Oval" cx="23.3" cy="52.1" r="1"></circle>
                    <circle id="Oval" cx="26.6" cy="48.7" r="1"></circle>
                    <circle id="Oval" cx="19.9" cy="48.7" r="1"></circle>
                    <circle id="Oval" cx="23.3" cy="48.7" r="1.1"></circle>
                    <path d="M2.5,75.2 C2.5,75.2 2.5,75.2 2.5,75.2 L3.3,75.6 C3.6,75.7 4,75.8 4.3,75.8 C4.6,75.8 5,75.7 5.3,75.6 C6,75.3 6.5,74.8 6.7,74.2 L9.8,66.9 C10.3,65.7 9.9,64.4 8.8,63.7 C11.1,58.5 13.6,53.7 16.2,49.2 C16.4,52.9 19.4,55.8 23.1,55.8 C26.9,55.8 30.1,52.7 30.1,48.8 C30.1,44.9 27,41.8 23.1,41.8 C22.1,41.8 21.2,42 20.3,42.4 C33.4,22.6 47.9,10.5 55,5.3 C55,5.3 55,5.3 55.1,5.3 C55.2,5.3 64.7,9 67.6,17.2 C69.3,22 68.5,27.4 65.1,33.2 C54.5,51.6 62.2,62.3 64.6,65 L63,64.7 C62.5,64.6 61.9,64.9 61.8,65.5 C61.7,66 62,66.6 62.6,66.7 L66.7,67.5 L68.9,70 C69.4,70.6 69.6,71.3 69.6,72 C69.6,72.7 69.2,73.4 68.7,73.9 C67.6,74.9 65.8,74.8 64.8,73.7 C64.4,73.3 63.8,73.2 63.4,73.6 C63,74 62.9,74.6 63.3,75 C64.2,76.1 65.6,76.6 66.9,76.6 C68,76.6 69.1,76.2 70.1,75.4 C71.1,74.6 71.6,73.4 71.7,72.1 C71.8,70.8 71.4,69.6 70.5,68.7 L68.2,66 L68.9,62.4 C69,61.9 68.7,61.3 68.1,61.2 C67.6,61.1 67,61.4 66.9,62 L66.5,64.1 C66,63.6 55.5,53.9 66.7,34.2 C70.4,27.8 71.2,21.8 69.3,16.5 C66.7,9.1 59.5,5.2 56.7,3.9 C58.3,2.8 59.2,2.2 59.2,2.2 C59.7,1.9 59.8,1.3 59.5,0.8 C59.2,0.3 58.6,0.2 58.1,0.5 C58,0.7 26,20.1 7,62.9 C6.5,62.8 6,62.9 5.5,63.1 C4.8,63.4 4.3,63.9 4.1,64.5 L1,71.8 C0.5,73.1 1.1,74.7 2.5,75.2 Z M28.2,48.8 C28.2,51.5 26,53.8 23.2,53.8 C20.5,53.8 18.2,51.6 18.2,48.8 C18.2,46.1 20.4,43.8 23.2,43.8 C26,43.8 28.2,46 28.2,48.8 Z M2.9,72.5 L6,65.2 C6.1,65 6.2,64.9 6.4,64.8 C6.6,64.7 6.7,64.7 6.9,64.8 L7.7,65.2 C8,65.3 8.2,65.7 8.1,66.1 L5,73.4 C4.9,73.6 4.8,73.7 4.6,73.8 C4.4,73.9 4.3,73.9 4.1,73.8 L3.3,73.4 C2.9,73.3 2.7,72.9 2.9,72.5 Z" id="Shape"></path>
                </g>
            </g>
        </g>
    </g>
</svg>
