<?xml version="1.0" encoding="UTF-8"?>
<svg viewBox="0 0 27 38" version="1.1" xmlns="http://www.w3.org/2000/svg" xmlns:xlink="http://www.w3.org/1999/xlink">
    <!-- Generator: Sketch 58 (84663) - https://sketch.com -->
    <title>Icon/Avatar/Heidi</title>
    <desc>Created with Sketch.</desc>
    <g id="Icon/Avatar/Heidi" stroke="none" stroke-width="1" fill="none" fill-rule="evenodd">
        <g id="Heidi" transform="translate(1.000000, 1.000000)">
            <path d="M16,16.6231741 C19.6628635,15.6236926 21.4381213,12.9441506 21.3257734,8.58454799 C21.1572515,2.04514415 21.4877273,2.25198608 20.9906947,0.9035425 C20.4936621,-0.444901083 23.9890435,-0.148371289 23.9890435,0.9035425 C23.9890435,1.95545629 23.9890435,1.7300091 23.9890435,5.60674756 C23.9890435,9.48348602 24.2326602,12.1851951 22.4223947,15.055138 C21.215551,16.9684332 19.2951315,18.2833872 16.6611361,19 L16,16.6231741 Z" id="Path-67" stroke="#000000" stroke-width="0.9"></path>
            <path d="M0,16.6231741 C3.66286353,15.6236926 5.43812133,12.9441506 5.3257734,8.58454799 C5.1572515,2.04514415 5.48772728,2.25198608 4.99069467,0.9035425 C4.49366206,-0.444901083 7.98904354,-0.148371289 7.98904354,0.9035425 C7.98904354,1.95545629 7.98904354,1.7300091 7.98904354,5.60674756 C7.98904354,9.48348602 8.23266018,12.1851951 6.42239467,15.055138 C5.215551,16.9684332 3.29513146,18.2833872 0.66113607,19 L0,16.6231741 Z" id="Path-67" stroke="#000000" stroke-width="0.9" transform="translate(4.000000, 9.500000) scale(-1, 1) translate(-4.000000, -9.500000) "></path>
            <polygon id="Path-29" fill="#B6A6B9" points="8.23314521 35.1656138 8.62913902 36.1912229 10.1408547 36.1912229 10.5072056 35"></polygon>
            <polygon id="Path-29-Copy" fill="#B6A6B9" points="13.3171806 35 13.4880115 36.1912229 15.2549568 36.1912229 15.5118813 35"></polygon>
            <polygon id="Path-26" fill="#DBA889" points="8.40775067 1.61373391 6.29206522 3.80949433 5.67324637 6.06682171 5.67324637 7.69621333 7.55929619 11.5 8 6.80686695 10.7410005 6.80686695 13.6382979 4.98927039 13.6382979 6.5 14.5119093 6.21624559 15.4546365 4.98927039 16.5786893 12 18.6548334 6.80686695 17.9322594 3.80949433 15.6923894 1.95400982 13.0742027 1 9.65686422 1"></polygon>
            <g id="noun_girl_1100583" transform="translate(5.000000, 0.000000)">
                <polygon id="Path-68" stroke="#99D8EF" fill="#99D8EF" points="3.58410919 15.7743988 3.09681156 15.9299047 2.24980005 20.3359037 0.673246368 29.2256546 2 31.3768188 4.19362313 32.2839362 7.16403989 32.2839362 11 32.154348 12.1762566 30.780713 12.6686918 28.8887252 12.1762566 25.7008554 10.6923894 16.8888574 10.1028453 15.9299047 9.10991253 17.036969 7.16403989 18.2365747 5.85235216 17.7441396 4.19362313 15.7743988"></polygon>
                <path d="M11.207016,12.8606327 C11.554389,12.8606327 11.9596574,12.3266494 13.9924326,7.1540888 C14.0025225,7.10095085 14.0025225,7.04638842 13.9924326,6.99325047 C13.9924326,3.13098488 10.8617885,0 6.99994339,0 C3.13809823,0 0.00745417496,3.13098488 0.00745417496,6.99325047 C-0.00248472499,7.04640252 -0.00248472499,7.10093675 0.00745417496,7.1540888 C2.31684114,12.9442686 2.52269178,12.9056674 2.92796025,12.828465 C3.16271823,12.7805543 3.32528653,12.5656101 3.30749738,12.3266494 L3.30749738,11.9213368 C3.8415481,12.3384378 4.44466621,12.658539 5.08939206,12.8670662 L5.08939206,14.3532123 L4.51686994,14.3532123 C3.99643136,14.3500853 3.48727821,14.5048668 3.0566169,14.7971261 C2.30606551,14.7971261 1.31755354,19.4142584 0.0910810008,28.6485229 C-0.208806798,30.5458478 0.866322142,32.3925828 2.6642141,33.0683601 L2.6642141,35.191426 C2.62563811,35.8126153 2.93510341,36.4038597 3.46749881,36.7261298 C3.99989422,37.0483999 4.6671742,37.0483999 5.1995696,36.7261298 C5.731965,36.4038597 6.0414303,35.8126153 6.00285431,35.191426 L6.00285431,33.3321349 L7.73328632,33.3321349 L7.73328632,35.2235937 C7.69471033,35.844783 8.00417563,36.4360274 8.53657103,36.7582974 C9.06896643,37.0805675 9.73624641,37.0805675 10.2686418,36.7582974 C10.8010372,36.4360274 11.1105025,35.844783 11.0719265,35.2235937 L11.0719265,33.139129 C12.8700263,32.5556713 13.9809839,30.7556151 13.6965223,28.8865636 L13.0017764,24.3830904 C12.6761419,22.7618401 11.7530873,14.678155 10.6795237,14.8099932 C10.2488624,14.5177338 9.73970927,14.3629524 9.21927069,14.3660794 L8.64674857,14.3660794 L8.64674857,12.8799332 C9.3880054,12.6435701 10.0731708,12.2582594 10.6602252,11.7476314 L10.6602252,12.3395165 C10.6373522,12.5972477 10.8218189,12.8271466 11.0783594,12.8606327 L11.207016,12.8606327 Z M2.52912462,6.78737741 L2.52912462,10.7311332 C2.07882632,9.71463497 1.48057288,8.28639062 0.940214925,6.93534867 C1.14935765,3.71358721 3.82321337,1.20742346 7.05140605,1.20742346 C10.2795987,1.20742346 12.9534544,3.71358721 13.1625972,6.93534867 C12.6222392,8.30569122 12.0239858,9.75323617 11.5736875,10.7954685 C11.5736875,8.43436188 11.5736875,4.23969831 11.5736875,4.15606238 C11.5736875,3.91444871 11.3778422,3.71858213 11.1362549,3.71858213 C10.9840497,3.70026056 10.836924,3.78028503 10.7695834,3.91802165 C10.7382652,3.96479526 10.716411,4.01725103 10.7052551,4.07242645 C10.7052551,4.15606238 10.3192851,6.00248637 8.89762905,6.33059656 L8.89762905,4.11746118 C8.88515855,3.90093018 8.71593904,3.72622672 8.49993716,3.70688116 C8.28393529,3.6875356 8.08637048,3.82938913 8.03562946,4.04025878 C8.03562946,4.04025878 7.58533117,6.35633069 5.79057083,6.35633069 L2.93439308,6.35633069 C2.70790379,6.37301489 2.53185081,6.56026621 2.52912462,6.78737741 Z M4.38178045,36.0149182 C4.04128409,36.0138983 3.73897552,35.7968326 3.62913902,35.4745015 L5.14085472,35.4745015 C5.03248422,35.8016171 4.72634515,36.022165 4.38178045,36.0213518 L4.38178045,36.0149182 Z M5.18588455,34.6059745 L3.58410919,34.6059745 L3.58410919,33.2871002 C3.76939838,33.3150128 3.95639776,33.3300604 4.14376564,33.3321349 L5.19231738,33.3321349 L5.18588455,34.6059745 Z M9.45085267,36.0149182 C9.1103563,36.0138983 8.80804774,35.7968326 8.69821123,35.4745015 L10.2099269,35.4745015 C10.1015564,35.8016171 9.79541736,36.022165 9.45085267,36.0213518 L9.45085267,36.0149182 Z M10.2485239,34.612408 L8.6531814,34.612408 L8.6531814,33.3257014 L9.93974796,33.3257014 L10.2549568,33.3257014 L10.2485239,34.612408 Z M12.1783738,31.3956415 C11.6122338,32.0574142 10.7848565,32.4382373 9.91401663,32.4378741 L4.12446714,32.4378741 C3.19598233,32.4289859 2.31663788,32.0192363 1.71256338,31.313995 C1.10848887,30.6087537 0.838628622,29.6768367 0.972379089,28.7578929 L2.84433342,16.6821513 C2.93434589,16.0972045 3.31804945,15.5993071 3.860721,15.363277 C4.1391002,16.8260578 5.41778966,17.8844451 6.90666731,17.8844451 C8.39554496,17.8844451 9.67423442,16.8260578 9.95261362,15.363277 C10.4952852,15.5993071 10.8789887,16.0972045 10.9690012,16.6821513 L12.898851,28.9959336 C13.0310202,29.871321 12.7669949,30.7601456 12.1783738,31.4213756 L12.1783738,31.3956415 Z M9.10991253,15.2346064 C8.9043552,16.2817453 7.98654523,17.036969 6.91953298,17.036969 C5.85252072,17.036969 4.93471075,16.2817453 4.72915342,15.2346064 L5.58472018,15.2346064 C5.82379165,15.2310898 6.01574583,15.0362495 6.01571997,14.7971261 L6.01571997,13.0858063 C6.31359902,13.1329764 6.61472667,13.156639 6.91631656,13.1565752 C7.21788996,13.1562213 7.51898514,13.1325612 7.81691315,13.0858063 L7.81691315,14.7971261 C7.81691315,15.0387398 8.0127584,15.2346064 8.25434577,15.2346064 L9.10991253,15.2346064 Z M3.36539288,10.7311332 L3.36539288,7.22485766 L5.79057083,7.22485766 C6.67184356,7.22183636 7.49970102,6.80189753 8.02276379,6.09255584 L8.02276379,6.78737741 C8.02233044,6.90343883 8.0687138,7.01477102 8.15142045,7.096187 C8.23625323,7.17692238 8.3495504,7.22085872 8.46662925,7.21842413 C9.34606588,7.1969802 10.1668088,6.77232998 10.6923894,6.06682171 L10.6923894,10.4930925 C9.76762253,11.6288542 8.3808532,12.2880482 6.91631656,12.2880482 C5.56919331,12.2784281 4.28523941,11.715474 3.36539288,10.7311332 Z" id="Shape" fill="#000000" fill-rule="nonzero"></path>
                <path d="M5.36170213,8.27235772 C5.10720882,8.29831189 4.91489362,8.49252568 4.91489362,8.72357724 C4.91489362,8.95462879 5.10720882,9.14884258 5.36170213,9.17479675 C5.61619543,9.14884258 5.80851064,8.95462879 5.80851064,8.72357724 C5.80851064,8.49252568 5.61619543,8.29831189 5.36170213,8.27235772 L5.36170213,8.27235772 Z" id="Path" fill="#000000" fill-rule="nonzero"></path>
                <path d="M8.19148936,8.27235772 C7.93699606,8.29831189 7.74468085,8.49252568 7.74468085,8.72357724 C7.74468085,8.95462879 7.93699606,9.14884258 8.19148936,9.17479675 C8.44598267,9.14884258 8.63829787,8.95462879 8.63829787,8.72357724 C8.63829787,8.49252568 8.44598267,8.29831189 8.19148936,8.27235772 L8.19148936,8.27235772 Z" id="Path" fill="#000000" fill-rule="nonzero"></path>
            </g>
        </g>
    </g>
</svg>
