<?xml version="1.0" encoding="UTF-8"?>
<svg width="103px" height="49px" viewBox="0 0 103 49" version="1.1" xmlns="http://www.w3.org/2000/svg" xmlns:xlink="http://www.w3.org/1999/xlink">
    <!-- Generator: Sketch 58 (84663) - https://sketch.com -->
    <title>Lake</title>
    <desc>Created with Sketch.</desc>
    <g id="App" stroke="none" stroke-width="1" fill="none" fill-rule="evenodd">
        <g id="Room-Playground" transform="translate(-175.000000, -620.000000)">
            <g id="Lake" transform="translate(174.000000, 618.344780)">
                <path d="M31.7813522,51.6192062 C27.2579205,40.2229131 28.1761443,26.4806244 30.7767577,13.6687196 C35.072318,-7.49186962 42.2089205,-20.7350879 51.9923845,-24.3954239 C59.6658938,-27.26599 66.0138284,-19.7340326 70.7164332,-5.6347445 C77.0809068,13.4465057 78.3614585,34.9174658 74.2015798,57.3129813 C72.0717169,68.7799457 67.4554827,73.3859657 62.6150524,76.1960605 C60.7534898,77.2772585 58.8064754,77.5242437 57.3586955,78 C47.0625208,76.8597878 38.5072348,68.564289 31.7813522,51.6192062 Z" id="Fill" fill="#AEC6CF" transform="translate(52.607440, 26.500000) rotate(92.000000) translate(-52.607440, -26.500000) "></path>
                <g id="noun_Park_1034820" transform="translate(16.000000, 16.655220)" fill="#000000" fill-rule="nonzero">
                    <path d="M5.3,15.1 C7,15.1 8.6,14.2 9.5,12.9 C10.5,14.2 12,15.1 13.7,15.1 C15.4,15.1 17,14.2 17.9,12.9 C18.9,14.2 20.4,15.1 22.1,15.1 C23.8,15.1 25.4,14.2 26.3,12.9 C27.3,14.2 28.8,15.1 30.5,15.1 C32.2,15.1 33.8,14.2 34.7,12.9 C35.7,14.2 37.2,15.1 38.9,15.1 C40.6,15.1 42.2,14.2 43.1,12.9 C44.1,14.2 45.6,15.1 47.3,15.1 C49,15.1 50.6,14.2 51.5,12.9 C52.5,14.2 54,15.1 55.7,15.1 C57.4,15.1 59,14.2 59.9,12.9 C60.9,14.2 62.4,15.1 64.1,15.1 C65.8,15.1 67.4,14.2 68.3,12.9 C69.3,14.2 70.8,15.1 72.5,15.1 C75.4,15.1 77.7,12.8 77.7,9.9 C77.7,9.3 77.3,8.9 76.7,8.9 C76.1,8.9 75.7,9.3 75.7,9.9 C75.7,11.7 74.3,13.1 72.5,13.1 C70.7,13.1 69.3,11.7 69.3,9.9 C69.3,9.3 68.9,8.9 68.3,8.9 C67.7,8.9 67.3,9.3 67.3,9.9 C67.3,11.7 65.9,13.1 64.1,13.1 C62.3,13.1 60.9,11.7 60.9,9.9 C60.9,9.3 60.5,8.9 59.9,8.9 C59.3,8.9 58.9,9.3 58.9,9.9 C58.9,11.7 57.5,13.1 55.7,13.1 C53.9,13.1 52.5,11.7 52.5,9.9 C52.5,9.3 52.1,8.9 51.5,8.9 C50.9,8.9 50.5,9.3 50.5,9.9 C50.5,11.7 49.1,13.1 47.3,13.1 C45.5,13.1 44.1,11.7 44.1,9.9 C44.1,9.3 43.7,8.9 43.1,8.9 C42.5,8.9 42.1,9.3 42.1,9.9 C42.1,11.7 40.7,13.1 38.9,13.1 C37.1,13.1 35.7,11.7 35.7,9.9 C35.7,9.3 35.3,8.9 34.7,8.9 C34.1,8.9 33.7,9.3 33.7,9.9 C33.7,11.7 32.3,13.1 30.5,13.1 C28.7,13.1 27.3,11.7 27.3,9.9 C27.3,9.3 26.9,8.9 26.3,8.9 C25.7,8.9 25.3,9.3 25.3,9.9 C25.3,11.7 23.9,13.1 22.1,13.1 C20.3,13.1 19,11.6 19,9.8 C19,9.2 18.6,8.8 18,8.8 C17.4,8.8 17,9.2 17,9.8 C17,11.6 15.6,13 13.8,13 C12,13 10.6,11.6 10.6,9.8 C10.6,9.2 10.2,8.8 9.6,8.8 C9,8.8 8.6,9.2 8.6,9.8 C8.6,11.6 7.2,13 5.4,13 C3.6,13 2.2,11.6 2.2,9.8 C2.2,9.2 1.8,8.8 1.2,8.8 C0.6,8.8 0.2,9.2 0.2,9.8 C0.1,12.7 2.4,15.1 5.3,15.1 Z" id="Path"></path>
                    <path d="M5.3,6.7 C7,6.7 8.6,5.8 9.5,4.5 C10.5,5.8 12,6.7 13.7,6.7 C15.4,6.7 17,5.8 17.9,4.5 C18.9,5.8 20.4,6.7 22.1,6.7 C23.8,6.7 25.4,5.8 26.3,4.5 C27.3,5.8 28.8,6.7 30.5,6.7 C32.2,6.7 33.8,5.8 34.7,4.5 C35.7,5.8 37.2,6.7 38.9,6.7 C40.6,6.7 42.2,5.8 43.1,4.5 C44.1,5.8 45.6,6.7 47.3,6.7 C49,6.7 50.6,5.8 51.5,4.5 C52.5,5.8 54,6.7 55.7,6.7 C57.4,6.7 59,5.8 59.9,4.5 C60.9,5.8 62.4,6.7 64.1,6.7 C65.8,6.7 67.4,5.8 68.3,4.5 C69.3,5.8 70.8,6.7 72.5,6.7 C75.4,6.7 77.7,4.4 77.7,1.5 C77.7,0.9 77.3,0.5 76.7,0.5 C76.1,0.5 75.7,0.9 75.7,1.5 C75.7,3.3 74.3,4.7 72.5,4.7 C70.7,4.7 69.3,3.3 69.3,1.5 C69.3,0.9 68.9,0.5 68.3,0.5 C67.7,0.5 67.3,0.9 67.3,1.5 C67.3,3.3 65.9,4.7 64.1,4.7 C62.3,4.7 60.9,3.3 60.9,1.5 C60.9,0.9 60.5,0.5 59.9,0.5 C59.3,0.5 58.9,0.9 58.9,1.5 C58.9,3.3 57.5,4.7 55.7,4.7 C53.9,4.7 52.5,3.3 52.5,1.5 C52.5,0.9 52.1,0.5 51.5,0.5 C50.9,0.5 50.5,0.9 50.5,1.5 C50.5,3.3 49.1,4.7 47.3,4.7 C45.5,4.7 44.1,3.3 44.1,1.5 C44.1,0.9 43.7,0.5 43.1,0.5 C42.5,0.5 42.1,0.9 42.1,1.5 C42.1,3.3 40.7,4.7 38.9,4.7 C37.1,4.7 35.7,3.3 35.7,1.5 C35.7,0.9 35.3,0.5 34.7,0.5 C34.1,0.5 33.7,0.9 33.7,1.5 C33.7,3.3 32.3,4.7 30.5,4.7 C28.7,4.7 27.3,3.3 27.3,1.5 C27.3,0.9 26.9,0.5 26.3,0.5 C25.7,0.5 25.3,0.9 25.3,1.5 C25.3,3.3 23.9,4.7 22.1,4.7 C20.3,4.7 19,3.2 19,1.4 C19,0.8 18.6,0.4 18,0.4 C17.4,0.4 17,0.8 17,1.4 C17,3.2 15.6,4.6 13.8,4.6 C12,4.6 10.6,3.2 10.6,1.4 C10.6,0.8 10.2,0.4 9.6,0.4 C9,0.4 8.6,0.8 8.6,1.4 C8.6,3.2 7.2,4.6 5.4,4.6 C3.6,4.6 2.2,3.2 2.2,1.4 C2.2,0.8 1.8,0.4 1.2,0.4 C0.6,0.4 0.2,0.8 0.2,1.4 C0.1,4.3 2.4,6.7 5.3,6.7 Z" id="Path"></path>
                    <path d="M5.3,23 C7,23 8.6,22.1 9.5,20.8 C10.5,22.1 12,23 13.7,23 C15.4,23 17,22.1 17.9,20.8 C18.9,22.1 20.4,23 22.1,23 C23.8,23 25.4,22.1 26.3,20.8 C27.3,22.1 28.8,23 30.5,23 C32.2,23 33.8,22.1 34.7,20.8 C35.7,22.1 37.2,23 38.9,23 C40.6,23 42.2,22.1 43.1,20.8 C44.1,22.1 45.6,23 47.3,23 C49,23 50.6,22.1 51.5,20.8 C52.5,22.1 54,23 55.7,23 C57.4,23 59,22.1 59.9,20.8 C60.9,22.1 62.4,23 64.1,23 C65.8,23 67.4,22.1 68.3,20.8 C69.3,22.1 70.8,23 72.5,23 C75.4,23 77.7,20.7 77.7,17.8 C77.7,17.2 77.3,16.8 76.7,16.8 C76.1,16.8 75.7,17.2 75.7,17.8 C75.7,19.6 74.3,21 72.5,21 C70.7,21 69.3,19.6 69.3,17.8 C69.3,17.2 68.9,16.8 68.3,16.8 C67.7,16.8 67.3,17.2 67.3,17.8 C67.3,19.6 65.9,21 64.1,21 C62.3,21 60.9,19.6 60.9,17.8 C60.9,17.2 60.5,16.8 59.9,16.8 C59.3,16.8 58.9,17.2 58.9,17.8 C58.9,19.6 57.5,21 55.7,21 C53.9,21 52.5,19.6 52.5,17.8 C52.5,17.2 52.1,16.8 51.5,16.8 C50.9,16.8 50.5,17.2 50.5,17.8 C50.5,19.6 49.1,21 47.3,21 C45.5,21 44.1,19.6 44.1,17.8 C44.1,17.2 43.7,16.8 43.1,16.8 C42.5,16.8 42.1,17.2 42.1,17.8 C42.1,19.6 40.7,21 38.9,21 C37.1,21 35.7,19.6 35.7,17.8 C35.7,17.2 35.3,16.8 34.7,16.8 C34.1,16.8 33.7,17.2 33.7,17.8 C33.7,19.6 32.3,21 30.5,21 C28.7,21 27.3,19.6 27.3,17.8 C27.3,17.2 26.9,16.8 26.3,16.8 C25.7,16.8 25.3,17.2 25.3,17.8 C25.3,19.6 23.9,21 22.1,21 C20.3,21 19,19.5 19,17.8 C19,17.2 18.6,16.8 18,16.8 C17.4,16.8 17,17.2 17,17.8 C17,19.6 15.6,21 13.8,21 C12,21 10.6,19.6 10.6,17.8 C10.6,17.2 10.2,16.8 9.6,16.8 C9,16.8 8.6,17.2 8.6,17.8 C8.6,19.6 7.2,21 5.4,21 C3.6,21 2.2,19.6 2.2,17.8 C2.2,17.2 1.8,16.8 1.2,16.8 C0.6,16.8 0.2,17.2 0.2,17.8 C0.1,20.6 2.4,23 5.3,23 Z" id="Path"></path>
                </g>
            </g>
        </g>
    </g>
</svg>