<?xml version="1.0" encoding="UTF-8"?>
<svg viewBox="0 0 16 39" version="1.1" xmlns="http://www.w3.org/2000/svg" xmlns:xlink="http://www.w3.org/1999/xlink">
    <!-- Generator: Sketch 58 (84663) - https://sketch.com -->
    <title>Icon/Avatar/Lilly</title>
    <desc>Created with Sketch.</desc>
    <g id="App" stroke="none" stroke-width="1" fill="none" fill-rule="evenodd">
        <g id="Room-Playground" transform="translate(-150.000000, -386.000000)">
            <g id="Icon/Avatar/Lilly" transform="translate(150.000000, 386.000000)">
                <g id="Lilly">
                    <polygon id="Hair-Girl" fill="#EACD9C" points="3.45968343 2.28061733 1.79111081 4.50457013 1.14285714 7.00667128 1.18319374 19.3567859 3.7512454 12.647613 3.7512454 7.00667128 7.03767646 7.00667128 9.10715912 4.95366521 9.43905937 7.00667128 11.1221037 6.25429122 12.2802753 4.55122936 12.2802753 10.6519235 12.2802753 12.3607044 14.6516437 19.5 14.6938776 6.45842534 14.0784706 3.80501064 11.5479309 1.40225276 8.13350341 0.475609756 5.59550766 0.736837393"></polygon>
                    <polygon id="Path-17" fill="#FFFFFF" points="3.80563344 7.15615657 3.80563344 11.7854154 6.34238165 13.0807584 6.49056604 15.5365854 4.98653347 15.7712077 6.11292536 17.8562621 8.35428541 18.3258361 10.5192688 17.1366687 10.8691651 15.5365854 9.55705396 15.3953878 9.55705396 13.0807584 12.42183 11.4881235 12.42183 4.75658664 10.2641509 6.85886472 9.55705396 6.85886472 9.22902618 4.9264677 7.6544928 6.85886472"></polygon>
                    <polygon id="Path-18" fill="#FFFFFF" points="4.00245011 34.8255337 4.00245011 37.0339875 6.47359277 37.0339875 6.47359277 35.0803553 4.92092791 35.0803553 4.92092791 34.7191364"></polygon>
                    <polygon id="Path-18" fill="#FFFFFF" transform="translate(10.789042, 35.876562) scale(-1, 1) translate(-10.789042, -35.876562) " points="9.55347052 34.8255337 9.55347052 37.0339875 12.0246132 37.0339875 12.0246132 35.0803553 10.4719483 35.0803553 10.4719483 34.7191364"></polygon>
                    <polygon id="Path-19" fill="#B6A6B9" points="4.21156783 37.288809 6.47359277 37.288809 5.87357528 38.5204467 4.67080673 38.5204467"></polygon>
                    <polygon id="Path-19" fill="#B6A6B9" points="9.63265306 37.2560976 11.894678 37.2560976 11.2946605 38.4877352 10.091892 38.4877352"></polygon>
                    <polygon id="Path-4" fill="#FFFFFF" points="2.66389007 16.9020558 1.14285714 20.0759203 1.66450843 24.4655752 3.44840425 16.8148578"></polygon>
                    <polygon id="Path-4" fill="#FFFFFF" transform="translate(13.724202, 20.640217) scale(-1, 1) translate(-13.724202, -20.640217) " points="14.0924615 16.9020558 12.5714286 20.0759203 13.0930799 24.4655752 14.8769757 16.8148578"></polygon>
                    <g id="Girl">
                        <polygon id="Path-7" fill="#E29F9F" points="4.49148779 15.7081478 3.0893518 16.8719852 0.653061224 35.2812033 4.49148779 35.2812033 5.33530718 35.6707317 11.1468753 35.6707317 11.9335942 35.2812033 15.3469388 35.2812033 12.6568679 17.0627703 11.4514117 15.5365854 10.2142328 16.8719852 9.02803262 18.1654623 6.46859459 18.1654623 5.03711536 16.8719852"></polygon>
                        <g id="noun_girl_1080134" fill="#000000" fill-rule="nonzero">
                            <path d="M12.5125238,24.3 L3.48747617,24.3 C3.22867098,24.3 3.01886792,24.0985281 3.01886792,23.85 C3.01886792,23.6014719 3.22867098,23.4 3.48747617,23.4 L12.5125238,23.4 C12.771329,23.4 12.9811321,23.6014719 12.9811321,23.85 C12.9811321,24.0985281 12.771329,24.3 12.5125238,24.3 L12.5125238,24.3 Z" id="Path"></path>
                            <path d="M6.54714544,9.64430894 C6.86216604,9.64430894 7.11754069,9.39588156 7.11754069,9.08943089 C7.11754069,8.78298023 6.86216604,8.53455285 6.54714544,8.53455285 C6.23212484,8.53455285 5.97675019,8.78298023 5.97675019,9.08943089 C5.97675019,9.39588156 6.23212484,9.64430894 6.54714544,9.64430894 Z" id="Path"></path>
                            <path d="M9.81245156,9.64430894 C10.1274722,9.64430894 10.3828468,9.39588156 10.3828468,9.08943089 C10.3828468,8.78298023 10.1274722,8.53455285 9.81245156,8.53455285 C9.49743096,8.53455285 9.24205632,8.78298023 9.24205632,9.08943089 C9.24205632,9.39588156 9.49743096,9.64430894 9.81245156,9.64430894 Z" id="Path"></path>
                            <path d="M15.9864957,34.6630858 L14.5800243,25.6879854 C14.9527023,25.1920311 15.1535289,24.5898672 15.1525076,23.9714362 L15.1525076,21.6383305 L15.23732,21.6383305 C15.4654617,21.600689 15.6327973,21.4051846 15.6331109,21.1759131 L15.6331109,7.21931677 C15.5086125,3.19687748 12.183268,0 8.12368467,0 C4.06410137,0 0.738756836,3.19687748 0.614258442,7.21931677 L0.366889107,21.1689068 C0.366027032,21.397584 0.5291849,21.5946141 0.755612347,21.6383305 L0.847492386,21.6383305 L0.847492386,23.9574235 C0.842888462,24.580723 1.04392352,25.1884326 1.4199757,25.6879854 L0.00643664856,34.6700921 C-0.0166124207,34.8072951 0.0229041331,34.9475663 0.114329596,35.0530776 C0.205755059,35.158589 0.339674256,35.2184749 0.479972232,35.2165853 L3.47667503,35.2165853 L3.47667503,37.2133875 C3.47667503,38.2001063 4.28357534,39 5.27893732,39 C6.2742993,39 7.08119961,38.2001063 7.08119961,37.2133875 L7.08119961,35.6719964 L8.91880039,35.6719964 L8.91880039,37.2133875 C8.91880039,38.2001063 9.7257007,39 10.7210627,39 C11.7164247,39 12.523325,38.2001063 12.523325,37.2133875 L12.523325,35.2025727 L15.5200278,35.2025727 C15.6603257,35.2044622 15.7942449,35.1445764 15.8856704,35.039065 C15.9770959,34.9335536 16.0166124,34.7932824 15.9935634,34.6560795 L15.9864957,34.6630858 Z M13.2866361,17.3854921 C13.2611335,17.2211321 13.2209246,17.0593484 13.1664852,16.9020558 C13.51987,17.9740233 13.8732548,19.0670097 14.2054364,19.9217812 L14.2054364,23.2497849 L13.2866361,17.3854921 Z M6.58646095,7.47154442 C7.5249866,7.47265099 8.40956433,7.03679707 8.97534195,6.29448207 L8.97534195,6.99511442 C8.97486582,7.12150902 9.02582681,7.24275334 9.11669585,7.33141795 C9.1975816,7.4089664 9.30182429,7.45817473 9.41353905,7.47154442 C10.4813532,7.43657755 11.4593717,6.87014256 12.0144509,5.96518487 L12.0144509,10.9747061 L12.0144509,10.9747061 C11.0574755,12.1143283 9.65460666,12.793924 8.15960525,12.8421198 C6.66460383,12.8903155 5.22015771,12.3025114 4.19051225,11.2269338 L4.19051225,7.47154442 L6.58646095,7.47154442 Z M3.90780444,15.5288164 C3.75323532,15.5417318 3.59974175,15.5651412 3.44840425,15.5988796 C3.79357106,14.7239095 4.05389511,13.818341 4.22585073,12.8944388 L4.22585073,12.4810657 C4.79217263,12.9182791 5.43064456,13.2548923 6.11292536,13.4759636 L6.11292536,15.0383738 L5.17292189,15.0383738 C5.09098318,15.0390343 5.0106196,15.0607613 4.93968795,15.1014307 C4.56326384,15.1683851 4.20478656,15.3114849 3.88660135,15.5218101 L3.90780444,15.5288164 Z M6.43097165,15.9842274 L6.58646095,15.9842274 C6.84912661,15.9803978 7.06002494,15.7682104 7.05999653,15.5077974 L7.05999653,13.6861533 C7.37051575,13.7403325 7.68477493,13.7707828 8,13.7772355 C8.31957011,13.775856 8.63855888,13.75009 8.95413886,13.700166 L8.95413886,15.5077974 C8.95411045,15.7682104 9.16500878,15.9803978 9.42767444,15.9842274 L10.3323394,15.9842274 C10.0963518,17.0761497 9.12294903,17.8562621 7.99646615,17.8562621 C6.86998328,17.8562621 5.89658049,17.0761497 5.66059287,15.9842274 L6.43097165,15.9842274 Z M11.1168536,15.1014307 C11.045922,15.0607613 10.9655584,15.0390343 10.8836197,15.0383738 L9.90827772,15.0383738 L9.90827772,13.4689573 C10.687259,13.2175509 11.4080134,12.8150517 12.0285863,12.2848886 L12.0285863,12.8874325 C12.1776032,13.8249873 12.4142109,14.7467809 12.7353558,15.6409176 C12.523452,15.5772736 12.3056026,15.535021 12.0851279,15.5148038 C11.7865756,15.3097345 11.450437,15.1645459 11.0956505,15.087418 L11.1168536,15.1014307 Z M1.5683973,7.21931677 C1.68453975,3.71339859 4.5851499,0.930854125 8.12368467,0.930854125 C11.6622194,0.930854125 14.5628296,3.71339859 14.678972,7.21931677 L14.678972,18.3944027 C13.9972395,16.5972367 13.435326,14.7576198 12.9968606,12.8874325 L12.9968606,4.15054709 C12.9968606,3.88742207 12.7816871,3.6741171 12.5162573,3.6741171 L12.4031742,3.6741171 L12.4031742,3.6741171 C12.2783783,3.64958356 12.1488733,3.67586328 12.04384,3.74703475 C11.9388067,3.81820622 11.8670816,3.9282818 11.8448262,4.05245857 C11.8448262,4.14354077 11.4348999,6.05626708 9.92948081,6.44161487 L9.92948081,4.15054709 C9.91577958,3.9147379 9.72985964,3.72448024 9.49254033,3.70341231 C9.25522101,3.68234438 9.03815834,3.83682741 8.98240964,4.06647121 C8.98240964,4.06647121 8.50180636,6.51868442 6.58646095,6.51868442 L3.70990897,6.51868442 C3.4472433,6.52251403 3.23634498,6.73470143 3.23637339,6.99511442 C3.2299943,7.0392625 3.2299943,7.08408648 3.23637339,7.12823457 L3.23637339,12.8944388 C2.72654425,14.7993303 2.09868332,16.6712369 1.35636645,18.4994975 L1.5683973,7.21931677 Z M1.80163125,20.0198697 C2.05606828,19.3612753 2.35997917,18.5555481 2.66389007,17.7217956 L1.80163125,23.2427785 L1.80163125,20.0198697 Z M5.28600502,38.0401337 C4.92285258,38.050849 4.59315118,37.8310783 4.46615236,37.4936405 L6.04931611,37.4936405 C5.92863934,37.8142445 5.62398976,38.0303576 5.27893732,38.0401337 L5.28600502,38.0401337 Z M6.13412845,36.5407805 L4.46615236,36.5407805 L4.46615236,35.2025727 L4.57216779,35.2025727 C4.57981267,35.45634 4.78959911,35.6580968 5.04570338,35.6579837 L6.15533153,35.6579837 L6.13412845,36.5407805 Z M11.2440721,35.6579837 C11.3646909,35.6585274 11.4809727,35.6134209 11.5691861,35.5318699 L11.5691861,36.5477868 L9.87293925,36.5477868 L9.87293925,35.66499 L11.2440721,35.6579837 Z M10.7210627,38.0401337 C10.3664146,38.03785 10.0506473,37.8170554 9.92948081,37.4866341 L11.5338476,37.4866341 C11.4100665,37.8243522 11.0834677,38.0467632 10.7210627,38.0401337 L10.7210627,38.0401337 Z M11.7176077,34.256719 L11.7176077,28.1121733 C11.7176077,27.8509831 11.5040165,27.6392465 11.2405383,27.6392465 C10.9770601,27.6392465 10.7634689,27.8509831 10.7634689,28.1121733 L10.7634689,34.7191364 L5.49803587,34.7191364 L5.49803587,28.1121733 C5.46863033,27.8731223 5.26389771,27.6934127 5.02096644,27.6934127 C4.77803517,27.6934127 4.57330255,27.8731223 4.54389701,28.1121733 L4.54389701,34.2637253 L1.01004938,34.2637253 L3.62509663,17.5326249 C3.71531114,16.9151892 4.11799357,16.3864663 4.69231861,16.1313602 C4.99448173,17.6883014 6.36881378,18.8135729 7.96819537,18.8135729 C9.56757696,18.8135729 10.941909,17.6883014 11.2440721,16.1313602 C11.8183972,16.3864663 12.2210796,16.9151892 12.3112941,17.5326249 L14.9263414,34.2637253 L11.7176077,34.256719 Z" id="Shape"></path>
                        </g>
                    </g>
                </g>
            </g>
        </g>
    </g>
</svg>
