<?xml version="1.0" encoding="UTF-8"?>
<svg viewBox="0 0 92 102" version="1.1" xmlns="http://www.w3.org/2000/svg" xmlns:xlink="http://www.w3.org/1999/xlink">
    <!-- Generator: Sketch 58 (84663) - https://sketch.com -->
    <title>Ringe</title>
    <desc>Created with Sketch.</desc>
    <g id="App" stroke="none" stroke-width="1" fill="none" fill-rule="evenodd">
        <g id="Room-Playground" transform="translate(-250.000000, -292.000000)">
            <g id="Ringe" transform="translate(250.000000, 292.000000)">
                <g id="noun_Playground_1287712" fill="#000000" fill-rule="nonzero">
                    <path d="M91.0460756,86.7583 C89.5924771,86.50645 88.1572787,86.27875 86.7255302,86.05565 L86.7255302,3.7237 C86.7255302,1.67095 85.054582,0 83.0018343,0 C81.2331362,0 79.7530878,1.2443 79.3770382,2.9003 L12.6230603,2.9003 C12.2458607,1.2443 10.7669623,0 8.99711425,0 C6.94436647,0 5.27341828,1.67095 5.27341828,3.7237 L5.27341828,85.9119 C2.46167131,86.40525 0.950572948,86.7583 0.887323016,86.7721 C0.269773684,86.917 -0.114325901,87.5357 0.0305739424,88.15325 C0.154773808,88.68455 0.627423297,89.04105 1.14952273,89.04105 C1.23692264,89.04105 1.32432254,89.0307 1.41287245,89.01115 C1.42667243,89.0077 2.79172096,88.69145 5.27341828,88.2487 L5.27341828,90.85 C5.27341828,91.48595 5.78746772,92 6.42341703,92 L11.5719615,92 C12.2079108,92 12.7219602,91.48595 12.7219602,90.85 L12.7219602,87.101 C24.975197,85.47145 49.3597706,83.4486 79.2781383,87.31145 L79.2781383,90.85 C79.2781383,91.48595 79.7921877,92 80.428137,92 L85.5766815,92 C86.2126308,92 86.7266802,91.48595 86.7266802,90.85 L86.7266802,88.38555 C88.0296288,88.59025 89.3325774,88.7961 90.653926,89.02495 C90.7206259,89.03645 90.7861759,89.0422 90.8517258,89.0422 C91.4014252,89.0422 91.8867247,88.64775 91.9833246,88.08885 C92.0902744,87.4621 91.6716749,86.8664 91.0460756,86.7583 Z M70.9624973,48.36095 C72.2332459,48.36095 73.2682448,49.3948 73.2682448,50.6667 C73.2682448,51.9386 72.2343959,52.97245 70.9624973,52.97245 C69.6905987,52.97245 68.6567498,51.9386 68.6567498,50.6667 C68.6567498,49.3948 69.6917487,48.36095 70.9624973,48.36095 Z M12.7208102,7.6866 L12.7208102,5.20145 L79.2769883,5.20145 L79.2769883,7.6866 L12.7208102,7.6866 Z M51.7057681,48.36095 C52.9765167,48.36095 54.0115156,49.3948 54.0115156,50.6667 C54.0115156,51.9386 52.9776667,52.97245 51.7057681,52.97245 C50.4338695,52.97245 49.4000206,51.9386 49.4000206,50.6667 C49.4000206,49.3948 50.4338695,48.36095 51.7057681,48.36095 Z M40.4461303,37.651 C41.7168789,37.651 42.7518778,38.68485 42.7518778,39.95675 C42.7518778,41.22865 41.7180289,42.2625 40.4461303,42.2625 C39.1742316,42.2625 38.1403828,41.22865 38.1403828,39.95675 C38.1403828,38.68485 39.1742316,37.651 40.4461303,37.651 Z M21.1882511,37.651 C22.4601497,37.651 23.4951486,38.68485 23.4951486,39.95675 C23.4951486,41.22865 22.4612997,42.2625 21.1882511,42.2625 C19.9175024,42.2625 18.8825036,41.22865 18.8825036,39.95675 C18.8825036,38.68485 19.9163524,37.651 21.1882511,37.651 Z M10.4208127,89.7 L7.57226579,89.7 L7.57226579,3.7237 C7.57226579,2.93825 8.2116651,2.3 8.99596425,2.3 C9.7802634,2.3 10.4196627,2.9394 10.4196627,3.7237 L10.4196627,89.7 L10.4208127,89.7 Z M12.7208102,84.7803 L12.7208102,9.9866 L20.0371023,9.9866 L20.0371023,35.51545 C18.0556545,36.0295 16.5813561,37.81775 16.5813561,39.9579 C16.5813561,42.4971 18.6479038,44.56365 21.1871011,44.56365 C23.7274483,44.56365 25.7939961,42.4971 25.7939961,39.9579 C25.7939961,37.81775 24.3196977,36.0295 22.3370998,35.51545 L22.3370998,9.9866 L39.2949815,9.9866 L39.2949815,35.51545 C37.3135336,36.0295 35.8392352,37.81775 35.8392352,39.9579 C35.8392352,42.4971 37.905783,44.56365 40.4449803,44.56365 C42.9841775,44.56365 45.0507253,42.4971 45.0507253,39.9579 C45.0507253,37.81775 43.5764269,36.0295 41.594979,35.51545 L41.594979,9.9866 L50.5546193,9.9866 L50.5546193,46.22425 C48.5731715,46.7383 47.0988731,48.52655 47.0988731,50.6667 C47.0988731,53.2059 49.1654208,55.27245 51.7046181,55.27245 C54.2438153,55.27245 56.3103631,53.2059 56.3103631,50.6667 C56.3103631,48.52655 54.8360647,46.7383 52.8546168,46.22425 L52.8546168,9.9866 L69.8113485,9.9866 L69.8113485,46.22425 C67.8299007,46.7383 66.3556023,48.52655 66.3556023,50.6667 C66.3556023,53.2059 68.42215,55.27245 70.9613473,55.27245 C73.5005445,55.27245 75.5670923,53.2059 75.5670923,50.6667 C75.5670923,48.52655 74.0927939,46.7383 72.111346,46.22425 L72.111346,9.9866 L79.2758383,9.9866 L79.2758383,84.99305 C49.4828205,81.18425 25.1453968,83.15075 12.7208102,84.7803 Z M84.4255327,89.7 L81.5769858,89.7 L81.5769858,3.7237 C81.5769858,2.93825 82.2163851,2.3 83.0006843,2.3 C83.7849834,2.3 84.4243827,2.9394 84.4243827,3.7237 L84.4243827,89.7 L84.4255327,89.7 Z" id="Shape"></path>
                </g>
                <path d="M82,97.6065159 C82,91.7490675 66.3295789,87 47,87 C27.6704211,87 12,91.7490675 12,97.6065159 C12,103.464495 82,103.464495 82,97.6065159 Z" id="Hügel-Fill-Copy" fill="#C7C7BB"></path>
            </g>
        </g>
    </g>
</svg>
