<?xml version="1.0" encoding="UTF-8"?>
<svg width="129px" height="94px" viewBox="0 0 129 94" version="1.1" xmlns="http://www.w3.org/2000/svg" xmlns:xlink="http://www.w3.org/1999/xlink">
    <!-- Generator: Sketch 58 (84663) - https://sketch.com -->
    <title>Schaukel</title>
    <desc>Created with Sketch.</desc>
    <g id="App" stroke="none" stroke-width="1" fill="none" fill-rule="evenodd">
        <g id="Room-Playground" transform="translate(-77.000000, -357.000000)">
            <g id="Schaukel" transform="translate(79.000000, 357.000000)">
                <g id="noun_Swing_744581" transform="translate(17.000000, 0.000000)" fill="#000000" fill-rule="nonzero">
                    <path d="M1.15359449,75 C1.92265749,75 2.43536615,74.4889267 2.56354332,73.8500852 L8.84422445,2.55536627 L16.4066772,2.55536627 L16.4066772,57.1124361 L14.2276654,57.1124361 C13.4586024,57.1124361 12.9458938,57.6235094 12.9458938,58.3901193 L12.9458938,62.7342419 C12.9458938,63.5008518 13.4586024,64.011925 14.2276654,64.011925 L39.9912758,64.011925 C40.7603388,64.011925 41.2730474,63.5008518 41.2730474,62.7342419 L41.2730474,58.3901193 C41.2730474,57.6235094 40.7603388,57.1124361 39.9912758,57.1124361 L37.4277324,57.1124361 L37.4277324,2.55536627 L51.3990435,2.55536627 L51.3990435,57.1124361 L49.2200317,57.1124361 C48.4509687,57.1124361 47.9382601,57.6235094 47.9382601,58.3901193 L47.9382601,62.7342419 C47.9382601,63.5008518 48.4509687,64.011925 49.2200317,64.011925 L74.9836421,64.011925 C75.7527051,64.011925 76.2654137,63.5008518 76.2654137,62.7342419 L76.2654137,58.3901193 C76.2654137,57.6235094 75.7527051,57.1124361 74.9836421,57.1124361 L72.4200987,57.1124361 L72.4200987,2.55536627 L81.136146,2.55536627 L87.4168272,73.8500852 C87.4168272,74.4889267 88.057713,75 88.6985988,75 C88.6985988,75 88.826776,75 88.826776,75 C89.595839,75 90.1085476,74.3611584 89.9803705,73.5945486 L83.5715122,1.14991482 C83.5715122,0.511073254 82.9306263,0 82.2897405,0 L7.69062995,0 C7.04974413,0 6.4088583,0.511073254 6.4088583,1.14991482 L0,73.5945486 C0,74.2333901 0.512708664,74.8722317 1.15359449,75 Z M38.8376813,61.4565588 L15.6376142,61.4565588 L15.6376142,59.6678024 L38.8376813,59.6678024 L38.8376813,61.4565588 Z M34.9923663,57.1124361 L19.0983977,57.1124361 L19.0983977,2.55536627 L34.9923663,2.55536627 L34.9923663,57.1124361 Z M73.8300476,61.4565588 L50.5018034,61.4565588 L50.5018034,59.6678024 L73.7018704,59.6678024 L73.7018704,61.4565588 L73.8300476,61.4565588 Z M69.9847326,57.1124361 L54.090764,57.1124361 L54.090764,2.55536627 L69.9847326,2.55536627 L69.9847326,57.1124361 Z" id="Shape"></path>
                </g>
                <g id="Hügel" transform="translate(0.000000, 69.000000)">
                    <path d="M110,19.4349202 C110,12.0154855 88.733,6 62.5,6 C36.267,6 15,12.0154855 15,19.4349202 C15,26.8550266 110,26.8550266 110,19.4349202 Z" id="Hügel-Fill" fill="#E0D0B5"></path>
                    <path d="M125.9,13 C125.06,12.33 111.881694,5.99305 93.04,2.92389306 C54.0529369,-3.42677866 18.5558701,2.92389306 0,12.2138931" id="Hügel-Border" stroke="#000000" stroke-width="2.229" stroke-linecap="round"></path>
                </g>
            </g>
        </g>
    </g>
</svg>