<?xml version="1.0" encoding="UTF-8"?>
<svg viewBox="0 0 129 114" version="1.1" xmlns="http://www.w3.org/2000/svg" xmlns:xlink="http://www.w3.org/1999/xlink">
    <!-- Generator: Sketch 58 (84663) - https://sketch.com -->
    <title>Tannenwald</title>
    <desc>Created with Sketch.</desc>
    <g id="App" stroke="none" stroke-width="1" fill="none" fill-rule="evenodd">
        <g id="Room-Playground" transform="translate(-126.000000, -537.000000)">
            <g id="Icon/Map/Trees" transform="translate(126.000000, 463.000000)">
                <g id="Tannenwald" transform="translate(0.000000, 74.000000)">
                    <path d="M21.5116522,37 C26.4781281,37 41.5378018,87.097812 38.6307502,94.4704909 C35.7236985,101.84317 7.40580786,101.84317 4.39255427,94.4704909 C1.37930067,87.097812 16.5451763,37 21.5116522,37 Z" id="Triangle-Copy-6" fill="#92AA83"></path>
                    <path d="M106.511652,2 C111.478128,2 126.537802,52.097812 123.63075,59.4704909 C120.723699,66.8431697 92.4058079,66.8431697 89.3925543,59.4704909 C86.3793007,52.097812 101.545176,2 106.511652,2 Z" id="Triangle-Copy-6" fill="#92AA83"></path>
                    <g id="noun_Tree_1034821" transform="translate(0.000000, 33.000000)" fill="#000000" fill-rule="nonzero">
                        <path d="M21.4,80.5 C21.4,80.5 21.4,80.5 21.4,80.5 C22,80.5 22.4,80.1 22.4,79.5 L22.4,66.6 L41.3,66.6 C41.6,66.6 41.9,66.4 42.1,66.2 C42.3,65.9 42.3,65.6 42.3,65.3 L22.4,1.1 C22.3,0.7 21.9,0.4 21.4,0.4 C20.9,0.4 20.6,0.7 20.4,1.1 L0.6,65.3 C0.5,65.6 0.6,65.9 0.8,66.2 C1,66.5 1.3,66.6 1.6,66.6 L20.5,66.6 L20.5,79.5 C20.4,80 20.8,80.5 21.4,80.5 Z M2.9,64.6 L21.4,4.8 L40,64.6 L22.4,64.6 L22.5,35.8 C22.5,35.2 22.1,34.8 21.5,34.8 C20.9,34.8 20.5,35.2 20.5,35.8 L20.4,64.6 L2.9,64.6 Z" id="Shape"></path>
                    </g>
                    <g id="noun_Tree_1034821-Copy-2" transform="translate(86.000000, 0.000000)" fill="#000000" fill-rule="nonzero">
                        <path d="M21.4,80.5 C21.4,80.5 21.4,80.5 21.4,80.5 C22,80.5 22.4,80.1 22.4,79.5 L22.4,66.6 L41.3,66.6 C41.6,66.6 41.9,66.4 42.1,66.2 C42.3,65.9 42.3,65.6 42.3,65.3 L22.4,1.1 C22.3,0.7 21.9,0.4 21.4,0.4 C20.9,0.4 20.6,0.7 20.4,1.1 L0.6,65.3 C0.5,65.6 0.6,65.9 0.8,66.2 C1,66.5 1.3,66.6 1.6,66.6 L20.5,66.6 L20.5,79.5 C20.4,80 20.8,80.5 21.4,80.5 Z M2.9,64.6 L21.4,4.8 L40,64.6 L22.4,64.6 L22.5,35.8 C22.5,35.2 22.1,34.8 21.5,34.8 C20.9,34.8 20.5,35.2 20.5,35.8 L20.4,64.6 L2.9,64.6 Z" id="Shape"></path>
                    </g>
                </g>
            </g>
        </g>
    </g>
</svg>
