<?xml version="1.0" encoding="UTF-8"?>
<svg width="213px" height="188px" viewBox="0 0 213 188" version="1.1" xmlns="http://www.w3.org/2000/svg" xmlns:xlink="http://www.w3.org/1999/xlink">
    <!-- Generator: Sketch 58 (84663) - https://sketch.com -->
    <title>Icon/Map/Trees</title>
    <desc>Created with Sketch.</desc>
    <g id="App" stroke="none" stroke-width="1" fill="none" fill-rule="evenodd">
        <g id="Room-Playground" transform="translate(-126.000000, -463.000000)">
            <g id="Icon/Map/Trees" transform="translate(126.000000, 463.000000)">
                <path d="M21.5116522,111 C26.4781281,111 41.5378018,161.097812 38.6307502,168.470491 C35.7236985,175.84317 7.40580786,175.84317 4.39255427,168.470491 C1.37930067,161.097812 16.5451763,111 21.5116522,111 Z" id="Triangle-Copy-6" fill="#92AA83"></path>
                <path d="M106.511652,76 C111.478128,76 126.537802,126.097812 123.63075,133.470491 C120.723699,140.84317 92.4058079,140.84317 89.3925543,133.470491 C86.3793007,126.097812 101.545176,76 106.511652,76 Z" id="Triangle-Copy-6" fill="#92AA83"></path>
                <g id="noun_Tree_1034821" transform="translate(0.000000, 107.000000)" fill="#000000" fill-rule="nonzero">
                    <path d="M21.4,80.5 C21.4,80.5 21.4,80.5 21.4,80.5 C22,80.5 22.4,80.1 22.4,79.5 L22.4,66.6 L41.3,66.6 C41.6,66.6 41.9,66.4 42.1,66.2 C42.3,65.9 42.3,65.6 42.3,65.3 L22.4,1.1 C22.3,0.7 21.9,0.4 21.4,0.4 C20.9,0.4 20.6,0.7 20.4,1.1 L0.6,65.3 C0.5,65.6 0.6,65.9 0.8,66.2 C1,66.5 1.3,66.6 1.6,66.6 L20.5,66.6 L20.5,79.5 C20.4,80 20.8,80.5 21.4,80.5 Z M2.9,64.6 L21.4,4.8 L40,64.6 L22.4,64.6 L22.5,35.8 C22.5,35.2 22.1,34.8 21.5,34.8 C20.9,34.8 20.5,35.2 20.5,35.8 L20.4,64.6 L2.9,64.6 Z" id="Shape"></path>
                </g>
                <g id="Tree-3" transform="translate(42.000000, 58.000000)">
                    <ellipse id="Oval" fill="#C7C7BB" cx="18" cy="31" rx="14" ry="24"></ellipse>
                    <path d="M18,0 C8.04705882,0 0,13.8929936 0,30.9197452 C0,47.3197452 7.51764706,60.7949045 16.9411765,61.7350318 L16.9411765,80.955414 C16.9411765,81.5821656 17.3647059,82 18,82 C18.6352941,82 19.0588235,81.5821656 19.0588235,80.955414 L19.0588235,61.7350318 C28.4823529,60.7949045 36,47.3197452 36,30.9197452 C36,13.8929936 27.9529412,0 18,0 Z M19.0588235,59.6458599 L19.0588235,40.5299363 L26.8941176,31.5464968 C27.3176471,31.1286624 27.2117647,30.5019108 26.7882353,30.0840764 C26.3647059,29.666242 25.7294118,29.7707006 25.3058824,30.188535 L19.0588235,37.2917197 L19.0588235,21.6229299 C19.0588235,20.9961783 18.6352941,20.5783439 18,20.5783439 C17.3647059,20.5783439 16.9411765,20.9961783 16.9411765,21.6229299 L16.9411765,48.0509554 C15.2470588,46.066242 12.3882353,42.6191083 9.84705882,39.3808917 C9.52941176,38.9630573 8.78823529,38.8585987 8.36470588,39.1719745 C7.94117647,39.4853503 7.83529412,40.2165605 8.15294118,40.6343949 C13.7647059,47.7375796 15.9882353,50.1401274 16.9411765,50.9757962 L16.9411765,59.4369427 C8.68235294,58.4968153 2.11764706,45.9617834 2.11764706,30.710828 C2.11764706,14.833121 9.21176471,1.88025478 18,1.88025478 C26.7882353,1.88025478 33.8823529,14.833121 33.8823529,30.710828 C33.8823529,46.1707006 27.3176471,58.6012739 19.0588235,59.6458599 Z" id="Shape" fill="#000000" fill-rule="nonzero"></path>
                </g>
                <g id="Tree-2" transform="translate(135.000000, 92.000000)">
                    <ellipse id="Oval" fill="#C7C7BB" cx="18" cy="31" rx="14" ry="24"></ellipse>
                    <path d="M18,0 C8.04705882,0 0,13.8929936 0,30.9197452 C0,47.3197452 7.51764706,60.7949045 16.9411765,61.7350318 L16.9411765,80.955414 C16.9411765,81.5821656 17.3647059,82 18,82 C18.6352941,82 19.0588235,81.5821656 19.0588235,80.955414 L19.0588235,61.7350318 C28.4823529,60.7949045 36,47.3197452 36,30.9197452 C36,13.8929936 27.9529412,0 18,0 Z M19.0588235,59.6458599 L19.0588235,40.5299363 L26.8941176,31.5464968 C27.3176471,31.1286624 27.2117647,30.5019108 26.7882353,30.0840764 C26.3647059,29.666242 25.7294118,29.7707006 25.3058824,30.188535 L19.0588235,37.2917197 L19.0588235,21.6229299 C19.0588235,20.9961783 18.6352941,20.5783439 18,20.5783439 C17.3647059,20.5783439 16.9411765,20.9961783 16.9411765,21.6229299 L16.9411765,48.0509554 C15.2470588,46.066242 12.3882353,42.6191083 9.84705882,39.3808917 C9.52941176,38.9630573 8.78823529,38.8585987 8.36470588,39.1719745 C7.94117647,39.4853503 7.83529412,40.2165605 8.15294118,40.6343949 C13.7647059,47.7375796 15.9882353,50.1401274 16.9411765,50.9757962 L16.9411765,59.4369427 C8.68235294,58.4968153 2.11764706,45.9617834 2.11764706,30.710828 C2.11764706,14.833121 9.21176471,1.88025478 18,1.88025478 C26.7882353,1.88025478 33.8823529,14.833121 33.8823529,30.710828 C33.8823529,46.1707006 27.3176471,58.6012739 19.0588235,59.6458599 Z" id="Shape" fill="#000000" fill-rule="nonzero"></path>
                </g>
                <g id="Tree-2" transform="translate(148.000000, 0.000000)">
                    <ellipse id="Oval" fill="#C7C7BB" cx="18" cy="31" rx="14" ry="24"></ellipse>
                    <path d="M18,0 C8.04705882,0 0,13.8929936 0,30.9197452 C0,47.3197452 7.51764706,60.7949045 16.9411765,61.7350318 L16.9411765,80.955414 C16.9411765,81.5821656 17.3647059,82 18,82 C18.6352941,82 19.0588235,81.5821656 19.0588235,80.955414 L19.0588235,61.7350318 C28.4823529,60.7949045 36,47.3197452 36,30.9197452 C36,13.8929936 27.9529412,0 18,0 Z M19.0588235,59.6458599 L19.0588235,40.5299363 L26.8941176,31.5464968 C27.3176471,31.1286624 27.2117647,30.5019108 26.7882353,30.0840764 C26.3647059,29.666242 25.7294118,29.7707006 25.3058824,30.188535 L19.0588235,37.2917197 L19.0588235,21.6229299 C19.0588235,20.9961783 18.6352941,20.5783439 18,20.5783439 C17.3647059,20.5783439 16.9411765,20.9961783 16.9411765,21.6229299 L16.9411765,48.0509554 C15.2470588,46.066242 12.3882353,42.6191083 9.84705882,39.3808917 C9.52941176,38.9630573 8.78823529,38.8585987 8.36470588,39.1719745 C7.94117647,39.4853503 7.83529412,40.2165605 8.15294118,40.6343949 C13.7647059,47.7375796 15.9882353,50.1401274 16.9411765,50.9757962 L16.9411765,59.4369427 C8.68235294,58.4968153 2.11764706,45.9617834 2.11764706,30.710828 C2.11764706,14.833121 9.21176471,1.88025478 18,1.88025478 C26.7882353,1.88025478 33.8823529,14.833121 33.8823529,30.710828 C33.8823529,46.1707006 27.3176471,58.6012739 19.0588235,59.6458599 Z" id="Shape" fill="#000000" fill-rule="nonzero"></path>
                </g>
                <g id="Tree-1" transform="translate(177.000000, 70.000000)">
                    <ellipse id="Oval" fill="#C7C7BB" cx="18" cy="31" rx="14" ry="24"></ellipse>
                    <path d="M18,0 C8.04705882,0 0,13.8929936 0,30.9197452 C0,47.3197452 7.51764706,60.7949045 16.9411765,61.7350318 L16.9411765,80.955414 C16.9411765,81.5821656 17.3647059,82 18,82 C18.6352941,82 19.0588235,81.5821656 19.0588235,80.955414 L19.0588235,61.7350318 C28.4823529,60.7949045 36,47.3197452 36,30.9197452 C36,13.8929936 27.9529412,0 18,0 Z M19.0588235,59.6458599 L19.0588235,40.5299363 L26.8941176,31.5464968 C27.3176471,31.1286624 27.2117647,30.5019108 26.7882353,30.0840764 C26.3647059,29.666242 25.7294118,29.7707006 25.3058824,30.188535 L19.0588235,37.2917197 L19.0588235,21.6229299 C19.0588235,20.9961783 18.6352941,20.5783439 18,20.5783439 C17.3647059,20.5783439 16.9411765,20.9961783 16.9411765,21.6229299 L16.9411765,48.0509554 C15.2470588,46.066242 12.3882353,42.6191083 9.84705882,39.3808917 C9.52941176,38.9630573 8.78823529,38.8585987 8.36470588,39.1719745 C7.94117647,39.4853503 7.83529412,40.2165605 8.15294118,40.6343949 C13.7647059,47.7375796 15.9882353,50.1401274 16.9411765,50.9757962 L16.9411765,59.4369427 C8.68235294,58.4968153 2.11764706,45.9617834 2.11764706,30.710828 C2.11764706,14.833121 9.21176471,1.88025478 18,1.88025478 C26.7882353,1.88025478 33.8823529,14.833121 33.8823529,30.710828 C33.8823529,46.1707006 27.3176471,58.6012739 19.0588235,59.6458599 Z" id="Shape" fill="#000000" fill-rule="nonzero"></path>
                </g>
                <g id="noun_Tree_1034821-Copy-2" transform="translate(86.000000, 74.000000)" fill="#000000" fill-rule="nonzero">
                    <path d="M21.4,80.5 C21.4,80.5 21.4,80.5 21.4,80.5 C22,80.5 22.4,80.1 22.4,79.5 L22.4,66.6 L41.3,66.6 C41.6,66.6 41.9,66.4 42.1,66.2 C42.3,65.9 42.3,65.6 42.3,65.3 L22.4,1.1 C22.3,0.7 21.9,0.4 21.4,0.4 C20.9,0.4 20.6,0.7 20.4,1.1 L0.6,65.3 C0.5,65.6 0.6,65.9 0.8,66.2 C1,66.5 1.3,66.6 1.6,66.6 L20.5,66.6 L20.5,79.5 C20.4,80 20.8,80.5 21.4,80.5 Z M2.9,64.6 L21.4,4.8 L40,64.6 L22.4,64.6 L22.5,35.8 C22.5,35.2 22.1,34.8 21.5,34.8 C20.9,34.8 20.5,35.2 20.5,35.8 L20.4,64.6 L2.9,64.6 Z" id="Shape"></path>
                </g>
            </g>
        </g>
    </g>
</svg>