<?xml version="1.0" encoding="UTF-8"?>
<svg viewBox="0 0 107 100" version="1.1" xmlns="http://www.w3.org/2000/svg" xmlns:xlink="http://www.w3.org/1999/xlink">
    <!-- Generator: Sketch 58 (84663) - https://sketch.com -->
    <title>Cactus3</title>
    <desc>Created with Sketch.</desc>
    <g id="App" stroke="none" stroke-width="1" fill="none" fill-rule="evenodd">
        <g id="Room-Deploy" transform="translate(-218.000000, -368.000000)">
            <g id="Cactus3" transform="translate(218.000000, 368.912840)">
                <path d="M8.05,28.0279495 C13.65,19.6068969 24.85,19.6068969 30.45,28.0279495 C34.1833333,33.6419846 34.1833333,44.8700548 30.45,61.7121601 L8.05,61.7121601 C4.31666667,44.8700548 4.31666667,33.6419846 8.05,28.0279495 Z" id="Rectangle" fill="#A5B4B3"></path>
                <path d="M57.05,28.0279495 C62.65,19.6068969 73.85,19.6068969 79.45,28.0279495 C83.1833333,33.6419846 83.1833333,44.8700548 79.45,61.7121601 L57.05,61.7121601 C53.3166667,44.8700548 53.3166667,33.6419846 57.05,28.0279495 Z" id="Rectangle" fill="#A5B4B3"></path>
                <path d="M74.05,9.50163376 C79.65,-3.55099782 94.4,-2.9654715 100,10.0871601 C103.733333,18.7889145 103.733333,35.9972478 100,61.7121601 L74.05,61.7121601 C70.3166667,35.6068969 70.3166667,18.2033881 74.05,9.50163376 Z" id="Rectangle" fill="#A5B4B3"></path>
                <path d="M21.05,16.3142159 C26.65,4.89276989 41.4,5.40512306 47,16.8265691 C50.7333333,24.4408664 50.7333333,39.4986767 47,62 L21.05,62 C17.3166667,39.157108 17.3166667,23.9285133 21.05,16.3142159 Z" id="Rectangle" fill="#A5B4B3"></path>
                <g transform="translate(0.000000, 3.087160)" fill="#000000" fill-rule="nonzero">
                    <path d="M1.48236776,60 L105.652393,60 C106.460957,60 107,59.4654788 107,58.6636971 C107,57.8619154 106.460957,57.3273942 105.652393,57.3273942 L99.3186398,57.3273942 L99.3186398,13.4966592 C99.3186398,6.14699332 93.2544081,0 85.7078086,0 C78.1612091,0 72.0969773,6.01336303 72.0969773,13.4966592 L72.0969773,21.6481069 C71.2884131,21.5144766 70.4798489,21.3808463 69.6712846,21.3808463 C62.2594458,21.3808463 56.0604534,27.3942094 56.0604534,34.8775056 L56.0604534,57.3273942 L49.7267003,57.3273942 L49.7267003,13.4966592 C49.7267003,6.14699332 43.6624685,0 36.115869,0 C28.5692695,0 22.5050378,6.01336303 22.5050378,13.4966592 L22.5050378,21.6481069 C21.6964736,21.5144766 20.8879093,21.3808463 20.0793451,21.3808463 C12.6675063,21.3808463 6.46851385,27.3942094 6.46851385,34.8775056 L6.46851385,57.3273942 L1.34760705,57.3273942 C0.539042821,57.3273942 0,57.8619154 0,58.6636971 C0,59.4654788 0.673803526,60 1.48236776,60 Z M74.7921914,13.4966592 C74.7921914,7.6169265 79.6435768,2.67260579 85.7078086,2.67260579 C91.7720403,2.67260579 96.6234257,7.48329621 96.6234257,13.4966592 L96.6234257,57.3273942 L83.2821159,57.3273942 L83.2821159,34.7438753 C83.2821159,29.1314031 79.7783375,24.3207127 74.7921914,22.3162584 L74.7921914,13.4966592 L74.7921914,13.4966592 Z M58.7556675,34.7438753 C58.7556675,28.8641425 63.6070529,23.9198218 69.6712846,23.9198218 C75.7355164,23.9198218 80.5869018,28.7305122 80.5869018,34.7438753 L80.5869018,57.1937639 L58.7556675,57.1937639 L58.7556675,34.7438753 Z M25.3350126,13.4966592 C25.3350126,7.6169265 30.186398,2.67260579 36.2506297,2.67260579 C42.3148615,2.67260579 47.1662469,7.48329621 47.1662469,13.4966592 L47.1662469,57.3273942 L33.824937,57.3273942 L33.824937,34.7438753 C33.824937,29.1314031 30.3211587,24.3207127 25.3350126,22.3162584 L25.3350126,13.4966592 Z M9.29848866,34.7438753 C9.29848866,28.8641425 14.1498741,23.9198218 20.2141058,23.9198218 C26.2783375,23.9198218 31.1297229,28.7305122 31.1297229,34.7438753 L31.1297229,57.1937639 L9.29848866,57.1937639 L9.29848866,34.7438753 Z" id="Shape"></path>
                    <path d="M19.6624204,68 C20.4649682,68 21,67.4 21,66.5 C21,65.6 20.4649682,65 19.6624204,65 L1.33757962,65 C0.535031847,65 0,65.6 0,66.5 C0,67.4 0.535031847,68 1.33757962,68 L19.6624204,68 Z" id="Path"></path>
                    <path d="M34.6206897,68 C35.4482759,68 36,67.4 36,66.5 C36,65.6 35.4482759,65 34.6206897,65 L25.3793103,65 C24.5517241,65 24,65.6 24,66.5 C24,67.4 24.5517241,68 25.3793103,68 L34.6206897,68 Z" id="Path"></path>
                    <path d="M13,86.5 C13,87.4 13.5517241,88 14.3793103,88 L23.6206897,88 C24.4482759,88 25,87.4 25,86.5 C25,85.6 24.4482759,85 23.6206897,85 L14.3793103,85 C13.6896552,85 13,85.6 13,86.5 Z" id="Path"></path>
                    <path d="M16,80.5 C16,81.4 16.5350318,82 17.3375796,82 L35.6624204,82 C36.4649682,82 37,81.4 37,80.5 C37,79.6 36.4649682,79 35.6624204,79 L17.3375796,79 C16.5350318,79 16,79.75 16,80.5 Z" id="Path"></path>
                    <path d="M75.3375796,79 C74.5350318,79 74,79.6 74,80.5 C74,81.4 74.5350318,82 75.3375796,82 L93.6624204,82 C94.4649682,82 95,81.4 95,80.5 C95,79.6 94.4649682,79 93.6624204,79 L75.3375796,79 Z" id="Path"></path>
                    <path d="M100,74.5 C100,73.6 99.4558824,73 98.6397059,73 L64.3602941,73 C63.5441176,73 63,73.6 63,74.5 C63,75.4 63.5441176,76 64.3602941,76 L98.5036765,76 C99.3198529,76 100,75.4 100,74.5 Z" id="Path"></path>
                    <path d="M53,94.5 C53,95.4 53.5461255,96 54.3653137,96 L88.6346863,96 C89.4538745,96 90,95.4 90,94.5 C90,93.6 89.4538745,93 88.6346863,93 L54.3653137,93 C53.5461255,93 53,93.6 53,94.5 Z" id="Path"></path>
                    <circle id="Oval" cx="38" cy="15" r="2"></circle>
                    <circle id="Oval" cx="42" cy="54" r="2"></circle>
                    <circle id="Oval" cx="25.5" cy="35.5" r="1.5"></circle>
                    <circle id="Oval" cx="40.5" cy="8.5" r="1.5"></circle>
                    <circle id="Oval" cx="32.5" cy="10.5" r="1.5"></circle>
                    <circle id="Oval" cx="36.5" cy="33.5" r="1.5"></circle>
                    <circle id="Oval" cx="42.5" cy="36.5" r="1.5"></circle>
                    <circle id="Oval" cx="37.5" cy="49.5" r="1.5"></circle>
                    <circle id="Oval" cx="29.5" cy="18.5" r="1.5"></circle>
                    <circle id="Oval" cx="43.5" cy="45.5" r="1.5"></circle>
                    <circle id="Oval" cx="41.5" cy="21.5" r="1.5"></circle>
                    <circle id="Oval" cx="19.5" cy="28.5" r="1.5"></circle>
                    <circle id="Oval" cx="27.5" cy="50.5" r="1.5"></circle>
                    <circle id="Oval" cx="13.5" cy="49.5" r="1.5"></circle>
                    <circle id="Oval" cx="15" cy="33" r="2"></circle>
                    <circle id="Oval" cx="38" cy="42" r="2"></circle>
                    <circle id="Oval" cx="42" cy="29" r="2"></circle>
                    <circle id="Oval" cx="35" cy="23" r="2"></circle>
                    <circle id="Oval" cx="15" cy="41" r="2"></circle>
                    <circle id="Oval" cx="25" cy="43" r="2"></circle>
                    <circle id="Oval" cx="21" cy="54" r="2"></circle>
                    <circle id="Oval" cx="88" cy="15" r="2"></circle>
                    <circle id="Oval" cx="92" cy="54" r="2"></circle>
                    <circle id="Oval" cx="74.5" cy="35.5" r="1.5"></circle>
                    <circle id="Oval" cx="89.5" cy="8.5" r="1.5"></circle>
                    <circle id="Oval" cx="81.5" cy="10.5" r="1.5"></circle>
                    <circle id="Oval" cx="86.5" cy="33.5" r="1.5"></circle>
                    <circle id="Oval" cx="92.5" cy="36.5" r="1.5"></circle>
                    <circle id="Oval" cx="87.5" cy="49.5" r="1.5"></circle>
                    <circle id="Oval" cx="78.5" cy="18.5" r="1.5"></circle>
                    <circle id="Oval" cx="93.5" cy="45.5" r="1.5"></circle>
                    <circle id="Oval" cx="92.5" cy="21.5" r="1.5"></circle>
                    <circle id="Oval" cx="69.5" cy="28.5" r="1.5"></circle>
                    <circle id="Oval" cx="77.5" cy="50.5" r="1.5"></circle>
                    <circle id="Oval" cx="63.5" cy="49.5" r="1.5"></circle>
                    <circle id="Oval" cx="65" cy="33" r="2"></circle>
                    <circle id="Oval" cx="87" cy="42" r="2"></circle>
                    <circle id="Oval" cx="92" cy="29" r="2"></circle>
                    <circle id="Oval" cx="84" cy="23" r="2"></circle>
                    <circle id="Oval" cx="66" cy="41" r="2"></circle>
                    <circle id="Oval" cx="75" cy="43" r="2"></circle>
                    <circle id="Oval" cx="70" cy="54" r="2"></circle>
                </g>
            </g>
        </g>
    </g>
</svg>
