<?xml version="1.0" encoding="UTF-8"?>
<svg width="31px" height="32px" viewBox="0 0 31 32" version="1.1" xmlns="http://www.w3.org/2000/svg" xmlns:xlink="http://www.w3.org/1999/xlink">
    <!-- Generator: Sketch 58 (84663) - https://sketch.com -->
    <title>Moon</title>
    <desc>Created with Sketch.</desc>
    <g id="App" stroke="none" stroke-width="1" fill="none" fill-rule="evenodd">
        <g id="Room-Deploy" transform="translate(-138.000000, -143.000000)">
            <g id="Moon" transform="translate(139.000000, 143.000000)">
                <path d="M15,31.0000312 C22.1797017,31.0000312 29.9904417,26.1797017 29.9904417,19 C29.9904417,11.8202983 28.1104058,4.82002297 21.9208639,1 C16.0621293,-2.61585734 19.8195272,11.2478347 15,16.5 C11.0864278,20.7648848 0,19.7825534 0,23 C0,30.1797017 7.82029825,31.0000312 15,31.0000312 Z" id="Oval" fill="#AEC6CF"></path>
                <g id="noun_Night_1085089" transform="translate(0.000000, 2.000000)"></g>
                <path d="M5.20637584,22.2902685 C13.5268456,22.2902685 20.2416107,15.5755034 20.2416107,7.30369128 C20.2416107,5.45469799 19.9010067,3.65436242 19.2684564,2 C24.9614094,4.1409396 29,9.59060403 29,16.0134228 C29,24.2852349 22.2852349,31 14.0134228,31 C7.59060403,31 2.1409396,26.9614094 0,21.2684564 C1.6057047,21.9496644 3.35738255,22.2902685 5.20637584,22.2902685 Z" id="Path" stroke="#000000" stroke-width="2" stroke-linecap="round" stroke-linejoin="round"></path>
            </g>
        </g>
    </g>
</svg>