<?xml version="1.0" encoding="UTF-8"?>
<svg viewBox="0 0 320 678" version="1.1" xmlns="http://www.w3.org/2000/svg" xmlns:xlink="http://www.w3.org/1999/xlink">
    <!-- Generator: Sketch 58 (84663) - https://sketch.com -->
    <title>Background/Room</title>
    <desc>Created with Sketch.</desc>
    <g id="App" stroke="none" stroke-width="1" fill="none" fill-rule="evenodd">
        <g id="Room-Welcome" transform="translate(-50.000000, -88.000000)">
            <g id="Background/Room" transform="translate(51.000000, 89.000000)">
                <g id="Group-3-Copy-6" transform="translate(158.921715, 336.693124) rotate(90.000000) translate(-158.921715, -336.693124) translate(-175.578285, 181.693124)" stroke="var(--room-color)" stroke-width="7">
                    <path d="M26.3177292,17.6855082 C12.3234639,27.1508155 3.02114887,85.4898711 4.02057869,152.497124 C5.05206773,221.653804 16.6089111,276.71191 33.3536733,284.466716 C51.4745544,292.858827 179.021116,301.009102 333.247825,304.56584 C488.728116,308.151486 617.23293,305.851643 638.659917,298.027634 C658.194699,290.894559 667.9171,232.619836 664.263048,157.930993 C660.788162,86.904299 646.173647,24.9837805 630.600356,17.9782984 C613.87541,10.4547566 479.728511,4.41499542 326.671981,3.65649857 C165.757755,2.85906161 40.4099503,8.15394643 26.3177292,17.6855082 Z" id="Rectangle"></path>
                </g>
                <g id="Group-3-Copy-6" transform="translate(159.203857, 338.149112) rotate(90.000000) translate(-159.203857, -338.149112) translate(-178.426997, 179.699239)" stroke="#000000" stroke-width="2">
                    <path d="M24.1659772,15.0522608 C57.5577303,-7.81738808 600.94419,-2.00836347 638.398487,15.0522608 C675.852784,32.112885 694.595706,290.464208 646.30706,308.318759 C598.018414,326.17331 72.7720271,313.551086 31.7731257,294.324604 C-9.22577581,275.098121 -9.22577581,37.9219097 24.1659772,15.0522608 Z" id="Rectangle"></path>
                </g>
            </g>
        </g>
    </g>
</svg>
