<?xml version="1.0" encoding="UTF-8"?>
<svg viewBox="0 0 324 685" version="1.1" xmlns="http://www.w3.org/2000/svg" xmlns:xlink="http://www.w3.org/1999/xlink">
    <!-- Generator: Sketch 58 (84663) - https://sketch.com -->
    <title>Background/Room</title>
    <desc>Created with Sketch.</desc>
    <g id="App" stroke="none" stroke-width="1" fill="none" fill-rule="evenodd">
        <g id="Room-Welcome" transform="translate(-37.000000, -84.000000)">
            <g id="Background/Room" transform="translate(38.000000, 85.000000)">
                <g id="Group-3-Copy-6" transform="translate(160.921715, 340.693124) rotate(90.000000) translate(-160.921715, -340.693124) translate(-173.578285, 185.693124)" fill="#FFFFFF">
                    <path d="M24.3568456,14.7863815 C57.3923473,-7.55785519 594.981503,-1.88228835 632.036206,14.7863815 C669.090909,31.4550513 687.633866,283.870956 639.860404,301.315313 C592.086942,318.759669 72.4443253,306.427431 31.8828346,287.642662 C-8.67865612,268.857893 -8.67865612,37.1306181 24.3568456,14.7863815 Z" id="Rectangle"></path>
                </g>
                <g id="Group-3-Copy-6" transform="translate(160.653730, 341.279966) rotate(90.000000) translate(-160.653730, -341.279966) translate(-179.846270, 181.279966)" stroke="#000000" stroke-width="2">
                    <path d="M24.4906671,14.4806014 C40.0876927,3.80249943 166.478813,-1.60160844 332.797736,-0.767329559 C490.039067,0.0214148481 626.057423,6.22016765 644.012539,14.3956519 C662.270369,22.7089706 677.317647,87.2410695 680.958237,162.562838 C684.794003,241.922684 674.72332,303.021567 651.908894,311.453855 C603.49314,329.34848 74.2298942,316.993798 32.2916625,297.334422 C12.8106282,288.202302 0.875130215,230.64635 -0.206288487,157.257336 C-1.25122756,86.3439619 8.32609242,25.5472612 24.4906671,14.4806014 Z" id="Rectangle"></path>
                </g>
            </g>
        </g>
    </g>
</svg>
