<?xml version="1.0" encoding="UTF-8"?>
<svg width="50px" height="50px" viewBox="0 0 50 50" version="1.1" xmlns="http://www.w3.org/2000/svg" xmlns:xlink="http://www.w3.org/1999/xlink">
    <!-- Generator: Sketch 58 (84663) - https://sketch.com -->
    <title>Icon/Cross</title>
    <desc>Created with Sketch.</desc>
    <g id="Icon/Cross" stroke="none" stroke-width="1" fill="none" fill-rule="evenodd">
        <g id="noun_add_1610828" fill="#000000" fill-rule="nonzero">
            <path d="M24.9169435,0 C11.1532985,0 0,11.1532985 0,24.9169435 C0,38.6805885 11.1532985,49.833887 24.9169435,49.833887 C38.6805885,49.833887 49.833887,38.6805885 49.833887,24.9169435 C49.833887,11.1532985 38.6805885,0 24.9169435,0 Z M30.7899234,33.3069148 L24.9169435,27.4339349 L19.0439636,33.3069148 C18.3308161,34.0200624 17.2401198,34.0200624 16.5269722,33.3069148 C15.8138247,32.5937673 15.8138247,31.503071 16.5269722,30.7899234 L22.3999521,24.9169435 L16.5269722,19.0439636 C15.8138247,18.3308161 15.8138247,17.2401198 16.5269722,16.5269722 C17.2401198,15.8138247 18.3308161,15.8138247 19.0439636,16.5269722 L24.9169435,22.3999521 L30.7899234,16.5269722 C31.503071,15.8138247 32.5937673,15.8138247 33.3069148,16.5269722 C34.0200624,17.2401198 34.0200624,18.3308161 33.3069148,19.0439636 L27.4339349,24.9169435 L33.3069148,30.7899234 C34.0200624,31.503071 34.0200624,32.5937673 33.3069148,33.3069148 C32.5937673,34.0200624 31.503071,34.0200624 30.7899234,33.3069148 Z" id="Shape"></path>
        </g>
    </g>
</svg>