<?xml version="1.0" encoding="UTF-8"?>
<svg width="64px" height="71px" viewBox="0 0 64 71" version="1.1" xmlns="http://www.w3.org/2000/svg" xmlns:xlink="http://www.w3.org/1999/xlink">
    <!-- Generator: Sketch 58 (84663) - https://sketch.com -->
    <title>Icon/Idea</title>
    <desc>Created with Sketch.</desc>
    <g id="Icon/Idea" stroke="none" stroke-width="1" fill="none" fill-rule="evenodd">
        <g id="Idea" fill="#000000" fill-rule="nonzero">
            <path d="M50,33.5847726 C50,23.9011012 42.1367254,16 32.4998304,16 C22.8629354,16 15,23.9011012 15,33.5847726 C15,34.9798411 15.153589,36.3749095 15.5390648,37.7668792 C16.0028384,40.0122514 16.8490657,41.4073199 18.0054931,43.3440542 C18.23738,43.8100789 18.5445579,44.2730669 18.8547734,44.8147327 C19.2402492,45.4350919 19.5474272,46.0554822 19.9328721,46.597148 C21.4747753,49.154257 22.3993005,50.6249356 22.3993005,53.6481003 L22.3993005,60.9289817 C22.3993005,62.7870071 23.7093015,64.2607844 25.4831069,64.5694224 C26.2540585,68.5215999 28.5669133,71 32.5,71 C36.4330867,71 38.8211864,68.5215999 39.5168931,64.5694224 C41.2906985,64.2607535 42.6006995,62.711397 42.6006995,60.9289817 L42.6006995,53.6481003 C42.6006995,50.6280343 43.5252247,49.0786469 45.0671279,46.597148 C45.3743058,46.0554667 45.7597816,45.4351074 46.1452266,44.8147327 C46.4524045,44.2730514 46.7625892,43.8070111 46.9945069,43.3440542 C48.1509343,41.4073199 49.0002145,40.0122514 49.4609352,37.7668792 C49.846411,36.374832 50,34.9797636 50,33.5847726 L50,33.5847726 Z M39.5918142,55.5093794 L25.561266,55.5093794 L25.561266,53.7269641 C25.561266,53.3396173 25.561266,53.0309483 25.4829681,52.7192425 L39.5921534,52.7192425 C39.5921534,53.0279115 39.5138555,53.3396018 39.5138555,53.7269641 L39.5168669,55.5093794 L39.5918142,55.5093794 Z M38.8991604,61.6312416 L26.0998219,61.6312416 C25.7143461,61.6312416 25.4824593,61.3225726 25.4824593,61.0108823 L25.4824593,58.6080923 L39.5130075,58.6080923 L39.5130075,61.0108823 C39.5913053,61.3195513 39.2841274,61.6312416 38.8986516,61.6312416 L38.8991604,61.6312416 Z M32.4996454,67.9831103 C31.6503651,67.9831103 29.4941676,67.9831103 28.6448874,64.7300164 L36.4330404,64.7300164 C35.5837601,67.9831103 33.349234,67.9831103 32.4999537,67.9831103 L32.4996454,67.9831103 Z M46.4554112,37.1495257 C46.0699354,38.8532322 45.4525574,40.0152727 44.3744587,41.797688 C44.0672807,42.2637128 43.8353939,42.7267007 43.5251784,43.2683666 C43.1397026,43.8887258 42.8325246,44.509116 42.5223246,44.972073 C41.5977994,46.5214604 40.7485191,47.9165289 40.2094698,49.5415264 L24.9438571,49.5415264 C24.4047923,47.9134301 23.6338561,46.5214604 22.6310023,44.972073 C22.3238243,44.4303917 21.9383485,43.8887413 21.6281485,43.2683666 C21.3209705,42.7266852 21.0107858,42.1850349 20.7788682,41.797688 C19.7007695,39.9396626 19.0833914,38.8532322 18.6979156,37.0708169 C18.3907377,35.9087763 18.234142,34.7467357 18.234142,33.5846952 C18.234142,25.6045752 24.7089019,19.0986974 32.650166,19.0986974 C40.5917384,19.0986974 47.0661899,25.6048851 47.0661899,33.5846952 C46.9156154,34.7467357 46.7620264,35.9087763 46.4548484,37.1495257 L46.4554112,37.1495257 Z" id="Shape"></path>
            <path d="M62.5366805,31 L56.4633195,31 C55.6573231,31 55,31.67383 55,32.5 C55,33.3262 55.6573524,34 56.4633195,34 L62.5366805,34 C63.3426769,34 64,33.32617 64,32.5 C64,31.676725 63.3426476,31 62.5366805,31 Z" id="Path"></path>
            <path d="M49.4161991,17 C49.7697212,17 50.1232434,16.8591565 50.4049298,16.5747123 L54.5753598,12.404693 C55.1415467,11.8385618 55.1415467,10.9907437 54.5753598,10.4245984 C54.0091729,9.85846721 53.1612712,9.85846721 52.5950702,10.4245984 L48.4246402,14.5946177 C47.8584533,15.1607489 47.8584533,16.008567 48.4246402,16.5747123 C48.7091124,16.8591565 49.0626345,17 49.4161284,17 L49.4161991,17 Z" id="Path"></path>
            <path d="M31.5,9 C32.3262,9 33,8.34264763 33,7.53668054 L33,1.46331946 C33,0.657323101 32.32617,0 31.5,0 C30.67383,0 30,0.657352367 30,1.46331946 L30,7.53668054 C30,8.3426769 30.67383,9 31.5,9 Z" id="Path"></path>
            <path d="M13.5978984,16.5747123 C13.8796131,16.8563993 14.2331352,17 14.5866291,17 C14.9401229,17 15.2936734,16.8591565 15.5753598,16.5747123 C16.1415467,16.0085812 16.1415467,15.160763 15.5753598,14.5946177 L11.4049298,10.4245984 C10.8387429,9.85846721 9.99084125,9.85846721 9.42464019,10.4245984 C8.85845327,10.9907295 8.85845327,11.8385477 9.42464019,12.404693 L13.5978984,16.5747123 Z" id="Path"></path>
            <path d="M7.53668054,31 L1.46331946,31 C0.657323101,31 0,31.67383 0,32.5 C0,33.3262 0.657352367,34 1.46331946,34 L7.53668054,34 C8.3426769,34 9,33.32617 9,32.5 C9,31.676725 8.34264763,31 7.53668054,31 Z" id="Path"></path>
            <path d="M13.5969275,50.4245984 L9.42481182,54.5946177 C8.85839606,55.1607489 8.85839606,56.008567 9.42481182,56.5747123 C9.70664041,56.8563993 10.0603054,57 10.4139422,57 C10.7675789,57 11.1212722,56.8591565 11.4030725,56.5747123 L15.5751882,52.404693 C16.1416039,51.8385618 16.1416039,50.9907437 15.5751882,50.4245984 C15.0115381,49.8584672 14.0941805,49.8584672 13.5968567,50.4245984 L13.5969275,50.4245984 Z" id="Path"></path>
            <path d="M50.4059053,50.4245984 C49.83949,49.8584672 48.9912463,49.8584672 48.4248168,50.4245984 C47.8583873,50.9907295 47.8584015,51.8385477 48.4248168,52.404693 L52.5969293,56.5747123 C52.8787577,56.8563993 53.2324224,57 53.5860589,57 C53.9396954,57 54.2933884,56.8591565 54.5751885,56.5747123 C55.1416038,56.0085812 55.1416038,55.160763 54.5751885,54.5946177 L50.4059053,50.4245984 Z" id="Path"></path>
        </g>
    </g>
</svg>