<?xml version="1.0" encoding="UTF-8"?>
<svg viewBox="0 0 81 85" version="1.1" xmlns="http://www.w3.org/2000/svg" xmlns:xlink="http://www.w3.org/1999/xlink">
    <!-- Generator: Sketch 58 (84663) - https://sketch.com -->
    <title>Group</title>
    <desc>Created with Sketch.</desc>
    <g id="App" stroke="none" stroke-width="1" fill="none" fill-rule="evenodd">
        <g id="Feedback-after-Room-Copy" transform="translate(-147.000000, -488.000000)">
            <g id="Group" transform="translate(147.000000, 488.945145)">
                <path d="M18.7247294,7.66518173 C25.7045857,-3.60083895 51.0583421,-1.45301497 62.3233269,7.66518173 C73.5883118,16.7833784 73.5883118,27.4078823 65.5615234,45.5762048 C57.534735,63.7445273 36.4175505,64.9964354 23.1675505,51.4964354 C9.91755048,37.9964354 11.744873,18.9312024 18.7247294,7.66518173 Z" id="Rectangle" fill="#F0BC5E"></path>
                <polygon id="Path-19" fill="#FFFFFF" points="40.9890137 13.3789734 36.9285683 21.5231167 27.5263693 23.0689948 34.2576915 30.2823082 32.7071728 38.9951686 41.0000001 35.0914761 49.3049323 38.9951686 47.961761 30.2823082 54.389795 23.5486988 45.3713592 21.5231167"></polygon>
                <g id="noun_Trophy_1840636" transform="translate(0.000000, 3.054855)" fill="#000000" fill-rule="nonzero">
                    <path d="M55.7016602,19.0136719 L46.1635743,17.6225586 L41.897461,8.9453125 C41.5605469,8.2617187 40.4394532,8.2617187 40.1025391,8.9453125 L35.8364258,17.6225586 L26.2983399,19.0136719 C25.9223633,19.0688477 25.6098633,19.3320313 25.4921876,19.6938477 C25.3745118,20.0551758 25.4716798,20.4521485 25.7436524,20.7182618 L32.6469727,27.4736329 L31.0170899,37.013672 C30.9531251,37.3891603 31.1079102,37.7680665 31.4160157,37.9916993 C31.7250977,38.2158204 32.1323243,38.244629 32.4697266,38.0664063 L41,33.5649414 L49.5302734,38.0664062 C49.6772461,38.1440429 49.8374023,38.1824254 49.9970703,38.1824254 C50.2041015,38.1824254 50.4101562,38.1181641 50.5839844,37.9916992 C50.8920899,37.7680664 51.046875,37.3891601 50.9829102,37.0136719 L49.3530274,27.4736328 L56.2563477,20.7182617 C56.5283204,20.4521484 56.6254883,20.0551758 56.5078125,19.6938476 C56.3901367,19.3320312 56.0776367,19.0688477 55.7016602,19.0136719 Z M47.5795898,26.4106445 C47.3447265,26.6401367 47.2377929,26.9702148 47.2929687,27.2939453 L48.6699218,35.3510742 L41.4667968,31.5498047 C41.3208008,31.4726562 41.1601562,31.434082 41,31.434082 C40.8398438,31.434082 40.6791992,31.4726562 40.5332031,31.5498047 L33.3300781,35.3510742 L34.7070312,27.2939453 C34.762207,26.9702148 34.6552734,26.6401367 34.4204101,26.4106445 L28.5859374,20.7011718 L36.645996,19.5258788 C36.9716796,19.4780272 37.2534179,19.2729491 37.3989257,18.977539 L41,11.6533203 L44.6010742,18.9775391 C44.746582,19.2729493 45.0283203,19.4780274 45.3540039,19.5258789 L53.4140625,20.7011719 L47.5795898,26.4106445 Z" id="Shape"></path>
                    <path d="M80,4.7109375 L67.5615234,4.7109375 L67.5615234,1.0087891 C67.5615234,0.456543 67.1137695,0.0087891 66.5615234,0.0087891 L15.4165039,0.0087891 C14.8642578,0.0087891 14.4165039,0.456543 14.4165039,1.0087891 L14.4165039,4.7109375 L1.9892578,4.7109375 C1.4370117,4.7109375 0.9892578,5.1586914 0.9892578,5.7109375 L0.9892578,20.8051758 C0.9892578,27.8017578 6.894043,33.4941406 14.1523437,33.4941406 L15.5445556,33.4941406 C18.3485107,43.1873169 26.1831054,50.8013305 36.0273437,52.6289062 L36.0273437,62.0644531 L33.4658203,62.0644531 C31.3881836,62.0644531 29.6982422,63.7768554 29.6982422,65.8818359 L29.6982422,69.0161132 L28.6723633,69.0161132 C26.6157227,69.0161132 24.9428711,70.746582 24.9428711,72.8735351 L24.9428711,79.0087891 C24.9428711,79.5610351 25.390625,80.0087891 25.9428711,80.0087891 L56.0351563,80.0087891 C56.5874024,80.0087891 57.0351563,79.5610351 57.0351563,79.0087891 L57.0351563,72.8735351 C57.0351563,70.746582 55.3623047,69.0161132 53.3056641,69.0161132 L52.2802735,69.0161132 L52.2802735,65.8818359 C52.2802735,63.7768554 50.5898438,62.0644531 48.5122071,62.0644531 L45.9506837,62.0644531 L45.9506837,52.6289062 C55.7950441,50.8012695 63.6295777,43.1875 66.4335328,33.4941406 L67.8369141,33.4941406 C75.0952148,33.4941406 81,27.8017578 81,20.8051758 L81,5.7109375 C81,5.1586914 80.5522461,4.7109375 80,4.7109375 Z M67.5615234,12.5834961 L72.9160156,12.5834961 L72.9160156,19.34375 C72.9160156,22.105957 70.5595703,24.3530273 67.6625976,24.3530273 L67.5615234,24.3530273 L67.5615234,12.5834961 Z M14.3266602,24.3530273 C11.4296875,24.3530273 9.0732422,22.105957 9.0732422,19.34375 L9.0732422,12.5834961 L14.4165039,12.5834961 L14.4165039,24.3530273 L14.3266602,24.3530273 L14.3266602,24.3530273 Z M14.1523438,31.4941406 C7.9970704,31.4941406 2.9892579,26.6992187 2.9892579,20.8051758 L2.9892579,6.7109375 L14.416504,6.7109375 L14.416504,10.5834961 L8.0732423,10.5834961 C7.5209962,10.5834961 7.0732423,11.03125 7.0732423,11.5834961 L7.0732423,19.34375 C7.0732423,23.2084961 10.3271485,26.3530273 14.3266603,26.3530273 L14.4465944,26.3530273 C14.4897463,28.1079101 14.6969606,29.8250122 15.0497438,31.4941406 L14.1523438,31.4941406 Z M55.0351562,72.8735352 L55.0351562,78.0087891 L26.9428711,78.0087891 L26.9428711,72.8735352 C26.9428711,71.8491211 27.71875,71.0161133 28.6723633,71.0161133 L53.3056641,71.0161133 C54.2592773,71.0161133 55.0351562,71.8491211 55.0351562,72.8735352 Z M50.2802734,65.8818359 L50.2802734,69.0161132 L31.6982422,69.0161132 L31.6982422,65.8818359 C31.6982422,64.8798828 32.491211,64.0644531 33.4658203,64.0644531 L48.512207,64.0644531 C49.4873047,64.0644531 50.2802734,64.8798828 50.2802734,65.8818359 Z M44.8022461,50.7939453 C44.3129883,50.8671875 43.9506836,51.2875976 43.9506836,51.7827148 L43.9506836,62.0644531 L38.0273438,62.0644531 L38.0273438,51.7827148 C38.0273438,51.2875976 37.6650391,50.8671875 37.1757813,50.7939453 C25.3408203,49.0185547 16.4165039,38.2133789 16.4165039,25.659668 L16.4165039,2.0087891 L65.5615234,2.0087891 L65.5615234,25.659668 C65.5615234,38.2133789 56.637207,49.0185547 44.8022461,50.7939453 Z M79,20.8051758 C79,26.6992188 73.9921875,31.4941406 67.8369141,31.4941406 L66.9283448,31.4941406 C67.281128,29.8250122 67.4882813,28.1079712 67.5314332,26.3530273 L67.6625978,26.3530273 C71.6621095,26.3530273 74.9160158,23.2084961 74.9160158,19.34375 L74.9160158,11.5834961 C74.9160158,11.03125 74.4682619,10.5834961 73.9160158,10.5834961 L67.5615236,10.5834961 L67.5615236,6.7109375 L79,6.7109375 L79,20.8051758 Z" id="Shape"></path>
                </g>
            </g>
        </g>
    </g>
</svg>
