<?xml version="1.0" encoding="UTF-8"?>
<svg viewBox="0 0 39 41" version="1.1" xmlns="http://www.w3.org/2000/svg" xmlns:xlink="http://www.w3.org/1999/xlink">
    <!-- Generator: Sketch 58 (84663) - https://sketch.com -->
    <title>Schnecke</title>
    <desc>Created with Sketch.</desc>
    <g id="App" stroke="none" stroke-width="1" fill="none" fill-rule="evenodd">
        <g id="Room-Design" transform="translate(-110.000000, -719.000000)">
            <g id="Schnecke" transform="translate(110.000000, 719.000000)">
                <polygon id="Path-18" fill="#FFFFFF" points="32.4442857 1.13307962 29.2734593 2.03136364 27.2520026 4.37427736 26.7355511 14.2292009 3.67606585 29.4984239 1.46891548 31.7150163 1.46891548 36.6680861 3.05632412 38.9732955 7.18106869 40.3009857 24.0585873 40.3009857 34 39.7976959 36.9803571 37.4546373 37.8768822 32.7736702 37.470588 5.05181587 35.5590024 2.03136364"></polygon>
                <path d="M20.9661678,38.9686364 C29.5265814,38.9686364 33,32.278913 33,23.7184994 C33,15.1580857 26.0604136,9 17.5,9 C8.93958638,9 1.93089431,16.652501 1.93089431,25.2129146 C1.93089431,33.7733283 12.4057542,38.9686364 20.9661678,38.9686364 Z" id="Oval" fill="#765454"></path>
                <g id="noun_Snail_1148818" fill="#000000" fill-rule="nonzero">
                    <path d="M35,9 C36.3333333,9 36.3333333,7 35,7 C33.6666667,7 33.6666667,9 35,9 Z" id="Path"></path>
                    <path d="M33.0617857,0 L31.8267857,0 C28.5456975,0.00256930323 25.8864889,2.67107577 25.8839286,5.96363636 L25.8839286,12.4351136 C19.1879762,7.50557917 9.80664341,8.76902805 4.64285714,15.2957955 C1.6793427,19.0662443 1.10861611,24.1990632 3.17107143,28.5322727 C1.22402768,29.5648236 0.00422141035,31.5917997 0,33.8017045 L0,35.0363636 C0.00255594151,38.3271076 2.65893933,40.9948632 5.93821429,41 L33.0617857,41 C36.3410607,40.9948632 38.9974441,38.3271076 39,35.0363636 L39,5.96363636 C38.9974441,2.6728924 36.3410607,0.00513677556 33.0617857,0 Z M2.01964266,35.0363636 L2.01964266,33.8017045 C2.01917806,32.3140113 2.85442697,30.9531127 4.17857143,30.2840909 C4.88152817,31.3033251 5.73111228,32.2124027 6.69964286,32.9817045 C11.1370732,36.5052086 17.5806458,35.7522205 21.0925,31.2997727 C22.4739863,29.5443292 23.1034247,27.3098007 22.8421717,25.0883766 C22.5809187,22.8669526 21.4504047,20.8408552 19.6996429,19.4563636 C16.7003806,17.0823508 12.3524642,17.5907562 9.9775,20.5931818 C9.03076692,21.7897565 8.59670011,23.3148301 8.77085656,24.8326675 C8.94501301,26.3505049 9.71311557,27.7366755 10.9060714,28.6860227 C11.9042356,29.4851848 13.1785465,29.8523632 14.4471585,29.7063474 C15.7157706,29.5603317 16.8741425,28.9131542 17.6660714,27.9079545 C19.047795,26.1522339 18.7528919,23.6055323 17.0067857,22.2145455 C15.5180768,21.035478 13.3588967,21.2898967 12.1828571,22.7829545 C11.927948,23.0635824 11.8503174,23.4634602 11.9816093,23.8195888 C12.1129011,24.1757174 12.4311859,24.4286129 12.8067236,24.4751894 C13.1822612,24.521766 13.5523261,24.354244 13.7660714,24.0409091 C13.9951716,23.7418655 14.334991,23.5484372 14.7083284,23.504568 C15.0816657,23.4606988 15.4568233,23.5701134 15.7485714,23.8079545 C16.6198544,24.5024342 16.7672564,25.7732737 16.0782143,26.65 C15.1273355,27.8519696 13.3886243,28.0599303 12.1828571,27.1159091 C11.4086376,26.5024223 10.909422,25.6050667 10.7953216,24.6217708 C10.6812212,23.6384749 10.96161,22.6500213 11.5746429,21.8744318 C13.2517309,19.7415007 16.3342315,19.3764813 18.46,21.0590909 C19.7871081,22.1124714 20.6424258,23.652108 20.8375019,25.3387741 C21.0325779,27.0254403 20.5514052,28.7207353 19.5,30.0511364 C18.1468735,31.7676834 16.1695682,32.8744216 14.003183,33.1278173 C11.8367978,33.3812129 9.65884363,32.7605031 7.94857143,31.4022727 C3.39230023,27.7762634 2.62165782,21.1330696 6.22607143,16.55375 C10.8296147,10.7337562 19.2576523,9.74819316 25.0714286,14.35 C32.4354495,20.2123812 33.681587,30.9499611 27.8571429,38.3536364 C27.7190152,38.5304728 27.6438325,38.7486091 27.6435714,38.9732955 L5.93821429,38.9732955 C3.77329624,38.9707245 2.01964266,37.2088529 2.01964266,35.0363636 Z M36.9803571,35.0363636 C36.9777988,37.2070336 35.2248924,38.966069 33.0617857,38.9686364 L29.9325,38.9686364 C35.4388922,31.3271325 34.5799454,20.7998751 27.9082143,14.1589773 L27.9082143,5.96363636 C27.9107727,3.79296641 29.6636791,2.03393096 31.8267857,2.03136364 L33.0617857,2.03136364 C35.2248924,2.03393096 36.9777988,3.79296641 36.9803571,5.96363636 L36.9803571,35.0363636 Z" id="Shape"></path>
                </g>
            </g>
        </g>
    </g>
</svg>
