<?xml version="1.0" encoding="UTF-8"?>
<svg width="50px" height="50px" viewBox="0 0 50 50" version="1.1" xmlns="http://www.w3.org/2000/svg" xmlns:xlink="http://www.w3.org/1999/xlink">
    <!-- Generator: Sketch 58 (84663) - https://sketch.com -->
    <title>Icon/Tick</title>
    <desc>Created with Sketch.</desc>
    <g id="Icon/Tick" stroke="none" stroke-width="1" fill="none" fill-rule="evenodd">
        <g id="noun_tick_1610919" fill="#000000" fill-rule="nonzero">
            <path d="M24.8388829,0 C11.1439313,0 0,11.1439313 0,24.8388829 C0,38.5338346 11.1439313,49.6777658 24.8388829,49.6777658 C38.5338346,49.6777658 49.6777658,38.5338346 49.6777658,24.8388829 C49.6777658,11.1439313 38.5338346,0 24.8388829,0 Z M37.1911923,19.5354458 L22.8920516,33.0961332 C22.4892589,33.4317938 22.019334,33.6331901 21.4822771,33.6331901 C20.9452202,33.6331901 20.4081633,33.4317938 20.0725027,33.0290011 L12.5537057,25.3088077 C11.7481203,24.5032223 11.8152524,23.2277121 12.6208378,22.4892589 C13.4264232,21.6836735 14.7019334,21.7508056 15.4403867,22.556391 L21.5494092,28.8668099 L34.4387755,16.6487648 C35.2443609,15.9103115 36.5198711,15.9103115 37.2583244,16.7158969 C37.9967777,17.4543502 37.9967777,18.7298604 37.1911923,19.5354458 Z" id="Shape"></path>
        </g>
    </g>
</svg>