<?xml version="1.0" encoding="UTF-8"?>
<svg width="32px" height="34px" viewBox="0 0 32 34" version="1.1" xmlns="http://www.w3.org/2000/svg" xmlns:xlink="http://www.w3.org/1999/xlink">
    <!-- Generator: Sketch 58 (84663) - https://sketch.com -->
    <title>Icon/Map/Key-inactive</title>
    <desc>Created with Sketch.</desc>
    <g id="App" stroke="none" stroke-width="1" fill="none" fill-rule="evenodd">
        <g id="Onboarding_Step2" transform="translate(-61.000000, -191.000000)">
            <g id="Icon/Map/Key-inactive" transform="translate(62.000000, 192.000000)">
                <g id="Key-active">
                    <polygon id="Rectangle" fill="#F0BC5E" transform="translate(22.235294, 25.400922) rotate(45.000000) translate(-22.235294, -25.400922) " points="18.4412612 23.9230652 25.9812449 24.0512842 26.0293271 26.8787781 18.4893433 26.7505591"></polygon>
                    <polygon id="Path-9" fill="#F0BC5E" points="5.28941889 0.912954397 0.457787772 5.75115207 0.457787772 12.3740434 4.58481512 17.3742244 9.68929632 18.1607698 14.8235294 16.7741935 17.3460181 11.8122254 17.3460181 6.30640806 13.8970588 2.03659058 9.26470588 0"></polygon>
                    <polyline id="Path-8" stroke="#F0BC5E" stroke-width="5" points="13.8970588 13.4193548 20.8940445 21.6127801 28.7205882 29.7142857"></polyline>
                    <g id="noun_Key_880380">
                        <polygon id="Path-3" fill="#FFFFFF" points="7.18957851 5.75115207 5.55882353 8.08572902 5.83033849 10.8948195 8.56486645 13.0391024 11.4235466 11.7937284 12.2238804 8.08572902 10.0116688 5.75115207"></polygon>
                        <path d="M29.264872,26.86229 L16.9399416,14.1199803 C16.7776137,13.9509119 16.7415194,13.6918903 16.851085,13.4823244 C18.8802038,9.44106777 17.7555496,4.47374897 14.2023334,1.78344534 C10.6491172,-0.9068583 5.72911869,-0.516224455 2.61490168,2.70345436 C-0.499315326,5.92313317 -0.877153811,11.0097456 1.7250279,14.6832902 C4.32720962,18.3568347 9.13182199,19.5195749 13.0407057,17.4217407 C13.2434072,17.3084648 13.4939445,17.3457814 13.6574749,17.5136064 L18.8111566,22.8418156 C19.0138142,23.0525866 19.0138142,23.3929895 18.8111566,23.6037604 L16.3702141,26.1273645 C16.0732414,26.4370268 16.0732414,26.936302 16.3702141,27.2459643 L20.3896676,31.4015351 C20.6873987,31.7079368 21.1686693,31.7079368 21.4664003,31.4015351 L23.9073429,28.877931 C24.1112099,28.6684104 24.4404628,28.6684104 24.6443298,28.877931 L25.9771785,30.2559161 C26.4913356,30.7863477 27.3237828,30.7863477 27.8379399,30.2559161 L29.2596452,28.7860653 C29.7741494,28.2559877 29.7764878,27.3953475 29.264872,26.86229 Z M8.93239554,13.0014176 C7.18490849,12.9933923 5.68681668,11.7089187 5.35595156,9.9349146 C5.02508645,8.16091045 5.95381878,6.39264123 7.5731449,5.7134672 C9.19247101,5.03429317 11.0503082,5.63382578 12.008421,7.14475117 C12.9665337,8.65567657 12.7574366,10.6561754 11.5092364,11.9206079 C10.8213446,12.6174454 9.89544781,13.005783 8.93239554,13.0014176 L8.93239554,13.0014176 Z" id="Shape" stroke="#000000" stroke-width="2" stroke-linecap="round" stroke-linejoin="round"></path>
                    </g>
                </g>
            </g>
        </g>
    </g>
</svg>
