<?xml version="1.0" encoding="UTF-8"?>
<svg viewBox="0 0 32 32" version="1.1" xmlns="http://www.w3.org/2000/svg" xmlns:xlink="http://www.w3.org/1999/xlink">
    <!-- Generator: Sketch 58 (84663) - https://sketch.com -->
    <title>Icon/Map/Coin</title>
    <desc>Created with Sketch.</desc>
    <g id="App" stroke="none" stroke-width="1" fill="none" fill-rule="evenodd">
        <g id="Onboarding_Step2" transform="translate(-62.000000, -330.000000)">
            <g id="Icon/Map/Coin-active" transform="translate(62.000000, 330.000000)">
                <g id="Group-6">
                    <circle id="Oval" fill="#F0BC5E" cx="16" cy="16" r="13.2571429"></circle>
                    <g id="noun_Money-Bag_1075340" stroke="#000000">
                        <g id="Group-4">
                            <path d="M15.4322581,16.516129 L15.4322581,22.6064516 C14.0387097,22.2967742 13.0580645,21.0580645 13.0580645,19.6129032 C13.0580645,19.3032258 12.8516129,19.0967742 12.5419355,19.0967742 C12.2322581,19.0967742 12.0258065,19.3032258 12.0258065,19.6129032 C12.0258065,21.6258065 13.5225806,23.3290323 15.4322581,23.6387097 L15.4322581,24.7741935 C15.4322581,25.083871 15.6387097,25.2903226 15.9483871,25.2903226 C16.2580645,25.2903226 16.4645161,25.083871 16.4645161,24.7741935 L16.4645161,23.6903226 C18.5290323,23.483871 20.1806452,21.7290323 20.1806452,19.6129032 C20.1806452,17.4967742 18.5290323,15.7419355 16.4645161,15.5354839 L16.4645161,9.44516129 C17.9096774,9.70322581 18.9935484,10.9419355 18.9935484,12.4387097 C18.9935484,12.7483871 19.2,12.9548387 19.5096774,12.9548387 C19.8193548,12.9548387 20.0258065,12.7483871 20.0258065,12.4387097 C20.0258065,10.3741935 18.4774194,8.61935484 16.4645161,8.36129032 L16.4645161,7.27741935 C16.4645161,6.96774194 16.2580645,6.76129032 15.9483871,6.76129032 C15.6387097,6.76129032 15.4322581,6.96774194 15.4322581,7.27741935 L15.4322581,8.36129032 C13.4193548,8.61935484 11.8709677,10.3225806 11.8709677,12.4387097 C11.8193548,14.5548387 13.4193548,16.2580645 15.4322581,16.516129 Z M19.1483871,19.6129032 C19.1483871,21.1612903 17.9612903,22.4516129 16.4645161,22.6580645 L16.4645161,16.5677419 C17.9612903,16.7741935 19.1483871,18.0645161 19.1483871,19.6129032 Z M15.4322581,9.44516129 L15.4322581,15.483871 C13.9870968,15.2258065 12.9032258,13.9870968 12.9032258,12.4903226 C12.8516129,10.9419355 13.9870968,9.70322581 15.4322581,9.44516129 Z" id="Shape" fill="#000000" fill-rule="nonzero"></path>
                            <circle id="Oval" stroke-width="2" cx="16" cy="16" r="15"></circle>
                        </g>
                    </g>
                </g>
            </g>
        </g>
    </g>
</svg>
