<?xml version="1.0" encoding="UTF-8"?>
<svg viewBox="0 0 202 114" version="1.1" xmlns="http://www.w3.org/2000/svg" xmlns:xlink="http://www.w3.org/1999/xlink">
    <!-- Generator: Sketch 58 (84663) - https://sketch.com -->
    <title>Bank-Group</title>
    <desc>Created with Sketch.</desc>
    <g id="App" stroke="none" stroke-width="1" fill="none" fill-rule="evenodd">
        <g id="Onboarding_Step2" transform="translate(-87.000000, -510.000000)">
            <g id="Bank-Group" transform="translate(88.000000, 510.000000)">
                <g id="Tree-Left" transform="translate(17.000000, 0.000000)">
                    <ellipse id="Oval" fill="#C7C7BB" cx="18" cy="31" rx="14" ry="24"></ellipse>
                    <path d="M18,0 C8.04705882,0 0,13.8929936 0,30.9197452 C0,47.3197452 7.51764706,60.7949045 16.9411765,61.7350318 L16.9411765,80.955414 C16.9411765,81.5821656 17.3647059,82 18,82 C18.6352941,82 19.0588235,81.5821656 19.0588235,80.955414 L19.0588235,61.7350318 C28.4823529,60.7949045 36,47.3197452 36,30.9197452 C36,13.8929936 27.9529412,0 18,0 Z M19.0588235,59.6458599 L19.0588235,40.5299363 L26.8941176,31.5464968 C27.3176471,31.1286624 27.2117647,30.5019108 26.7882353,30.0840764 C26.3647059,29.666242 25.7294118,29.7707006 25.3058824,30.188535 L19.0588235,37.2917197 L19.0588235,21.6229299 C19.0588235,20.9961783 18.6352941,20.5783439 18,20.5783439 C17.3647059,20.5783439 16.9411765,20.9961783 16.9411765,21.6229299 L16.9411765,48.0509554 C15.2470588,46.066242 12.3882353,42.6191083 9.84705882,39.3808917 C9.52941176,38.9630573 8.78823529,38.8585987 8.36470588,39.1719745 C7.94117647,39.4853503 7.83529412,40.2165605 8.15294118,40.6343949 C13.7647059,47.7375796 15.9882353,50.1401274 16.9411765,50.9757962 L16.9411765,59.4369427 C8.68235294,58.4968153 2.11764706,45.9617834 2.11764706,30.710828 C2.11764706,14.833121 9.21176471,1.88025478 18,1.88025478 C26.7882353,1.88025478 33.8823529,14.833121 33.8823529,30.710828 C33.8823529,46.1707006 27.3176471,58.6012739 19.0588235,59.6458599 Z" id="Shape" fill="#000000" fill-rule="nonzero"></path>
                </g>
                <g id="Hügel" transform="translate(0.000000, 70.000000)">
                    <path d="M119.0445,33.0493 C110.6445,26.6903 102.1745,21.6503 93.6145,17.9203 C100.6245,10.5493 117.7345,5.3603 137.7145,5.3603 C163.9545,5.3603 185.2145,14.3093 185.2145,25.3603 C185.2145,32.3603 146.9945,34.9203 119.0445,33.0493 Z" id="Hügel-Fill-Right" fill="#C7C7BB"></path>
                    <path d="M104.2165,35.3574 C104.2165,24.3124 82.9495,15.3574 56.7165,15.3574 C30.4835,15.3574 9.2165,24.3124 9.2165,35.3574 C9.2165,46.4034 104.2165,46.4034 104.2165,35.3574 Z" id="Hügel-Fill-Left" fill="#C7C7BB"></path>
                    <path d="M121.5744,35 C120.7344,34.33 119.8844,33.68 119.0444,33.05 C110.6444,26.69 102.1744,21.65 93.6144,17.92 C63.6144,4.85 32.5944,7.95 0.5744,27.21" id="Hügel-Stroke-Left" stroke="#000000" stroke-width="2.229" stroke-linecap="round"></path>
                    <path d="M83.5744,14.458 C123.9054,-6.797 162.5714,-4.616 199.5744,21" id="Hügel-Stroke-Right" stroke="#000000" stroke-width="2" stroke-linecap="round"></path>
                </g>
                <g id="Tree-Right" transform="translate(71.000000, 28.000000)">
                    <ellipse id="Oval" fill="#E5C5B7" cx="20" cy="19.5" rx="15" ry="14.5"></ellipse>
                    <path d="M0.4,19.1 C0.4,29.3 8.4,37.6 18.5,38.1 L18.5,52 C18.5,52.6 18.9,53 19.5,53 C20.1,53 20.5,52.6 20.5,52 L20.5,38.1 C30.6,37.6 38.6,29.3 38.6,19.1 C38.6,8.6 30,0 19.5,0 C9,0 0.4,8.6 0.4,19.1 Z M19.5,2 C28.9,2 36.6,9.7 36.6,19.1 C36.6,28.2 29.5,35.6 20.5,36.1 L20.5,28.3 L26,24 C26.4,23.7 26.5,23 26.2,22.6 C25.9,22.2 25.2,22.1 24.8,22.4 L20.5,25.8 L20.5,16.9 C20.5,16.3 20.1,15.9 19.5,15.9 C18.9,15.9 18.5,16.3 18.5,16.9 L18.5,21.1 L14,17.6 C13.6,17.3 12.9,17.3 12.6,17.8 C12.3,18.2 12.3,18.9 12.8,19.2 L18.5,23.7 L18.5,36.2 C9.6,35.7 2.4,28.3 2.4,19.2 C2.4,9.7 10.1,2 19.5,2 Z" id="Shape" fill="#000000" fill-rule="nonzero"></path>
                </g>
                <g id="Bench" transform="translate(115.000000, 42.000000)">
                    <rect id="Rectangle" fill="#F0BC5E" x="7" y="5" width="39" height="10" rx="2"></rect>
                    <path d="M0.752258065,21.4563319 L2.53032258,21.4563319 L2.53032258,30.3231441 C2.53032258,30.7292576 2.80387097,31 3.21419355,31 C3.62451613,31 3.89806452,30.7292576 3.89806452,30.3231441 L3.89806452,21.4563319 L48.9651613,21.4563319 L48.9651613,30.3231441 C48.9651613,30.7292576 49.2387097,31 49.6490323,31 C50.0593548,31 50.3329032,30.7292576 50.3329032,30.3231441 L50.3329032,21.4563319 L52.316129,21.4563319 C52.7264516,21.4563319 53,21.1855895 53,20.779476 L53,16.9213974 C53,16.5152838 52.7264516,16.2445415 52.316129,16.2445415 L48.3496774,16.2445415 L48.3496774,0.676855895 C48.3496774,0.270742358 48.076129,0 47.6658065,0 C47.2554839,0 46.9819355,0.270742358 46.9819355,0.676855895 L46.9819355,1.82751092 L5.19741935,1.82751092 L5.19741935,0.676855895 C5.19741935,0.270742358 4.92387097,0 4.51354839,0 C4.10322581,0 3.82967742,0.270742358 3.82967742,0.676855895 L3.82967742,16.2445415 L0.683870968,16.2445415 C0.273548387,16.2445415 0,16.5152838 0,16.9213974 L0,20.779476 C0.0683870968,21.1179039 0.341935484,21.4563319 0.752258065,21.4563319 Z M46.9819355,8.79912664 L5.19741935,8.79912664 L5.19741935,6.430131 L46.9819355,6.430131 L46.9819355,8.79912664 Z M5.19741935,10.1528384 L46.9819355,10.1528384 L46.9819355,12.4541485 L5.19741935,12.4541485 L5.19741935,10.1528384 Z M46.9819355,3.11353712 L46.9819355,5.1441048 L5.19741935,5.1441048 L5.19741935,3.11353712 L46.9819355,3.11353712 Z M5.19741935,13.8078603 L46.9819355,13.8078603 L46.9819355,16.2445415 L5.19741935,16.2445415 L5.19741935,13.8078603 Z M1.43612903,17.5982533 L51.6322581,17.5982533 L51.6322581,20.1026201 L1.43612903,20.1026201 L1.43612903,17.5982533 Z" id="Shape" fill="#000000" fill-rule="nonzero"></path>
                </g>
            </g>
        </g>
    </g>
</svg>
