<?xml version="1.0" encoding="UTF-8"?>
<svg viewBox="0 0 50 29" version="1.1" xmlns="http://www.w3.org/2000/svg" xmlns:xlink="http://www.w3.org/1999/xlink">
    <!-- Generator: Sketch 58 (84663) - https://sketch.com -->
    <title>Crazy-Fish</title>
    <desc>Created with Sketch.</desc>
    <g id="App" stroke="none" stroke-width="1" fill="none" fill-rule="evenodd">
        <g id="Room-Rekruting-Copy" transform="translate(-89.000000, -253.000000)">
            <g id="Crazy-Fish" transform="translate(89.000000, 253.000000)">
                <path d="M9.38078293,9.21348986 C21.0579393,3.45317693 19.8620003,3.39059122 36.9667646,3.39059122 C54.071529,3.39059122 52.2271126,21.055873 41.4785638,24.7765033 C30.730015,28.4971336 26.2522613,28.7688545 12.6561633,25.0482242 C-0.939934624,21.3275939 -2.29637345,14.9738028 9.38078293,9.21348986 Z" id="Rectangle" fill="#E5CBC0"></path>
                <g id="noun_Fish_1776763-(1)" fill="#000000" fill-rule="nonzero">
                    <path d="M0.0013044087,25.459077 C0.00802377671,25.7857627 0.252975022,26.055443 0.570312066,26.0848854 C0.847638403,26.1105692 1.12221587,26.1234111 1.39587708,26.1234111 C4.73295567,26.1230979 7.78629405,24.2115319 10.2684868,20.5522127 C11.5079033,18.7249023 12.3304141,16.8772326 12.7818329,15.7192678 C14.6322531,18.2894517 16.7879078,20.2184404 18.9718908,21.6731396 C18.2826983,22.4014092 16.7928328,23.7642183 14.8123014,24.3603102 C13.8990793,24.6350019 13.750948,25.2639425 13.7295682,25.5217204 C13.660542,26.3548788 14.4635055,27.2754248 15.8773201,27.9842359 C16.9551665,28.5248491 18.5931633,29 20.4953531,29 C22.9809436,29 25.916846,28.1852432 28.6388358,25.645872 C30.5073525,26.0260397 31.7673852,26.0817532 31.9320095,26.0873912 C31.9610249,26.0873912 31.9888187,26.0873912 32.0175287,26.0873912 C46.3392341,26.0873912 49.9377569,14.6474378 49.97227,14.5315474 C50.0135025,14.3943581 50.0086157,14.2468327 49.9585258,14.1127757 C45.0665261,1.06163183 31.9875969,2.58731395 31.9127677,2.59858976 C31.7356591,2.60473664 30.191657,2.6743884 27.9599131,3.18645974 C23.2012699,-1.09968586 17.8413202,-0.220327936 15.3871121,1.01057742 C13.9736031,1.71938848 13.1709449,2.63993451 13.2399711,3.47309285 C13.2613509,3.73087082 13.4094823,4.35981138 14.3227044,4.63450309 C16.3073208,5.23173044 17.8093269,6.6118447 18.4951598,7.33725628 C16.4757248,8.75151126 14.4974459,10.5835592 12.7818329,12.9667131 C12.3304141,11.8087483 11.5079033,9.96076543 10.2684868,8.13345496 C7.58318608,4.17407343 4.22747657,2.26125459 0.570312066,2.6007823 C0.252975022,2.63022472 0.00802377671,2.89990495 0.0013044087,3.2265907 C-0.00510952212,3.5573483 -0.104983668,10.958363 3.83775366,14.3429904 C-0.104983606,17.7273048 -0.00510952212,25.1283194 0.0013044087,25.459077 Z M17.0052563,27.0906266 C15.6213735,26.5393639 15.0685534,25.8938227 14.9870048,25.6658005 C15.0175473,25.6466942 15.072524,25.6191311 15.1647624,25.5912548 C17.6230175,24.8512394 19.3786794,23.1225141 20.0613816,22.3604561 C22.5773239,23.8566175 25.0669614,24.7536722 27.115259,25.2899787 C23.5765614,28.1538823 19.6310371,28.1371251 17.0052563,27.0906266 Z M48.7078085,14.3552059 C48.1775899,15.8126458 44.447696,24.6669892 32.3061939,24.7989321 C25.9180676,14.7374878 31.2818733,5.40865903 32.2708408,3.8529081 C34.0282972,3.72155258 44.4735044,3.42881171 48.7078085,14.3552059 Z M14.6751654,3.40355854 C14.5829269,3.37568221 14.5279503,3.34811905 14.4971023,3.32901282 C14.5789564,3.1009905 15.131471,2.45544941 16.5153538,1.90418674 C19.0994441,0.874875938 22.9611673,0.847743519 26.4560745,3.57594559 C24.4040354,4.16620382 21.9839586,5.11137656 19.5646834,6.62648758 C18.8769035,5.86043604 17.1248303,4.1408332 14.6751654,3.40355854 Z M30.7393613,4.00372228 C29.136832,6.98465171 25.5023835,15.5781634 30.7636808,24.6886404 C27.5867596,24.2724136 18.7892846,22.4122936 13.3612251,14.3429904 C18.7518699,6.33108443 27.488298,4.43968181 30.7393613,4.00372228 Z M5.22927209,13.8020639 C1.81217202,11.5697633 1.32807265,5.72951113 1.26179535,3.84644799 C1.30608205,3.84582154 1.34975788,3.84550837 1.39343371,3.84550837 C8.11981871,3.84550837 11.4590353,12.9037564 11.9464943,14.3433037 C11.4568974,15.7938137 8.09141417,24.9679521 1.26179535,24.8392198 C1.32807265,22.9561566 1.81217202,17.1162176 5.22927209,14.883917 C5.40977853,14.7661473 5.51881541,14.5622428 5.51881541,14.3429906 C5.51881541,14.1237383 5.40977853,13.9198337 5.22927209,13.8020639 Z" id="Shape"></path>
                    <path d="M35.6733362,13 C36.0451834,13 36.3466723,12.7838454 36.3466723,12.5172468 C36.3466723,11.6615856 37.3126203,10.9655064 38.4998356,10.9655064 C39.6873797,10.9655064 40.6533277,11.6615856 40.6533277,12.5172468 C40.6533277,12.7838454 40.9548166,13 41.3266638,13 C41.6985111,13 42,12.7838454 42,12.5172468 C42,11.1293314 40.4297591,10 38.4998356,10 C36.5699121,10 35,11.1293314 35,12.5172468 C35,12.7838454 35.3014889,13 35.6733362,13 Z" id="Path"></path>
                </g>
            </g>
        </g>
    </g>
</svg>
