<?xml version="1.0" encoding="UTF-8"?>
<svg viewBox="0 0 74 45" version="1.1" xmlns="http://www.w3.org/2000/svg" xmlns:xlink="http://www.w3.org/1999/xlink">
    <!-- Generator: Sketch 58 (84663) - https://sketch.com -->
    <title>Fishgroup</title>
    <desc>Created with Sketch.</desc>
    <g id="App" stroke="none" stroke-width="1" fill="none" fill-rule="evenodd">
        <g id="Room-Rekruting-Copy" transform="translate(-135.000000, -164.000000)">
            <g id="Fishgroup" transform="translate(134.000000, 157.000000)">
                <path d="M59.9134684,18.5401797 C68.3331766,15.9275024 67.5446205,18.6070315 68.7363976,20.5290256 C69.9281747,22.4510196 68.7450727,26.3568005 61.1528436,29.8756813 C59.5373827,30.6244224 51.756,30.8350502 52.1501839,27.8975792 C53.2413045,19.7665128 55.8215361,19.8099267 59.9134684,18.5401797 Z" id="Rectangle" fill="#B6A6B9" transform="translate(60.635722, 23.903926) rotate(30.000000) translate(-60.635722, -23.903926) "></path>
                <path d="M10.9064187,9.94851622 C19.2440582,4.28817763 21.6891078,3.72312778 27.2050748,6.35162381 C32.7210418,8.98011983 28.0763032,23.1128988 25.3187929,25.7224596 C22.5612825,28.3320203 15.6683262,29.4103252 8.51121962,28.1517031 C6.7078267,27.8345651 4.20431264,24.3595575 4.58103987,21.3444321 C5.62383965,12.9984147 7.79072858,12.0637266 10.9064187,9.94851622 Z" id="Rectangle" fill="#AEC6CF" transform="translate(17.162088, 16.759477) rotate(30.000000) translate(-17.162088, -16.759477) "></path>
                <path d="M28.811039,40.3378451 C35.1747464,34.3678442 44.0422343,37.2850074 48.0864444,40.5207191 C52.1306545,43.7564308 36.9589529,54.5094883 29.8018463,53.2508662 C27.9984534,52.9337283 23.4040071,51.0904669 23.7807343,48.0753415 C24.8235341,39.7293241 26.0878079,42.8925967 28.811039,40.3378451 Z" id="Rectangle" fill="#B6A6B9" transform="translate(36.259805, 45.118322) rotate(30.000000) translate(-36.259805, -45.118322) "></path>
                <g id="Group" transform="translate(36.800777, 44.000000) scale(-1, 1) translate(-36.800777, -44.000000) translate(22.800777, 36.000000)" fill="#000000" fill-rule="nonzero">
                    <path d="M9.59232693e-14,14.0323324 C9.59232693e-14,14.5323324 0.4,14.9323324 0.9,15.0323324 C4.4,15.4323324 6.5,12.0323324 7.4,9.73233238 C11.2,14.6323324 17,15.0323324 17.6,15.0323324 C17.7,15.0323324 18,15.0323324 18.3,15.0323324 C20.3,15.0323324 25.4,14.3323324 27.6,7.83233238 C27.7,7.63233238 27.7,7.43233238 27.6,7.23233238 C27.6,7.13233238 25.6,0.0323323819 17.7,0.0323323819 C17.7,0.0323323819 17.7,0.0323323819 17.7,0.0323323819 C17.4,0.0323323819 11.4,0.332332382 7.4,5.33233238 C6.4,3.03233238 4.4,-0.367667618 0.9,0.0323323819 C0.4,0.132332382 9.59232693e-14,0.532332382 9.59232693e-14,1.03233238 C9.59232693e-14,1.53233238 9.59232693e-14,5.33233238 1.8,7.53233238 C9.59232693e-14,9.73233238 9.59232693e-14,13.5323324 9.59232693e-14,14.0323324 Z M17.7,2.03233238 C17.8,2.03233238 17.8,2.03233238 17.7,2.03233238 C23.3,2.03233238 25.2,6.33233238 25.6,7.53233238 C23.4,13.7323324 18.1,13.0323324 17.8,13.0323324 C17.8,13.0323324 17.7,13.0323324 17.7,13.0323324 C17.6,13.0323324 11.6,12.7323324 8.3,7.53233238 C11.6,2.33233238 17.7,2.03233238 17.7,2.03233238 Z M6.1,7.53233238 C5.8,8.53233238 4.4,12.3323324 2,12.9323324 C2.1,11.4323324 2.6,9.23233238 3.7,8.33233238 C4,8.13233238 4.1,7.83233238 4.1,7.53233238 C4.1,7.23233238 4,6.93233238 3.7,6.73233238 C2.5,5.83233238 2.1,3.63233238 2,2.13233238 C4.4,2.73233238 5.8,6.53233238 6.1,7.53233238 Z" id="Shape"></path>
                    <circle id="Oval" cx="22.5" cy="6.13233238" r="1"></circle>
                </g>
                <g id="Group-3" transform="translate(22.500000, 18.500000) scale(-1, 1) translate(-22.500000, -18.500000) translate(1.000000, 7.000000)" fill="#000000" fill-rule="nonzero">
                    <path d="M0.100776879,21.1411947 C0.100776879,21.6411947 0.500776879,22.0411947 1.00077688,22.1411947 C6.60077688,22.7411947 9.70077688,16.6411947 11.0007769,13.3411947 C16.8007769,21.4411947 26.3007769,22.1411947 27.1007769,22.1411947 C27.2007769,22.1411947 27.6007769,22.2411947 28.2007769,22.2411947 C31.1007769,22.2411947 38.8007769,21.2411947 42.1007769,11.4411947 C42.2007769,11.2411947 42.2007769,11.0411947 42.1007769,10.8411947 C42.1007769,10.7411947 39.1007769,0.0411947334 27.2007769,0.0411947334 C27.2007769,0.0411947334 27.2007769,0.0411947334 27.1007769,0.0411947334 C26.7007769,0.0411947334 16.9007769,0.541194733 10.9007769,8.84119473 C9.60077688,5.54119473 6.50077688,-0.558805267 0.900776879,0.0411947334 C0.400776879,0.141194733 0.000386253799,0.541194733 0.000386253799,1.04119473 C0.000386253799,1.34119473 -0.0992231212,7.84119473 2.90077688,11.1411947 C0.100776879,14.3411947 0.100776879,20.8411947 0.100776879,21.1411947 Z M27.2007769,1.94119473 C27.2007769,1.94119473 27.2007769,1.94119473 27.2007769,1.94119473 C36.7007769,1.94119473 39.6007769,9.44119473 40.1007769,11.0411947 C36.5007769,21.3411947 27.7007769,20.2411947 27.3007769,20.1411947 C27.3007769,20.1411947 27.2007769,20.1411947 27.2007769,20.1411947 C27.1007769,20.1411947 17.1007769,19.6411947 11.8007769,11.0411947 C17.1007769,2.44119473 27.1007769,1.94119473 27.2007769,1.94119473 Z M5.10077688,11.8411947 C5.40077688,11.6411947 5.50077688,11.3411947 5.50077688,11.0411947 C5.50077688,10.7411947 5.40077688,10.4411947 5.10077688,10.2411947 C2.90077688,8.64119473 2.20077688,4.34119473 2.10077688,1.94119473 C6.70077688,2.34119473 9.20077688,9.54119473 9.60077688,11.0411947 C9.20077688,12.5411947 6.70077688,19.7411947 2.10077688,20.1411947 C2.30077688,17.7411947 2.90077688,13.4411947 5.10077688,11.8411947 Z" id="Shape"></path>
                    <ellipse id="Oval" cx="34.7007769" cy="8.84119473" rx="1" ry="1.1"></ellipse>
                </g>
                <g id="Group-4" transform="translate(63.000000, 24.374403) scale(-1, 1) translate(-63.000000, -24.374403) translate(51.500000, 17.874403)" fill="#000000" fill-rule="nonzero">
                    <g id="Shape-2">
                        <path d="M-9.23705556e-14,11.2255968 C-9.23705556e-14,11.7255968 0.4,12.1255968 0.9,12.2255968 C3.6,12.5255968 5.2,10.1255968 6.1,8.32559679 C9.1,11.8255968 13.4,12.2255968 14,12.2255968 C14.2,12.2255968 14.5,12.2255968 14.7,12.2255968 C16.9,12.2255968 20.5,11.0255968 22,6.42559679 C22.1,6.22559679 22.1,6.02559679 22,5.82559679 C21.5,3.82559679 19.1,0.0255967863 14.1,0.0255967863 C14.1,0.0255967863 14.1,0.0255967863 14.1,0.0255967863 C13.9,0.0255967863 9.3,0.225596786 6.2,3.92559679 C5.4,2.12559679 3.7,-0.274403214 1,0.0255967863 C0.5,0.125596786 0.1,0.525596786 0.1,1.02559679 C0.1,1.42559679 0.1,4.32559679 1.4,6.12559679 C-9.23705556e-14,8.02559679 -9.23705556e-14,10.8255968 -9.23705556e-14,11.2255968 Z M14.1,2.12559679 C14.1,2.12559679 14.1,2.12559679 14.1,2.12559679 C18.2,2.12559679 19.7,5.22559679 20,6.12559679 C18.3,10.7255968 14.4,10.2255968 14.2,10.2255968 C14.2,10.2255968 14.1,10.2255968 14.1,10.2255968 C14.1,10.2255968 9.5,10.0255968 7,6.22559679 C9.5,2.32559679 13.9,2.12559679 14.1,2.12559679 Z M3.3,5.42559679 C2.5,4.82559679 2.2,3.42559679 2.1,2.32559679 C3.6,3.02559679 4.5,5.42559679 4.8,6.22559679 C4.5,7.02559679 3.6,9.42559679 2.1,10.1255968 C2.2,9.02559679 2.6,7.62559679 3.3,7.02559679 C3.6,6.82559679 3.7,6.52559679 3.7,6.22559679 C3.7,5.92559679 3.6,5.52559679 3.3,5.42559679 Z" id="Shape"></path>
                    </g>
                    <ellipse id="Oval" cx="17.8" cy="5.02559679" rx="1" ry="1"></ellipse>
                </g>
            </g>
        </g>
    </g>
</svg>
