<?xml version="1.0" encoding="UTF-8"?>
<svg viewBox="0 0 82 77" version="1.1" xmlns="http://www.w3.org/2000/svg" xmlns:xlink="http://www.w3.org/1999/xlink">
    <!-- Generator: Sketch 58 (84663) - https://sketch.com -->
    <title>Fishgroup2</title>
    <desc>Created with Sketch.</desc>
    <g id="App" stroke="none" stroke-width="1" fill="none" fill-rule="evenodd">
        <g id="Room-Rekruting-Copy" transform="translate(-204.000000, -563.000000)">
            <g id="Fishgroup2" transform="translate(204.000000, 558.000000)">
                <path d="M20.9025258,50.2045173 C24.6498542,47.2157908 31.4635275,45.9985457 35.210856,48.9872723 C38.9581845,51.9759988 37.6631369,58.9839827 33.1167755,61.9609996 C28.570414,64.9380165 20.6435863,64.8672821 17.5718877,63.2909539 C14.5001892,61.7146257 17.1551973,53.1932439 20.9025258,50.2045173 Z" id="Rectangle" fill="#AEC6CF" transform="translate(26.814948, 55.815237) rotate(30.000000) translate(-26.814948, -55.815237) "></path>
                <path d="M66.2554003,32.3601995 C70.0027288,29.3714729 75.328726,27.6274974 79.0760545,30.616224 C82.823383,33.6049505 82.4294089,40.3236395 77.8830475,43.3006564 C73.336686,46.2776733 68.1071865,46.3217302 65.0354879,44.7454021 C61.9637894,43.1690739 62.5080718,35.348926 66.2554003,32.3601995 Z" id="Rectangle" fill="#AEC6CF" transform="translate(72.331892, 37.421208) rotate(30.000000) translate(-72.331892, -37.421208) "></path>
                <path d="M50.1572373,8.3459287 C56.5209446,2.37592778 61.1649714,4.16392965 65.2091815,7.39964134 C69.2533916,10.635353 67.3271218,21.5103113 64.5696114,24.119872 C61.812101,26.7294328 55.3887128,30.2966592 48.2316062,29.0380371 C46.4282133,28.7208991 43.4551312,22.7569699 43.8318584,19.7418446 C44.8746582,11.3958271 47.4340062,10.9006803 50.1572373,8.3459287 Z" id="Rectangle" fill="#AEC6CF" transform="translate(55.663054, 16.856175) rotate(30.000000) translate(-55.663054, -16.856175) "></path>
                <path d="M53.9205799,49.1331687 C57.6679083,46.1444422 64.5902698,43.9240687 66.9784537,48.0605247 C69.3666377,52.1969807 67.2815117,54.7199517 62.7351502,57.6969686 C58.1887888,60.6739856 54.564305,62.0593068 51.4926064,60.4829786 C48.4209079,58.9066504 50.1732514,52.1218953 53.9205799,49.1331687 Z" id="Rectangle" fill="#AEC6CF" transform="translate(58.947711, 53.465310) rotate(30.000000) translate(-58.947711, -53.465310) "></path>
                <path d="M24.4739533,33.784282 C28.2212818,30.7955554 33.7622019,28.0037337 37.5095304,30.9924602 C41.2568589,33.9811868 41.8251658,37.415814 37.2788043,40.3928309 C32.7324428,43.3698478 26.1770616,44.7200387 23.105363,43.1437105 C20.0336645,41.5673823 20.7266248,36.7730085 24.4739533,33.784282 Z" id="Rectangle" fill="#A5B4B3" transform="translate(30.839992, 36.760497) rotate(30.000000) translate(-30.839992, -36.760497) "></path>
                <path d="M36.7063177,74.9542891 C40.4536462,71.9655625 46.6627677,65.9012031 50.4100962,68.8899297 C54.1574247,71.8786563 54.7257316,75.3132835 50.1793701,78.2903004 C45.6330086,81.2673173 39.0776274,82.6175082 36.0059288,81.04118 C32.9342303,79.4648518 32.9589892,77.9430156 36.7063177,74.9542891 Z" id="Rectangle" fill="#A5B4B3" transform="translate(43.598950, 74.894778) rotate(30.000000) translate(-43.598950, -74.894778) "></path>
                <g id="Group-3" transform="translate(29.199223, 5.358805)" fill="#000000" fill-rule="nonzero">
                    <path d="M0.100776879,21.1411947 C0.100776879,21.6411947 0.500776879,22.0411947 1.00077688,22.1411947 C6.60077688,22.7411947 9.70077688,16.6411947 11.0007769,13.3411947 C16.8007769,21.4411947 26.3007769,22.1411947 27.1007769,22.1411947 C27.2007769,22.1411947 27.6007769,22.2411947 28.2007769,22.2411947 C31.1007769,22.2411947 38.8007769,21.2411947 42.1007769,11.4411947 C42.2007769,11.2411947 42.2007769,11.0411947 42.1007769,10.8411947 C42.1007769,10.7411947 39.1007769,0.0411947334 27.2007769,0.0411947334 C27.2007769,0.0411947334 27.2007769,0.0411947334 27.1007769,0.0411947334 C26.7007769,0.0411947334 16.9007769,0.541194733 10.9007769,8.84119473 C9.60077688,5.54119473 6.50077688,-0.558805267 0.900776879,0.0411947334 C0.400776879,0.141194733 0.000386253799,0.541194733 0.000386253799,1.04119473 C0.000386253799,1.34119473 -0.0992231212,7.84119473 2.90077688,11.1411947 C0.100776879,14.3411947 0.100776879,20.8411947 0.100776879,21.1411947 Z M27.2007769,1.94119473 C27.2007769,1.94119473 27.2007769,1.94119473 27.2007769,1.94119473 C36.7007769,1.94119473 39.6007769,9.44119473 40.1007769,11.0411947 C36.5007769,21.3411947 27.7007769,20.2411947 27.3007769,20.1411947 C27.3007769,20.1411947 27.2007769,20.1411947 27.2007769,20.1411947 C27.1007769,20.1411947 17.1007769,19.6411947 11.8007769,11.0411947 C17.1007769,2.44119473 27.1007769,1.94119473 27.2007769,1.94119473 Z M5.10077688,11.8411947 C5.40077688,11.6411947 5.50077688,11.3411947 5.50077688,11.0411947 C5.50077688,10.7411947 5.40077688,10.4411947 5.10077688,10.2411947 C2.90077688,8.64119473 2.20077688,4.34119473 2.10077688,1.94119473 C6.70077688,2.34119473 9.20077688,9.54119473 9.60077688,11.0411947 C9.20077688,12.5411947 6.70077688,19.7411947 2.10077688,20.1411947 C2.30077688,17.7411947 2.90077688,13.4411947 5.10077688,11.8411947 Z" id="Shape"></path>
                    <ellipse id="Oval" cx="34.7007769" cy="8.84119473" rx="1" ry="1.1"></ellipse>
                </g>
                <path d="M11,58.6 C16.8,66.7 26.3,67.4 27.1,67.4 C27.2,67.4 27.6,67.5 28.2,67.5 C31.1,67.5 38.8,66.5 42.1,56.7 C42.2,56.5 42.2,56.3 42.1,56.1 C42.1,56 39.1,45.3 27.2,45.3 C27.2,45.3 27.2,45.3 27.1,45.3 C26.7,45.3 16.9,45.8 10.9,54.1 C9.6,50.8 6.5,44.7 0.9,45.3 C0.4,45.4 0,45.8 0,46.3 C0.1,46.5 0,53 3,56.3 C0,59.6 0.1,66.1 0.1,66.4 C0.1,66.9 0.5,67.3 1,67.4 C6.6,68 9.7,61.9 11,58.6 Z M27.2,47.2 C27.2,47.2 27.2,47.2 27.2,47.2 C36.7,47.2 39.6,54.7 40.1,56.3 C36.5,66.6 27.7,65.5 27.3,65.4 C27.3,65.4 27.2,65.4 27.2,65.4 C27.1,65.4 17.1,64.9 11.8,56.3 C17.1,47.7 27.1,47.2 27.2,47.2 Z M5.1,57.1 C5.4,56.9 5.5,56.6 5.5,56.3 C5.5,56 5.4,55.7 5.1,55.5 C2.9,53.9 2.2,49.6 2.1,47.2 C6.7,47.6 9.2,54.8 9.6,56.3 C9.2,57.8 6.7,65 2.1,65.4 C2.2,63 2.9,58.7 5.1,57.1 Z" id="Shape" fill="#000000" fill-rule="nonzero"></path>
                <ellipse id="Oval" fill="#000000" fill-rule="nonzero" cx="34.6" cy="54.1" rx="1" ry="1.1"></ellipse>
                <g id="Group-4" transform="translate(17.500000, 29.874403)" fill="#000000" fill-rule="nonzero">
                    <g id="Shape-2">
                        <path d="M-9.23705556e-14,11.2255968 C-9.23705556e-14,11.7255968 0.4,12.1255968 0.9,12.2255968 C3.6,12.5255968 5.2,10.1255968 6.1,8.32559679 C9.1,11.8255968 13.4,12.2255968 14,12.2255968 C14.2,12.2255968 14.5,12.2255968 14.7,12.2255968 C16.9,12.2255968 20.5,11.0255968 22,6.42559679 C22.1,6.22559679 22.1,6.02559679 22,5.82559679 C21.5,3.82559679 19.1,0.0255967863 14.1,0.0255967863 C14.1,0.0255967863 14.1,0.0255967863 14.1,0.0255967863 C13.9,0.0255967863 9.3,0.225596786 6.2,3.92559679 C5.4,2.12559679 3.7,-0.274403214 1,0.0255967863 C0.5,0.125596786 0.1,0.525596786 0.1,1.02559679 C0.1,1.42559679 0.1,4.32559679 1.4,6.12559679 C-9.23705556e-14,8.02559679 -9.23705556e-14,10.8255968 -9.23705556e-14,11.2255968 Z M14.1,2.12559679 C14.1,2.12559679 14.1,2.12559679 14.1,2.12559679 C18.2,2.12559679 19.7,5.22559679 20,6.12559679 C18.3,10.7255968 14.4,10.2255968 14.2,10.2255968 C14.2,10.2255968 14.1,10.2255968 14.1,10.2255968 C14.1,10.2255968 9.5,10.0255968 7,6.22559679 C9.5,2.32559679 13.9,2.12559679 14.1,2.12559679 Z M3.3,5.42559679 C2.5,4.82559679 2.2,3.42559679 2.1,2.32559679 C3.6,3.02559679 4.5,5.42559679 4.8,6.22559679 C4.5,7.02559679 3.6,9.42559679 2.1,10.1255968 C2.2,9.02559679 2.6,7.62559679 3.3,7.02559679 C3.6,6.82559679 3.7,6.52559679 3.7,6.22559679 C3.7,5.92559679 3.6,5.52559679 3.3,5.42559679 Z" id="Shape"></path>
                    </g>
                    <ellipse id="Oval" cx="17.8" cy="5.02559679" rx="1" ry="1"></ellipse>
                </g>
                <path d="M31.1,80.5 C31.1,81 31.5,81.4 32,81.5 C34.7,81.8 36.3,79.4 37.2,77.6 C40.2,81.1 44.5,81.5 45.1,81.5 C45.3,81.5 45.6,81.5 45.8,81.5 C48,81.5 51.6,80.3 53.1,75.7 C53.2,75.5 53.2,75.3 53.1,75.1 C52.6,73.1 50.2,69.3 45.2,69.3 C45.2,69.3 45.2,69.3 45.2,69.3 C45,69.3 40.4,69.5 37.3,73.2 C36.5,71.4 34.8,69 32.1,69.3 C31.6,69.4 31.2,69.8 31.2,70.3 C31.2,70.7 31.2,73.6 32.5,75.4 C31.1,77.2 31.1,80.1 31.1,80.5 Z M45.2,71.3 C45.2,71.3 45.2,71.3 45.2,71.3 C49.3,71.3 50.8,74.4 51.1,75.3 C49.4,79.9 45.5,79.4 45.3,79.4 C45.3,79.4 45.2,79.4 45.2,79.4 C45,79.4 40.6,79.2 38.1,75.4 C40.6,71.6 45,71.4 45.2,71.3 Z M34.5,74.6 C33.7,74 33.4,72.6 33.3,71.5 C34.8,72.2 35.7,74.6 36,75.4 C35.7,76.2 34.8,78.6 33.3,79.3 C33.4,78.2 33.8,76.8 34.5,76.2 C34.8,76 34.9,75.7 34.9,75.4 C34.9,75.1 34.7,74.8 34.5,74.6 Z" id="Shape" fill="#000000" fill-rule="nonzero"></path>
                <ellipse id="Oval" fill="#000000" fill-rule="nonzero" cx="48.9" cy="74.3" rx="1" ry="1"></ellipse>
                <path d="M61.3,35.4 C60.3,33.1 58.3,29.8 54.8,30.1 C54.3,30.2 53.9,30.6 53.9,31.1 C53.9,31.6 53.9,35.4 55.7,37.6 C53.9,39.8 53.9,43.6 53.9,44.1 C53.9,44.6 54.3,45 54.8,45.1 C58.3,45.5 60.4,42.1 61.3,39.8 C65.1,44.6 71,45 71.5,45 C71.6,45 71.9,45 72.2,45 C74.2,45 79.3,44.3 81.5,37.8 C81.6,37.6 81.6,37.4 81.5,37.2 C81.5,37.1 79.5,30 71.6,30 C71.6,30 71.6,30 71.6,30 C71.3,30.1 65.2,30.4 61.3,35.4 Z M55.9,43 C56,41.5 56.5,39.3 57.6,38.4 C57.9,38.2 58,37.9 58,37.6 C58,37.3 57.9,37 57.6,36.8 C56.4,35.9 56,33.7 55.9,32.2 C58.3,32.8 59.6,36.6 60,37.6 C59.7,38.6 58.3,42.3 55.9,43 Z M71.6,32.1 C71.6,32.1 71.6,32.1 71.6,32.1 C77.2,32.1 79.1,36.4 79.5,37.6 C77.3,43.8 72,43.1 71.7,43.1 C71.7,43.1 71.6,43.1 71.6,43.1 C71.5,43.1 65.5,42.8 62.2,37.6 C65.5,32.4 71.6,32.1 71.6,32.1 Z" id="Shape" fill="#000000" fill-rule="nonzero"></path>
                <circle id="Oval" fill="#000000" fill-rule="nonzero" cx="76.4" cy="36.1" r="1"></circle>
                <g id="Group" transform="translate(44.400000, 45.967668)" fill="#000000" fill-rule="nonzero">
                    <path d="M9.59232693e-14,14.0323324 C9.59232693e-14,14.5323324 0.4,14.9323324 0.9,15.0323324 C4.4,15.4323324 6.5,12.0323324 7.4,9.73233238 C11.2,14.6323324 17,15.0323324 17.6,15.0323324 C17.7,15.0323324 18,15.0323324 18.3,15.0323324 C20.3,15.0323324 25.4,14.3323324 27.6,7.83233238 C27.7,7.63233238 27.7,7.43233238 27.6,7.23233238 C27.6,7.13233238 25.6,0.0323323819 17.7,0.0323323819 C17.7,0.0323323819 17.7,0.0323323819 17.7,0.0323323819 C17.4,0.0323323819 11.4,0.332332382 7.4,5.33233238 C6.4,3.03233238 4.4,-0.367667618 0.9,0.0323323819 C0.4,0.132332382 9.59232693e-14,0.532332382 9.59232693e-14,1.03233238 C9.59232693e-14,1.53233238 9.59232693e-14,5.33233238 1.8,7.53233238 C9.59232693e-14,9.73233238 9.59232693e-14,13.5323324 9.59232693e-14,14.0323324 Z M17.7,2.03233238 C17.8,2.03233238 17.8,2.03233238 17.7,2.03233238 C23.3,2.03233238 25.2,6.33233238 25.6,7.53233238 C23.4,13.7323324 18.1,13.0323324 17.8,13.0323324 C17.8,13.0323324 17.7,13.0323324 17.7,13.0323324 C17.6,13.0323324 11.6,12.7323324 8.3,7.53233238 C11.6,2.33233238 17.7,2.03233238 17.7,2.03233238 Z M6.1,7.53233238 C5.8,8.53233238 4.4,12.3323324 2,12.9323324 C2.1,11.4323324 2.6,9.23233238 3.7,8.33233238 C4,8.13233238 4.1,7.83233238 4.1,7.53233238 C4.1,7.23233238 4,6.93233238 3.7,6.73233238 C2.5,5.83233238 2.1,3.63233238 2,2.13233238 C4.4,2.73233238 5.8,6.53233238 6.1,7.53233238 Z" id="Shape"></path>
                    <circle id="Oval" cx="22.5" cy="6.13233238" r="1"></circle>
                </g>
            </g>
        </g>
    </g>
</svg>
