<?xml version="1.0" encoding="UTF-8"?>
<svg viewBox="0 0 45 83" version="1.1" xmlns="http://www.w3.org/2000/svg" xmlns:xlink="http://www.w3.org/1999/xlink">
    <!-- Generator: Sketch 58 (84663) - https://sketch.com -->
    <title>Icon/Avatar/Franco</title>
    <desc>Created with Sketch.</desc>
    <g id="App" stroke="none" stroke-width="1" fill="none" fill-rule="evenodd">
        <g id="Room-Rekruting-Copy" transform="translate(-293.000000, -212.000000)">
            <g id="Icon/Avatar/Franco" transform="translate(292.000000, 210.000000)">
                <g id="Franco" transform="translate(2.366906, 3.023438)">
                    <g id="Group" transform="translate(-0.000027, 0.000000)">
                        <polygon id="Path-62" fill="#AEC6CF" points="2.3669336 0 1.09894799 0.424769685 0.676286121 1.39549323 0.676286121 4.36267506 4.05758109 4.3671875 4.05758109 0.424769685"></polygon>
                        <polygon id="Path-33" fill="#FFFFFF" points="6.27325026 41.4725238 6.70672844 51.241889 9.46765303 41.4725238"></polygon>
                        <polygon id="Path-33" fill="#FFFFFF" transform="translate(32.553905, 46.357206) scale(-1, 1) translate(-32.553905, -46.357206) " points="30.9567035 41.4725238 31.3901817 51.241889 34.1511063 41.4725238"></polygon>
                        <polygon id="Path-16" fill="#A5B4B3" points="9.80578252 78.2734375 10.8394952 80.6459746 13.2757559 80.6459746 14.6299323 78.2734375"></polygon>
                        <polygon id="Path-16" fill="#A5B4B3" points="25.3597394 78.2734375 26.393452 80.6459746 28.8297127 80.6459746 30.1838892 78.2734375"></polygon>
                        <polygon id="Path-15" fill="#FFFFFF" points="10.143912 74.2421875 10.143912 77.4374383 14.9680618 77.4374383 14.9680618 74.2421875"></polygon>
                        <polygon id="Path-15" fill="#FFFFFF" points="25.6978689 74.2421875 25.6978689 77.4374383 30.5220187 77.4374383 30.5220187 74.2421875"></polygon>
                        <polygon id="Path-32" fill="#92AA83" points="7.58539929 53.3492089 7.15798959 64.4082002 8.07639299 74.0980299 16.3311963 74.0980299 20.1187319 60.411801 24.1308748 74.0980299 31.9450174 74.0980299 33.4335366 63.7079313 32.689277 53.3492089"></polygon>
                        <polygon id="Path-31" fill="#E0BAA3" points="14.1057767 32.6095533 9.46765303 32.8579324 5.63703396 36.7078086 5.29328425 40.984375 9.08880377 40.984375 7.85578205 48.9715271 7.58539929 53.3492089 32.689277 53.3492089 30.9807622 41.1786325 35.0432587 40.984375 34.7932589 37.1735194 32.689277 34.3482071 29.7932632 32.6095533 26.1370164 32.6095533 25.0755009 35.7763869 22.9495191 38.2291306 19.2951792 38.4743664 15.4807755 36.7078086"></polygon>
                        <polygon id="Path-14" fill="#FFFFFF" points="8.45326454 14.3945622 8.66310805 18.8272636 10.8664649 23.7763041 17.0880139 27.0772874 17.0880139 32.3588606 14.2939089 32.3588606 15.4179003 36.2157989 19.2951792 38.4743664 23.0373884 37.7099282 26.1150932 35.0691416 26.3249367 32.3588606 23.5124743 32.3588606 23.5124743 27.4595065 27.8637891 25.027203 31.8158418 20.0030448 32.3054767 15.089506 31.0813896 9.84268001 29.8076494 8.3984375 27.8637891 12.0317531 23.5124743 14.3945622 23.5124743 9.63419686 21.0729966 12.9152694 17.0880139 14.6733197"></polygon>
                        <polygon id="Path-30" fill="#976B50" points="19.8164505 3.87885806 14.5756587 5.25844209 9.08880377 10.8212809 8.08066046 14.8265249 17.9208904 14.5595087 20.8914846 13.0684746 22.9071738 10.1922424 23.3309624 14.5595087 26.2218625 13.6564863 29.6261375 8.55164269 24.3453509 4.63540414"></polygon>
                        <path d="M29.8777525,51.3984375 L10.4750985,51.3984375 C9.91870174,51.3984375 9.46765303,50.9472245 9.46765303,50.390625 C9.46765303,49.8340255 9.91870174,49.3828125 10.4750985,49.3828125 L29.8777525,49.3828125 C30.3869875,49.4449319 30.7698113,49.877431 30.7698113,50.390625 C30.7698113,50.903819 30.3869875,51.3363181 29.8777525,51.3984375 L29.8777525,51.3984375 Z" id="Path" fill="#000000" fill-rule="nonzero"></path>
                        <path d="M24.1526189,31.5635845 L24.1526189,28.2769319 C30.2734592,26.3183283 34.0447831,20.2409409 33.0435204,13.9494827 C32.0422576,7.65802442 26.5661618,3.0234375 20.1336168,3.0234375 C13.7010719,3.0234375 8.2249761,7.65802442 7.22371333,13.9494827 C6.22245056,20.2409409 9.99377449,26.3183283 16.1146148,28.2769319 L16.1146148,31.5635845 L12.0956127,31.5635845 C9.95985256,31.5674898 7.91313478,32.4112947 6.40571581,33.9093712 C4.89829684,35.4074476 4.05365714,37.4370804 4.05756747,39.5517716 L4.05756747,41.1729903 C4.06560188,41.7150426 4.50746367,42.1525455 5.05491651,42.16046 L5.05491651,50.3549839 C5.04755935,51.8162285 5.57653426,53.2303715 6.5434358,54.3343391 C6.20723136,57.0087492 6.0382106,59.70117 6.03733924,62.3962179 C6.02254114,66.3913401 6.39136846,70.378808 7.13884351,74.3048067 C7.22523772,74.7746951 7.63889687,75.1160104 8.12126624,75.1154161 L8.59759241,75.1154161 L8.59759241,78.2104701 C8.59759241,80.2861108 10.296996,81.96875 12.3933166,81.96875 C14.4896372,81.96875 16.1890407,80.2861108 16.1890407,78.2104701 L16.1890407,75.1154161 L16.5462854,75.1154161 C17.0130591,75.1147985 17.4188793,74.7982156 17.5287081,74.3490218 L20.1336168,63.781623 L22.69387,74.3490218 C22.8036988,74.7982156 23.209519,75.1147985 23.6762927,75.1154161 L24.0335374,75.1154161 L24.0335374,78.2104701 C24.0335374,80.2861108 25.732941,81.96875 27.8292615,81.96875 C29.9255821,81.96875 31.6249857,80.2861108 31.6249857,78.2104701 L31.6249857,75.1154161 L32.0417711,75.1154161 C32.5241405,75.1160104 32.9377996,74.7746951 33.0241938,74.3048067 C33.7716689,70.378808 34.1404962,66.3913401 34.1256981,62.3962179 C34.1513674,59.6879452 34.0071999,56.9807068 33.6940275,54.290124 C34.6609291,53.1861564 35.189904,51.7720135 35.1825468,50.3107689 L35.1825468,42.1751983 C35.4470493,42.1751983 35.7007185,42.0711616 35.88775,41.8859752 C36.0747815,41.7007887 36.1798974,41.4496219 36.1798974,41.1877287 L36.1798974,39.5517716 C36.1881224,35.1596189 32.6074728,31.5879327 28.171621,31.5635845 L24.1526189,31.5635845 Z M20.1336168,5.03455006 C23.1889437,5.03796101 26.1055815,6.29773231 28.1865062,8.51280125 C28.1865062,8.64544642 27.323165,12.0413567 24.1526189,12.8519661 L24.1526189,9.68273563 C24.1237629,9.18669244 23.732199,8.78647049 23.2323835,8.74215244 C22.732568,8.69783439 22.2754148,9.0228016 22.1580031,9.5058754 C22.1580031,9.5058754 21.14581,12.9846113 17.1119227,12.9846113 L9.34185205,12.9846113 C10.4518945,7.96043262 14.9393991,5.04707583 20.1336168,5.03455006 Z M9.08880377,15.2985326 C9.08880377,15.1806258 9.08880377,15.0774573 9.08880377,14.9595505 L17.1565783,14.9595505 C19.1331965,14.9618783 20.9961956,14.0450253 22.1877735,12.4835073 L22.1877735,13.9573425 C22.1957667,14.4993948 22.6376285,14.9368977 23.1850814,14.9448121 L23.2323835,14.9595505 C26.2608331,14.7159698 28.7883586,13.331231 29.6899106,10.4582638 C32.0171482,14.43484 31.5849314,19.427841 28.6081973,22.9542953 C25.6314633,26.4807496 20.7454834,27.7880689 16.3800085,26.2261358 C12.0145336,24.6642027 9.10120931,20.5663529 9.08880377,15.9704076 L9.08880377,15.2985326 Z M16.9630708,33.5385238 L17.1565783,33.5385238 C17.7040311,33.5306093 18.1458929,33.0931064 18.1538862,32.5510541 L18.1538862,28.7338208 C19.483878,28.9592762 20.8428965,28.9592762 22.1728883,28.7338208 L22.1728883,32.5510541 C22.1808815,33.0931064 22.6227433,33.5306093 23.1701962,33.5385238 L25.0755009,33.5385238 C24.57849,35.8354681 22.5284174,37.476496 20.1559446,37.476496 C17.7834718,37.476496 15.7333993,35.8354681 15.2363884,33.5385238 L16.9630708,33.5385238 Z M6.06710963,39.5517716 C6.06710963,36.2551658 8.7661624,33.5827388 12.0956127,33.5827388 L13.1822318,33.5827388 C13.6883361,36.9980759 16.6473212,39.5293682 20.1336168,39.5293682 C23.6199125,39.5293682 26.5788976,36.9980759 27.0850019,33.5827388 L28.171621,33.5827388 C29.7704794,33.5827388 31.3038528,34.2116172 32.4344164,35.331028 C33.56498,36.4504388 34.2001241,37.9686857 34.2001241,39.5517716 L34.2001241,40.2149974 L30.9849224,40.2149974 C30.6907409,40.2197225 30.4131942,40.3509542 30.224558,40.5745185 C30.0359218,40.7980829 29.9548665,41.0918526 30.0024997,41.3793273 C30.0024997,41.4677574 31.3272819,48.8664103 31.7589524,52.3741382 L8.50828125,52.3741382 C8.91018146,48.8811487 10.264734,41.4677574 10.2796192,41.3940656 C10.3321113,41.1043262 10.253302,40.8063879 10.0641073,40.5793233 C9.8749126,40.3522586 9.59446547,40.2190305 9.29719647,40.2149974 L6.06710963,40.2149974 L6.06710963,39.5517716 Z M32.1757378,42.204675 L33.2028162,42.204675 L33.2028162,48.3947831 C32.8306863,46.0219083 32.4139009,43.5753418 32.1757378,42.1751983 L32.1757378,42.204675 Z M8.09149585,42.204675 C7.85333276,43.5753418 7.43654737,45.9334782 7.07930274,48.2031845 L7.07930274,42.1751983 L8.09149585,42.204675 Z M12.4379722,80.0085491 C11.6910518,80.0037452 11.026018,79.5392864 10.7708306,78.8442193 L14.1051138,78.8442193 C13.8401728,79.5276813 13.1773424,79.9788818 12.4379722,79.9790724 L12.4379722,80.0085491 Z M14.1795397,76.825065 L10.6070934,76.825065 L10.6070934,75.1006777 L14.1795397,75.1006777 L14.1795397,76.825065 Z M27.7994912,79.9790724 C27.0525708,79.9742685 26.387537,79.5098097 26.1323496,78.8147426 L29.5112883,78.8147426 C29.2561009,79.5098097 28.5910671,79.9742685 27.8441467,79.9790724 L27.7994912,79.9790724 Z M29.5857143,76.825065 L26.087694,76.825065 L26.087694,75.1006777 L29.6601403,75.1006777 L29.5857143,76.825065 Z M31.2379707,73.1257385 L24.465208,73.1257385 L21.1011544,59.3011639 C20.9791054,58.8678933 20.5804634,58.5682083 20.1261743,58.5682083 C19.6718851,58.5682083 19.2732431,58.8678933 19.1511941,59.3011639 L15.7871405,73.1257385 L8.99949261,73.1257385 C8.37695095,69.5876165 8.06814693,66.0023608 8.07639299,62.4109563 C8.06945983,59.6960732 8.23850697,56.9835405 8.58270721,54.290124 L31.6845265,54.290124 C32.0268225,56.9689059 32.1958659,59.6666095 32.190623,62.3667412 C32.2008254,65.9679879 31.8920149,69.563182 31.2677411,73.1110002 L31.2379707,73.1257385 Z" id="Shape" fill="#000000" fill-rule="nonzero"></path>
                        <polygon id="Path-64" fill="#AEC6CF" points="20.0292273 16.125 15.7528837 16.4609375 13.1870775 18.5661292 13.1870775 21.8992413 16.6081524 23.8515625 18.1476361 23.515625 19.1797936 22.7216066 21.4486311 22.7216066 23.2792485 23.8515625 26.2856806 23.0122346 27.7266458 20.4452075 26.7003234 17.7481176 23.8506979 16.125"></polygon>
                        <polygon id="Path-65" fill="#AEC6CF" points="2.71282599e-05 7.390625 2.712826e-05 22.3817446 2.3669336 26.8775933 6.97545388 29.8984375 15.8921135 29.7416333 15.8921135 25.7568895 8.45326454 25.840584 5.29328425 23.8515625 4.39571058 21.9926349 4.3086594 7.390625"></polygon>
                        <path d="M17.2423785,23.8515625 L18.0585748,23.8515625 C18.5534162,23.8515625 18.9560333,23.4729251 18.9560333,23.0073949 C18.9560333,22.8498435 19.1010422,22.7216066 19.2791756,22.7216066 L21.2964317,22.7216066 C21.474565,22.7216066 21.6194548,22.8498435 21.6194548,23.0073949 C21.6194548,23.4729251 22.0220719,23.8515625 22.5169133,23.8515625 L23.4392747,23.8515625 C25.8407984,23.8515625 27.6836149,22.2748798 27.7259141,20.1841987 C27.7462892,19.1761729 27.3405741,18.2041188 26.5834775,17.4473112 C25.7430932,16.6069977 24.5583574,16.125 23.3332288,16.125 L17.1363325,16.125 C14.8161902,16.125 12.8933031,17.8774536 12.8496932,20.0315524 C12.8303904,20.9876061 13.1864189,21.858986 13.8790538,22.5516753 C14.7053781,23.3777402 15.9312216,23.8515625 17.2423785,23.8515625 Z M17.0683118,16.4609375 L23.3989584,16.4609375 C24.5174846,16.4609375 25.5979111,16.9086938 26.3634363,17.689316 C27.042172,18.3817014 27.4060065,19.2671124 27.3878695,20.1824632 C27.3496481,22.1138155 25.7175663,23.515625 23.5072932,23.515625 L22.565024,23.515625 C22.3343561,23.515625 22.1467787,23.3446281 22.1467787,23.1344418 C22.1467787,22.6953266 21.7750322,22.3381196 21.3182002,22.3381196 L19.2574048,22.3381196 C18.8004511,22.3381196 18.4287045,22.6953267 18.4287045,23.1344418 C18.4287045,23.3446281 18.2411271,23.515625 18.0104592,23.515625 L17.1766466,23.515625 C15.970357,23.515625 14.8478139,23.0763881 14.0967738,22.3104923 C13.4849866,21.6866274 13.170694,20.9025975 13.1877354,20.0433532 C13.226809,18.0679433 14.9677125,16.4609375 17.0683118,16.4609375 Z" id="Shape" stroke="#000000" stroke-width="1.5" fill-rule="nonzero"></path>
                        <polygon id="Path-66" fill="#AEC6CF" points="20.1187322 25.53125 17.9208904 26.038585 17.9208904 29.5511524 21.1718925 29.8984375 23.3309624 28.7338208 23.3309624 26.038585"></polygon>
                        <g id="noun_snorkeling_1782167" transform="translate(0.000027, 0.000000)" fill-rule="nonzero" stroke="#000000" stroke-width="2">
                            <path d="M26.7122302,27.3790929 C26.7122302,28.3976271 26.1854446,29.2265625 25.5379323,29.2265625 L25.0215827,29.2265625 L25.0215827,25.53125 L25.5379323,25.53125 C26.1854446,25.53125 26.7122302,26.3601854 26.7122302,27.3790929 Z M17.9208633,26.4431713 C17.9208633,25.9403736 19.0294806,25.53125 20.3922917,25.53125 L20.5217389,25.53125 C21.8841884,25.53125 22.9928058,25.9403736 22.9928058,26.4431713 L22.9928058,28.9863828 C22.9928058,29.4893139 21.8841884,29.8984375 20.5217389,29.8984375 L20.3922917,29.8984375 C19.0294806,29.8984375 17.9208633,29.4893139 17.9208633,28.9863828 L17.9208633,26.4431713 Z M9.69817705,25.7568895 L15.8920863,25.7568895 L15.8920863,29.7416333 L7.94604317,29.7416333 C4.08995565,29.7416333 0,24.8246383 0,21.06557 L0,7.390625 L4.30863228,7.390625 L4.30863228,21.06557 C4.30863228,23.9760387 6.70906833,25.7568895 9.69817705,25.7568895 Z M0,1.0231012 C0,0.458954787 0.482110881,0 1.07472073,0 L3.32078038,0 C3.91357254,0 4.39568345,0.458954787 4.39568345,1.0231012 L4.39568345,4.3671875 L0,4.3671875 L0,1.0231012 Z" id="Shape"></path>
                        </g>
                        <path d="M17.9208904,19.8084765 C17.9208904,19.1993348 17.4842776,18.8809253 16.9065019,18.8125 C16.3287263,18.8809253 15.8921135,19.1993348 15.8921135,19.8084765 C15.8921135,20.4176181 16.3287263,20.7596997 16.9065019,20.828125 C17.4842776,20.7596997 17.9208904,20.4176181 17.9208904,19.8084765 Z" id="Path" fill="#000000" fill-rule="nonzero"></path>
                        <path d="M24.3453509,19.8084765 C24.3453509,19.1993348 23.908738,18.8809253 23.3309624,18.8125 C22.7531867,18.8809253 22.3165739,19.1993348 22.3165739,19.8084765 C22.3165739,20.4176181 22.7531867,20.7596997 23.3309624,20.828125 C23.908738,20.7596997 24.3453509,20.4176181 24.3453509,19.8084765 Z" id="Path" fill="#000000" fill-rule="nonzero"></path>
                        <ellipse id="Oval" stroke="#000000" stroke-width="2" cx="35.8417537" cy="22.5078125" rx="1.69064748" ry="1.6796875"></ellipse>
                        <ellipse id="Oval-Copy" stroke="#000000" stroke-width="2" cx="40.2374372" cy="17.8046875" rx="1.69064748" ry="1.6796875"></ellipse>
                        <ellipse id="Oval-Copy-2" stroke="#000000" stroke-width="2" cx="34.4892358" cy="3.0234375" rx="1.69064748" ry="1.6796875"></ellipse>
                    </g>
                    <g id="Reto" transform="translate(4.057554, 3.023438)"></g>
                    <g id="noun_boy_1080129" transform="translate(4.057554, 3.023438)"></g>
                </g>
            </g>
        </g>
    </g>
</svg>
