<?xml version="1.0" encoding="UTF-8"?>
<svg viewBox="0 0 139 256" version="1.1" xmlns="http://www.w3.org/2000/svg" xmlns:xlink="http://www.w3.org/1999/xlink">
    <!-- Generator: Sketch 58 (84663) - https://sketch.com -->
    <title>Icon/Avatar/Franco</title>
    <desc>Created with Sketch.</desc>
    <g id="Icon/Avatar/Franco" stroke="none" stroke-width="1" fill="none" fill-rule="evenodd">
        <g id="Franco" transform="translate(7.000000, 9.000000)">
            <g id="Group" transform="translate(-0.000080, 0.000000)">
                <polygon id="Path-62" fill="#AEC6CF" points="6.00008023 0 1.50008023 1.26443069 8.02303858e-05 4.15402636 8.02303858e-05 12.9865676 12.0000802 13 12.0000802 1.26443069"></polygon>
                <polygon id="Path-33" fill="#FFFFFF" points="18.552804 123.453094 19.8347926 152.533995 28.0000802 123.453094"></polygon>
                <polygon id="Path-33" fill="#FFFFFF" transform="translate(96.276442, 137.993545) scale(-1, 1) translate(-96.276442, -137.993545) " points="91.552804 123.453094 92.8347926 152.533995 101.00008 123.453094"></polygon>
                <polygon id="Path-16" fill="#A5B4B3" points="29.0000802 233 32.0572304 240.062436 39.2623418 240.062436 43.2672467 233"></polygon>
                <polygon id="Path-16" fill="#A5B4B3" points="75.0000802 233 78.0572304 240.062436 85.2623418 240.062436 89.2672467 233"></polygon>
                <polygon id="Path-15" fill="#FFFFFF" points="30.0000802 221 30.0000802 230.511444 44.2672467 230.511444 44.2672467 221"></polygon>
                <polygon id="Path-15" fill="#FFFFFF" points="76.0000802 221 76.0000802 230.511444 90.2672467 230.511444 90.2672467 221"></polygon>
                <polygon id="Path-32" fill="#92AA83" points="22.4334149 158.806947 21.1693735 191.726735 23.8855027 220.57088 48.2986445 220.57088 59.5000794 179.830478 71.3657786 220.57088 94.4756896 220.57088 98.8779062 189.642214 96.6767979 158.806947"></polygon>
                <polygon id="Path-31" fill="#E0BAA3" points="41.7170843 97.0702982 28.0000802 97.8096593 16.6712281 109.269756 15.6546066 122 26.8796537 122 23.2330576 145.775709 22.4334149 158.806947 96.6767979 158.806947 91.6239563 122.578255 103.638574 122 102.899213 110.656058 96.6767979 102.245826 88.1119912 97.0702982 77.2988356 97.0702982 74.15946 106.497152 67.871982 113.798342 57.064466 114.528347 45.7835701 109.269756"></polygon>
                <polygon id="Path-14" fill="#FFFFFF" points="25.0000802 42.8489293 25.6206812 56.0439473 32.1369919 70.775975 50.5368921 80.6021577 50.5368921 96.3240501 42.2734751 96.3240501 45.5976201 107.805169 57.064466 114.528347 68.1318508 112.25281 77.233999 104.391863 77.8546 96.3240501 69.5368921 96.3240501 69.5368921 81.7399263 82.4056741 74.4995811 94.0936599 59.5439473 95.5417289 44.9175994 91.9215564 29.2991405 88.1545377 25 82.4056741 35.8154512 69.5368921 42.8489293 69.5368921 28.6785395 62.3222665 38.4454531 50.5368921 43.6787192"></polygon>
                <polygon id="Path-30" fill="#976B50" points="58.6060981 11.5463682 43.1067354 15.6530369 26.8796537 32.2121851 23.8981235 44.1347718 53.0000802 43.3399327 61.7854546 38.9015058 67.746748 30.3396983 69.0000802 43.3399327 77.5497637 40.6518661 87.6177258 25.4560527 72.0000802 13.7984123"></polygon>
                <path d="M88.3618637,153 L30.9795467,153 C29.3340328,153 28.0000802,151.656854 28.0000802,150 C28.0000802,148.343146 29.3340328,147 30.9795467,147 L88.3618637,147 C89.8678992,147.184914 91.0000802,148.472353 91.0000802,150 C91.0000802,151.527647 89.8678992,152.815086 88.3618637,153 L88.3618637,153 Z" id="Path" fill="#000000" fill-rule="nonzero"></path>
                <path d="M71.4300857,93.9567167 L71.4300857,84.1731927 C89.5321453,78.3429308 100.685635,60.2521033 97.7244538,41.5240415 C94.7632725,22.7959797 78.5680105,9 59.5441009,9 C40.5201913,9 24.3249293,22.7959797 21.3637479,41.5240415 C18.4025666,60.2521033 29.5560565,78.3429308 47.6581161,84.1731927 L47.6581161,93.9567167 L35.7721312,93.9567167 C29.4557342,93.9683416 23.4026752,96.4801332 18.9445638,100.939524 C14.4864523,105.398914 11.9884754,111.440611 12.00004,117.735506 L12.00004,122.56146 C12.0238013,124.175011 13.330584,125.477345 14.9496467,125.500904 L14.9496467,149.893906 C14.9278883,154.243657 16.4923034,158.453199 19.3518633,161.739428 C18.3575566,169.700463 17.8576867,177.715111 17.8551097,185.737579 C17.8113451,197.630036 18.9021323,209.499707 21.11275,221.186401 C21.3682562,222.585139 22.5916312,223.601147 24.0182129,223.599378 L25.4269222,223.599378 L25.4269222,232.812562 C25.4269222,238.991213 30.452818,244 36.6525746,244 C42.8523311,244 47.8782269,238.991213 47.8782269,232.812562 L47.8782269,223.599378 L48.9347589,223.599378 C50.3152174,223.59754 51.515409,222.655153 51.8402218,221.318018 L59.5441009,189.861576 L67.1159134,221.318018 C67.4407263,222.655153 68.6409179,223.59754 70.0213764,223.599378 L71.0779084,223.599378 L71.0779084,232.812562 C71.0779084,238.991213 76.1038041,244 82.3035607,244 C88.5033173,244 93.5292131,238.991213 93.5292131,232.812562 L93.5292131,223.599378 L94.7618337,223.599378 C96.1884154,223.601147 97.4117904,222.585139 97.6672967,221.186401 C99.8779144,209.499707 100.968702,197.630036 100.924937,185.737579 C101.000852,177.675744 100.574485,169.616988 99.6482941,161.607811 C102.507854,158.321582 104.072269,154.11204 104.050511,149.762289 L104.050511,125.544776 C104.832763,125.544776 105.582976,125.235086 106.136112,124.683833 C106.689247,124.13258 107.000122,123.384921 107.000122,122.605332 L107.000122,117.735506 C107.024447,104.661191 96.4348664,94.029195 83.3160705,93.9567167 L71.4300857,93.9567167 Z M59.5441009,14.9865676 C68.5800675,14.9967211 77.2058686,18.746738 83.3600927,25.3404316 C83.3600927,25.7352824 80.8068071,35.8440386 71.4300857,38.2570153 L71.4300857,28.823027 C71.3447456,27.3464333 70.1867163,26.1550749 68.7085385,26.0231514 C67.2303607,25.8912279 65.8783543,26.8585722 65.5311155,28.2965593 C65.5311155,28.2965593 62.5376082,38.6518661 50.6076012,38.6518661 L27.6280305,38.6518661 C30.9109221,23.6961715 44.1824782,15.0238536 59.5441009,14.9865676 Z M26.8796537,45.539818 C26.8796537,45.1888395 26.8796537,44.8817334 26.8796537,44.530755 L50.7396677,44.530755 C56.585411,44.5376841 62.0951318,41.8084473 65.6191598,37.1602077 L65.6191598,41.5474382 C65.6427995,43.1609893 66.9495822,44.4633234 68.5686449,44.4868827 L68.7085385,44.530755 C77.665017,43.8056775 85.1400392,39.6836643 87.8063315,31.1315759 C94.6890129,42.9688261 93.4107545,57.8317129 84.6072219,68.3290652 C75.8036893,78.8264174 61.3536636,82.7179725 48.4430039,78.0684973 C35.5323442,73.4190221 26.9163424,61.2207713 26.8796537,47.539818 L26.8796537,45.539818 Z M50.1673795,99.8356056 L50.7396677,99.8356056 C52.3587304,99.8120464 53.6655131,98.5097122 53.6891528,96.8961612 L53.6891528,85.5332342 C57.6225329,86.2043571 61.6417576,86.2043571 65.5751376,85.5332342 L65.5751376,96.8961612 C65.5987773,98.5097122 66.9055601,99.8120464 68.5246228,99.8356056 L74.15946,99.8356056 C72.6895768,106.673021 66.6265963,111.557942 59.6101341,111.557942 C52.593672,111.557942 46.5306915,106.673021 45.0608083,99.8356056 L50.1673795,99.8356056 Z M17.943154,117.735506 C17.943154,107.922354 25.925459,99.9672225 35.7721312,99.9672225 L38.9857494,99.9672225 C40.4825259,110.133807 49.2335669,117.668817 59.5441009,117.668817 C69.8546349,117.668817 78.6056759,110.133807 80.1024524,99.9672225 L83.3160705,99.9672225 C88.0446093,99.9672225 92.5794794,101.839233 95.9230612,105.171432 C99.2666431,108.503632 101.145048,113.023064 101.145048,117.735506 L101.145048,119.70976 L91.6362599,119.70976 C90.7662337,119.723825 89.9454041,120.114468 89.3875226,120.779962 C88.8296412,121.445456 88.5899245,122.319933 88.730797,123.175672 C88.730797,123.438906 92.6487697,145.462803 93.9254126,155.904411 L25.1627892,155.904411 C26.3513877,145.506675 30.3574048,123.438906 30.401427,123.219544 C30.5566695,122.357064 30.3235952,121.470178 29.764062,120.794265 C29.2045288,120.118351 28.3751213,119.721765 27.495964,119.70976 L17.943154,119.70976 L17.943154,117.735506 Z M95.1580332,125.632521 L98.1955627,125.632521 L98.1955627,144.058889 C97.0950085,136.995448 95.8623879,129.712645 95.1580332,125.544776 L95.1580332,125.632521 Z M23.9301686,125.632521 C23.2258139,129.712645 21.9931933,136.732214 20.9366613,143.488549 L20.9366613,125.544776 L23.9301686,125.632521 Z M36.7846411,238.164983 C34.5756637,238.150683 32.6088617,236.768108 31.8541585,234.699071 L41.7151237,234.699071 C40.9315748,236.733563 38.9712893,238.076671 36.7846411,238.077239 L36.7846411,238.164983 Z M41.9352345,228.688566 L31.3699146,228.688566 L31.3699146,223.555506 L41.9352345,223.555506 L41.9352345,228.688566 Z M82.2155164,238.077239 C80.0065391,238.062939 78.039737,236.680364 77.2850338,234.611327 L87.2780655,234.611327 C86.5233622,236.680364 84.5565602,238.062939 82.3475829,238.077239 L82.2155164,238.077239 Z M87.4981763,228.688566 L77.1529673,228.688566 L77.1529673,223.555506 L87.7182871,223.555506 L87.4981763,228.688566 Z M92.3846367,217.676617 L72.3545512,217.676617 L62.4055417,176.524395 C62.0445884,175.234659 60.8656257,174.342574 59.5220898,174.342574 C58.1785539,174.342574 56.9995912,175.234659 56.6386379,176.524395 L46.6896284,217.676617 L26.6155207,217.676617 C24.7743868,207.144533 23.8611154,196.472144 23.8855027,185.781451 C23.8649982,177.699939 24.3649461,169.625423 25.3829001,161.607811 L93.7053017,161.607811 C94.717624,169.581859 95.2175608,177.612233 95.2020554,185.649834 C95.2322282,196.369825 94.3189376,207.071798 92.4726811,217.632745 L92.3846367,217.676617 Z" id="Shape" fill="#000000" fill-rule="nonzero"></path>
                <polygon id="Path-64" fill="#AEC6CF" points="59.2353743 48 46.5883155 49 39.0000802 55.2666171 39.0000802 65.1884392 49.1177273 71 53.6706685 70 56.7232193 67.6364103 63.4331857 67.6364103 68.8471391 71 77.7385023 68.5015357 82.0000802 60.8601526 78.9647861 52.831606 70.5371703 48"></polygon>
                <polygon id="Path-65" fill="#AEC6CF" points="8.02303858e-05 22 8.02303859e-05 66.6247281 7.00008023 80.0077195 20.6295338 89 47.0000802 88.5332342 47.0000802 76.6716712 25.0000802 76.9208081 15.6546066 71 13.0000802 65.4664481 12.742631 22"></polygon>
                <path d="M50.9934171,71 L53.4072744,71 C54.8707414,71 56.0614603,69.8728933 56.0614603,68.4871291 C56.0614603,68.0181387 56.4903164,67.6364103 57.0171363,67.6364103 L62.9830639,67.6364103 C63.5098838,67.6364103 63.9383875,68.0181387 63.9383875,68.4871291 C63.9383875,69.8728933 65.1291063,71 66.5925734,71 L69.3204083,71 C76.4227868,71 81.8728184,66.3066191 81.9979161,60.083196 C82.0581744,57.0825612 80.8582935,54.1890049 78.6192207,51.9361821 C76.1338287,49.4347839 72.6300356,48 69.0067831,48 L50.6797919,48 C43.8180943,48 38.1312581,53.216606 38.0022841,59.6288072 C37.9451972,62.4747343 38.9981324,65.0686095 41.0465633,67.1305682 C43.4903736,69.5895521 47.1157405,71 50.9934171,71 Z M50.4786243,49 L69.2011749,49 C72.5091567,49 75.7044605,50.332856 77.9684607,52.6565686 C79.9757853,54.7176227 81.0518064,57.3532649 80.9981674,60.0780299 C80.8851294,65.8271716 76.0583343,70 69.5215693,70 L66.7348583,70 C66.0526703,70 65.4979201,69.4909859 65.4979201,68.8653153 C65.4979201,67.5581816 64.3984994,66.4948676 63.0474432,66.4948676 L56.9527504,66.4948676 C55.6013341,66.4948676 54.5019134,67.5581817 54.5019134,68.8653153 C54.5019134,69.4909859 53.9471632,70 53.2649752,70 L50.7990185,70 C47.2314813,70 43.9116197,68.6925041 41.6904588,66.4126283 C39.8811306,64.5555422 38.9516269,62.2216855 39.0020261,59.6639352 C39.1175842,53.7836453 44.2662137,49 50.4786243,49 Z" id="Shape" stroke="#000000" stroke-width="1.5" fill-rule="nonzero"></path>
                <polygon id="Path-66" fill="#AEC6CF" points="59.5000802 76 53.0000802 77.5102065 53.0000802 87.9662211 62.614746 89 69.0000802 85.5332342 69.0000802 77.5102065"></polygon>
                <g id="noun_snorkeling_1782167" transform="translate(0.000080, 0.000000)" fill-rule="nonzero" stroke="#000000" stroke-width="2">
                    <path d="M79,81.5005555 C79,84.5324714 77.4420594,87 75.5270763,87 L74,87 L74,76 L75.5270763,76 C77.4420594,76 79,78.4675286 79,81.5005555 Z M53,78.7145564 C53,77.2178563 56.2786768,76 60.309118,76 L60.6919512,76 C64.7213232,76 68,77.2178563 68,78.7145564 L68,86.2850465 C68,87.7821437 64.7213232,89 60.6919512,89 L60.309118,89 C56.2786768,89 53,87.7821437 53,86.2850465 L53,78.7145564 Z M28.6818428,76.6716712 L47,76.6716712 L47,88.5332342 L23.5,88.5332342 C12.0958263,88.5332342 0,73.8965978 0,62.706813 L0,22 L12.7425508,22 L12.7425508,62.706813 C12.7425508,71.3705339 19.8417127,76.6716712 28.6818428,76.6716712 Z M0,3.04551056 C0,1.366191 1.42581729,0 3.17842938,0 L9.82103133,0 C11.5741826,0 13,1.366191 13,3.04551056 L13,13 L0,13 L0,3.04551056 Z" id="Shape"></path>
                </g>
                <path d="M53.0000802,58.9647672 C53.0000802,57.1515082 51.708821,56.2036845 50.0000802,56 C48.2913395,56.2036845 47.0000802,57.1515082 47.0000802,58.9647672 C47.0000802,60.7780261 48.2913395,61.7963155 50.0000802,62 C51.708821,61.7963154 53.0000802,60.7780261 53.0000802,58.9647672 Z" id="Path" fill="#000000" fill-rule="nonzero"></path>
                <path d="M72.0000802,58.9647672 C72.0000802,57.1515082 70.708821,56.2036845 69.0000802,56 C67.2913395,56.2036845 66.0000802,57.1515082 66.0000802,58.9647672 C66.0000802,60.7780261 67.2913395,61.7963155 69.0000802,62 C70.708821,61.7963155 72.0000802,60.7780261 72.0000802,58.9647672 Z" id="Path" fill="#000000" fill-rule="nonzero"></path>
            </g>
            <g id="Reto" transform="translate(12.000000, 9.000000)"></g>
            <g id="noun_boy_1080129" transform="translate(12.000000, 9.000000)"></g>
        </g>
    </g>
</svg>
