<?xml version="1.0" encoding="UTF-8"?>
<svg viewBox="0 0 20 48" version="1.1" xmlns="http://www.w3.org/2000/svg" xmlns:xlink="http://www.w3.org/1999/xlink">
    <!-- Generator: Sketch 58 (84663) - https://sketch.com -->
    <title>Icon/Avatar/Granit</title>
    <desc>Created with Sketch.</desc>
    <g id="App" stroke="none" stroke-width="1" fill="none" fill-rule="evenodd">
        <g id="Room-Rekruting-Copy" transform="translate(-128.000000, -405.000000)">
            <g id="Icon/Avatar/Granit" transform="translate(128.000000, 403.000000)">
                <g id="Granit" transform="translate(0.204082, 2.032520)">
                    <polygon id="Path-33" fill="#FFFFFF" points="1.33729056 23.262824 1.5989209 29.1735762 3.26530612 23.262824"></polygon>
                    <polygon id="Path-33" fill="#FFFFFF" transform="translate(17.199258, 26.218200) scale(-1, 1) translate(-17.199258, -26.218200) " points="16.2352497 23.262824 16.4968801 29.1735762 18.1632653 23.262824"></polygon>
                    <polygon id="Path-16" fill="#92AA83" points="3.46938776 45.5284553 4.09329596 46.9639097 5.56372686 46.9639097 6.38105438 45.5284553"></polygon>
                    <polygon id="Path-16" fill="#92AA83" points="12.8571429 45.5284553 13.4810511 46.9639097 14.951482 46.9639097 15.7688095 45.5284553"></polygon>
                    <polygon id="Path-15" fill="#FFFFFF" points="3.67346939 43.0894309 3.67346939 45.0226513 6.58513601 45.0226513 6.58513601 43.0894309"></polygon>
                    <polygon id="Path-15" fill="#FFFFFF" points="13.0612245 43.0894309 13.0612245 45.0226513 15.9728911 45.0226513 15.9728911 43.0894309"></polygon>
                    <polygon id="Path-32" fill="#E0D0B5" points="2.12925198 30.4485665 1.87128434 37.1395804 2.42559642 43.0022113 7.40787025 43.0022113 9.69387739 34.7216418 12.1154487 43.0022113 16.831757 43.0022113 17.7301686 36.7158972 17.2809628 30.4485665"></polygon>
                    <polygon id="Path-31" fill="#B6A6B9" points="6.0646947 17.9004671 3.26530612 18.0507438 0.953295481 20.3800317 0.745821712 22.9674797 3.03664765 22.9674797 2.29244435 27.7999408 2.12925198 30.4485665 17.2809628 30.4485665 16.2497706 23.0850112 18.7017334 22.9674797 18.5508433 20.6618004 17.2809628 18.9524036 15.5330431 17.9004671 13.3262766 17.9004671 12.6855877 19.8164943 11.4024289 21.3004761 9.19681342 21.4488509 6.89458977 20.3800317"></polygon>
                    <polygon id="Path-14" fill="#FFFFFF" points="2.65306122 6.87986368 2.77971449 9.56177791 4.10957381 12.5560925 7.86465548 14.5532841 7.86465548 17.7487907 6.17824386 17.7487907 6.8566408 20.0823514 9.19681342 21.4488509 11.4554634 20.9863434 13.3130446 19.3885901 13.4396979 17.7487907 11.7422065 17.7487907 11.7422065 14.7845379 14.3684885 13.312923 16.7537918 10.27316 17.0493161 7.30032508 16.3105053 4.12584156 15.541726 3.25203252 14.3684885 5.45029495 11.7422065 6.87986368 11.7422065 3.99970315 10.2698339 5.9848482 7.86465548 7.04852016"></polygon>
                    <polygon id="Path-30" fill="#BCA296" points="9.51143223 0.517554505 6.34829698 1.35224328 3.03664765 4.71792381 2.42817209 7.14121379 8.36734694 6.97966113 10.1602805 6.07754183 11.376871 4.33733705 11.6326531 6.97966113 13.3774864 6.43330612 15.4321726 3.34472615 12.244898 0.975287057"></polygon>
                    <g id="noun_boy_1080129" fill="#000000" fill-rule="nonzero">
                        <path d="M15.5840374,29.2682927 L3.8733605,29.2682927 C3.53754134,29.2682927 3.26530612,28.9952956 3.26530612,28.6585366 C3.26530612,28.3217776 3.53754134,28.0487805 3.8733605,28.0487805 L15.5840374,28.0487805 C15.8913916,28.0863646 16.122449,28.3480392 16.122449,28.6585366 C16.122449,28.969034 15.8913916,29.2307086 15.5840374,29.2682927 L15.5840374,29.2682927 Z" id="Path"></path>
                        <path d="M7.75510204,10.3658537 C8.10382465,10.3249349 8.36734694,10.018742 8.36734694,9.65447154 C8.36734694,9.29020107 8.10382465,8.98400816 7.75510204,8.94308943 C7.40637944,8.98400816 7.14285714,9.29020107 7.14285714,9.65447154 C7.14285714,10.018742 7.40637944,10.3249349 7.75510204,10.3658537 L7.75510204,10.3658537 Z" id="Path"></path>
                        <path d="M11.6326531,10.3658537 C11.9813757,10.3249349 12.244898,10.018742 12.244898,9.65447154 C12.244898,9.29020107 11.9813757,8.98400816 11.6326531,8.94308943 C11.2839305,8.98400816 11.0204082,9.29020107 11.0204082,9.65447154 C11.0204082,10.018742 11.2839305,10.3249349 11.6326531,10.3658537 L11.6326531,10.3658537 Z" id="Path"></path>
                        <path d="M12.1285725,17.2676254 L12.1285725,15.2791042 C15.8228704,14.0940916 18.0990929,10.4170942 17.4947701,6.61057754 C16.8904474,2.80406091 13.5852919,0 9.70286136,0 C5.82043084,0 2.51527532,2.80406091 1.91095259,6.61057754 C1.30662986,10.4170942 3.58285229,14.0940916 7.27715017,15.2791042 L7.27715017,17.2676254 L4.85143898,17.2676254 C3.56237835,17.2699881 2.3270602,17.7805149 1.41724154,18.686895 C0.507422881,19.5932752 -0.00236833598,20.8212625 -8.21515792e-06,22.1007126 L-8.21515792e-06,23.0815975 C0.00484103405,23.409555 0.271531389,23.6742571 0.601952342,23.6790455 L0.601952342,28.6369727 C0.597511847,29.5210685 0.916780246,30.3766664 1.50036389,31.0445992 C1.29744415,32.6626957 1.19542989,34.2916892 1.19490397,35.9222721 C1.18597242,38.3394381 1.40858205,40.7519731 1.85972851,43.1273174 C1.91187265,43.4116136 2.16154101,43.6181194 2.45268014,43.6177598 L2.74017183,43.6177598 L2.74017183,45.4903582 C2.74017183,46.7461816 3.76586484,47.7642276 5.03112129,47.7642276 C6.29637774,47.7642276 7.32207075,46.7461816 7.32207075,45.4903582 L7.32207075,43.6177598 L7.53768952,43.6177598 C7.81941575,43.6173862 8.06435281,43.4258442 8.13064114,43.1540688 L9.70286136,36.7604828 L11.2481292,43.1540688 C11.3144176,43.4258442 11.5593546,43.6173862 11.8410809,43.6177598 L12.0566996,43.6177598 L12.0566996,45.4903582 C12.0566996,46.7461816 13.0823926,47.7642276 14.3476491,47.7642276 C15.6129055,47.7642276 16.6385985,46.7461816 16.6385985,45.4903582 L16.6385985,43.6177598 L16.8901538,43.6177598 C17.1812929,43.6181194 17.4309613,43.4116136 17.4831054,43.1273174 C17.9342519,40.7519731 18.1568615,38.3394381 18.1479299,35.9222721 C18.1634229,34.2836878 18.0764091,32.6457292 17.8873906,31.0178478 C18.4709742,30.349915 18.7902426,29.4943171 18.7858021,28.6102213 L18.7858021,23.6879627 C18.9454454,23.6879627 19.0985501,23.6250174 19.211435,23.5129742 C19.3243198,23.4009309 19.3877637,23.2489677 19.3877637,23.0905146 L19.3877637,22.1007126 C19.3927279,19.4433315 17.231589,17.2823567 14.5542837,17.2676254 L12.1285725,17.2676254 Z M9.70286136,1.21678204 C11.5469362,1.21884576 13.3073038,1.98104432 14.5632679,3.32122594 C14.5632679,3.40148016 14.0421892,5.86260946 12.1285725,6.3530519 L12.1285725,3.41931443 C12.1111562,3.11919376 11.8748237,2.87704775 11.5731547,2.85023403 C11.2714858,2.82342031 10.9955661,3.020035 10.9247011,3.3123088 C10.9247011,3.3123088 10.3137812,6.43330612 7.87908591,6.43330612 L3.18937761,6.43330612 C3.85935549,3.3935308 6.56783633,1.22436049 9.70286136,1.21678204 Z M3.03664765,7.62820223 L7.90603826,7.62820223 C9.09904709,7.62961059 10.2234799,7.07488766 10.9426693,6.13012352 L10.9426693,7.02183704 C10.9474937,7.34979456 11.2141841,7.61449663 11.544605,7.61928509 C13.3724578,7.47191162 14.9265222,6.23651714 15.4706635,4.49828778 C16.8752924,6.90423294 16.6144233,9.9251449 14.817784,12.0587531 C13.0211447,14.1923613 10.0721599,14.9833277 7.43733135,14.0383125 C4.80250285,13.0932972 3.04413514,10.6139779 3.03664765,7.83329634 C3.03664765,7.76195926 3.03664765,7.69953931 3.03664765,7.62820223 Z M7.78924475,18.4625215 L7.90603826,18.4625215 C8.23645921,18.457733 8.50314956,18.1930309 8.507974,17.8650734 L8.507974,15.5555354 C9.31070462,15.6919425 10.1309546,15.6919425 10.9336852,15.5555354 L10.9336852,17.8650734 C10.9385096,18.1930309 11.2052,18.457733 11.5356209,18.4625215 L12.6855877,18.4625215 C12.3856115,19.8522401 11.1482686,20.8451101 9.71633753,20.8451101 C8.28440649,20.8451101 7.04706351,19.8522401 6.74708735,18.4625215 L7.78924475,18.4625215 Z M1.2128722,22.1007126 C1.2128722,20.1061695 2.84191404,18.4892729 4.85143898,18.4892729 L5.50727941,18.4892729 C5.81274401,20.5556519 7.59867075,22.0871579 9.70286136,22.0871579 C11.807052,22.0871579 13.5929787,20.5556519 13.8984433,18.4892729 L14.5542837,18.4892729 C15.5192916,18.4892729 16.4447753,18.8697627 17.127139,19.5470391 C17.8095026,20.2243154 18.1928505,21.1428992 18.1928505,22.1007126 L18.1928505,22.5019837 L16.2522816,22.5019837 C16.0747252,22.5048425 15.9072089,22.5842415 15.7933556,22.7195045 C15.6795022,22.8547675 15.6305805,23.0325068 15.6593299,23.2064374 C15.6593299,23.2599402 16.4589162,27.736342 16.7194556,29.8586202 L2.68626714,29.8586202 C2.92883826,27.7452592 3.74639277,23.2599402 3.75537689,23.2153545 C3.78705903,23.0400537 3.73949285,22.8597922 3.6253024,22.7224115 C3.51111195,22.5850308 3.34184511,22.5044238 3.16242526,22.5019837 L1.2128722,22.5019837 L1.2128722,22.1007126 Z M16.9710108,23.7057969 L17.5909148,23.7057969 L17.5909148,27.4509937 C17.3663119,26.015335 17.1147567,24.5350905 16.9710108,23.6879627 L16.9710108,23.7057969 Z M2.43471191,23.7057969 C2.29096606,24.5350905 2.03941082,25.9618321 1.82379205,27.335071 L1.82379205,23.6879627 L2.43471191,23.7057969 Z M5.05807364,46.5782487 C4.60726194,46.5753422 4.20587377,46.294331 4.0518527,45.873795 L6.06429458,45.873795 C5.90438664,46.2873095 5.50432837,46.5602991 5.05807364,46.5604144 L5.05807364,46.5782487 Z M6.10921515,44.6521475 L3.95302743,44.6521475 L3.95302743,43.6088427 L6.10921515,43.6088427 L6.10921515,44.6521475 Z M14.3296808,46.5604144 C13.8788692,46.5575079 13.477481,46.2764967 13.3234599,45.8559607 L15.3628541,45.8559607 C15.2088331,46.2764967 14.8074449,46.5575079 14.3566332,46.5604144 L14.3296808,46.5604144 Z M15.4077747,44.6521475 L13.2965076,44.6521475 L13.2965076,43.6088427 L15.4526953,43.6088427 L15.4077747,44.6521475 Z M16.4050115,42.4139465 L12.317239,42.4139465 L10.2868289,34.0496737 C10.2131649,33.7875323 9.9725603,33.6062141 9.6983693,33.6062141 C9.4241783,33.6062141 9.18357367,33.7875323 9.10990973,34.0496737 L7.07949963,42.4139465 L2.98274295,42.4139465 C2.60700135,40.273279 2.42061942,38.1040943 2.42559642,35.9311893 C2.42141184,34.2886054 2.52344202,32.6474437 2.73118772,31.0178478 L16.674535,31.0178478 C16.8811314,32.6385893 16.9831593,34.270779 16.9799949,35.9044379 C16.9861526,38.0832977 16.7997668,40.2584955 16.4229798,42.4050294 L16.4050115,42.4139465 Z" id="Shape"></path>
                    </g>
                </g>
            </g>
        </g>
    </g>
</svg>
