<?xml version="1.0" encoding="UTF-8"?>
<svg width="68px" height="74px" viewBox="0 0 68 74" version="1.1" xmlns="http://www.w3.org/2000/svg" xmlns:xlink="http://www.w3.org/1999/xlink">
    <!-- Generator: Sketch 58 (84663) - https://sketch.com -->
    <title>Jellyfish</title>
    <desc>Created with Sketch.</desc>
    <g id="App" stroke="none" stroke-width="1" fill="none" fill-rule="evenodd">
        <g id="Room-Rekruting-Copy" transform="translate(-199.000000, -256.000000)">
            <g id="Jellyfish" transform="translate(199.000000, 256.000000)">
                <circle id="Oval" fill="#A5B4B3" cx="51.5" cy="19.5" r="14.5"></circle>
                <circle id="Oval" fill="#A5B4B3" cx="15.5" cy="14.5" r="14.5"></circle>
                <g id="noun_Jellyfish_918342" transform="translate(0.000000, 1.000000)" fill="#000000" fill-rule="nonzero">
                    <path d="M15.1,0 C7.3,0 0.9,6.4 0.9,14.2 C0.9,20.1 4.4,22.6 8.1,23.6 C8,24 7.8,24.2 7.4,24.6 C6.8,25.1 6.1,25.8 6.1,27.2 C6.1,28.6 6.9,29.3 7.4,29.8 C7.9,30.3 8.1,30.5 8.1,31 C8.1,31.5 7.9,31.7 7.4,32.2 C6.8,32.7 6.1,33.4 6.1,34.8 C6.1,36.2 6.9,36.9 7.4,37.4 C7.9,37.9 8.1,38.1 8.1,38.6 C8.1,39.1 7.9,39.3 7.4,39.8 C6.8,40.3 6.1,41 6.1,42.4 C6.1,43.8 6.9,44.5 7.4,45 C7.9,45.5 8.1,45.7 8.1,46.2 C8.1,46.7 7.9,46.9 7.4,47.4 C6.8,47.9 6.1,48.6 6.1,50 C6.1,51.4 6.9,52.1 7.4,52.6 C7.9,53.1 8.1,53.3 8.1,53.8 C8.1,54.3 7.9,54.5 7.4,55 C6.8,55.5 6.1,56.2 6.1,57.6 C6.1,59 6.9,59.7 7.4,60.2 C7.9,60.7 8.1,60.9 8.1,61.4 C8.1,61.9 7.9,62.1 7.4,62.6 C6.8,63.1 6.1,63.8 6.1,65.2 C6.1,65.8 6.5,66.2 7.1,66.2 C7.7,66.2 8.1,65.8 8.1,65.2 C8.1,64.7 8.3,64.5 8.8,64 C9.4,63.5 10.1,62.8 10.1,61.4 C10.1,60 9.3,59.3 8.8,58.8 C8.3,58.3 8.1,58.1 8.1,57.6 C8.1,57.1 8.3,56.9 8.8,56.4 C9.4,55.9 10.1,55.2 10.1,53.8 C10.1,52.4 9.3,51.7 8.8,51.2 C8.3,50.7 8.1,50.5 8.1,50 C8.1,49.5 8.3,49.3 8.8,48.8 C9.4,48.3 10.1,47.6 10.1,46.2 C10.1,44.8 9.3,44.1 8.8,43.6 C8.3,43.1 8.1,42.9 8.1,42.4 C8.1,41.9 8.3,41.7 8.8,41.2 C9.4,40.7 10.1,40 10.1,38.6 C10.1,37.2 9.3,36.5 8.8,36 C8.3,35.5 8.1,35.3 8.1,34.8 C8.1,34.3 8.3,34.1 8.8,33.6 C9.4,33.1 10.1,32.4 10.1,31 C10.1,29.6 9.3,28.9 8.8,28.4 C8.3,27.9 8.1,27.7 8.1,27.2 C8.1,26.7 8.3,26.5 8.8,26 C9.3,25.6 9.8,25 10,24 C11.8,24.3 13.4,24.3 14.6,24.3 C14.5,24.4 14.5,24.4 14.4,24.5 C13.8,25 13.1,25.7 13.1,27.1 C13.1,28.5 13.9,29.2 14.4,29.7 C14.9,30.2 15.1,30.4 15.1,30.9 C15.1,31.4 14.9,31.6 14.4,32.1 C13.8,32.6 13.1,33.3 13.1,34.7 C13.1,36.1 13.9,36.8 14.4,37.3 C14.9,37.8 15.1,38 15.1,38.5 C15.1,39 14.9,39.2 14.4,39.7 C13.8,40.2 13.1,40.9 13.1,42.3 C13.1,43.7 13.9,44.4 14.4,44.9 C14.9,45.4 15.1,45.6 15.1,46.1 C15.1,46.6 14.9,46.8 14.4,47.3 C13.8,47.8 13.1,48.5 13.1,49.9 C13.1,51.3 13.9,52 14.4,52.5 C14.9,53 15.1,53.2 15.1,53.7 C15.1,54.2 14.9,54.4 14.4,54.9 C13.8,55.4 13.1,56.1 13.1,57.5 C13.1,58.9 13.9,59.6 14.4,60.1 C14.9,60.6 15.1,60.8 15.1,61.3 C15.1,61.8 14.9,62 14.4,62.5 C13.8,63 13.1,63.7 13.1,65.1 C13.1,65.7 13.5,66.1 14.1,66.1 C14.7,66.1 15.1,65.7 15.1,65.1 C15.1,64.6 15.3,64.4 15.8,63.9 C16.4,63.4 17.1,62.7 17.1,61.3 C17.1,59.9 16.3,59.2 15.8,58.7 C15.3,58.2 15.1,58 15.1,57.5 C15.1,57 15.3,56.8 15.8,56.3 C16.4,55.8 17.1,55.1 17.1,53.7 C17.1,52.3 16.3,51.6 15.8,51.1 C15.3,50.6 15.1,50.4 15.1,49.9 C15.1,49.4 15.3,49.2 15.8,48.7 C16.4,48.2 17.1,47.5 17.1,46.1 C17.1,44.7 16.3,44 15.8,43.5 C15.3,43 15.1,42.8 15.1,42.3 C15.1,41.8 15.3,41.6 15.8,41.1 C16.4,40.6 17.1,39.9 17.1,38.5 C17.1,37.1 16.3,36.4 15.8,35.9 C15.3,35.4 15.1,35.2 15.1,34.7 C15.1,34.2 15.3,34 15.8,33.5 C16.4,33 17.1,32.3 17.1,30.9 C17.1,29.5 16.3,28.8 15.8,28.3 C15.3,27.8 15.1,27.6 15.1,27.1 C15.1,26.6 15.3,26.4 15.8,25.9 C16.2,25.5 16.7,25 17,24.2 C18.5,24.1 20.3,24 22.1,23.5 C22,23.9 21.8,24.1 21.4,24.5 C20.8,25 20.1,25.7 20.1,27.1 C20.1,28.5 20.9,29.2 21.4,29.7 C21.9,30.2 22.1,30.4 22.1,30.9 C22.1,31.4 21.9,31.6 21.4,32.1 C20.8,32.6 20.1,33.3 20.1,34.7 C20.1,36.1 20.9,36.8 21.4,37.3 C21.9,37.8 22.1,38 22.1,38.5 C22.1,39 21.9,39.2 21.4,39.7 C20.8,40.2 20.1,40.9 20.1,42.3 C20.1,43.7 20.9,44.4 21.4,44.9 C21.9,45.4 22.1,45.6 22.1,46.1 C22.1,46.6 21.9,46.8 21.4,47.3 C20.8,47.8 20.1,48.5 20.1,49.9 C20.1,51.3 20.9,52 21.4,52.5 C21.9,53 22.1,53.2 22.1,53.7 C22.1,54.2 21.9,54.4 21.4,54.9 C20.8,55.4 20.1,56.1 20.1,57.5 C20.1,58.9 20.9,59.6 21.4,60.1 C21.9,60.6 22.1,60.8 22.1,61.3 C22.1,61.8 21.9,62 21.4,62.5 C20.8,63 20.1,63.7 20.1,65.1 C20.1,65.7 20.5,66.1 21.1,66.1 C21.7,66.1 22.1,65.7 22.1,65.1 C22.1,64.6 22.3,64.4 22.8,63.9 C23.4,63.4 24.1,62.7 24.1,61.3 C24.1,59.9 23.3,59.2 22.8,58.7 C22.3,58.2 22.1,58 22.1,57.5 C22.1,57 22.3,56.8 22.8,56.3 C23.4,55.8 24.1,55.1 24.1,53.7 C24.1,52.3 23.3,51.6 22.8,51.1 C22.3,50.6 22.1,50.4 22.1,49.9 C22.1,49.4 22.3,49.2 22.8,48.7 C23.4,48.2 24.1,47.5 24.1,46.1 C24.1,44.7 23.3,44 22.8,43.5 C22.3,43 22.1,42.8 22.1,42.3 C22.1,41.8 22.3,41.6 22.8,41.1 C23.4,40.6 24.1,39.9 24.1,38.5 C24.1,37.1 23.3,36.4 22.8,35.9 C22.3,35.4 22.1,35.2 22.1,34.7 C22.1,34.2 22.3,34 22.8,33.5 C23.4,33 24.1,32.3 24.1,30.9 C24.1,29.5 23.3,28.8 22.8,28.3 C22.3,27.8 22.1,27.6 22.1,27.1 C22.1,26.6 22.3,26.4 22.8,25.9 C23.4,25.4 24.1,24.7 24.1,23.3 C24.1,23.1 24,23 24,22.8 C26.9,21.5 29.3,18.9 29.3,14.1 C29.3,6.4 22.9,0 15.1,0 Z M15.1,22.5 C6.8,22.5 2.9,19.9 2.9,14.3 C2.9,7.6 8.4,2.1 15.1,2.1 C21.8,2.1 27.3,7.6 27.3,14.3 C27.3,19.9 23.4,22.5 15.1,22.5 Z" id="Shape"></path>
                    <path d="M52.9,6.3 C45.1,6.3 38.7,12.7 38.7,20.5 C38.7,26.4 42.2,28.9 45.9,29.9 C45.8,30.3 45.6,30.5 45.2,30.9 C44.6,31.4 43.9,32.1 43.9,33.5 C43.9,34.9 44.7,35.6 45.2,36.1 C45.7,36.6 45.9,36.8 45.9,37.3 C45.9,37.8 45.7,38 45.2,38.5 C44.6,39 43.9,39.7 43.9,41.1 C43.9,42.5 44.7,43.2 45.2,43.7 C45.7,44.2 45.9,44.4 45.9,44.9 C45.9,45.4 45.7,45.6 45.2,46.1 C44.6,46.6 43.9,47.3 43.9,48.7 C43.9,50.1 44.7,50.8 45.2,51.3 C45.7,51.8 45.9,52 45.9,52.5 C45.9,53 45.7,53.2 45.2,53.7 C44.6,54.2 43.9,54.9 43.9,56.3 C43.9,57.7 44.7,58.4 45.2,58.9 C45.7,59.4 45.9,59.6 45.9,60.1 C45.9,60.6 45.7,60.8 45.2,61.3 C44.6,61.8 43.9,62.5 43.9,63.9 C43.9,65.3 44.7,66 45.2,66.5 C45.7,67 45.9,67.2 45.9,67.7 C45.9,68.2 45.7,68.4 45.2,68.9 C44.6,69.4 43.9,70.1 43.9,71.5 C43.9,72.1 44.3,72.5 44.9,72.5 C45.5,72.5 45.9,72.1 45.9,71.5 C45.9,71 46.1,70.8 46.6,70.3 C47.2,69.8 47.9,69.1 47.9,67.7 C47.9,66.3 47.1,65.6 46.6,65.1 C46.1,64.6 45.9,64.4 45.9,63.9 C45.9,63.4 46.1,63.2 46.6,62.7 C47.2,62.2 47.9,61.5 47.9,60.1 C47.9,58.7 47.1,58 46.6,57.5 C46.1,57 45.9,56.8 45.9,56.3 C45.9,55.8 46.1,55.6 46.6,55.1 C47.2,54.6 47.9,53.9 47.9,52.5 C47.9,51.1 47.1,50.4 46.6,49.9 C46.1,49.4 45.9,49.2 45.9,48.7 C45.9,48.2 46.1,48 46.6,47.5 C47.2,47 47.9,46.3 47.9,44.9 C47.9,43.5 47.1,42.8 46.6,42.3 C46.1,41.8 45.9,41.6 45.9,41.1 C45.9,40.6 46.1,40.4 46.6,39.9 C47.2,39.4 47.9,38.7 47.9,37.3 C47.9,35.9 47.1,35.2 46.6,34.7 C46.1,34.2 45.9,34 45.9,33.5 C45.9,33 46.1,32.8 46.6,32.3 C47.1,31.9 47.6,31.3 47.8,30.3 C49.6,30.6 51.2,30.6 52.4,30.6 C52.3,30.7 52.3,30.7 52.2,30.8 C51.6,31.3 50.9,32 50.9,33.4 C50.9,34.8 51.7,35.5 52.2,36 C52.7,36.5 52.9,36.7 52.9,37.2 C52.9,37.7 52.7,37.9 52.2,38.4 C51.6,38.9 50.9,39.6 50.9,41 C50.9,42.4 51.7,43.1 52.2,43.6 C52.7,44.1 52.9,44.3 52.9,44.8 C52.9,45.3 52.7,45.5 52.2,46 C51.6,46.5 50.9,47.2 50.9,48.6 C50.9,50 51.7,50.7 52.2,51.2 C52.7,51.7 52.9,51.9 52.9,52.4 C52.9,52.9 52.7,53.1 52.2,53.6 C51.6,54.1 50.9,54.8 50.9,56.2 C50.9,57.6 51.7,58.3 52.2,58.8 C52.7,59.3 52.9,59.5 52.9,60 C52.9,60.5 52.7,60.7 52.2,61.2 C51.6,61.7 50.9,62.4 50.9,63.8 C50.9,65.2 51.7,65.9 52.2,66.4 C52.7,66.9 52.9,67.1 52.9,67.6 C52.9,68.1 52.7,68.3 52.2,68.8 C51.6,69.3 50.9,70 50.9,71.4 C50.9,72 51.3,72.4 51.9,72.4 C52.5,72.4 52.9,72 52.9,71.4 C52.9,70.9 53.1,70.7 53.6,70.2 C54.2,69.7 54.9,69 54.9,67.6 C54.9,66.2 54.1,65.5 53.6,65 C53.1,64.5 52.9,64.3 52.9,63.8 C52.9,63.3 53.1,63.1 53.6,62.6 C54.2,62.1 54.9,61.4 54.9,60 C54.9,58.6 54.1,57.9 53.6,57.4 C53.1,56.9 52.9,56.7 52.9,56.2 C52.9,55.7 53.1,55.5 53.6,55 C54.2,54.5 54.9,53.8 54.9,52.4 C54.9,51 54.1,50.3 53.6,49.8 C53.1,49.3 52.9,49.1 52.9,48.6 C52.9,48.1 53.1,47.9 53.6,47.4 C54.2,46.9 54.9,46.2 54.9,44.8 C54.9,43.4 54.1,42.7 53.6,42.2 C53.1,41.7 52.9,41.5 52.9,41 C52.9,40.5 53.1,40.3 53.6,39.8 C54.2,39.3 54.9,38.6 54.9,37.2 C54.9,35.8 54.1,35.1 53.6,34.6 C53.1,34.1 52.9,33.9 52.9,33.4 C52.9,32.9 53.1,32.7 53.6,32.2 C54,31.8 54.5,31.3 54.8,30.5 C56.3,30.4 58.1,30.3 59.9,29.8 C59.8,30.2 59.6,30.4 59.2,30.8 C58.6,31.3 57.9,32 57.9,33.4 C57.9,34.8 58.7,35.5 59.2,36 C59.7,36.5 59.9,36.7 59.9,37.2 C59.9,37.7 59.7,37.9 59.2,38.4 C58.6,38.9 57.9,39.6 57.9,41 C57.9,42.4 58.7,43.1 59.2,43.6 C59.7,44.1 59.9,44.3 59.9,44.8 C59.9,45.3 59.7,45.5 59.2,46 C58.6,46.5 57.9,47.2 57.9,48.6 C57.9,50 58.7,50.7 59.2,51.2 C59.7,51.7 59.9,51.9 59.9,52.4 C59.9,52.9 59.7,53.1 59.2,53.6 C58.6,54.1 57.9,54.8 57.9,56.2 C57.9,57.6 58.7,58.3 59.2,58.8 C59.7,59.3 59.9,59.5 59.9,60 C59.9,60.5 59.7,60.7 59.2,61.2 C58.6,61.7 57.9,62.4 57.9,63.8 C57.9,65.2 58.7,65.9 59.2,66.4 C59.7,66.9 59.9,67.1 59.9,67.6 C59.9,68.1 59.7,68.3 59.2,68.8 C58.6,69.3 57.9,70 57.9,71.4 C57.9,72 58.3,72.4 58.9,72.4 C59.5,72.4 59.9,72 59.9,71.4 C59.9,70.9 60.1,70.7 60.6,70.2 C61.2,69.7 61.9,69 61.9,67.6 C61.9,66.2 61.1,65.5 60.6,65 C60.1,64.5 59.9,64.3 59.9,63.8 C59.9,63.3 60.1,63.1 60.6,62.6 C61.2,62.1 61.9,61.4 61.9,60 C61.9,58.6 61.1,57.9 60.6,57.4 C60.1,56.9 59.9,56.7 59.9,56.2 C59.9,55.7 60.1,55.5 60.6,55 C61.2,54.5 61.9,53.8 61.9,52.4 C61.9,51 61.1,50.3 60.6,49.8 C60.1,49.3 59.9,49.1 59.9,48.6 C59.9,48.1 60.1,47.9 60.6,47.4 C61.2,46.9 61.9,46.2 61.9,44.8 C61.9,43.4 61.1,42.7 60.6,42.2 C60.1,41.7 59.9,41.5 59.9,41 C59.9,40.5 60.1,40.3 60.6,39.8 C61.2,39.3 61.9,38.6 61.9,37.2 C61.9,35.8 61.1,35.1 60.6,34.6 C60.1,34.1 59.9,33.9 59.9,33.4 C59.9,32.9 60.1,32.7 60.6,32.2 C61.2,31.7 61.9,31 61.9,29.6 C61.9,29.4 61.8,29.3 61.8,29.1 C64.7,27.8 67.1,25.2 67.1,20.4 C67.1,12.7 60.8,6.3 52.9,6.3 Z M52.9,28.7 C44.6,28.7 40.7,26.1 40.7,20.5 C40.7,13.8 46.2,8.3 52.9,8.3 C59.6,8.3 65.1,13.8 65.1,20.5 C65.1,26.1 61.3,28.7 52.9,28.7 Z" id="Shape"></path>
                </g>
            </g>
        </g>
    </g>
</svg>