<?xml version="1.0" encoding="UTF-8"?>
<svg viewBox="0 0 40 38" version="1.1" xmlns="http://www.w3.org/2000/svg" xmlns:xlink="http://www.w3.org/1999/xlink">
    <!-- Generator: Sketch 58 (84663) - https://sketch.com -->
    <title>Seestern-klein</title>
    <desc>Created with Sketch.</desc>
    <g id="App" stroke="none" stroke-width="1" fill="none" fill-rule="evenodd">
        <g id="Room-Rekruting-Copy" transform="translate(-177.000000, -695.000000)">
            <g id="Seestern-klein" transform="translate(174.865153, 692.175000)">
                <path d="M10.6769244,9.46444696 C17.7713587,3.70398224 24.3496234,4.96685899 31.4440577,10.7273237 C38.5384919,16.4877884 39.5326424,23.0333103 32.4360677,28.795513 C25.339493,34.5577157 17.9532672,37.3495883 10.6769244,31.4414194 C3.40058159,25.5332505 3.58249016,15.2249117 10.6769244,9.46444696 Z" id="Rectangle" fill="#F0BC5E" transform="translate(21.287667, 20.224034) scale(-1, -1) rotate(-27.000000) translate(-21.287667, -20.224034) "></path>
                <path d="M41.2348469,23.425 L34.2348469,15.925 C34.1348469,15.925 34.1348469,15.825 34.1348469,15.725 L34.7348469,5.525 C34.8348469,4.625 34.4348469,3.825 33.6348469,3.325 C33.5348469,3.325 33.5348469,3.225 33.4348469,3.225 C33.4348469,3.225 33.4348469,3.225 33.4348469,3.225 C33.4348469,3.225 33.3348469,3.225 33.3348469,3.225 C32.6348469,2.925 31.9348469,2.925 31.2348469,3.225 L22.0348469,7.525 C21.9348469,7.625 21.8348469,7.625 21.6348469,7.525 L12.1348469,3.725 C11.4348469,3.425 10.7348469,3.525 10.0348469,3.825 C10.0348469,3.825 9.93484692,3.825 9.93484692,3.925 C9.93484692,3.925 9.93484692,3.925 9.93484692,3.925 C9.83484692,3.925 9.83484692,4.025 9.73484692,4.025 C9.03484692,4.525 8.73484692,5.425 8.83484692,6.225 L10.1348469,16.425 C10.1348469,16.525 10.1348469,16.625 10.0348469,16.725 L3.53484692,24.625 C3.03484692,25.225 2.93484692,25.925 3.03484692,26.625 C3.03484692,26.625 3.03484692,26.725 3.03484692,26.725 C3.03484692,26.725 3.03484692,26.825 3.03484692,26.825 C3.03484692,26.925 3.03484692,26.925 3.03484692,27.025 C3.33484692,27.825 4.03484692,28.425 4.83484692,28.625 L14.8348469,30.525 C14.9348469,30.525 15.0348469,30.625 15.1348469,30.725 L20.6348469,39.325 C21.0348469,39.925 21.7348469,40.325 22.4348469,40.425 C22.4348469,40.425 22.5348469,40.425 22.5348469,40.425 C22.5348469,40.425 22.5348469,40.425 22.5348469,40.425 C22.5348469,40.425 22.5348469,40.425 22.5348469,40.425 C22.5348469,40.425 22.6348469,40.425 22.6348469,40.425 C22.6348469,40.425 22.7348469,40.425 22.7348469,40.425 C23.6348469,40.425 24.3348469,39.925 24.8348469,39.125 L29.7348469,30.225 C29.8348469,30.125 29.9348469,30.025 30.0348469,30.025 L39.9348469,27.525 C40.7348469,27.325 41.4348469,26.725 41.6348469,25.825 C41.6348469,25.725 41.6348469,25.725 41.6348469,25.625 C41.6348469,25.625 41.6348469,25.525 41.6348469,25.525 C41.6348469,25.525 41.6348469,25.425 41.6348469,25.425 C41.9348469,24.725 41.7348469,24.025 41.2348469,23.425 Z M38.9348469,23.925 L23.9348469,21.125 L32.7348469,6.425 L32.1348469,15.525 C32.1348469,16.225 32.3348469,16.825 32.8348469,17.325 L38.9348469,23.925 Z M22.9348469,9.225 C22.9348469,9.225 22.9348469,9.225 22.9348469,9.225 L30.9348469,5.425 L22.2348469,19.925 L12.6348469,6.025 L20.9348469,9.325 C21.5348469,9.525 22.2348469,9.525 22.9348469,9.225 Z M11.5348469,18.025 C11.9348469,17.525 12.1348469,16.825 12.0348469,16.125 L10.9348469,7.025 L20.6348469,21.125 L5.83484692,24.925 L11.5348469,18.025 Z M16.9348469,29.625 C16.5348469,29.025 16.0348469,28.625 15.3348469,28.525 L6.53484692,26.825 L21.3348469,23.125 L21.6348469,37.025 L16.9348469,29.625 Z M29.6348469,28.125 C29.0348469,28.325 28.4348469,28.725 28.1348469,29.325 L23.6348469,37.425 L23.3348469,23.025 L38.3348469,25.825 L29.6348469,28.125 Z" id="Shape" fill="#000000" fill-rule="nonzero"></path>
            </g>
        </g>
    </g>
</svg>
