<?xml version="1.0" encoding="UTF-8"?>
<svg viewBox="0 0 76 76" version="1.1" xmlns="http://www.w3.org/2000/svg" xmlns:xlink="http://www.w3.org/1999/xlink">
    <!-- Generator: Sketch 58 (84663) - https://sketch.com -->
    <title>Seestern-gross</title>
    <desc>Created with Sketch.</desc>
    <g id="App" stroke="none" stroke-width="1" fill="none" fill-rule="evenodd">
        <g id="Room-Rekruting-Copy" transform="translate(-116.000000, -643.000000)">
            <g id="Seestern-gross" transform="translate(116.000000, 643.000000)">
                <path d="M16.4365776,14.8957794 C31.2905494,2.58030316 45.0637911,5.28024655 59.9177629,17.5957228 C74.7717346,29.9111991 76.8532372,43.9050736 61.9947839,56.2242655 C47.1363307,68.5434574 31.6714204,74.5122886 16.4365776,61.8810309 C1.20173483,49.2497732 1.5826059,27.2112557 16.4365776,14.8957794 Z" id="Rectangle" fill="#F0BC5E"></path>
                <path d="M0.567479009,51.549931 C-0.133566725,52.6676485 -0.133566725,53.9250806 0.287060716,55.042798 C0.287060716,55.042798 0.287060716,55.1825127 0.287060716,55.1825127 C0.287060716,55.1825127 0.287060716,55.3222274 0.427269862,55.3222274 C0.427269862,55.4619421 0.567479009,55.6016567 0.567479009,55.7413714 C1.26852474,57.1385182 2.67061621,57.9768063 4.21291683,57.9768063 L24.8236614,58.6753797 C25.2442889,58.6753797 25.6649163,58.8150944 25.9453346,59.2342384 L39.5456218,74.6028532 C40.3868767,75.580856 41.5085499,76 42.7704322,76 C42.7704322,76 42.9106413,76 42.9106413,76 C42.9106413,76 42.9106413,76 42.9106413,76 C43.0508505,76 43.0508505,76 43.1910596,76 C43.1910596,76 43.1910596,76 43.1910596,76 C43.3312688,76 43.4714779,76 43.4714779,76 C45.0137786,75.7205706 46.1354517,74.7425679 46.6962883,73.2057064 L53.7067457,53.9250806 C53.8469548,53.5059365 54.1273731,53.2265072 54.5480005,53.0867925 L73.4762354,44.9833411 C74.8783268,44.4244823 75.8597909,43.1670502 76,41.6301887 C76,41.4904741 76,41.3507594 76,41.2110447 C76,41.2110447 76,41.07133 76,41.07133 C76,41.07133 76,40.9316153 76,40.9316153 C76,39.6741832 75.4391634,38.5564658 74.3174902,37.7181777 L58.0532292,25.1438565 C57.7728109,24.8644272 57.4923926,24.4452831 57.4923926,24.1658538 L55.5294646,3.76751049 C55.3892554,2.23064901 54.4077914,0.973216887 53.0056999,0.274643488 C52.8654908,0.274643488 52.7252816,0.134928808 52.5850725,0.134928808 C52.5850725,0.134928808 52.5850725,0.134928808 52.4448633,0.134928808 C52.3046542,0.134928808 52.3046542,0.134928808 52.164445,0.134928808 C50.9025627,-0.144500552 49.6406804,-0.00478587218 48.5190072,0.693787527 L31.4134913,12.1503913 C31.4134913,12.1503913 31.4134913,12.1503913 31.4134913,12.1503913 C31.133073,12.4298206 30.7124456,12.4298206 30.2918181,12.4298206 L10.5223284,7.53980684 C9.26044611,7.26037748 7.99856379,7.53980684 7.01709976,8.37809492 C7.01709976,8.37809492 6.87689062,8.37809492 6.87689062,8.5178096 C6.87689062,8.5178096 6.87689062,8.5178096 6.87689062,8.65752428 C6.73668147,8.79723896 6.73668147,8.79723896 6.59647232,8.93695364 C5.47479915,10.0546711 5.19438085,11.5915326 5.61500829,13.128394 L11.2233742,32.6884492 C11.3635833,33.1075933 11.2233742,33.5267373 11.083165,33.8061667 L0.567479009,51.549931 Z M27.9163498,57.483871 C27.0722433,56.6543779 25.9467681,56.1013825 24.8212928,56.1013825 L4.14068441,55.4101382 C4,55.4101382 4,55.4101382 4,55.4101382 L35.513308,42 L41,72 L27.9163498,57.483871 Z M53.0491803,50.1339286 C51.9344262,50.5491071 51.0983607,51.5178571 50.6803279,52.625 L43.7131148,71.7232143 C43.7131148,71.8616071 43.5737705,72 43.5737705,72 L38,41 L72,41.96875 C72,41.96875 71.8606557,42.1071429 71.8606557,42.1071429 L53.0491803,50.1339286 Z M54.2916667,23.7906977 C54.4333333,24.9069767 55,26.0232558 55.9916667,26.7209302 L72,39 L38,38.0232558 L52.3083333,3 C52.3083333,3.13953488 52.3083333,3.13953488 52.45,3.27906977 L54.2916667,23.7906977 Z M33.5642857,14.1020408 L50,3 L36.2107143,37 L11,10.4938776 L30.3607143,14.7959184 C31.475,15.0734694 32.5892857,14.7959184 33.5642857,14.1020408 Z M13.6606335,32.2172414 L7.90950226,12.2827586 C7.90950226,12.1413793 7.90950226,12.1413793 7.90950226,12 L34,39.7103448 L3,53 L13.239819,35.6103448 C13.800905,34.6206897 13.9411765,33.3482759 13.6606335,32.2172414 Z" id="Shape" fill="#000000" fill-rule="nonzero"></path>
            </g>
        </g>
    </g>
</svg>
