<?xml version="1.0" encoding="UTF-8"?>
<svg width="81px" height="78px" viewBox="0 0 81 78" version="1.1" xmlns="http://www.w3.org/2000/svg" xmlns:xlink="http://www.w3.org/1999/xlink">
    <!-- Generator: Sketch 58 (84663) - https://sketch.com -->
    <title>Starfishes</title>
    <desc>Created with Sketch.</desc>
    <g id="App" stroke="none" stroke-width="1" fill="none" fill-rule="evenodd">
        <g id="Room-Rekruting-Copy" transform="translate(-123.000000, -655.000000)">
            <g id="Starfishes" transform="translate(123.000000, 655.000000)">
                <path d="M11.1291012,11.5741435 C21.6291012,2.83412812 31.3651531,4.75021697 41.8651531,13.4902324 C52.3651531,22.2302478 53.8365291,32.1613845 43.3333611,40.9040369 C32.8301932,49.6466892 21.898332,53.8826339 11.1291012,44.9185155 C0.359870473,35.9543971 0.629101242,20.314159 11.1291012,11.5741435 Z" id="Rectangle" fill="#F0BC5E"></path>
                <path d="M49.5420775,46.639447 C56.6365118,40.8789822 63.2147765,42.141859 70.3092107,47.9023237 C77.403645,53.6627884 78.3977955,60.2083103 71.3012208,65.970513 C64.2046461,71.7327157 56.8184203,74.5245883 49.5420775,68.6164194 C42.2657347,62.7082505 42.4476432,52.3999117 49.5420775,46.639447 Z" id="Rectangle" fill="#F0BC5E" transform="translate(60.152820, 57.399034) scale(-1, -1) rotate(-27.000000) translate(-60.152820, -57.399034) "></path>
                <path d="M1.1,37.5 C0.6,38.3 0.6,39.2 0.9,40 C0.9,40 0.9,40.1 0.9,40.1 C0.9,40.1 0.9,40.2 1,40.2 C1,40.3 1.1,40.4 1.1,40.5 C1.6,41.5 2.6,42.1 3.7,42.1 L18.4,42.6 C18.7,42.6 19,42.7 19.2,43 L28.9,54 C29.5,54.7 30.3,55 31.2,55 C31.2,55 31.3,55 31.3,55 C31.3,55 31.3,55 31.3,55 C31.4,55 31.4,55 31.5,55 C31.5,55 31.5,55 31.5,55 C31.6,55 31.7,55 31.7,55 C32.8,54.8 33.6,54.1 34,53 L39,39.2 C39.1,38.9 39.3,38.7 39.6,38.6 L53.1,32.8 C54.1,32.4 54.8,31.5 54.9,30.4 C54.9,30.3 54.9,30.2 54.9,30.1 C54.9,30.1 54.9,30 54.9,30 C54.9,30 54.9,29.9 54.9,29.9 C54.9,29 54.5,28.2 53.7,27.6 L42.1,18.6 C41.9,18.4 41.7,18.1 41.7,17.9 L40.3,3.3 C40.2,2.2 39.5,1.3 38.5,0.8 C38.4,0.8 38.3,0.7 38.2,0.7 C38.2,0.7 38.2,0.7 38.1,0.7 C38,0.7 38,0.7 37.9,0.7 C37,0.5 36.1,0.6 35.3,1.1 L23.1,9.3 C23.1,9.3 23.1,9.3 23.1,9.3 C22.9,9.5 22.6,9.5 22.3,9.5 L8.2,6 C7.3,5.8 6.4,6 5.7,6.6 C5.7,6.6 5.6,6.6 5.6,6.7 C5.6,6.7 5.6,6.7 5.6,6.8 C5.5,6.9 5.5,6.9 5.4,7 C4.6,7.8 4.4,8.9 4.7,10 L8.7,24 C8.8,24.3 8.7,24.6 8.6,24.8 L1.1,37.5 Z M20.6,41.7 C20,41.1 19.2,40.7 18.4,40.7 L3.7,40.2 C3.6,40.2 3.6,40.2 3.6,40.2 L26,30.5 L29.9,52.2 L20.6,41.7 Z M38.8,36.8 C38,37.1 37.4,37.8 37.1,38.6 L32.1,52.4 C32.1,52.5 32,52.6 32,52.6 L28,30.2 L52.4,30.9 C52.4,30.9 52.3,31 52.3,31 L38.8,36.8 Z M39.8,17.9 C39.9,18.7 40.3,19.5 41,20 L52.3,28.8 L28.3,28.1 L38.4,3 C38.4,3.1 38.4,3.1 38.5,3.2 L39.8,17.9 Z M24.5,10.7 L36.3,2.7 L26.4,27.2 L8.3,8.1 L22.2,11.2 C23,11.4 23.8,11.2 24.5,10.7 Z M10.6,23.5 L6.5,9.4 C6.5,9.3 6.5,9.3 6.5,9.2 L25.1,28.8 L3,38.2 L10.3,25.9 C10.7,25.2 10.8,24.3 10.6,23.5 Z" id="Shape" fill="#000000" fill-rule="nonzero"></path>
                <path d="M80.1,60.6 L73.1,53.1 C73,53.1 73,53 73,52.9 L73.6,42.7 C73.7,41.8 73.3,41 72.5,40.5 C72.4,40.5 72.4,40.4 72.3,40.4 C72.3,40.4 72.3,40.4 72.3,40.4 C72.3,40.4 72.2,40.4 72.2,40.4 C71.5,40.1 70.8,40.1 70.1,40.4 L60.9,44.7 C60.8,44.8 60.7,44.8 60.5,44.7 L51,40.9 C50.3,40.6 49.6,40.7 48.9,41 C48.9,41 48.8,41 48.8,41.1 C48.8,41.1 48.8,41.1 48.8,41.1 C48.7,41.1 48.7,41.2 48.6,41.2 C47.9,41.7 47.6,42.6 47.7,43.4 L49,53.6 C49,53.7 49,53.8 48.9,53.9 L42.4,61.8 C41.9,62.4 41.8,63.1 41.9,63.8 C41.9,63.8 41.9,63.9 41.9,63.9 C41.9,63.9 41.9,64 41.9,64 C41.9,64.1 41.9,64.1 41.9,64.2 C42.2,65 42.9,65.6 43.7,65.8 L53.7,67.7 C53.8,67.7 53.9,67.8 54,67.9 L59.5,76.5 C59.9,77.1 60.6,77.5 61.3,77.6 C61.3,77.6 61.4,77.6 61.4,77.6 C61.4,77.6 61.4,77.6 61.4,77.6 C61.4,77.6 61.4,77.6 61.4,77.6 C61.4,77.6 61.5,77.6 61.5,77.6 C61.5,77.6 61.6,77.6 61.6,77.6 C62.5,77.6 63.2,77.1 63.7,76.3 L68.6,67.4 C68.7,67.3 68.8,67.2 68.9,67.2 L78.8,64.7 C79.6,64.5 80.3,63.9 80.5,63 C80.5,62.9 80.5,62.9 80.5,62.8 C80.5,62.8 80.5,62.7 80.5,62.7 C80.5,62.7 80.5,62.6 80.5,62.6 C80.8,61.9 80.6,61.2 80.1,60.6 Z M77.8,61.1 L62.8,58.3 L71.6,43.6 L71,52.7 C71,53.4 71.2,54 71.7,54.5 L77.8,61.1 Z M61.8,46.4 C61.8,46.4 61.8,46.4 61.8,46.4 L69.8,42.6 L61.1,57.1 L51.5,43.2 L59.8,46.5 C60.4,46.7 61.1,46.7 61.8,46.4 Z M50.4,55.2 C50.8,54.7 51,54 50.9,53.3 L49.8,44.2 L59.5,58.3 L44.7,62.1 L50.4,55.2 Z M55.8,66.8 C55.4,66.2 54.9,65.8 54.2,65.7 L45.4,64 L60.2,60.3 L60.5,74.2 L55.8,66.8 Z M68.5,65.3 C67.9,65.5 67.3,65.9 67,66.5 L62.5,74.6 L62.2,60.2 L77.2,63 L68.5,65.3 Z" id="Shape" fill="#000000" fill-rule="nonzero"></path>
            </g>
        </g>
    </g>
</svg>