<?xml version="1.0" encoding="UTF-8"?>
<svg viewBox="0 0 95 72" version="1.1" xmlns="http://www.w3.org/2000/svg" xmlns:xlink="http://www.w3.org/1999/xlink">
    <!-- Generator: Sketch 58 (84663) - https://sketch.com -->
    <title>Submarine</title>
    <desc>Created with Sketch.</desc>
    <g id="App" stroke="none" stroke-width="1" fill="none" fill-rule="evenodd">
        <g id="Room-Rekruting-Copy" transform="translate(-88.000000, -396.000000)">
            <g id="Submarine" transform="translate(88.000000, 396.000000)">
                <ellipse id="Oval" fill="#FFFFFF" cx="53.5" cy="46" rx="39.5" ry="25"></ellipse>
                <ellipse id="Oval" fill="#E5C5B7" cx="53" cy="46" rx="36" ry="21"></ellipse>
                <g id="noun_Submarine_888137" transform="translate(47.500000, 36.000000) scale(-1, 1) translate(-47.500000, -36.000000) " fill="#000000" fill-rule="nonzero">
                    <path d="M95,45.7411765 C95,45.0151261 94.5153061,44.5310924 93.7882653,44.5310924 L90.7589286,44.5310924 C92.0918367,41.2638655 92.0918367,35.9394958 92.0918367,35.092437 C92.0918367,33.8823529 91.9706633,23.2336134 88.2142857,23.2336134 C84.4579082,23.2336134 84.3367347,33.8823529 84.3367347,35.092437 C84.3367347,35.9394958 84.3367347,41.3848739 85.6696429,44.5310924 L82.8826531,44.5310924 C82.2767857,35.3344538 74.0369898,27.4689076 62.1619898,23.112605 C61.5561224,11.9798319 54.8915816,4.84033613 45.0765306,4.84033613 C35.625,4.84033613 28.1122449,11.8588235 27.9910714,20.9344538 C27.0216837,21.1764706 26.0522959,21.4184874 25.0829082,21.6605042 L25.0829082,6.17142857 C25.0829082,5.68739496 25.3252551,3.6302521 23.8711735,1.93613445 C22.7806122,0.605042017 21.0841837,0 18.7818878,0 C18.0548469,0 17.5701531,0.484033613 17.5701531,1.21008403 C17.5701531,1.93613445 18.0548469,2.42016807 18.7818878,2.42016807 C20.3571429,2.42016807 21.4477041,2.78319328 22.0535714,3.5092437 C22.9017857,4.47731092 22.7806122,5.92941176 22.7806122,5.92941176 C22.7806122,6.05042017 22.7806122,6.05042017 22.7806122,6.17142857 L22.7806122,22.507563 C9.33035714,26.8638655 0,35.697479 0,45.8621849 C0,60.2621849 18.6607143,72 41.4413265,72 C63.6160714,72 81.9132653,60.8672269 82.8826531,47.0722689 L85.6696429,47.0722689 C84.3367347,50.3394958 84.3367347,55.6638655 84.3367347,56.5109244 C84.3367347,57.7210084 84.4579082,68.3697479 88.2142857,68.3697479 C91.9706633,68.3697479 92.0918367,57.7210084 92.0918367,56.5109244 C92.0918367,55.6638655 92.0918367,50.2184874 90.7589286,47.0722689 L93.7882653,47.0722689 C94.5153061,46.9512605 95,46.4672269 95,45.7411765 Z M88.2142857,25.7747899 C88.8201531,26.7428571 89.6683673,29.8890756 89.6683673,35.092437 C89.6683673,40.2957983 88.8201531,43.4420168 88.2142857,44.410084 C87.6084184,43.4420168 86.7602041,40.2957983 86.7602041,35.092437 C86.7602041,29.8890756 87.6084184,26.7428571 88.2142857,25.7747899 Z M45.1977041,7.2605042 C53.4375,7.2605042 58.8903061,12.9478992 59.7385204,22.2655462 C54.2857143,20.5714286 48.1058673,19.6033613 41.5625,19.6033613 C37.8061224,19.6033613 34.0497449,19.9663866 30.6568878,20.5714286 C30.8992347,13.0689076 37.2002551,7.2605042 45.1977041,7.2605042 Z M41.4413265,69.5798319 C19.872449,69.5798319 2.42346939,58.9310924 2.42346939,45.8621849 C2.42346939,32.7932773 19.9936224,22.1445378 41.4413265,22.1445378 C62.8890306,22.1445378 80.4598067,32.7932773 80.4598067,45.8621849 C80.5803571,58.9310924 63.0102041,69.5798319 41.4413265,69.5798319 Z M88.2142857,65.707563 C87.6084184,64.7394958 86.7602041,61.5932773 86.7602041,56.389916 C86.7602041,51.1865546 87.6084184,48.0403361 88.2142857,47.0722689 C88.8201531,48.0403361 89.6683673,51.1865546 89.6683673,56.389916 C89.6683673,61.5932773 88.8201531,64.8605042 88.2142857,65.707563 Z" id="Shape"></path>
                    <path d="M20.5,38 C16.3870968,38 13,41.3870968 13,45.5 C13,49.6129032 16.3870968,53 20.5,53 C24.6129032,53 28,49.6129032 28,45.5 C28,41.3870968 24.6129032,38 20.5,38 Z M20.5,50.7016129 C17.7177419,50.7016129 15.4193548,48.4032258 15.4193548,45.6209677 C15.4193548,42.8387097 17.7177419,40.5403226 20.5,40.5403226 C23.2822581,40.5403226 25.5806452,42.8387097 25.5806452,45.6209677 C25.5806452,48.4032258 23.2822581,50.7016129 20.5,50.7016129 Z" id="Shape"></path>
                    <path d="M40.5,38 C36.3870968,38 33,41.3870968 33,45.5 C33,49.6129032 36.3870968,53 40.5,53 C44.6129032,53 48,49.6129032 48,45.5 C48,41.3870968 44.6129032,38 40.5,38 Z M40.5,50.7016129 C37.7177419,50.7016129 35.4193548,48.4032258 35.4193548,45.6209677 C35.4193548,42.8387097 37.7177419,40.4193548 40.5,40.4193548 C43.2822581,40.4193548 45.5806452,42.7177419 45.5806452,45.5 C45.5806452,48.2822581 43.2822581,50.7016129 40.5,50.7016129 Z" id="Shape"></path>
                    <path d="M60.5,38 C56.3870968,38 53,41.3870968 53,45.5 C53,49.6129032 56.3870968,53 60.5,53 C64.6129032,53 68,49.6129032 68,45.5 C68,41.3870968 64.6129032,38 60.5,38 Z M60.5,50.7016129 C57.7177419,50.7016129 55.4193548,48.4032258 55.4193548,45.6209677 C55.4193548,42.8387097 57.7177419,40.5403226 60.5,40.5403226 C63.2822581,40.5403226 65.5806452,42.8387097 65.5806452,45.6209677 C65.5806452,48.4032258 63.2822581,50.7016129 60.5,50.7016129 Z" id="Shape"></path>
                </g>
                <circle id="Light1" fill="#FFFFFF" cx="34.5" cy="45.5" r="5.5"></circle>
                <circle id="Light2" fill="#FFFFFF" cx="54.5" cy="45.5" r="5.5"></circle>
                <circle id="Light3" fill="#FFFFFF" cx="74.5" cy="45.5" r="5.5"></circle>
            </g>
        </g>
    </g>
</svg>
