<?xml version="1.0" encoding="UTF-8"?>
<svg viewBox="0 0 24 60" version="1.1" xmlns="http://www.w3.org/2000/svg" xmlns:xlink="http://www.w3.org/1999/xlink">
    <!-- Generator: Sketch 58 (84663) - https://sketch.com -->
    <title>Icon/Avatar/Zora</title>
    <desc>Created with Sketch.</desc>
    <g id="App" stroke="none" stroke-width="1" fill="none" fill-rule="evenodd">
        <g id="Room-Rekruting-Copy" transform="translate(-139.000000, -621.000000)">
            <g id="Icon/Avatar/Zora" transform="translate(139.000000, 621.000000)">
                <g id="Zora" transform="translate(0.489796, 0.000000)">
                    <polygon id="Path-29" fill="#B6A6B9" points="5.49619994 57.1609981 6.09108329 58.9713082 8.27232223 58.9713082 9.24726994 57.1609981"></polygon>
                    <polygon id="Path-29-Copy" fill="#B6A6B9" points="13.7142857 57.0731707 14.3091691 58.8834808 16.490408 58.8834808 17.4653557 57.0731707"></polygon>
                    <path d="M5.22900171,53.3303694 C5.22900171,53.3303694 5.22900171,54.4701009 5.22900171,56.749564 L9.24726994,56.749564 L9.24726994,53.3303694 C6.56842445,53.3303694 5.22900171,53.3303694 5.22900171,53.3303694 Z" id="Path-13" fill="#FFFFFF"></path>
                    <path d="M13.4693878,53.1707317 C13.4693878,53.1707317 13.4693878,54.3104632 13.4693878,56.5899262 L17.487656,56.5899262 L17.487656,53.1707317 C14.8088105,53.1707317 13.4693878,53.1707317 13.4693878,53.1707317 Z" id="Path-13" fill="#FFFFFF"></path>
                    <polygon id="Path-28" fill="#FFFFFF" points="4.4044024 24.9134222 1.54370633 26.8795737 1.1967341 37.143169 2.49345108 36.7693294"></polygon>
                    <polygon id="Path-28" fill="#FFFFFF" transform="translate(19.943425, 31.028296) scale(-1, 1) translate(-19.943425, -31.028296) " points="21.5472595 24.9134222 18.6865635 26.8795737 18.3395912 37.143169 19.6363082 36.7693294"></polygon>
                    <polygon id="Path-25" fill="#8CBACB" points="6.70659452 24.0555014 4.40609176 25.7295425 2.36208964 37.229887 0.82245167 47.6991662 1.54370633 50.501549 5.22900171 53.3303694 17.8646512 53.3303694 20.0409632 51.7705526 21.9526555 48.8095443 20.8818984 39.5035184 18.130106 25.1479159 15.8206491 24.0555014 14.9795646 26.5226697 12.5555548 28.1089241 9.44973337 28.1089241 7.19336739 25.1479159"></polygon>
                    <polygon id="Path-27" fill="#FFFFFF" points="4.9505218 11.0083849 4.9505218 18.3152491 9.07954163 20.2864032 9.07954163 23.7869009 6.79322486 24.2287113 8.08163265 27.0155153 10.478631 28.2389903 14.2040816 27.6275172 15.8702437 24.2287113 13.6521752 23.7869009 13.6521752 20.2864032 18.1565604 17.7374971 18.1565604 7.64382885 16.2456091 10.1247641 13.85692 10.8384578 13.6521752 7.81375592 11.8435962 10.1247641 10.1715138 11.0083849"></polygon>
                    <polygon id="Path-26" fill="#DD7A7D" points="6.47022398 2.25310775 2.68310166 5.4430311 0.82245167 10.5780297 0.82245167 11.6672718 4.67345083 19.3697696 5.06405369 11.2004537 10.3371923 10.8114387 13.4693878 8.1661364 14.2040816 11.2004537 16.586838 9.83808925 18.1492495 7.81602286 18.5789126 19.3697696 22.3677603 11.2004537 21.2647065 6.64897773 18.1492495 3.14784235 14.2040816 1.24166864 8.54041914 1.24166864"></polygon>
                    <g id="noun_girl_1100583" fill="#000000" fill-rule="nonzero">
                        <path d="M18.216311,20.85508 L18.4278631,20.85508 C18.9990536,20.85508 19.6654426,19.9891612 23.007965,11.6012251 C23.0245559,11.5150554 23.0245559,11.4265758 23.007965,11.3404062 C23.007965,5.07727278 17.8602004,0 11.510111,0 C5.16002158,0 0.0122570107,5.07727278 0.0122570107,11.3404062 C-0.00408567024,11.4265987 -0.00408567024,11.5150326 0.0122570107,11.6012251 C3.80961633,20.9907058 4.14809961,20.9281093 4.81448857,20.8029162 C5.2005046,20.7252232 5.46781809,20.376665 5.43856712,19.9891612 L5.43856712,19.3318975 C6.31671466,20.0082776 7.30843074,20.5273605 8.36856303,20.8655127 L8.36856303,23.2754795 L7.4271564,23.2754795 C6.57139151,23.2704086 5.73418341,23.5214056 5.02604062,23.9953396 C2.36476612,24.2020582 0.311220625,26.3909703 0.308429882,29.0239282 L0.308429882,36.911092 C0.308411653,37.8640619 0.624134344,38.7909327 1.2075261,39.5505794 L0.149765844,46.4570641 C-0.343344122,49.5338073 1.42450638,52.5285127 4.38080687,53.6243677 C4.38080687,53.6243677 4.38080687,53.6243677 4.38080687,53.6243677 L4.38080687,57.0671773 C4.31737579,58.0745113 4.82623418,59.033286 5.70165986,59.5558861 C6.57708553,60.0784863 7.67430393,60.0784863 8.5497296,59.5558861 C9.42515528,59.033286 9.93401367,58.0745113 9.87058259,57.0671773 L9.87058259,54.0521107 L12.7159577,54.0521107 L12.7159577,57.1193411 C12.6525266,58.1266751 13.161385,59.0854498 14.0368107,59.6080499 C14.9122363,60.13065 16.0094547,60.13065 16.8848804,59.6080499 C17.7603061,59.0854498 18.2691645,58.1266751 18.2057334,57.1193411 L18.2057334,53.739128 C21.1623756,52.7929804 22.9891397,49.8739705 22.5213952,46.8430761 L21.3790142,39.5401466 C21.9624059,38.7805 22.2781286,37.8536292 22.2781104,36.9006593 L22.2781104,29.0447937 C22.2753196,26.4118358 20.2217742,24.2229237 17.5604997,24.0162052 C16.8523569,23.5422711 16.0151488,23.2912741 15.1593839,23.296345 L14.2179772,23.296345 L14.2179772,20.8863782 C15.4368369,20.5030866 16.5634645,19.8782585 17.5287668,19.0502131 L17.5287668,20.0100267 C17.4911563,20.4279692 17.7944777,20.8007783 18.216311,20.85508 L18.216311,20.85508 Z M4.15867721,11.006558 L4.15867721,17.4018376 C3.41824503,15.7534621 2.434528,13.4373902 1.54600938,11.2465114 C1.88990587,6.02203331 6.28656659,1.95798399 11.5947318,1.95798399 C16.902897,1.95798399 21.2995578,6.02203331 21.6434542,11.2465114 C20.7549356,13.4686885 19.7712186,15.8160586 19.0307864,17.5061652 C19.0307864,13.6773436 19.0307864,6.87518644 19.0307864,6.73956061 C19.0307864,6.34775466 18.7087551,6.03013318 18.3115094,6.03013318 C18.0612363,6.00042253 17.8193152,6.13019193 17.7085861,6.35354863 C17.6570892,6.42939771 17.621154,6.51446112 17.6028101,6.60393478 C17.6028101,6.73956061 16.9681539,9.73376169 14.6305037,10.2658323 L14.6305037,6.67696407 C14.6099983,6.32583272 14.3317482,6.04252981 13.9765731,6.01115864 C13.621398,5.97978746 13.2965392,6.20982021 13.213105,6.551771 C13.213105,6.551771 12.4726728,10.3075633 9.52152171,10.3075633 L4.82506617,10.3075633 C4.45264646,10.3346187 4.16315994,10.6382695 4.15867721,11.006558 Z M1.86333746,29.0447937 C1.86486083,27.8383712 2.48084628,26.7134232 3.50286585,26.0505926 C3.4055778,26.3143805 3.33472212,26.5869336 3.2913138,26.8643476 L1.86333746,35.9199802 L1.86333746,29.0447937 Z M7.20502675,58.4025701 C6.64514351,58.4009162 6.14805304,58.0489178 5.96744725,57.5262186 L8.45318385,57.5262186 C8.27498863,58.0566763 7.7715996,58.4143216 7.20502675,58.4130029 L7.20502675,58.4025701 Z M8.52722707,56.1177965 L5.89340403,56.1177965 L5.89340403,53.9790814 C6.1980778,54.0243451 6.50556366,54.0487465 6.81365545,54.0521107 L8.53780467,54.0521107 L8.52722707,56.1177965 Z M15.5401776,58.4025701 C14.9802943,58.4009162 14.4832039,58.0489178 14.3025981,57.5262186 L16.7883347,57.5262186 C16.6101394,58.0566763 16.1067504,58.4143216 15.5401776,58.4130029 L15.5401776,58.4025701 Z M16.8518003,56.1282292 L14.2285548,56.1282292 L14.2285548,54.041678 L16.3440754,54.041678 L16.8623779,54.041678 L16.8518003,56.1282292 Z M20.025081,50.9118511 C19.0941687,51.984996 17.7336999,52.6025469 16.3017649,52.601958 L6.78192265,52.601958 C5.25520127,52.5875447 3.80928212,51.9230859 2.81599342,50.7794514 C1.82270473,49.6358169 1.37896951,48.1246001 1.59889739,46.634421 L4.67697974,27.0521373 C4.82498858,26.1035749 5.45591805,25.2961737 6.34824094,24.9134222 C6.805984,27.2854991 8.90855209,29.0018029 11.3567358,29.0018029 C13.8049194,29.0018029 15.9074875,27.2854991 16.3652306,24.9134222 C17.2575535,25.2961737 17.8884829,26.1035749 18.0364918,27.0521373 L21.2097725,47.0204329 C21.4271002,48.43998 20.9929596,49.8813171 20.025081,50.9535821 L20.025081,50.9118511 Z M20.850134,29.0030627 L20.850134,35.8886819 L19.4221577,26.8330494 C19.3766868,26.5481979 19.3022687,26.2685824 19.200028,25.9984289 C20.252486,26.6628966 20.8870515,27.8123041 20.8818669,29.0447937 L20.850134,29.0030627 Z M13.5727435,24.7047671 L14.9795646,24.7047671 C14.6415637,26.4028303 13.1323951,27.6275172 11.377891,27.6275172 C9.62338684,27.6275172 8.11421826,26.4028303 7.77621729,24.7047671 L9.18303843,24.7047671 C9.5761472,24.6990646 9.89178031,24.3831072 9.8917378,23.9953396 L9.8917378,21.2202264 C10.3815447,21.2967185 10.8766934,21.3350903 11.3726022,21.3349868 C11.8684838,21.3344129 12.3635791,21.2960452 12.8534665,21.2202264 L12.8534665,23.9953396 C12.8534665,24.3871456 13.1754978,24.7047671 13.5727435,24.7047671 L13.5727435,24.7047671 Z M11.3726022,19.9265647 C9.15750737,19.9109646 7.04628287,18.998066 5.53376554,17.4018376 L5.53376554,11.7159854 L9.52152171,11.7159854 C10.9706116,11.711086 12.3318699,11.0301041 13.1919498,9.87982028 L13.1919498,11.006558 C13.1912372,11.1947657 13.2675061,11.3753044 13.4035018,11.5073303 C13.5429936,11.6382525 13.7292899,11.7095006 13.9218044,11.7055526 C15.3678751,11.6707787 16.7174349,10.9821567 17.5816549,9.83808925 L17.5816549,17.0158256 C16.061047,18.8576014 13.7807615,19.9265647 11.3726022,19.9265647 L11.3726022,19.9265647 Z" id="Shape"></path>
                        <path d="M8.81632653,13.4146341 C8.39785941,13.456722 8.08163265,13.7716633 8.08163265,14.1463415 C8.08163265,14.5210197 8.39785941,14.8359609 8.81632653,14.8780488 C9.23479366,14.8359609 9.55102041,14.5210197 9.55102041,14.1463415 C9.55102041,13.7716633 9.23479366,13.456722 8.81632653,13.4146341 L8.81632653,13.4146341 Z" id="Path"></path>
                        <path d="M13.4693878,13.4146341 C13.0509206,13.456722 12.7346939,13.7716633 12.7346939,14.1463415 C12.7346939,14.5210197 13.0509206,14.8359609 13.4693878,14.8780488 C13.8878549,14.8359609 14.2040816,14.5210197 14.2040816,14.1463415 C14.2040816,13.7716633 13.8878549,13.456722 13.4693878,13.4146341 L13.4693878,13.4146341 Z" id="Path"></path>
                    </g>
                </g>
            </g>
        </g>
    </g>
</svg>
