<?xml version="1.0" encoding="UTF-8"?>
<svg viewBox="0 0 261 84" version="1.1" xmlns="http://www.w3.org/2000/svg" xmlns:xlink="http://www.w3.org/1999/xlink">
    <!-- Generator: Sketch 58 (84663) - https://sketch.com -->
    <title>Logo/Informatiktage2020</title>
    <desc>Created with Sketch.</desc>
    <g id="Logo/Informatiktage2020" stroke="none" stroke-width="1" fill="none" fill-rule="evenodd">
        <g id="itt20_logo_neutral" fill-rule="nonzero">
            <polygon id="Path" fill="#161317" points="67 16.06 72.73 16.06 72.73 36.73 67 36.73"></polygon>
            <polygon id="Path" fill="#161317" points="77.05 16.06 82.4 16.06 90.9 27 90.9 16.06 96.57 16.06 96.57 36.73 91.57 36.73 82.72 25.39 82.72 36.73 77.05 36.73"></polygon>
            <polygon id="Path" fill="#161317" points="100.94 16.06 117.47 16.06 117.47 21.06 106.66 21.06 106.66 24.57 116.44 24.57 116.44 29.33 106.66 29.33 106.66 36.71 100.94 36.71"></polygon>
            <path d="M119.33,26.45 L119.33,26.39 C119.496408,20.3694311 124.417883,15.5713408 130.440736,15.5577898 C136.463589,15.5442961 141.40656,20.320239 141.6,26.34 L141.6,26.39 C141.436515,32.4108096 136.517125,37.2113557 130.494118,37.2276242 C124.471111,37.2438102 119.525925,32.4698413 119.33,26.45 L119.33,26.45 Z M135.72,26.45 L135.72,26.39 C135.849742,24.4305328 134.881304,22.5609435 133.205922,21.5365219 C131.53054,20.5121003 129.425038,20.5021121 127.740012,21.5105925 C126.054986,22.5190729 125.068854,24.3793901 125.18,26.34 L125.18,26.39 C125.117668,27.8442085 125.64722,29.2616192 126.647792,30.3187206 C127.648364,31.3758221 129.034563,31.982397 130.49,32 C131.930628,31.9911015 133.304808,31.3928177 134.29283,30.344343 C135.280853,29.2958682 135.796571,27.8886188 135.72,26.45 L135.72,26.45 Z" id="Shape" fill="#161317"></path>
            <path d="M144.92,16.06 L154.69,16.06 C157.85,16.06 160.04,16.89 161.43,18.27 C162.680414,19.5543959 163.342928,21.2993769 163.26,23.09 L163.26,23.15 C163.362988,25.9700278 161.645567,28.5380956 159,29.52 L163.93,36.73 L157.35,36.73 L153.19,30.47 L150.65,30.47 L150.65,36.73 L144.92,36.73 L144.92,16.06 Z M154.46,26 C156.38,26 157.53,25.06 157.53,23.55 L157.53,23.49 C157.53,21.84 156.32,21.01 154.43,21.01 L150.65,21.01 L150.65,26.01 L154.46,26 Z" id="Shape" fill="#161317"></path>
            <polygon id="Path" fill="#161317" points="166.68 16.06 172.68 16.06 177.61 24.06 182.54 16.06 188.54 16.06 188.54 36.73 182.84 36.73 182.84 24.86 177.66 33 177.54 33 172.29 24.94 172.29 36.73 166.68 36.73"></polygon>
            <path d="M199.68,15.91 L205.2,15.91 L214,36.73 L207.86,36.73 L206.38,33 L198.38,33 L196.91,36.72 L190.91,36.72 L199.68,15.91 Z M204.68,28.55 L202.38,22.7 L200.05,28.55 L204.68,28.55 Z" id="Shape" fill="#161317"></path>
            <polygon id="Path" fill="#161317" points="216.06 21.08 209.89 21.08 209.89 16.08 228 16.08 228 21.08 221.8 21.08 221.8 36.73 216.07 36.73"></polygon>
            <polygon id="Path" fill="#161317" points="230.58 16.06 236.3 16.06 236.3 36.73 230.58 36.73"></polygon>
            <polygon id="Path" fill="#161317" points="240.66 16.06 246.38 16.06 246.38 24.45 253.53 16.06 260.29 16.06 252.47 24.92 260.55 36.73 253.71 36.73 248.48 29.05 246.38 31.35 246.38 36.73 240.66 36.73"></polygon>
            <polygon id="Path" fill="#161317" points="73 47.24 66.83 47.24 66.83 42.24 84.93 42.24 84.93 47.24 78.73 47.24 78.73 62.89 73 62.89"></polygon>
            <path d="M89.56,42.07 L95.08,42.07 L103.88,62.89 L97.73,62.89 L96.26,59.16 L88.26,59.16 L86.78,62.89 L80.78,62.89 L89.56,42.07 Z M94.56,54.71 L92.25,48.86 L89.92,54.71 L94.56,54.71 Z" id="Shape" fill="#161317"></path>
            <path d="M102.999937,52.61 L102.999937,52.55 C102.990008,49.6345965 104.167864,46.8408736 106.262131,44.812642 C108.356398,42.7844105 111.186412,41.6966377 114.1,41.8 C117.176928,41.6933549 120.178302,42.766552 122.49,44.8 L119.12,48.87 C117.773628,47.583465 115.982225,46.8669039 114.12,46.87 C112.666197,46.9008625 111.286282,47.5167462 110.292494,48.5782925 C109.298706,49.6398387 108.775044,51.0573212 108.84,52.51 L108.84,52.57 C108.75848,54.0949389 109.318145,55.5845269 110.38364,56.6785118 C111.449136,57.7724967 112.923441,58.3712626 114.45,58.33 C115.612055,58.3874625 116.763796,58.0873118 117.75,57.47 L117.75,55 L113.75,55 L113.75,50.81 L123.23,50.81 L123.23,60.08 C120.709836,62.1919996 117.51795,63.3339853 114.23,63.3 C107.75,63.3 102.999937,58.87 102.999937,52.61 Z" id="Path" fill="#161317"></path>
            <polygon id="Path" fill="#161317" points="127.06 42.22 143.68 42.22 143.68 47.06 132.68 47.06 132.68 50.22 142.6 50.22 142.6 54.74 132.68 54.74 132.68 58 143.78 58 143.78 62.88 127.06 62.88"></polygon>
            <path d="M148.44,61.73 L156.14,54.73 C159.54,51.63 160.72,49.85 160.72,47.67 C160.713176,46.4550499 160.210989,45.2954688 159.329525,44.4593045 C158.44806,43.6231402 157.263621,43.1827738 156.05,43.24 C153.43,43.24 151.72,44.6 150,47.08 L148.85,46.31 C150.65,43.56 152.57,41.88 156.2,41.88 C159.83,41.88 162.34,44.33 162.34,47.55 L162.34,47.61 C162.34,50.44 160.81,52.33 157.18,55.61 L150.86,61.34 L162.55,61.34 L162.55,62.82 L148.44,62.82 L148.44,61.73 Z" id="Path" fill="#161317"></path>
            <path d="M164.8,52.61 L164.8,52.55 C164.8,46.85 168.13,41.86 173.39,41.86 C178.65,41.86 181.92,46.79 181.92,52.49 L181.92,52.55 C181.92,58.25 178.59,63.24 173.33,63.24 C168.07,63.24 164.8,58.31 164.8,52.61 Z M180.33,52.61 L180.33,52.55 C180.33,47.74 177.61,43.25 173.33,43.25 C169.05,43.25 166.39,47.68 166.39,52.49 L166.39,52.55 C166.39,57.33 169.11,61.85 173.39,61.85 C177.67,61.85 180.33,57.39 180.33,52.61 Z" id="Shape" fill="#161317"></path>
            <path d="M183.79,61.73 L191.49,54.73 C194.89,51.63 196.07,49.85 196.07,47.67 C196.063176,46.4550499 195.560989,45.2954688 194.679525,44.4593045 C193.79806,43.6231402 192.613621,43.1827738 191.4,43.24 C188.78,43.24 187.06,44.6 185.35,47.08 L184.2,46.31 C186,43.56 187.92,41.88 191.55,41.88 C195.18,41.88 197.69,44.33 197.69,47.55 L197.69,47.61 C197.69,50.44 196.16,52.33 192.53,55.61 L186.21,61.34 L197.9,61.34 L197.9,62.82 L183.79,62.82 L183.79,61.73 Z" id="Path" fill="#161317"></path>
            <path d="M200.44,52.61 L200.44,52.55 C200.44,46.85 203.78,41.86 209.03,41.86 C214.28,41.86 217.57,46.79 217.57,52.49 L217.57,52.55 C217.57,58.25 214.23,63.24 208.98,63.24 C203.73,63.24 200.44,58.31 200.44,52.61 Z M215.97,52.61 L215.97,52.55 C215.97,47.74 213.26,43.25 208.97,43.25 C204.68,43.25 202,47.68 202,52.49 L202,52.55 C202,57.33 204.71,61.85 209,61.85 C213.29,61.85 216,57.39 216,52.61 L215.97,52.61 Z" id="Shape" fill="#161317"></path>
            <path d="M13.0699945,22.18 C13.0699945,18.4661271 15.3077209,15.118135 18.7392797,13.6978334 C22.1708384,12.2775317 26.1201035,13.0647681 28.7447767,15.6923036 C31.36945,18.3198391 32.1523816,22.2699598 30.7283406,25.6999685 C29.3042997,29.1299772 25.9538707,31.3640456 22.24,31.3600055 C19.8062312,31.3600055 17.4722891,30.3925066 15.7522927,28.6706346 C14.0322964,26.9487626 13.0673459,24.6137674 13.0699945,22.18 M44.27,22.18 C44.27,10.0159284 34.4090716,0.155 22.245,0.155 C10.0809284,0.155 0.22,10.0159284 0.22,22.18 C0.22,38.7 22.22,75.54 22.22,75.54 C22.22,75.54 44.22,38.7 44.22,22.18" id="Shape" fill="#FAF209"></path>
            <path d="M26.59,58 C26.59,55.6141299 28.5241299,53.68 30.91,53.68 C33.2958701,53.68 35.23,55.6141299 35.23,58 C35.23,60.3858701 33.2958701,62.32 30.91,62.32 C28.5264111,62.3145015 26.5954985,60.3835889 26.59,58 M41.28,58 C41.1060645,52.4008711 36.5168299,47.951986 30.915,47.951986 C25.3131701,47.951986 20.7239355,52.4008711 20.55,58 C20.55,65.78 30.91,83.12 30.91,83.12 C30.91,83.12 41.28,65.77 41.28,58" id="Shape" fill="#41A9E2"></path>
            <path d="M36.7099922,41.92 C36.705954,39.2941338 38.2846239,36.924577 40.7094476,35.9168967 C43.1342713,34.9092164 45.9273747,35.4620022 47.7855757,37.3173401 C49.6437767,39.172678 50.2008689,41.9649255 49.1969289,44.3913003 C48.192989,46.817675 45.8258693,48.4000077 43.2,48.4000077 C41.4796652,48.4026548 39.8288816,47.7211147 38.6114822,46.5055911 C37.3940828,45.2900675 36.7099922,43.6403369 36.7099922,41.92 M58.71,41.92 C58.8533459,36.2650998 55.9184241,30.9773164 51.0436318,28.1076746 C46.1688395,25.2380328 40.1211605,25.2380328 35.2463682,28.1076746 C30.3715759,30.9773164 27.4366541,36.2650998 27.58,41.92 C27.58,53.59 43.15,79.64 43.15,79.64 C43.15,79.64 58.71,53.64 58.71,41.92" id="Shape" fill="#CB75A9"></path>
            <path d="M20.55,58 C20.55,61.37 22.49,66.53 24.7,71.3 C26.02,68.96 27.77,65.79 29.7,62.12 C28.0350055,61.6390002 26.8200663,60.2075081 26.61614,58.4864672 C26.4122138,56.7654264 27.2589718,55.0896436 28.7654517,54.2328556 C30.2719317,53.3760676 32.145067,53.5049517 33.52,54.56 C34.4,52.76 35.27,50.91 36.12,49.03 C32.9088298,47.1784064 28.9535348,47.181621 25.7453785,49.0384317 C22.5372222,50.8952424 20.5641238,54.3232523 20.57,58.03 L20.55,58 Z" id="Path" fill="#40A008"></path>
            <path d="M36.71,41.92 C36.7132177,39.0106433 38.6493222,36.457763 41.45,35.67 C42.5023418,32.6418413 43.3148479,29.5355936 43.88,26.38 C43.65,26.38 43.43,26.38 43.2,26.38 C34.6126286,26.38 27.646546,33.3326445 27.63,41.92 C27.63,45.98 29.52,51.79 31.98,57.64 C33.92,53.77 35.91,49.57 37.71,45.36 C37.0580264,44.3309897 36.7112755,43.1381667 36.71,41.92 Z" id="Path" fill="#C76F06"></path>
            <path d="M30.91,47.6299952 C30.1151268,47.63133 29.3231171,47.7252972 28.55,47.91 C29.03,49.74 29.67,51.71 30.42,53.72 C32.3283348,53.4844089 34.1603343,54.5473716 34.9028552,56.3210422 C35.6453761,58.0947129 35.1170276,60.1458003 33.61,61.34 C34.98,64.34 36.43,67.26 37.78,69.85 C39.7,65.5 41.2800048,61 41.2800048,58 C41.2826568,55.2488914 40.1909595,52.6096974 38.2456311,50.6643689 C36.3003026,48.7190405 33.6611086,47.6273432 30.91,47.6299952 L30.91,47.6299952 Z" id="Path" fill="#344E96"></path>
            <path d="M30.91,47.6299999 C30.1151268,47.63133 29.3231171,47.7252972 28.55,47.91 C29.03,49.74 29.67,51.71 30.42,53.72 C31.518515,53.5356248 32.6428742,53.8386177 33.5,54.55 C34.38,52.75 35.25,50.9 36.1,49.02 C34.521977,48.1091941 32.7320109,47.6298005 30.91,47.6299999 L30.91,47.6299999 Z" id="Path" fill="#334905"></path>
        </g>
    </g>
</svg>
