<?xml version="1.0" encoding="UTF-8"?>
<svg viewBox="0 0 50 48" version="1.1" xmlns="http://www.w3.org/2000/svg" xmlns:xlink="http://www.w3.org/1999/xlink">
    <!-- Generator: Sketch 58 (84663) - https://sketch.com -->
    <title>Icon/Room/Map-Nav</title>
    <desc>Created with Sketch.</desc>
    <g id="App" stroke="none" stroke-width="1" fill="none" fill-rule="evenodd">
        <g id="Room-Welcome" transform="translate(-58.000000, -53.000000)">
            <g id="Icon/Room/Map-Nav" transform="translate(58.000000, 54.000000)">
                <g id="noun_Map_1085075">
                    <path d="M2.1417318,7.47736868 C4.16652116,3.2937073 36.9582318,3.2937073 42.1436679,7.47736868 C47.3291041,11.6610301 45.8475509,41.2294867 42.1436679,43.0767976 C38.4397849,44.9241084 5.72392701,46.5868386 2.1417318,43.0767976 C-1.44046342,39.5667566 0.116942437,11.6610301 2.1417318,7.47736868 Z" id="Rectangle" fill="#FFFFFF"></path>
                    <polygon id="Path" stroke="#000000" stroke-width="2" stroke-linecap="round" stroke-linejoin="round" points="33.25 44.1960784 17.5 46 17.5 1.80392157 33.25 0"></polygon>
                    <g id="Group" transform="translate(21.000000, 4.339623)" stroke="#000000" stroke-linecap="round" stroke-linejoin="round">
                        <circle id="Oval" stroke-width="1.9999592" transform="translate(4.495400, 4.266216) rotate(-22.358943) translate(-4.495400, -4.266216) " cx="4.4954" cy="4.26621633" r="1"></circle>
                        <path d="M0.5625,4.15690169 C0.5625,6.23535253 4.5,11.1048659 4.5,11.1048659 C4.5,11.1048659 8.4375,6.23535253 8.4375,4.15690169 C8.4375,2.07845084 6.6875,0.415690169 4.5,0.415690169 C2.3125,0.415690169 0.5625,2.07845084 0.5625,4.15690169 Z" id="Path" stroke-width="2"></path>
                    </g>
                    <path d="M17.5,18.239986 C17.5,18.239986 23.5576923,17.6488362 26.1625,24.2697146 C28.7673077,30.8905931 33.25,31.245283 33.25,31.245283" id="Path" stroke="#000000" stroke-width="2" stroke-linecap="round" stroke-linejoin="round"></path>
                    <g id="Group" transform="translate(17.500000, 19.962264)" stroke="#000000" stroke-linecap="round" stroke-linejoin="round" stroke-width="2">
                        <path d="M0.466666667,15.9016173 C0.466666667,15.9016173 0.758333333,16.019407 1.28333333,16.1371968" id="Path"></path>
                        <path d="M3.61666667,16.2549865 C5.075,16.0783019 6.76666667,15.4304582 8.05,13.604717 C10.4416667,10.2477089 11.2,3.41590296 13.7666667,1.1190027" id="Path" stroke-dasharray="2.9655,3.954"></path>
                        <path d="M14.7583333,0.530053908 C15.05,0.412264151 15.2833333,0.353369272 15.6333333,0.353369272" id="Path"></path>
                    </g>
                    <polygon id="Path" stroke="#000000" stroke-width="2" stroke-linecap="round" stroke-linejoin="round" points="49 46 33.25 44.1960784 33.25 0 49 1.80392157"></polygon>
                    <path d="M33.25,31.245283 C33.25,31.245283 39.4894231,31.7232445 41.9125,37.5782729 C44.6384615,44.269734 49,42.2383976 49,42.2383976" id="Path" stroke="#000000" stroke-width="2" stroke-linecap="round" stroke-linejoin="round"></path>
                    <g id="Group" transform="translate(33.250000, 10.415094)" stroke="#000000" stroke-linecap="round" stroke-linejoin="round" stroke-width="2">
                        <path d="M0.466666667,10.1700333 C0.466666667,10.1700333 0.758333333,10.0475028 1.28333333,9.86370699" id="Path"></path>
                        <path d="M3.26666667,9.00599334 C4.9,8.14827969 6.76666667,6.86170921 7.35,5.20754717 C8.80833333,1.16403996 10.675,0.612652608 13.65,0.490122087" id="Path" stroke-dasharray="2.7633,3.6844"></path>
                        <path d="M14.7583333,0.428856826 C15.05,0.428856826 15.3416667,0.428856826 15.6333333,0.428856826" id="Path"></path>
                    </g>
                    <polygon id="Path" stroke="#000000" stroke-width="2" stroke-linecap="round" stroke-linejoin="round" points="17.5 46 1.75 44.1960784 1.75 0 17.5 1.80392157"></polygon>
                    <path d="M17.5,18.239986 C17.5,18.239986 11.4189189,17.6488362 8.80405405,24.2697146 C6.18918919,30.8905931 1.75,31.245283 1.75,31.245283" id="Path" stroke="#000000" stroke-width="2" stroke-linecap="round" stroke-linejoin="round"></path>
                    <g id="Group" transform="translate(1.750000, 19.962264)" stroke="#000000" stroke-linecap="round" stroke-linejoin="round" stroke-width="2">
                        <path d="M15.6333333,15.9016173 C15.6333333,15.9016173 15.3416667,16.019407 14.8166667,16.1371968" id="Path"></path>
                        <path d="M12.5416667,16.2549865 C11.0833333,16.0783019 9.39166667,15.4304582 8.10833333,13.604717 C5.71666667,10.2477089 4.95833333,3.41590296 2.39166667,1.1190027" id="Path" stroke-dasharray="2.9655,3.954"></path>
                        <path d="M1.4,0.530053908 C1.10833333,0.412264151 0.875,0.353369272 0.525,0.353369272" id="Path"></path>
                    </g>
                </g>
            </g>
        </g>
    </g>
</svg>
