<?xml version="1.0" encoding="UTF-8"?>
<svg viewBox="0 0 343 812" version="1.1" xmlns="http://www.w3.org/2000/svg" xmlns:xlink="http://www.w3.org/1999/xlink">
    <!-- Generator: Sketch 58 (84663) - https://sketch.com -->
    <title>Street</title>
    <desc>Created with Sketch.</desc>
    <g id="App" stroke="none" stroke-width="1" fill="none" fill-rule="evenodd" stroke-linecap="round">
        <g id="Room-Rekruting-Copy">
            <g id="Street" transform="translate(-35.500000, -0.500000)">
                <g id="Icon/Room/Street">
                    <path d="M41.5,2.5 L48.5,810.5" id="Line-2" stroke="#E7E8EA" stroke-width="37"></path>
                    <path d="M43.5,0.5 L50.5,808.5" id="Line-2" stroke="#000000" stroke-width="6" stroke-dasharray="22"></path>
                </g>
                <g transform="translate(59.869112, 305.800000)" id="Path-13" stroke-linejoin="round">
                    <path d="M5,40.3173571 C61.8691125,40.3173571 237.14944,46.2617347 225.99944,152.761735 C220.730253,203.090743 136.477363,211.934371 98.8308875,271.140064 C56.8145643,337.21811 63.8743005,436.884369 116.630888,445 C206.944731,458.893124 291.130888,429.8 309.630888,376.2 C328.130888,322.6 256.830888,82.5781719 281.630888,4" stroke="#E7E8EA" stroke-width="10"></path>
                    <path d="M0,36.3173571 C56.8691125,36.3173571 232.14944,42.2617347 220.99944,148.761735 C215.730253,199.090743 131.477363,207.934371 93.8308875,267.140064 C51.8145643,333.21811 58.8743005,432.884369 111.630888,441 C201.944731,454.893124 286.130888,425.8 304.630888,372.2 C323.130888,318.6 251.830888,78.5781719 276.630888,0" stroke="#000000" stroke-width="6" stroke-dasharray="19"></path>
                </g>
            </g>
        </g>
    </g>
</svg>
