<?xml version="1.0" encoding="UTF-8"?>
<svg viewBox="0 0 341 812" version="1.1" xmlns="http://www.w3.org/2000/svg" xmlns:xlink="http://www.w3.org/1999/xlink">
    <!-- Generator: Sketch 58 (84663) - https://sketch.com -->
    <title>Street Room Entwicklung</title>
    <desc>Created with Sketch.</desc>
    <g id="App" stroke="none" stroke-width="1" fill="none" fill-rule="evenodd" stroke-linecap="round">
        <g id="Room-Entwicklung">
            <g id="Street-Room-Entwicklung" transform="translate(-35.500000, -0.500000)">
                <g id="Icon/Room/Street">
                    <path d="M41.5,2.5 L48.5,810.5" id="Line-2" stroke="#E7E8EA" stroke-width="37"></path>
                    <path d="M43.5,0.5 L50.5,808.5" id="Line-2" stroke="#000000" stroke-width="6" stroke-dasharray="22"></path>
                </g>
                <g id="Street" transform="translate(52.573000, 174.561735)" stroke-linejoin="round">
                    <path d="M8.52651283e-14,166.973037 C61.5306305,164.818739 93.1796305,151.354612 94.947,126.580657 C97.5980543,89.4197237 76.0818261,-18.3549222 169.927,3.83826526 C263.772174,26.0314527 174.123722,173.350995 237.408,222.902443 C300.692278,272.453891 338.48832,422.601265 308.132,482.938265 C277.77568,543.275265 151.243896,571.41458 128.523743,547.191961" id="Path-9" stroke="#E7E8EA" stroke-width="10"></path>
                    <path d="M6.7464919,166.592867 C61.5468306,163.012987 88.947,151.008917 88.947,130.580657 C88.947,99.9382653 70.0818261,-14.3549222 163.927,7.83826526 C257.772174,30.0314527 168.123722,177.350995 231.408,226.902443 C294.692278,276.453891 332.48832,426.601265 302.132,486.938265 C271.77568,547.275265 151.243896,574.86477 128.523743,550.642152" id="Path-9" stroke="#000000" stroke-width="6" stroke-dasharray="19"></path>
                </g>
            </g>
        </g>
    </g>
</svg>
