<?xml version="1.0" encoding="UTF-8"?>
<svg viewBox="0 0 337 812" version="1.1" xmlns="http://www.w3.org/2000/svg" xmlns:xlink="http://www.w3.org/1999/xlink">
    <!-- Generator: Sketch 58 (84663) - https://sketch.com -->
    <title>Street-Playground</title>
    <desc>Created with Sketch.</desc>
    <g id="App" stroke="none" stroke-width="1" fill="none" fill-rule="evenodd">
        <g id="Room-Playground">
            <g id="Street-Playground" transform="translate(-35.500000, -0.500000)">
                <g id="Icon/Room/Street" stroke-linecap="round">
                    <path d="M41.5,2.5 L48.5,810.5" id="Line-2" stroke="#E7E8EA" stroke-width="37"></path>
                    <path d="M43.5,0.5 L50.5,808.5" id="Line-2" stroke="#000000" stroke-width="6" stroke-dasharray="22"></path>
                </g>
                <g id="Group" transform="translate(47.532664, 286.000000)" stroke-linecap="round" stroke-linejoin="round">
                    <g id="Street-Playground" transform="translate(0.000000, 0.179930)">
                        <path d="M4.26325641e-14,53.0442145 C62.9673365,70.1982136 168.967336,-47.6729796 193.967336,24.3200704 C218.967336,96.3131204 279.528106,193.670948 189.528106,197.244047 C99.528106,200.817146 52,316.92007 74.3813247,370.22007 C96.7626494,423.52007 164.267336,474.019334 248.967336,425.509609" id="Path-6" stroke="#E7E8EA" stroke-width="10"></path>
                        <path d="M12.4486842,55.2879282 C55.3597072,61.1776764 167.967336,-41.6729796 192.967336,30.3200704 C217.967336,102.31312 278.528106,199.670948 188.528106,203.244047 C98.528106,206.817146 51,322.92007 73.3813247,376.22007 C95.7626494,429.52007 157.967336,474.513195 251.963876,429.346308" id="Path-6" stroke="#000000" stroke-width="6" stroke-dasharray="19"></path>
                    </g>
                </g>
                <rect id="Rectangle" fill="#FFFFFF" x="371.5" y="194.5" width="1" height="1"></rect>
            </g>
        </g>
    </g>
</svg>
