<?xml version="1.0" encoding="UTF-8"?>
<svg viewBox="0 0 346 812" version="1.1" xmlns="http://www.w3.org/2000/svg" xmlns:xlink="http://www.w3.org/1999/xlink">
    <!-- Generator: Sketch 58 (84663) - https://sketch.com -->
    <title>Strasse Room Design</title>
    <desc>Created with Sketch.</desc>
    <g id="App" stroke="none" stroke-width="1" fill="none" fill-rule="evenodd" stroke-linecap="round">
        <g id="Room-Design">
            <g id="Strasse-Room-Design" transform="translate(-35.500000, -0.500000)">
                <g id="Icon/Room/Street">
                    <path d="M41.5,2.5 L48.5,810.5" id="Line-2" stroke="#E7E8EA" stroke-width="37"></path>
                    <path d="M43.5,0.5 L50.5,808.5" id="Line-2" stroke="#000000" stroke-width="6" stroke-dasharray="22"></path>
                </g>
                <path d="M63.7357877,385.111112 C122.260021,389.708703 122.432615,201.559079 164.466307,207.497789 C206.5,213.4365 350.272842,338.051608 372.5,391.5 C394.727158,444.948392 298.803648,498.398114 225.947334,542.5 C154.618441,585.677297 290.360639,681.39996 198.224955,677.5 C193.5,677.3 178.059955,674.5 173.081275,671.79245" id="Path-5" stroke="#E7E8EA" stroke-width="10"></path>
                <path d="M60.7357877,386.111112 C119.260021,390.708703 119.432615,202.559079 161.466307,208.497789 C203.5,214.4365 347.272842,339.051608 369.5,392.5 C391.727158,445.948392 295.803648,499.398114 222.947334,543.5 C151.618441,586.677297 291.034633,674.5 198.224955,674.5 C193.5,674.5 181.525159,677.3 173.081275,671.79245" id="Path-5" stroke="#000000" stroke-width="6" stroke-dasharray="19"></path>
            </g>
        </g>
    </g>
</svg>
