<?xml version="1.0" encoding="UTF-8"?>
<svg viewBox="0 0 35 35" version="1.1" xmlns="http://www.w3.org/2000/svg" xmlns:xlink="http://www.w3.org/1999/xlink">
    <!-- Generator: Sketch 58 (84663) - https://sketch.com -->
    <title>Icon/Map/Coin-active</title>
    <desc>Created with Sketch.</desc>
    <g id="Icon/Map/Coin-active" stroke="none" stroke-width="1" fill="none" fill-rule="evenodd">
        <g id="Group-6">
            <circle id="Oval" fill="#F0BC5E" cx="17.5" cy="17.5" r="14.5"></circle>
            <g id="noun_Money-Bag_1075340" stroke="#000000">
                <g id="Group-4">
                    <path d="M16.8790323,18.0645161 L16.8790323,24.7258065 C15.3548387,24.3870968 14.2822581,23.0322581 14.2822581,21.4516129 C14.2822581,21.1129032 14.0564516,20.8870968 13.7177419,20.8870968 C13.3790323,20.8870968 13.1532258,21.1129032 13.1532258,21.4516129 C13.1532258,23.6532258 14.7903226,25.516129 16.8790323,25.8548387 L16.8790323,27.0967742 C16.8790323,27.4354839 17.1048387,27.6612903 17.4435484,27.6612903 C17.7822581,27.6612903 18.0080645,27.4354839 18.0080645,27.0967742 L18.0080645,25.9112903 C20.266129,25.6854839 22.0725806,23.766129 22.0725806,21.4516129 C22.0725806,19.1370968 20.266129,17.2177419 18.0080645,16.9919355 L18.0080645,10.3306452 C19.5887097,10.6129032 20.7741935,11.9677419 20.7741935,13.6048387 C20.7741935,13.9435484 21,14.1693548 21.3387097,14.1693548 C21.6774194,14.1693548 21.9032258,13.9435484 21.9032258,13.6048387 C21.9032258,11.3467742 20.2096774,9.42741935 18.0080645,9.14516129 L18.0080645,7.95967742 C18.0080645,7.62096774 17.7822581,7.39516129 17.4435484,7.39516129 C17.1048387,7.39516129 16.8790323,7.62096774 16.8790323,7.95967742 L16.8790323,9.14516129 C14.6774194,9.42741935 12.983871,11.2903226 12.983871,13.6048387 C12.9274194,15.9193548 14.6774194,17.7822581 16.8790323,18.0645161 Z M20.9435484,21.4516129 C20.9435484,23.1451613 19.6451613,24.5564516 18.0080645,24.7822581 L18.0080645,18.1209677 C19.6451613,18.3467742 20.9435484,19.7580645 20.9435484,21.4516129 Z M16.8790323,10.3306452 L16.8790323,16.9354839 C15.2983871,16.6532258 14.1129032,15.2983871 14.1129032,13.6612903 C14.0564516,11.9677419 15.2983871,10.6129032 16.8790323,10.3306452 Z" id="Shape" fill="#000000" fill-rule="nonzero"></path>
                    <circle id="Oval" stroke-width="2" cx="17.5" cy="17.5" r="16.5"></circle>
                </g>
            </g>
        </g>
    </g>
</svg>
