<?xml version="1.0" encoding="UTF-8"?>
<svg width="34px" height="35px" viewBox="0 0 34 35" version="1.1" xmlns="http://www.w3.org/2000/svg" xmlns:xlink="http://www.w3.org/1999/xlink">
    <!-- Generator: Sketch 58 (84663) - https://sketch.com -->
    <title>Icon/Map/Key-active</title>
    <desc>Created with Sketch.</desc>
    <g id="Icon/Map/Key-active" stroke="none" stroke-width="1" fill="none" fill-rule="evenodd">
        <g id="Key-active" transform="translate(1.000000, 1.000000)">
            <rect id="Rectangle" fill="#F0BC5E" transform="translate(24.000000, 26.500000) rotate(45.000000) translate(-24.000000, -26.500000) " x="20" y="25" width="8" height="3"></rect>
            <polygon id="Path-9" fill="#F0BC5E" points="5.70921404 0.952457231 0.494120135 6 0.494120135 12.9094588 4.94868934 18.1259938 10.4582881 18.9465723 16 17.5 18.7226862 12.3233313 18.7226862 6.57928149 15 2.12471229 10 0"></polygon>
            <polyline id="Path-8" stroke="#F0BC5E" stroke-width="5" points="15 14 22.552302 22.5479485 31 31"></polyline>
            <g id="noun_Key_880380">
                <polygon id="Path-3" fill="#FFFFFF" points="7.76017998 6 6 8.43559229 6.29306376 11.3662299 9.24461776 13.6032944 12.3301773 12.304034 13.1940296 8.43559229 10.8062457 6"></polygon>
                <path d="M31.5874809,28.0246006 L18.2843814,14.7309409 C18.1091704,14.5545572 18.0702114,14.2843279 18.1884727,14.0656942 C20.3786327,9.84957551 19.1647202,4.66732465 15.3295027,1.86061364 C11.4942852,-0.946097361 6.18381064,-0.53856109 2.82243356,2.82043075 C-0.538943527,6.17942259 -0.946769192,11.4861288 1.86193488,15.3186248 C4.67063895,19.1511208 9.85656977,20.3641719 14.0756823,18.1755661 C14.2944713,18.0573887 14.5648925,18.09632 14.7414015,18.2714067 L20.3041056,23.8301634 C20.5228471,24.0500542 20.5228471,24.4051861 20.3041056,24.6250769 L17.6694374,27.2578755 C17.3488955,27.5809366 17.3488955,28.1018151 17.6694374,28.4248762 L22.0078952,32.7602554 C22.3292558,33.0799149 22.8487224,33.0799149 23.1700829,32.7602554 L25.8047511,30.1274568 C26.024798,29.9088705 26.3801821,29.9088705 26.600229,30.1274568 L28.0388594,31.5650663 C28.5938225,32.1184493 29.492337,32.1184493 30.0473002,31.5650663 L31.5818393,30.0316162 C32.1371771,29.4786026 32.1397011,28.5807231 31.5874809,28.0246006 Z M9.64131582,13.5639789 C7.75513932,13.5556063 6.13815133,12.2155547 5.78102708,10.3647907 C5.42390283,8.51402676 6.42634408,6.6692459 8.17418814,5.96068453 C9.9220322,5.25212316 11.9273168,5.87759709 12.9614703,7.45389906 C13.9956237,9.03020103 13.7699315,11.1172599 12.4226679,12.4364034 C11.6801815,13.1633926 10.6808008,13.5685332 9.64131582,13.5639789 L9.64131582,13.5639789 Z" id="Shape" stroke="#000000" stroke-width="2" stroke-linecap="round" stroke-linejoin="round"></path>
            </g>
        </g>
    </g>
</svg>