<?xml version="1.0" encoding="UTF-8"?>
<svg width="121px" height="125px" viewBox="0 0 121 125" version="1.1" xmlns="http://www.w3.org/2000/svg" xmlns:xlink="http://www.w3.org/1999/xlink">
    <!-- Generator: Sketch 58 (84663) - https://sketch.com -->
    <title>Fire</title>
    <desc>Created with Sketch.</desc>
    <g id="App" stroke="none" stroke-width="1" fill="none" fill-rule="evenodd">
        <g id="Room-Design" transform="translate(-87.000000, -391.000000)">
            <g id="Fire" transform="translate(87.000000, 391.000000)">
                <path d="M4,106.679274 C8,99.4278122 45.1386207,97.8997228 52.2694887,106.679274 C59.4003567,115.458826 54.5999105,116.017544 46,120 C37.4000895,123.982456 8,127.31126 4,120 C6.03961325e-14,112.68874 6.03961325e-14,113.930736 4,106.679274 Z" id="Rectangle" fill="#E0D0B5"></path>
                <g id="Tent-with-Fire">
                    <path d="M47.4690425,54.6614248 C60.1995538,34.7619558 66.8267913,8.66812217 77,28 C83.7821391,40.8879186 94.9436528,62.5545852 110.484541,93 C96.3035306,93.7577207 87.4050772,93.1198537 83.789181,91.0863988 C73.6955427,85.4100861 71.4700923,70.9628472 70.1179892,70.9628472 C68.7276406,70.9628472 65.2508559,84.3634755 56.4467973,90.9361928 C53.5410853,93.1054677 47.7338725,93.7934034 39.0251588,93 C36.1674071,80.7072626 38.9820349,67.9277375 47.4690425,54.6614248 Z" id="Rectangle" fill="#E5CBC0"></path>
                    <path d="M26.4448813,70.9999807 C27.7549782,71.0067477 40.6689693,89.9622456 34.8579169,94.9917569 C33.449903,96.2104039 30.05955,84.9507399 26.5259123,84.0778031 C23.418948,83.3102701 22.0375749,91.1335287 20.8670727,90.9361928 C20.0347325,90.7958679 20.8253646,97.9304344 19.945709,97.0863781 C17.4452023,94.687066 15.1286478,90.4351359 15.1286478,89.9622456 C15.1286478,88.6713218 25.1347844,70.9932523 26.4448813,70.9999807 Z" id="Rectangle" fill="#F0BC5E"></path>
                    <path d="M26.5082929,87 C27.454474,87.0027661 34.6662159,97.6046015 32.6440575,98.3854736 C30.621899,99.1663456 25.1002417,99.0429252 23.2934242,98.8742165 C20.9835061,98.6585317 20,97.7936316 20,97.5379321 C20,97.0215626 25.5621119,86.9973679 26.5082929,87 Z" id="Rectangle" fill="#BA494C"></path>
                    <g id="noun_camp_816096" fill="#000000" fill-rule="nonzero">
                        <path d="M2.33536335,122.935673 C2.48481262,123.391813 2.78371116,123.695906 3.08260969,123.847953 C3.23205896,124 3.5309575,124 3.68040677,124 C3.82985604,124 3.97930531,124 4.12875457,123.847953 L25.3505507,116.549708 L46.7217962,122.935673 C46.8712454,122.935673 47.0206947,122.935673 47.170144,122.935673 C47.4690425,122.935673 47.6184918,122.935673 47.9173903,122.783626 C48.2162888,122.631579 48.5151874,122.327485 48.6646367,121.871345 L50.7569264,114.421053 C51.055825,113.660819 50.4580279,112.748538 49.7107815,112.596491 L43.1350137,110.619883 L50.0096801,108.339181 C50.7569264,108.035088 51.2052742,107.274854 50.9063757,106.362573 L48.5151874,99.0643275 C48.3657381,98.6081871 48.0668396,98.3040936 47.767941,98.1520468 C47.4690425,98 47.0206947,98 46.5723469,98 L26.0977971,104.994152 L4.42765311,98.6081871 C3.68040677,98.3040936 2.78371116,98.9122807 2.63426189,99.6725146 L0.541972125,107.122807 C0.243073587,107.883041 0.840870662,108.795322 1.58811701,108.947368 L8.46278337,110.923977 L0.990319931,113.508772 C0.243073587,113.812865 -0.205274219,114.573099 0.0936243186,115.48538 L2.33536335,122.935673 Z M46.1239991,119.590643 L30.5812751,115.02924 L38.3526371,112.444444 L47.4690425,115.181287 L46.1239991,119.590643 Z M5.02545019,101.953216 L20.8670727,106.666667 L13.0957107,109.251462 L3.68040677,106.51462 L5.02545019,101.953216 Z M45.9745498,101.345029 L47.4690425,105.906433 L4.72655165,120.502924 L3.23205896,115.94152 L45.9745498,101.345029 Z" id="Shape"></path>
                        <path d="M26.3701752,101 C26.5220773,101 26.5220773,101 26.3701752,101 C26.5220773,101 26.5220773,101 26.5220773,101 C26.5220773,101 26.6739794,101 26.6739794,101 C31.6867498,100.849794 36.0919116,97.9958784 38.2185415,93.9403143 L114.625314,93.9403143 C114.777216,93.9403143 114.929118,93.9403143 115.08102,93.9403143 C115.08102,93.9403143 115.08102,93.9403143 115.232922,93.9403143 C115.384824,93.9403143 115.384824,93.9403143 115.536727,93.7901082 C115.536727,93.7901082 115.688629,93.7901082 115.688629,93.6399022 C115.688629,93.6399022 115.840531,93.4896961 115.840531,93.4896961 C115.840531,93.4896961 115.840531,93.33949 115.992433,93.33949 C115.992433,93.33949 116.144335,93.1892839 116.144335,93.1892839 C116.144335,93.1892839 116.144335,93.1892839 116.144335,93.1892839 C116.144335,93.1892839 116.144335,93.1892839 116.144335,93.1892839 L120.853301,83.8765071 C121.157105,83.1254767 121.005203,82.2242402 120.245693,81.9238281 C119.486182,81.6234159 118.574769,81.9238281 118.270965,82.5246524 L114.777216,89.2839259 L71.7889126,12.5286199 L77.1054872,2.16440049 C77.4092915,1.4133701 77.2573894,0.512133627 76.4978787,0.21172147 C75.738368,-0.0886906864 74.8269553,0.21172147 74.523151,0.812545783 L70.1179892,9.52449832 L65.7128273,0.812545783 C65.4090231,0.0615153918 64.4976103,-0.238896765 63.7380996,0.21172147 C62.978589,0.512133627 62.6747847,1.4133701 63.1304911,2.16440049 L68.5989678,12.829032 L33.9652818,74.2633181 C31.0791413,70.0575479 28.1930008,66.452602 27.5853922,65.8517777 C26.9777837,65.1007473 25.7625667,65.1007473 25.3068603,65.8517777 C24.0916432,67.3538385 13.0027876,80.8723855 13.0027876,87.7818651 C12.8508854,94.9917569 18.9269707,101 26.3701752,101 Z M26.8258816,97.9958784 C26.6739794,97.9958784 26.6739794,97.9958784 26.5220773,97.9958784 C23.9397411,97.9958784 21.8131112,95.8929933 21.8131112,93.33949 C21.8131112,91.6872231 24.2435453,87.7818651 26.5220773,84.9279496 C28.8006093,87.7818651 31.2310434,91.6872231 31.2310434,93.33949 C31.3829455,95.8929933 29.2563157,97.9958784 26.8258816,97.9958784 Z M59.7886442,90.9361928 L70.1179892,72.4608451 L80.4473341,90.9361928 L59.7886442,90.9361928 Z M83.789181,90.9361928 L71.6370105,69.0061053 L71.6370105,18.3866569 L112.19488,91.0863988 L83.789181,91.0863988 L83.789181,90.9361928 Z M68.5989678,18.3866569 L68.5989678,69.0061053 L56.4467973,90.9361928 L39.5856607,90.9361928 C39.8894649,89.8847502 40.0413671,88.8333077 40.0413671,87.631659 C40.0413671,84.7777435 38.2185415,80.8723855 35.9400095,77.1172336 L68.5989678,18.3866569 Z M26.3701752,69.1563114 C30.1677285,73.8126998 36.8514223,83.2756828 36.8514223,87.631659 C36.8514223,90.3353684 35.7881074,92.7386657 34.1171839,94.5411386 C34.1171839,94.0905204 34.269086,93.7901082 34.269086,93.33949 C34.269086,89.5843381 28.8006093,82.8250645 27.7372944,81.4732098 C27.1296858,80.7221794 25.9144688,80.7221794 25.4587624,81.4732098 C24.3954475,82.8250645 18.9269707,89.5843381 18.9269707,93.33949 C18.9269707,93.9403143 18.9269707,94.3909326 19.0788729,94.9917569 C17.1041451,93.0390779 16.0408302,90.4855745 16.0408302,87.631659 C15.8889281,83.2756828 22.724524,73.8126998 26.3701752,69.1563114 Z" id="Shape"></path>
                    </g>
                </g>
            </g>
        </g>
    </g>
</svg>