<?xml version="1.0" encoding="UTF-8"?>
<svg viewBox="0 0 95 235" version="1.1" xmlns="http://www.w3.org/2000/svg" xmlns:xlink="http://www.w3.org/1999/xlink">
    <!-- Generator: Sketch 58 (84663) - https://sketch.com -->
    <title>Petra</title>
    <desc>Created with Sketch.</desc>
    <g id="Symbols" stroke="none" stroke-width="1" fill="none" fill-rule="evenodd">
        <g id="Icon/Avatar/Petra" transform="translate(-2.000000, -9.000000)">
            <g id="Petra" transform="translate(2.000000, 9.000000)">
                <polygon id="Path-38" fill="#AEC6CF" points="24.9088108 223.940198 26.2208208 229.756105 37.083443 229.756105 37.7813519 223.940198"></polygon>
                <polygon id="Path-38" fill="#AEC6CF" points="57 224 58.31201 229.815907 69.1746322 229.815907 69.8725411 224"></polygon>
                <polygon id="Path-37" fill="#FFFCFC" points="23.6020491 208.92551 23.6020491 221.846471 38.3356805 221.846471 38.3356805 211.222747 29.1077745 211.222747 29.1077745 208.92551"></polygon>
                <polygon id="Path-37" fill="#FFFCFC" transform="translate(63.968865, 215.385990) scale(-1, 1) translate(-63.968865, -215.385990) " points="56.6020491 208.92551 56.6020491 221.846471 71.3356805 221.846471 71.3356805 211.222747 62.1077745 211.222747 62.1077745 208.92551"></polygon>
                <polygon id="Path-36" fill="#FFFFFF" points="18.7740756 98 9 108.507621 9 150.958849 16.2891411 132.98449"></polygon>
                <polygon id="Path-36" fill="#FFFFFF" transform="translate(81.887038, 124.479424) scale(-1, 1) translate(-81.887038, -124.479424) " points="86.7740756 98 77 108.507621 77 150.958849 84.2891411 132.98449"></polygon>
                <polygon id="Path-35" fill="#ED9D7B" points="29.6368229 94.3521671 19.8032171 101.990626 3.56996315 208.92551 29.6368229 208.92551 29.6368229 211.622377 66.4738222 211.622377 66.4738222 208.92551 92.228504 208.92551 74.5904492 101.063993 66.4738222 94.3521671 62.2594198 102.031488 56.3280385 108.207776 47.8992336 111.204469 35.2560262 106.528347"></polygon>
                <polygon id="Path-34" fill="#FFFFFF" points="21.6872571 44.6453973 22.545293 70.9993575 38.3576692 79.7022932 39 93.3082913 31.0030756 94.1663272 34.3126427 104.217605 45.9574158 111.204469 60 106.914289 65.2019356 94.1663272 56.2538468 93.3082913 56.2538468 79.7022932 75.9886729 69.5284388 74.6403307 32.3877414 21.6872571 32.3877414"></polygon>
                <g id="noun_girl_1100582" fill="#000000" fill-rule="nonzero">
                    <path d="M86.7546479,154.906436 C89.0181408,151.931153 90.2431086,148.300909 90.2430379,144.568444 L90.2430379,113.758775 C90.2322101,103.446357 82.2646895,94.8731177 71.9392502,94.0634702 C69.1917375,92.2072284 65.9434663,91.2241569 62.6231968,91.2440178 L58.9706472,91.2440178 L58.9706472,81.8049815 C63.3876499,80.3938223 67.4958135,78.1614781 71.0774126,75.2262592 C75.2087608,95.2964121 81.5973026,94.380572 90.2430379,72.4787388 C90.2453187,72.4667805 89.6844083,73.8576784 90.2564292,72.3433923 C90.8284501,70.8291061 92.1519227,44.7421303 92.0898326,44.4165908 C92.0898326,19.8859851 72.1170975,0 47.4794801,0 C22.8418627,0 2.8691275,19.8859851 2.8691275,44.4165908 C2.80571978,44.7541782 2.80571978,45.1005442 2.8691275,45.4381316 C2.94544039,45.6286142 4.6377724,72.1501973 4.75696211,72.4787388 C12.8828589,94.877439 19.2714006,95.7660381 23.9225874,75.1445359 C27.507512,78.0748502 31.6146939,80.3066609 36.0293528,81.7232582 L36.0293528,91.1622945 L32.3768032,91.1622945 C29.0565337,91.1424337 25.8082625,92.1255051 23.0607498,93.9817469 C12.7353105,94.7913944 4.76778987,103.364634 4.75696211,113.677052 L4.75696211,144.568444 C4.75689138,148.300909 5.98185915,151.931153 8.24535214,154.906436 L0.0373755931,208.516893 C-0.0964631006,209.317076 0.132997095,210.135152 0.663875994,210.750506 C1.19475489,211.36586 1.97238153,211.71512 2.78704774,211.7041 L20.6804366,211.7041 L20.6804366,223.717419 C20.4343313,227.662811 22.4086434,231.418012 25.8051945,233.464862 C29.2017455,235.511713 33.4588269,235.511713 36.8553779,233.464862 C40.2519289,231.418012 42.2262411,227.662811 41.9801358,223.717419 L41.9801358,214.400968 L53.0198642,214.400968 L53.0198642,223.676558 C53.369241,229.277527 58.0334725,233.642024 63.6697138,233.642024 C69.3059551,233.642024 73.9701866,229.277527 74.3195634,223.676558 L74.3195634,211.7041 L92.2129523,211.7041 C93.0276185,211.71512 93.8052451,211.36586 94.336124,210.750506 C94.8670029,210.135152 95.0964631,209.317076 94.9626244,208.516893 L86.7546479,154.906436 Z M84.4564144,140.727451 L78.9160302,105.259557 C78.7398812,104.143831 78.4511403,103.048644 78.0541927,101.990626 C82.0416445,104.590379 84.4477841,109.013189 84.4564144,113.758775 L84.4564144,140.727451 Z M24.3740261,67.6259962 L24.3740261,45.8876095 L39.8460619,45.8876095 C45.468364,45.8684201 50.74989,43.201241 54.0869012,38.6959628 L54.0869012,43.1090187 C54.0841365,43.8461655 54.3800509,44.5532754 54.9076988,45.0703769 C55.4513007,45.5793924 56.172502,45.8578273 56.9186531,45.8467478 C62.5292414,45.7105499 67.7653783,43.0134472 71.1184525,38.5325162 L71.1184525,67.5034113 C65.1909724,74.1619905 56.6826462,77.9734676 47.7462393,77.9734676 C38.8098324,77.9734676 30.3015062,74.1619905 24.3740261,67.5034113 L24.3740261,67.6259962 Z M53.2661035,83.1125536 L53.2661035,93.9817469 C53.2659386,95.5005034 54.4905588,96.7380031 56.0157757,96.7603377 L61.4740801,96.7603377 C60.1626751,103.411085 54.3072744,108.207776 47.5,108.207776 C40.6927256,108.207776 34.8373249,103.411085 33.5259199,96.7603377 L38.9842243,96.7603377 C40.5094412,96.7380031 41.7340614,95.5005034 41.7338965,93.9817469 L41.7338965,83.1125536 C43.647823,83.4142916 45.5827506,83.5645877 47.5205199,83.5620315 C49.4445492,83.561431 51.3655902,83.4111476 53.2661035,83.1125536 Z M10.5846255,113.758775 C10.590536,109.033621 12.9804888,104.627574 16.9458073,102.031488 C16.5683408,103.064657 16.2934289,104.132157 16.1250096,105.218695 L10.5846255,140.727451 L10.5846255,113.758775 Z M31.3097663,228.7434 C29.1374836,228.736922 27.2088297,227.358261 26.5081,225.311023 L36.1524724,225.311023 C35.4658702,227.374399 33.5339265,228.771852 31.3508061,228.784261 L31.3097663,228.7434 Z M36.4397516,219.794703 L26.2208208,219.794703 L26.2208208,211.622377 L27.0005786,211.622377 C27.0230106,213.140969 28.2659088,214.36027 29.7912906,214.360106 L36.4807915,214.360106 L36.4397516,219.794703 Z M66.768225,214.360106 C67.5288974,214.363339 68.2569287,214.052681 68.7791792,213.502012 L68.7791792,219.794703 L58.5602484,219.794703 L58.5602484,214.400968 L66.768225,214.360106 Z M63.6491939,228.7434 C61.4769112,228.736922 59.5482573,227.358261 58.8475276,225.311023 L68.4919,225.311023 C67.8052978,227.374399 65.8733541,228.771852 63.6902337,228.784261 L63.6491939,228.7434 Z M69.5178971,206.146919 L69.5178971,169.371453 C69.5178971,167.848163 68.2776399,166.613293 66.747705,166.613293 C65.2177702,166.613293 63.9775129,167.848163 63.9775129,169.371453 L63.9775129,208.92551 L32.5409627,208.92551 L32.5409627,169.371453 C32.5409627,167.848163 31.3007055,166.613293 29.7707706,166.613293 C28.2408358,166.613293 27.0005786,167.848163 27.0005786,169.371453 L27.0005786,206.146919 L6.02919848,206.146919 L21.583314,106.076789 C22.1575713,102.361587 24.6055052,99.1992652 28.0676155,97.7001552 C29.843606,106.99079 38.0013286,113.71298 47.5,113.71298 C56.9986714,113.71298 65.156394,106.99079 66.9323845,97.7001552 C70.3944948,99.1992652 72.8424287,102.361587 73.416686,106.076789 L88.9708015,206.146919 L69.5178971,206.146919 Z" id="Shape"></path>
                    <path d="M39,53 C37.2912592,53.1725601 36,54.4638194 36,56 C36,57.5361806 37.2912592,58.8274399 39,59 C40.7087408,58.8274399 42,57.5361806 42,56 C42,54.4638194 40.7087408,53.1725601 39,53 L39,53 Z" id="Path"></path>
                    <path d="M57,59 C58.7087408,58.8274399 60,57.5361806 60,56 C60,54.4638194 58.7087408,53.1725601 57,53 C55.2912592,53.1725601 54,54.4638194 54,56 C54,57.5361806 55.2912592,58.8274399 57,59 L57,59 Z" id="Path"></path>
                </g>
            </g>
        </g>
    </g>
</svg>
