<?xml version="1.0" encoding="UTF-8"?>
<svg viewBox="0 0 115 85" version="1.1" xmlns="http://www.w3.org/2000/svg" xmlns:xlink="http://www.w3.org/1999/xlink">
    <!-- Generator: Sketch 58 (84663) - https://sketch.com -->
    <title>Tent</title>
    <desc>Created with Sketch.</desc>
    <g id="App" stroke="none" stroke-width="1" fill="none" fill-rule="evenodd">
        <g id="Room-Design" transform="translate(-232.000000, -509.000000)">
            <g id="Tent" transform="translate(232.000000, 509.000000)">
                <path d="M30,21 C32.1801802,14.8913467 57.3733272,-2.26540042 57.3102642,3.79585327 C57.2472011,9.85710696 56.3589654,30.5396487 46.1038886,50.2939544 C35.8488118,70.0482602 18.3624709,84.9716024 18.3624709,78.7674557 C18.3624709,72.5633089 27.8198198,27.1086533 30,21 Z" id="Rectangle" fill="#AEC6CF"></path>
                <path d="M66.7043098,21.4167074 C68.8844899,15.308054 96.6819225,-3.63556787 100.26113,5.41921564 C103.840337,14.4739991 98.4738373,26.6323512 88.2187605,46.3866569 C77.9636838,66.1409627 54.9166843,82.8886288 54.9166843,76.8185473 C54.9166843,70.7484657 64.5241296,27.5253607 66.7043098,21.4167074 Z" id="Rectangle" fill="#AEC6CF" transform="translate(78.143386, 40.545264) scale(-1, 1) translate(-78.143386, -40.545264) "></path>
                <g id="noun_Tent_816099" fill="#000000" fill-rule="nonzero">
                    <path d="M88.8636364,20.199362 C88.8636364,20.0637959 88.7296037,20.0637959 88.7296037,19.9282297 C88.5955711,19.6570973 88.4615385,19.2503987 88.1934732,19.1148325 L58.3041958,0.135566188 C58.3041958,0.135566188 58.1701632,0.135566188 58.1701632,0.135566188 C58.1701632,0.135566188 58.0361305,0.135566188 58.0361305,0.135566188 C57.9020979,0.135566188 57.7680653,0 57.6340326,0 C57.6340326,0 57.6340326,0 57.6340326,0 C57.6340326,0 57.6340326,0 57.6340326,0 C57.5,0 57.3659674,0 57.2319347,0.135566188 C57.2319347,0.135566188 57.0979021,0.135566188 57.0979021,0.135566188 C57.0979021,0.135566188 56.9638695,0.135566188 56.9638695,0.135566188 L27.0745921,19.1148325 C26.9405594,19.2503987 26.8065268,19.3859649 26.6724942,19.6570973 C26.2703963,19.6570973 26.1363636,19.7926635 26.1363636,19.9282297 L0.134032634,79.5773525 C0,79.7129187 0,79.984051 0,80.1196172 L0,83.6443381 C0,84.4577352 0.536130536,85 1.34032634,85 C2.14452214,85 2.68065268,84.4577352 2.68065268,83.6443381 L2.68065268,80.3907496 L23.0536131,33.891547 L11.3927739,83.2376396 C11.3927739,83.2376396 11.3927739,83.3732057 11.3927739,83.3732057 C11.3927739,83.5087719 11.3927739,83.6443381 11.3927739,83.7799043 C11.3927739,83.9154705 11.3927739,83.9154705 11.3927739,84.0510367 C11.3927739,84.0510367 11.3927739,84.1866029 11.3927739,84.1866029 C11.3927739,84.3221691 11.5268065,84.3221691 11.5268065,84.4577352 C11.5268065,84.4577352 11.5268065,84.4577352 11.5268065,84.4577352 C11.5268065,84.4577352 11.5268065,84.4577352 11.5268065,84.4577352 C11.6608392,84.5933014 11.7948718,84.7288676 11.9289044,84.7288676 C11.9289044,84.7288676 12.0629371,84.7288676 12.0629371,84.7288676 C12.1969697,84.8644338 12.465035,84.8644338 12.5990676,84.8644338 C12.5990676,84.8644338 12.5990676,84.8644338 12.5990676,84.8644338 L102.400932,84.8644338 C102.400932,84.8644338 102.400932,84.8644338 102.400932,84.8644338 C102.534965,84.8644338 102.80303,84.8644338 102.937063,84.7288676 C102.937063,84.7288676 103.071096,84.7288676 103.071096,84.7288676 C103.205128,84.5933014 103.339161,84.5933014 103.473193,84.4577352 C103.473193,84.4577352 103.473193,84.4577352 103.473193,84.4577352 C103.473193,84.4577352 103.473193,84.4577352 103.473193,84.4577352 C103.473193,84.3221691 103.607226,84.3221691 103.607226,84.1866029 C103.607226,84.1866029 103.607226,84.0510367 103.607226,84.0510367 C103.607226,83.9154705 103.607226,83.9154705 103.607226,83.7799043 C103.607226,83.6443381 103.607226,83.5087719 103.607226,83.3732057 C103.607226,83.3732057 103.607226,83.2376396 103.607226,83.2376396 L92.0804196,34.1626794 L112.319347,80.5263158 L112.319347,83.6443381 C112.319347,84.4577352 112.855478,85 113.659674,85 C114.463869,85 115,84.4577352 115,83.6443381 L115,80.2551834 C115,80.1196172 115,79.8484848 114.865967,79.7129187 L88.8636364,20.199362 Z M100.390443,81.2041467 C64.469697,63.4449761 59.5104895,15.3189793 58.8403263,3.79585327 L86.1829837,21.1483254 L100.390443,81.2041467 Z M58.8403263,23.046252 C62.7272727,42.1610845 72.511655,68.8676236 96.6375291,82.2886762 L58.8403263,82.2886762 L58.8403263,23.046252 Z M56.1596737,82.2886762 L18.3624709,82.2886762 C42.488345,69.0031898 52.1386946,42.2966507 56.1596737,23.3173844 L56.1596737,82.2886762 Z M56.025641,3.79585327 C55.4895105,14.9122807 50.6643357,63.4449761 14.4755245,81.2041467 L28.6829837,21.0127592 L56.025641,3.79585327 Z" id="Shape"></path>
                </g>
            </g>
        </g>
    </g>
</svg>
