<?xml version="1.0" encoding="UTF-8"?>
<svg width="81px" height="88px" viewBox="0 0 81 88" version="1.1" xmlns="http://www.w3.org/2000/svg" xmlns:xlink="http://www.w3.org/1999/xlink">
    <!-- Generator: Sketch 58 (84663) - https://sketch.com -->
    <title>Icon/Room/Trees</title>
    <desc>Created with Sketch.</desc>
    <g id="App" stroke="none" stroke-width="1" fill="none" fill-rule="evenodd">
        <g id="Room-Design" transform="translate(-211.000000, -644.000000)">
            <g id="Icon/Room/Trees" transform="translate(211.000000, 644.000000)">
                <g id="Trees">
                    <path d="M63,60 C70.7319865,60 77,47.9116882 77,33 C77,18.0883118 70.7319865,6 63,6 C58.2467704,6 54.0467998,10.5683679 51.5161796,17.5526415 C50.846894,19.3998066 52.8161163,20.0950855 53.7250017,21.5198203 C54.9697454,23.4710339 55.4308731,26.179681 55.4308731,29.5 C55.4308731,30.8446087 55.0259084,34.4516175 53.7250017,36.987606 C52.8664582,38.6612513 50.928902,39.9848452 50.928902,40.9140439 C50.928902,52.9751866 56.4253436,60 63,60 Z" id="Oval" fill="#C7C7BB"></path>
                    <circle id="Oval" fill="#B3C4A9" cx="36.5" cy="29.5" r="15.5"></circle>
                    <circle id="Oval" fill="#C7C7BB" cx="13" cy="71" r="8"></circle>
                    <g id="noun_trees_1037927" fill="#000000" fill-rule="nonzero">
                        <path d="M13.1,87.3 C13.7,87.3 14.1,86.9 14.1,86.3 L14.1,83.3 C20.2,82.7 25,77.5 25,71.2 C25,64.5 19.6,59.1 12.9,59.1 C6.2,59.1 0.8,64.5 0.8,71.2 C0.8,77.6 5.8,82.9 12.2,83.3 L12.2,86.3 C12.1,86.8 12.6,87.3 13.1,87.3 Z M2.7,71.2 C2.7,65.6 7.3,61.1 12.8,61.1 C18.3,61.1 23,65.6 23,71.2 C23,76.4 19.1,80.7 14.1,81.3 L14.1,78.6 L19,73.7 C19.4,73.3 19.4,72.7 19,72.3 C18.6,71.9 18,71.9 17.6,72.3 L14.1,75.8 L14.1,69.3 C14.1,68.7 13.7,68.3 13.1,68.3 C12.5,68.3 12.1,68.7 12.1,69.3 L12.1,75.8 L8.6,72.3 C8.2,71.9 7.6,71.9 7.2,72.3 C6.8,72.7 6.8,73.3 7.2,73.7 L12.1,78.6 L12.1,81.4 C6.9,80.9 2.7,76.5 2.7,71.2 Z" id="Shape"></path>
                        <path d="M63.1,80.3 C63.7,80.3 64.1,79.9 64.1,79.3 L64.1,65.2 C73.4,64.3 80.6,50.4 80.6,32.8 C80.6,14.6 72.9,0.4 63.1,0.4 C57.4,0.4 52.2,5.4 48.9,13.8 C45.5,11.1 41.3,9.5 36.6,9.5 C25.7,9.5 16.8,18.4 16.8,29.3 C16.8,40 25.3,48.7 35.9,49 L35.9,79.2 C35.9,79.8 36.3,80.2 36.9,80.2 C37.5,80.2 37.9,79.8 37.9,79.2 L37.9,49 C41.2,48.8 44.3,47.7 47,46 C49.7,57.1 55.4,64.4 61.9,65.1 L61.9,79.2 C62.1,79.8 62.5,80.3 63.1,80.3 Z M38,41.4 L46.5,32.9 C46.9,32.5 46.9,31.9 46.5,31.5 C46.1,31.1 45.5,31.1 45.1,31.5 L38,38.6 L38,25.9 C38,25.3 37.6,24.9 37,24.9 C36.4,24.9 36,25.3 36,25.9 L36,38.6 L28.9,31.5 C28.5,31.1 27.9,31.1 27.5,31.5 C27.1,31.9 27.1,32.5 27.5,32.9 L36,41.4 L36,47.1 C26.5,46.8 18.9,38.9 18.9,29.4 C18.9,19.6 26.9,11.6 36.7,11.6 C46.5,11.6 54.5,19.6 54.5,29.4 C54.5,38.7 47.2,46.4 38.1,47.1 L38.1,41.4 L38,41.4 Z M48.9,44.8 C53.5,41.2 56.4,35.6 56.4,29.3 C56.4,23.8 54.1,18.8 50.5,15.2 C53.4,7.2 58.1,2.4 63.1,2.4 C71.6,2.4 78.6,16.1 78.6,32.8 C78.6,48.9 72.2,62.1 64.1,63.2 L64.1,39.3 C64.1,38.7 63.7,38.3 63.1,38.3 C62.5,38.3 62.1,38.7 62.1,39.3 L62.1,63.2 C56.3,62.5 51.2,55.4 48.9,44.8 Z" id="Shape"></path>
                    </g>
                </g>
            </g>
        </g>
    </g>
</svg>