<?xml version="1.0" encoding="UTF-8"?>
<svg viewBox="0 0 42 89" version="1.1" xmlns="http://www.w3.org/2000/svg" xmlns:xlink="http://www.w3.org/1999/xlink">
    <!-- Generator: Sketch 58 (84663) - https://sketch.com -->
    <title>Tree</title>
    <desc>Created with Sketch.</desc>
    <g id="App" stroke="none" stroke-width="1" fill="none" fill-rule="evenodd">
        <g id="Room-Design" transform="translate(-292.000000, -169.000000)">
            <g id="Tree" transform="translate(292.000000, 169.000000)">
                <path d="M20.5123181,12 C25.7625926,12 41.6828191,63.6882188 38.6096502,71.2949509 C35.5364813,78.901683 5.60042546,78.901683 2.41498594,71.2949509 C-0.770453576,63.6882188 15.2620435,12 20.5123181,12 Z" id="Triangle-Copy-10" fill-opacity="0.699273383" fill="#92AA83"></path>
                <g id="noun_pine-tree_1947816" fill="#000000" fill-rule="nonzero">
                    <path d="M1.1016611,77.040625 L15.2276794,77.040625 L15.2276794,87.8875 C15.2276794,88.5018738 15.7204975,89 16.329526,89 L25.670474,89 C26.2795025,89 26.7723206,88.5018738 26.7723206,87.8875 L26.7723206,77.040625 L40.8983389,77.040625 C41.2577303,77.040625 41.5934492,76.8640808 41.8000455,76.5674865 C42.0066417,76.2714355 42.0561387,75.8917297 41.9345482,75.5511352 L33.503915,51.925177 L37.0655482,51.925177 C37.4260155,51.925177 37.7638866,51.7470032 37.9694067,51.4482361 C38.176003,51.149469 38.224424,50.7675904 38.0985294,50.4264527 L30.485673,29.6757202 L33.0121729,29.6757202 C33.3844765,29.6757202 33.7320317,29.4855958 33.9353999,29.1705322 C34.138768,28.8554686 34.1710487,28.4578369 34.0204056,28.1134399 L22.0076947,0.662719699 C21.8312271,0.25965572 21.435251,0 20.999462,0 C20.562597,0 20.1676969,0.260198954 19.9912293,0.662719699 L7.97959443,28.1134399 C7.82895128,28.4578369 7.86123197,28.8554688 8.06460013,29.1705322 C8.2679683,29.4855956 8.61552346,29.6757202 8.98782708,29.6757202 L11.514327,29.6757202 L3.9014706,50.4264527 C3.77557603,50.7675904 3.82399701,51.149469 4.03059326,51.4482361 C4.23611344,51.7470032 4.57398446,51.925177 4.93445183,51.925177 L8.49608504,51.925177 L0.0654517916,75.5511352 C-0.0561387483,75.8917297 -0.00664170363,76.2714355 0.199954542,76.5674865 C0.406550787,76.8640808 0.742269685,77.040625 1.1016611,77.040625 Z M24.5686274,86.775 L17.4313726,86.775 L17.4313726,77.040625 L24.5686274,77.040625 L24.5686274,86.775 Z M20.999462,3.86550296 L31.3206661,27.4507202 L10.6793339,27.4507202 L20.999462,3.86550296 Z M13.8636869,29.6757202 L28.1363131,29.6757202 L35.4827196,49.700177 L6.51728042,49.700177 L13.8636869,29.6757202 Z M10.8375092,51.925177 L31.1624908,51.925177 L39.3305746,74.815625 L2.66942535,74.815625 L10.8375092,51.925177 Z" id="Shape"></path>
                </g>
            </g>
        </g>
    </g>
</svg>
