<?xml version="1.0" encoding="UTF-8"?>
<svg viewBox="0 0 26 70" version="1.1" xmlns="http://www.w3.org/2000/svg" xmlns:xlink="http://www.w3.org/1999/xlink">
    <!-- Generator: Sketch 58 (84663) - https://sketch.com -->
    <title>Icon/Avatar/Ueli</title>
    <desc>Created with Sketch.</desc>
    <g id="App" stroke="none" stroke-width="1" fill="none" fill-rule="evenodd">
        <g id="Room-Design" transform="translate(-270.000000, -152.000000)">
            <g id="Icon/Avatar/Ueli" transform="translate(269.000000, 152.000000)">
                <g id="Ueli" transform="translate(1.433628, 0.000000)">
                    <polygon id="Path-20" fill="#FFFFFF" points="8.87167125 5.10416667 7.56334061 8.14036178 4.53982301 9.47721164 5.46250901 13.208867 8.61765078 16.6567395 13.9936475 17.7430556 18.290807 15.9482726 21.0415606 12.5476312 21.5044248 9.47721164 18.3785203 8.14036178 17.0649858 5.10416667"></polygon>
                    <polygon id="Path-21" fill="#FFFFFF" points="10.8051269 17.2569444 10.0415331 20.121509 7.6460177 21.1505652 7.6460177 25.099277 9.22557228 24.1710254 9.71871292 28.4375 16.0854435 28.4375 16.3995594 24.1245975 18.159292 25.3340774 18.159292 21.1505652 16.3995594 20.5441497 15.2307979 17.2569444"></polygon>
                    <polygon id="Path-2" fill="#AFB4BB" points="4.53982301 22.9409358 4.53982301 41.9938098 21.5044248 42.2916667 21.5044248 22.9409358 18.6286239 21.6319444 18.6286239 25.0755417 16.5891236 24.2499273 16.2916411 28.5306809 9.78836126 28.5306809 9.78836126 24.2033439 7.61532195 25.4329699 7.61532195 21.6319444"></polygon>
                    <polygon id="Pants-Man" fill="#E0BAA3" points="4.66071995 42.6246326 3.82300885 51.4233574 4.53982301 64.4097222 10.1395988 64.5675571 12.9055608 51.4233574 15.1521225 64.5675571 20.8808666 64.5675571 21.5289811 58.9235403 21.7433628 48.8739723 21.7433628 45.2752776 21.2228137 42.6246326"></polygon>
                    <polygon id="Hair-Man" fill="#5D4A46" points="4.53982301 9.47916667 7.50177079 8.17887047 8.82859821 5.17262074 16.7844776 5.17262074 18.0967141 8.17887047 21.0265487 9.47916667 20.5591253 5.17262074 16.7844776 1.92598401 13.4808289 0.972222222 9.43437136 1.51549371 6.28236807 4.16957977 4.53982301 7.05256163"></polygon>
                    <polygon id="Path-22" fill="#FFFFFF" points="21.5044248 23.0902778 21.7394458 44.9652778 23.5902365 44.0349715 25.0884956 41.3131067 24.9122298 26.835652 23.5902365 24.3920824"></polygon>
                    <polygon id="Path-22" fill="#FFFFFF" transform="translate(2.269912, 34.027778) scale(-1, 1) translate(-2.269912, -34.027778) " points="0.477876106 23.0902778 0.712897142 44.9652778 2.5636878 44.0349715 4.0619469 41.3131067 3.88568113 26.835652 2.5636878 24.3920824"></polygon>
                    <polygon id="Path-10" fill="#FFFFFF" points="5.49557522 64.4097222 5.49557522 66.8402778 8.84070796 66.8402778 8.84070796 64.4097222"></polygon>
                    <polygon id="Path-10" fill="#AFB4BB" points="5.49557522 66.5972222 5.49557522 69.0277778 8.84070796 69.0277778 8.84070796 66.5972222"></polygon>
                    <polygon id="Path-10" fill="#AFB4BB" points="16.4867257 66.5972222 16.4867257 69.0277778 19.8318584 69.0277778 19.8318584 66.5972222"></polygon>
                    <polygon id="Path-10" fill="#FFFFFF" points="16.4867257 64.4097222 16.4867257 66.8402778 19.8318584 66.8402778 19.8318584 64.4097222"></polygon>
                    <g id="noun_Man_1100584" fill="#000000" fill-rule="nonzero">
                        <path d="M10.7764086,11.869213 C11.2374399,11.869213 11.6111796,11.4883441 11.6111796,11.0185185 C11.6111796,10.548693 11.2374399,10.1678241 10.7764086,10.1678241 C10.3153774,10.1678241 9.94163773,10.548693 9.94163773,11.0185185 C9.94163773,11.4883441 10.3153774,11.869213 10.7764086,11.869213 Z" id="Path"></path>
                        <path d="M15.0772936,11.869213 C15.5383249,11.869213 15.9120645,11.4883441 15.9120645,11.0185185 C15.9120645,10.548693 15.5383249,10.1678241 15.0772936,10.1678241 C14.6162623,10.1678241 14.2425227,10.548693 14.2425227,11.0185185 C14.2425227,11.4883441 14.6162623,11.869213 15.0772936,11.869213 Z" id="Path"></path>
                        <path d="M21.9777894,22.6030248 C21.9425314,22.3895783 21.801125,22.2101364 21.6043583,22.129148 L16.8681583,20.1871821 L16.1304041,19.8433891 L15.8298375,17.7899228 C19.944216,16.2915281 22.4047331,11.9900305 21.6594149,7.59860464 C20.9140968,3.20717875 17.1791979,0 12.8105101,0 C8.44182222,0 4.70692338,3.20717875 3.9616052,7.59860464 C3.21628703,11.9900305 5.67680414,16.2915281 9.7911826,17.7899228 L9.44507568,19.8991393 L8.76196992,20.1778904 L4.00755381,22.129148 C3.81673988,22.2109576 3.67958173,22.3858618 3.64323073,22.5937331 C1.46021963,23.4103179 0.006532201,25.5272931 0,27.8992953 L0,40.1457594 C0.0145029354,42.3902999 1.31982215,44.4168599 3.33355612,45.3212378 C3.19693497,49.3166699 3.13317843,54.6129404 3.13317843,56.0996128 C3.12386275,58.9488204 3.380041,61.7924811 3.89825689,64.5922291 C3.9511205,64.8884672 4.20423374,65.1036474 4.49938996,65.1032727 L4.90925342,65.1032727 L4.90925342,67.6306158 C4.90925342,68.9391906 5.94909876,70 7.23181301,70 L7.68721685,70 C8.96993109,70 10.0097764,68.9391906 10.0097764,67.6306158 L10.0097764,65.1032727 L10.3467753,65.1032727 C10.6469024,65.1035752 10.904053,64.8843102 10.9570164,64.5829374 L12.7786318,53.5072278 L14.6002472,64.5829374 C14.6532107,64.8843102 14.9103612,65.1035752 15.2104883,65.1032727 L15.5474872,65.1032727 L15.5474872,67.6306158 C15.5474872,68.9391906 16.5873325,70 17.8700468,70 L18.3254506,70 C19.6081648,70 20.6480102,68.9391906 20.6480102,67.6306158 L20.6480102,65.1032727 L21.0578736,65.1032727 C21.3530299,65.1036474 21.6061431,64.8884672 21.6590067,64.5922291 C22.1771136,61.7924655 22.4332909,58.9488154 22.4240852,56.0996128 C22.4240852,54.6315238 22.3512206,49.344545 22.2237075,45.3212378 C24.2425725,44.4215469 25.5526018,42.3932162 25.5663717,40.1457594 L25.5663717,27.8992953 C25.559371,25.546518 24.1328067,23.4410986 21.9777894,22.6030248 Z M17.6514529,22.0455227 L17.5785883,24.191906 L16.7497533,23.4299864 C16.5727557,23.2698847 16.3218222,23.2266183 16.1030798,23.3184859 L16.0393233,23.3184859 L16.8863745,21.5809375 L17.6514529,22.0455227 Z M8.72553761,21.627396 L9.57258876,23.3649444 L9.50883222,23.3649444 C9.29008984,23.2730768 9.03915639,23.3163432 8.86215876,23.4764449 L8.03332377,24.2383645 L7.96045916,22.0919812 L8.72553761,21.627396 Z M11.8040676,27.9178787 L10.1190734,27.9178787 L9.90047952,24.0618221 L11.8040676,27.9178787 Z M13.4253053,29.1815503 L16.0848637,29.1815503 C16.4061344,29.1724673 16.6672146,28.9141946 16.6859968,28.5868813 L16.8772664,25.2883269 L17.7425337,26.0781216 C17.9188174,26.2479683 18.1769478,26.2952278 18.4001243,26.1985159 C18.6233008,26.101804 18.7691772,25.8794711 18.7717464,25.6321199 L18.8719352,22.4078991 L20.7664152,23.1884021 L20.7664152,41.5766816 L13.4253053,41.5766816 L13.4253053,29.1815503 Z M13.8169526,27.9178787 L15.7205406,24.033947 L15.5019468,27.8900036 L13.8169526,27.9178787 Z M12.805956,1.25998385 C16.9011272,1.26720284 20.2841894,4.52311541 20.5296052,8.69334596 C18.8298257,8.38630138 17.5924945,6.87705739 17.5968044,5.11604044 C17.5968411,4.77068384 17.3250582,4.48928343 16.9865633,4.48420466 L8.62534876,4.48420466 C8.28685382,4.48928343 8.01507101,4.77068384 8.01510762,5.11604044 C8.01203216,6.8743235 6.77814287,8.37936914 5.08230688,8.69334596 C5.32772267,4.52311541 8.71078487,1.26720284 12.805956,1.25998385 Z M5.09141495,9.91985071 C7.21368914,9.6075041 8.87546984,7.89705031 9.1627253,5.72929282 L16.4491868,5.72929282 C16.7276468,7.90145764 18.3938245,9.61643725 20.5204971,9.91985071 C20.1125072,13.9510461 16.783046,17.0149954 12.8105101,17.0149954 C8.83797418,17.0149954 5.50851293,13.9510461 5.10052303,9.91985071 L5.09141495,9.91985071 Z M12.805956,18.2823831 C13.4180896,18.280781 14.028462,18.2153998 14.6275714,18.0872573 L14.9554622,20.317266 C14.9842293,20.5300537 15.1184927,20.7126807 15.3106772,20.8004345 L15.7842972,21.0234354 L12.805956,27.1559591 L9.83672298,21.0698939 L10.2192622,20.9119349 C10.4209238,20.8303419 10.5660375,20.6470551 10.6018014,20.4287664 L10.9843407,18.1058407 C11.5824911,18.2434203 12.1928807,18.3181438 12.805956,18.3288416 L12.805956,18.2823831 Z M4.84549688,23.0861934 L6.73997686,22.3056903 L6.8401657,25.5299111 C6.84273486,25.7772624 6.98861124,25.9995953 7.21178774,26.0963072 C7.43496424,26.1930191 7.69309464,26.1457595 7.86937839,25.9759129 L8.73464569,25.1861182 L8.9259153,28.503256 C8.94469748,28.8305693 9.20577765,29.088842 9.52704837,29.097925 L12.1866068,29.097925 L12.1866068,41.5766816 L4.84549688,41.5766816 L4.84549688,23.0861934 Z M1.20226614,40.0993009 L1.20226614,27.8992953 C1.20725736,26.232265 2.13442584,24.7109755 3.59769035,23.9689051 L3.59769035,42.1713506 L3.41552881,43.9832326 C2.06281647,43.1975868 1.22547128,41.7337045 1.2204823,40.1457594 L1.20226614,40.0993009 Z M7.6690007,68.6991616 L7.21359685,68.6991616 C6.65681654,68.697771 6.19005209,68.2696138 6.12973571,67.7049494 L8.75286184,67.7049494 C8.71981507,68.2846127 8.25623013,68.7413753 7.68721685,68.7549118 L7.6690007,68.6991616 Z M8.76196992,66.4505696 L6.12062763,66.4505696 L6.12062763,65.0568142 L8.76196992,65.0568142 L8.76196992,66.4505696 Z M18.3618829,68.6991616 L17.9064791,68.6991616 C17.3496987,68.697771 16.8829343,68.2696138 16.8226179,67.7049494 L19.445744,67.7049494 C19.4126973,68.2846127 18.9491123,68.7413753 18.3800991,68.7549118 L18.3618829,68.6991616 Z M19.4548521,66.4505696 L16.8135098,66.4505696 L16.8135098,65.0568142 L19.4548521,65.0568142 L19.4548521,66.4505696 Z M20.6024698,63.811726 L15.7842972,63.811726 L13.4161972,49.6325878 C13.3786088,49.3204706 13.1187595,49.0859576 12.8105101,49.0859576 C12.5022607,49.0859576 12.2424113,49.3204706 12.204823,49.6325878 L9.82761491,63.811726 L5.00944226,63.811726 C4.56720692,61.2534239 4.34775716,58.6602164 4.35354473,56.062446 C4.35354473,54.5386068 4.42652534,48.907835 4.57225457,44.9124029 L4.79084842,42.784603 L20.8210636,42.784603 L21.0032252,44.9216946 C21.1489544,48.9450018 21.221819,54.5757736 21.221819,56.0717377 C21.2390732,58.6653015 21.0318187,61.2553547 20.6024698,63.811726 L20.6024698,63.811726 Z M24.3914298,40.1085926 C24.379457,41.6970727 23.5350858,43.1575436 22.1781671,43.9367741 L21.9960056,42.1248921 L21.9960056,23.9689051 C23.4548359,24.7159405 24.3801122,26.2341253 24.3914298,27.8992953 L24.3914298,40.1085926 Z" id="Shape"></path>
                    </g>
                </g>
            </g>
        </g>
    </g>
</svg>
