<?xml version="1.0" encoding="UTF-8"?>
<svg viewBox="0 0 94 234" version="1.1" xmlns="http://www.w3.org/2000/svg" xmlns:xlink="http://www.w3.org/1999/xlink">
    <!-- Generator: Sketch 58 (84663) - https://sketch.com -->
    <title>Urs</title>
    <desc>Created with Sketch.</desc>
    <g id="Symbols" stroke="none" stroke-width="1" fill="none" fill-rule="evenodd">
        <g id="Icon/Avatar/Urs" transform="translate(-2.000000, -10.000000)">
            <g id="Urs" transform="translate(2.000000, 10.000000)">
                <polygon id="Path-16" fill="#AFB4BB" points="17 224 20.0571502 231.062436 27.2622616 231.062436 31.2671664 224"></polygon>
                <polygon id="Path-16" fill="#AFB4BB" points="63 224 66.0571502 231.062436 73.2622616 231.062436 77.2671664 224"></polygon>
                <polygon id="Path-15" fill="#FFFFFF" points="18 212 18 221.511444 32.2671664 221.511444 32.2671664 212"></polygon>
                <polygon id="Path-15" fill="#FFFFFF" points="64 212 64 221.511444 78.2671664 221.511444 78.2671664 212"></polygon>
                <polygon id="Path-33" fill="#FFFFFF" points="5.55272372 114.453094 6.83471239 143.533995 15 114.453094"></polygon>
                <polygon id="Path-33" fill="#FFFFFF" transform="translate(83.276362, 128.993545) scale(-1, 1) translate(-83.276362, -128.993545) " points="78.5527237 114.453094 79.8347124 143.533995 88 114.453094"></polygon>
                <polygon id="Path-32" fill="#94B4E1" points="9.4333347 149.806947 8.16929325 182.726735 10.8854224 211.57088 35.2985642 211.57088 46.4999992 170.830478 58.3656984 211.57088 81.4756094 211.57088 85.877826 180.642214 83.6767177 149.806947"></polygon>
                <polygon id="Path-31" fill="#5D8797" points="28.717004 88.0702982 15 88.8096593 3.67114786 100.269756 2.65452639 113 13.8795735 113 10.2329773 136.775709 9.4333347 149.806947 83.6767177 149.806947 78.6238761 113.578255 90.6384934 113 89.8991324 101.656058 83.6767177 93.2458257 75.111911 88.0702982 64.2987554 88.0702982 61.1593798 97.4971518 54.8719018 104.798342 44.0643858 105.528347 32.7834899 100.269756"></polygon>
                <polygon id="Path-40" fill="#FFFFFF" points="11.1812823 35.9027857 13.4913806 51.2537339 22.386792 64.6674494 38.7656447 72.8568758 37.9503244 87.1177734 29.0230513 87.1177734 32.3250347 97.9899428 41.5 104.908596 49.9202081 104.908596 59.2392105 100.990626 65.3106818 87.1177734 56.5 87.1177734 56.5 72.8568758 71.099759 64.6674494 80.7011555 50 82.4421979 35.9027857 56.5 35.9027857 56.5 27.6803724 35.2394547 27.6803724 35.2394547 35.9027857"></polygon>
                <polygon id="Path-39" fill="#BA494C" points="46.9181777 2.09953088 29.301045 7.27660594 17.4242258 19.3533029 11.1812823 35.9027857 35.2394547 35.9027857 35.2394547 27.6803724 56.5 27.6803724 56.5 35.9027857 82.4421979 35.9027857 79.2024494 21.5896958 69.4995102 10.4742111 53.4402528 2.09953088"></polygon>
                <g id="noun_boy_1100576" fill="#000000" fill-rule="nonzero">
                    <path d="M59.2407819,143 C60.764656,143 62,141.774709 62,140.263237 C62,138.751764 60.764656,137.526473 59.2407819,137.526473 C41.1800517,137.526473 26.5389372,123.00451 26.5389372,105.09076 C26.6689221,104.033472 26.1732686,102.996492 25.2657513,102.427068 C24.3582341,101.857644 23.2012039,101.857644 22.2936867,102.427068 C21.3861695,102.996492 20.8905159,104.033472 21.0205009,105.09076 C21.0654687,126.008953 38.1509579,142.955398 59.2407819,143 L59.2407819,143 Z" id="Path"></path>
                    <path d="M70.6014628,84.7124978 L58.6171499,84.7124978 L58.6171499,74.5913112 C76.5335576,68.8683468 87.612743,50.9284202 84.7202269,32.3240083 C81.8277108,13.7195964 65.8262692,0 47.0200851,0 C28.2139009,0 12.2124594,13.7195964 9.31994329,32.3240083 C6.42742717,50.9284202 17.5066126,68.8683468 35.4230203,74.5913112 L35.4230203,84.6716865 L23.3979444,84.6716865 C10.4849221,84.6941511 0.0224379697,95.1690237 0,108.097336 L0,112.913062 C0,114.429945 1.21619333,115.665919 2.73111894,115.688226 L2.73111894,115.688226 L2.73111894,140.174968 C2.72738764,144.607942 4.36902561,148.884164 7.33733448,152.173471 C6.36360331,160.053367 5.87352759,167.985639 5.86986758,175.925611 C5.83727731,187.769715 6.92920008,199.59011 9.13090512,211.22733 C9.3674949,212.528475 10.5002968,213.473594 11.8212611,213.471948 L13.4110169,213.471948 L13.4110169,223.42989 C13.4110169,229.177443 18.0648187,233.836755 23.8055741,233.836755 L24.9061742,233.836755 C30.6469297,233.836755 35.3007314,229.177443 35.3007314,223.42989 L35.3007314,213.594382 L36.5643835,213.594382 C37.8426392,213.592672 38.9539742,212.716038 39.2547394,211.472198 L46.9997036,179.312943 L54.7446678,211.513009 C55.045433,212.756849 56.156768,213.633483 57.4350238,213.635193 L58.6986758,213.635193 L58.6986758,223.593135 C58.6986758,229.340688 63.3524776,234 69.093233,234 L70.1938331,234 C75.9345886,234 80.5883903,229.340688 80.5883903,223.593135 L80.5883903,213.594382 L82.1781461,213.594382 C83.4991104,213.596028 84.6319123,212.650908 84.8685021,211.349764 C87.0709395,199.712647 88.1628687,187.892182 88.1295396,176.048045 C88.121248,168.03913 87.6175406,160.038417 86.6213098,152.091849 C89.604426,148.808648 91.2608546,144.531748 91.2682883,140.093345 L91.2682883,115.606604 C91.9997443,115.606685 92.7006648,115.313007 93.214037,114.791356 C93.7274092,114.269704 94.0103245,113.56368 93.9997118,112.83144 L93.9997118,108.138147 C93.9769693,95.2098349 83.5144852,84.7349623 70.6014628,84.7124978 Z M46.9997036,5.53869942 C63.0665387,5.54850872 76.732176,17.2733077 79.2024494,33.1679064 L58.8209647,33.1679064 L58.8209647,27.8624457 C58.8211285,26.3455622 57.6047714,25.1095887 56.0898458,25.0872816 L35.2192055,25.0872816 C33.7042799,25.1095887 32.4879227,26.3455622 32.4880865,27.8624457 L32.4880865,33.1679064 L14.7969579,33.1679064 C17.2672312,17.2733077 30.9328685,5.54850872 46.9997036,5.53869942 L46.9997036,5.53869942 Z M53.4402528,33.1679064 L37.9503244,33.1679064 L37.9503244,30.6376097 L53.4402528,30.6376097 L53.4402528,33.1679064 Z M14.3893282,38.6774233 L79.6100791,38.6774233 C79.6100791,56.708962 65.0099167,71.3264123 46.9997036,71.3264123 C28.9894906,71.3264123 14.3893282,56.708962 14.3893282,38.6774233 Z M38.1541393,90.2220147 C39.6533341,90.2000992 40.8633687,88.9886318 40.8852582,87.4876618 L40.8852582,75.8972707 C44.9300723,76.6145923 49.0693349,76.6145923 53.114149,75.8972707 L53.114149,87.4468506 C53.1360385,88.9478206 54.3460732,90.159288 55.8452679,90.1812034 L61.6743726,90.1812034 C60.3756483,97.273542 54.20172,102.424574 46.9997036,102.424574 C39.7976872,102.424574 33.6237589,97.273542 32.3250347,90.1812034 L38.1541393,90.2220147 Z M5.54376383,108.138147 C5.56617891,98.252651 13.5649025,90.2444563 23.4387074,90.2220147 L26.618219,90.2220147 C27.8377733,100.487079 36.5318327,108.217436 46.8570332,108.217436 C57.1822337,108.217436 65.8762931,100.487079 67.0958475,90.2220147 L70.438411,90.2220147 C80.3122158,90.2444563 88.3109394,98.252651 88.3333545,108.138147 L88.3333545,110.301143 L78.8355826,110.301143 C78.0429583,110.293946 77.2863122,110.631873 76.7621321,111.227169 C76.237952,111.822466 75.9979548,112.616398 76.1044637,113.402797 L80.1807606,145.725296 L13.7371207,145.725296 L17.8134176,113.402797 C17.9199265,112.616398 17.6799293,111.822466 17.1557492,111.227169 C16.631569,110.631873 15.8749229,110.293946 15.0822986,110.301143 L5.50300086,110.301143 L5.54376383,108.138147 Z M85.3984207,140.093345 C85.4252476,140.555483 85.4252476,141.01879 85.3984207,141.480927 L82.0966202,115.81066 L85.4799466,115.81066 L85.3984207,140.093345 Z M12.0250759,115.606604 L8.72327543,141.480927 C8.72327543,141.113626 8.72327543,140.746325 8.72327543,140.338213 L8.72327543,115.851471 L12.0250759,115.606604 Z M24.9061742,228.245616 L23.8055741,228.245616 C21.5146957,228.242758 19.5326623,226.64847 19.0363067,224.409359 L29.6754417,224.409359 C29.2665699,226.714623 27.2851197,228.407691 24.9469372,228.449672 L24.9061742,228.245616 Z M29.8384935,219.022276 L18.9547807,219.022276 L18.9547807,213.594382 L29.8384935,213.594382 L29.8384935,219.022276 Z M70.1938331,228.368049 L69.093233,228.368049 C66.8023546,228.365192 64.8203212,226.770904 64.3239656,224.531793 L74.9631006,224.531793 C74.4969271,226.818346 72.4839957,228.457924 70.1530702,228.449672 L70.1938331,228.368049 Z M75.0446265,219.022276 L64.1609137,219.022276 L64.1609137,213.594382 L75.0446265,213.594382 L75.0446265,219.022276 Z M79.8546569,208.044054 L59.4731722,208.044054 L49.5677707,166.824705 C49.2335407,165.624957 48.1418629,164.795114 46.8977962,164.795114 C45.6537294,164.795114 44.5620517,165.624957 44.2278217,166.824705 L34.3224202,208.044054 L13.9409355,208.044054 C12.092619,197.466135 11.178713,186.745751 11.2098166,176.007233 C11.205816,167.709195 11.7505132,159.419993 12.8403353,151.194002 L80.955257,151.194002 C82.0459114,159.41991 82.5906123,167.709167 82.5857758,176.007233 C82.6192756,186.759378 81.7053606,197.493523 79.8546569,208.084865 L79.8546569,208.044054 Z" id="Shape"></path>
                    <path d="M37.5,43 C35.5670034,43 34,44.5670034 34,46.5 C34,48.4329966 35.5670034,50 37.5,50 C39.4329966,50 41,48.4329966 41,46.5 C41,44.5670034 39.4329966,43 37.5,43 Z" id="Path"></path>
                    <path d="M56.5,50 C58.4329966,50 60,48.4329966 60,46.5 C60,44.5670034 58.4329966,43 56.5,43 C55.2495704,43 54.0941259,43.6670962 53.4689111,44.75 C52.8436963,45.8329038 52.8436963,47.1670962 53.4689111,48.25 C54.0941259,49.3329038 55.2495704,50 56.5,50 L56.5,50 Z" id="Path"></path>
                </g>
            </g>
        </g>
    </g>
</svg>
