<?xml version="1.0" encoding="UTF-8"?>
<svg viewBox="0 0 53 50" version="1.1" xmlns="http://www.w3.org/2000/svg" xmlns:xlink="http://www.w3.org/1999/xlink">
    <!-- Generator: Sketch 58 (84663) - https://sketch.com -->
    <title>Airplane</title>
    <desc>Created with Sketch.</desc>
    <g id="App" stroke="none" stroke-width="1" fill="none" fill-rule="evenodd">
        <g id="Room-Welcome" transform="translate(-223.000000, -392.000000)">
            <g id="Airplane" transform="translate(217.022709, 388.000000)">
                <polygon id="Path-7" fill="#FFFFFF" points="13.1097529 5.66568091 19.822807 10.3556228 26.4439015 15.8732016 51.8247636 7.13703524 56.0549073 11.5510982 40.3298079 21.8505785 37.8468975 25.345045 48.7900953 35.1847271 54.6755126 32.609857 57.8021406 35.1847271 46.8589428 48.9786739 44.2840727 48.9786739 43.4564359 46.6796828 44.7438709 40.7942655 32.9320044 32.1500588 30.0303276 36.2882429 23.5931525 52.9329387 18.9032105 50.5419879 18.3514527 47.139481 21.8459192 22.3103767 10.2590039 12.378735 9.08657762 8.70034921 9.08657762 6.17149646 11.1786003 5.66568091"></polygon>
                <path d="M6.66506824,21.348103 C12.0572566,18.5810657 55.8610616,15.917047 61.1597873,20.1804757 C66.4585129,24.4439043 63.439967,28.5367991 59.4398193,31.3743258 C55.4396715,34.2118525 14.9414518,37.5764901 5.24328472,36.3082197 C-4.45488239,35.0399493 1.27287986,24.1151402 6.66506824,21.348103 Z" id="Grey-Left" fill="#E5CBC0" transform="translate(32.000000, 27.265132) scale(-1, 1) rotate(-36.000000) translate(-32.000000, -27.265132) "></path>
                <g id="noun_Flight_859323" transform="translate(6.977291, 4.000000)" fill="#000000" fill-rule="nonzero">
                    <path d="M1.43984774,0.738396624 C0.255074431,1.58227848 -0.283458893,3.05907173 0.147367766,4.53586498 C0.47048776,5.80168776 1.22443441,6.96202532 1.76296774,7.91139241 C2.51691439,9.17721519 3.59398104,10.3375527 5.10187434,11.6033755 C6.82518098,13.0801688 8.65619428,14.556962 10.3795009,16.0337553 L12.7490475,17.9324895 C13.2875809,18.3544304 13.5029942,18.7763713 13.3952875,19.5147679 C13.1798742,20.9915612 12.9644609,22.5738397 12.7490475,24.0506329 L10.1640876,42.5105485 C9.94867425,43.7763713 10.0563809,44.8312236 10.2717942,45.7805907 C10.7026209,47.3628692 11.7796876,48.5232068 13.5029942,49.3670886 C13.8261142,49.4725738 14.0415275,49.5780591 14.3646475,49.6835443 C14.7954742,49.8945148 15.3340075,50 15.6571275,50 C16.7341941,50 17.5958474,49.3670886 18.1343808,48.2067511 C18.4575008,47.4683544 18.7806208,46.7299578 18.9960341,45.9915612 L23.842834,33.649789 C24.2736607,32.3839662 25.0276073,31.3291139 25.781554,30.0632911 L26.104674,29.535865 L28.4742206,31.3291139 C31.0591805,33.2278481 33.6441405,35.2320675 36.1213938,37.1308017 C35.9059804,37.9746835 35.6905671,38.8185654 35.4751538,39.6624473 L35.2597405,40.6118143 C34.9366205,41.8776371 34.9366205,43.0379747 35.3674471,44.092827 C35.9059804,45.2531646 36.7676338,46.2025316 38.0601137,46.6244726 C39.1371804,47.0464135 40.1065404,46.4135021 40.4296604,46.2025316 C40.860487,45.9915612 41.2913137,45.5696203 41.506727,45.2531646 C44.091687,42.0886076 46.5689402,38.8185654 49.1539002,35.6540084 L50.7695002,33.649789 C50.9849135,33.4388186 51.2003268,33.1223629 51.4157402,32.8059072 C52.2773935,31.6455696 52.1696868,30.5907173 51.2003268,29.6413502 C50.7695002,29.2194093 50.2309668,28.6919831 49.6924335,28.164557 C48.7230735,27.3206751 47.4305936,27.2151899 46.2458203,27.742616 C45.2764603,28.164557 44.3071003,28.6919831 43.3377403,29.1139241 L42.2606737,29.6413502 C42.152967,29.6413502 42.0452603,29.7468354 41.9375537,29.7468354 C41.183607,29.1139241 40.537367,28.3755274 39.7834204,27.742616 L32.6747805,21.0970464 C32.8901938,20.7805907 33.1056072,20.5696203 33.3210205,20.2531646 C34.2903805,19.092827 35.4751538,18.2489451 36.9830471,17.2995781 C40.7527804,14.8734177 44.414807,12.3417722 48.0768335,9.81012658 C48.3999535,9.59915612 48.8307802,9.28270042 49.2616069,8.86075949 C50.3386735,7.91139241 50.4463802,6.75105485 49.8001402,5.48523207 C49.0461935,4.32489451 48.0768335,3.27004219 46.9997669,2.42616034 C46.3535269,1.89873418 45.2764603,1.47679325 43.768567,1.89873418 C43.0146203,2.10970464 42.2606737,2.32067511 41.7221403,2.53164557 L21.580994,9.91561181 C21.1501674,10.021097 20.8270474,10.1265823 20.3962207,10.2320675 C19.8576874,10.3375527 19.3191541,10.1265823 18.7806208,9.70464135 C18.2420874,9.17721519 17.7035541,8.75527426 17.1650208,8.2278481 C16.3033675,7.48945148 15.4417142,6.75105485 14.5800608,6.01265823 C12.6413409,4.43037975 11.1334476,3.27004219 9.73326092,2.21518987 C8.22536762,1.05485232 6.39435432,0.316455696 4.34792769,0 C3.27086104,0 2.30150106,0.210970464 1.43984774,0.738396624 Z M4.02480769,2.21518987 C5.64040766,2.42616034 7.14830097,3.05907173 8.44078095,4.00843882 C9.84096759,5.06329114 11.3488609,6.22362869 13.1798742,7.80590717 C14.0415275,8.5443038 14.9031808,9.28270042 15.6571275,10.021097 C16.1956608,10.5485232 16.7341941,10.9704641 17.2727275,11.4978903 C18.2420874,12.3417722 19.4268607,12.6582278 20.6116341,12.4472574 C21.1501674,12.3417722 21.580994,12.2362869 22.1195274,12.0253165 L42.2606737,4.64135021 C42.799207,4.43037975 43.445447,4.21940928 44.1993936,4.00843882 C44.9533403,3.79746835 45.2764603,4.00843882 45.4918736,4.11392405 C46.4612336,4.85232068 47.2151802,5.69620253 47.8614202,6.64556962 C48.0768335,6.96202532 48.0768335,7.06751055 47.7537136,7.27848101 C47.4305936,7.59493671 47.1074736,7.80590717 46.7843536,8.01687764 C43.122327,10.5485232 39.3525937,12.9746835 35.6905671,15.5063291 C34.1826738,16.4556962 32.7824872,17.5105485 31.5977139,18.8818565 C31.2745939,19.3037975 30.9514739,19.7257384 30.7360605,20.0421941 C30.6283539,20.2531646 30.5206472,20.3586498 30.4129405,20.5696203 L29.8744072,21.3080169 L30.7360605,22.1518987 L38.2755271,29.1139241 C39.1371804,29.8523207 39.9988337,30.6962025 40.7527804,31.4345992 C41.2913137,31.8565401 41.829847,31.9620253 42.476087,31.6455696 C42.6915003,31.5400844 42.9069136,31.4345992 43.122327,31.3291139 L44.1993936,30.8016878 C45.1687536,30.3797468 46.0304069,29.8523207 46.9997669,29.4303797 C47.4305936,29.2194093 47.7537136,29.3248945 48.1845402,29.535865 C48.7230735,29.9578059 49.1539002,30.3797468 49.5847269,30.8016878 C49.6924335,30.907173 49.8001402,31.0126582 49.8001402,31.0126582 C49.8001402,31.0126582 49.8001402,31.1181435 49.6924335,31.2236287 C49.4770202,31.4345992 49.3693135,31.6455696 49.1539002,31.9620253 L47.6460069,34.2827004 C45.0610469,37.4472574 42.5837937,40.7172996 39.9988337,43.8818565 C39.891127,44.092827 39.6757137,44.1983122 39.4603004,44.3037975 C39.1371804,44.5147679 38.9217671,44.5147679 38.9217671,44.5147679 C38.1678204,44.3037975 37.7369937,43.8818565 37.4138737,43.2489451 C37.1984604,42.6160338 37.0907538,41.8776371 37.3061671,41.0337553 L37.5215804,40.0843882 C37.7369937,39.1350211 38.0601137,38.185654 38.2755271,37.2362869 C38.3832337,36.9198312 38.3832337,36.1814346 37.7369937,35.6540084 C35.0443271,33.649789 32.3516605,31.6455696 29.7667006,29.6413502 L26.6432073,27.3206751 C26.5355006,27.3206751 26.5355006,27.2151899 26.4277939,27.1097046 L25.458434,26.4767932 L24.489074,27.9535865 L23.9505407,28.9029536 C23.196594,30.1687764 22.4426474,31.4345992 21.904114,32.8059072 L17.1650208,45.2531646 C16.9496075,45.9915612 16.6264875,46.6244726 16.3033675,47.3628692 C16.0879541,47.8902954 15.8725408,47.9957806 15.2263008,47.7848101 C15.0108875,47.6793249 14.6877675,47.5738397 14.4723542,47.4683544 C13.2875809,46.9409283 12.6413409,46.2025316 12.4259275,45.2531646 C12.2105142,44.6202532 12.2105142,43.8818565 12.3182209,42.8270042 L14.9031808,24.3670886 C15.1185942,22.8902954 15.3340075,21.3080169 15.5494208,19.8312236 C15.7648341,18.3544304 15.2263008,17.0886076 14.0415275,16.2447257 L11.7796876,14.3459916 C10.0563809,12.8691983 8.22536762,11.3924051 6.50206098,9.91561181 C5.20958101,8.86075949 4.34792769,7.80590717 3.59398104,6.75105485 C3.05544771,5.80168776 2.40920772,4.95780591 2.1937944,3.90295359 C1.97838107,3.27004219 2.1937944,2.6371308 2.62462105,2.32067511 C3.05544771,2.21518987 3.48627437,2.10970464 4.02480769,2.21518987 Z" id="Shape"></path>
                </g>
            </g>
        </g>
    </g>
</svg>
