<?xml version="1.0" encoding="UTF-8"?>
<svg viewBox="0 0 121 121" version="1.1" xmlns="http://www.w3.org/2000/svg" xmlns:xlink="http://www.w3.org/1999/xlink">
    <!-- Generator: Sketch 58 (84663) - https://sketch.com -->
    <title>Airport</title>
    <desc>Created with Sketch.</desc>
    <g id="App" stroke="none" stroke-width="1" fill="none" fill-rule="evenodd">
        <g id="Room-Welcome" transform="translate(-127.000000, -588.000000)">
            <g id="Airport" transform="translate(127.000000, 588.000000)">
                <path d="M10.5615454,82 C16.8115454,73.25 94.8499764,74.0220505 101.5,80.6912842 C108.150024,87.3605179 120.235496,94.0888985 113.196568,109.769378 C106.157639,125.449857 46.0616927,121.267368 29.6225411,114.728716 C13.1833896,108.190063 4.31154542,90.75 10.5615454,82 Z" id="Rectangle" fill="#DFF3FA"></path>
                <g id="noun_Airport_1845763" fill="#000000" fill-rule="nonzero">
                    <path d="M119.488423,18.0768861 L92.1538185,18.0768861 L92.1538185,14.7711541 C95.5439811,14.0698319 98.1004879,11.0596948 98.1004879,7.46279918 C98.1004879,3.34773559 94.7547944,0 90.642241,0 C86.5296877,0 83.1839942,3.34773559 83.1839942,7.46279902 C83.1839942,11.0596946 85.7405012,14.0698318 89.1306636,14.771154 L89.1306636,18.0768859 L62.1739538,18.0768859 C61.3391911,18.0768859 60.6623764,18.7541137 60.6623764,19.5893859 L60.6623764,27.6518676 C60.6623764,28.4871398 61.3391911,29.1643676 62.1739538,29.1643676 L63.4194552,29.1643676 L67.8128461,60.1359069 C67.9191288,60.8818176 68.5568256,61.4357116 69.309662,61.4357116 L84.7568317,61.4357116 L84.7568317,69.6038024 L1.51157741,69.6038024 C0.676814679,69.6038024 0,70.2810302 0,71.1163024 L0,79.1787841 C0,80.0140563 0.676814679,80.6912841 1.51157741,80.6912841 L3.33831281,80.6912841 L3.33831281,119.4875 C3.33831281,120.322772 4.01512749,121 4.84989021,121 L116.139777,121 C116.97454,121 117.651354,120.322772 117.651354,119.4875 L117.651354,80.6912842 L119.477351,80.6912842 C120.312114,80.6912842 120.988929,80.0140564 120.988929,79.1787842 L120.988929,71.1163025 C120.988929,70.2810303 120.312114,69.6038025 119.477351,69.6038025 L96.5763632,69.6038025 L96.5763632,61.4357118 L112.352714,61.4357118 C113.105551,61.4357118 113.743248,60.8818178 113.84953,60.1359071 L118.242921,29.1643677 L119.488423,29.1643677 C120.323185,29.1643677 121,28.48714 121,27.6518677 L121,19.5893861 C121,18.7541138 120.323185,18.0768861 119.488423,18.0768861 Z M86.207149,7.46279903 C86.207149,5.01606438 88.1969989,3.025 90.642241,3.025 C93.0874832,3.025 95.0773331,5.01606438 95.0773331,7.46279903 C95.0773331,9.91027223 93.0874832,11.9013366 90.642241,11.9013366 C88.1969989,11.9013366 86.207149,9.91027223 86.207149,7.46279903 Z M63.6855313,21.1018861 L117.976845,21.1018861 L117.976845,26.1393677 L63.6855313,26.1393677 L63.6855313,21.1018861 Z M83.2932292,58.4107118 L83.2932292,29.1643677 L98.0879408,29.1643677 L98.0879408,58.4107118 L83.2932292,58.4107118 L83.2932292,58.4107118 Z M66.4734248,29.1643677 L80.2700744,29.1643677 L80.2700744,58.4107118 L70.6219592,58.4107118 L66.4734248,29.1643677 Z M6.36146762,80.6912842 L39.7614791,80.6912842 C39.7594494,80.7230408 39.7431195,80.7499046 39.7431195,80.7821228 L39.7431195,117.975 L6.36146762,117.975 L6.36146762,80.6912842 Z M78.2233927,117.975 L42.7662742,117.975 L42.7662742,80.7821228 C42.7662742,80.7499046 42.7499443,80.7230408 42.7479145,80.6912842 L78.2417522,80.6912842 C78.2397224,80.7230408 78.2233925,80.7499046 78.2233925,80.7821228 L78.2233925,117.975 L78.2233927,117.975 Z M114.628199,117.975 L81.2465475,117.975 L81.2465475,80.7821228 C81.2465475,80.7499046 81.2302176,80.7230408 81.2281879,80.6912842 L114.628199,80.6912842 L114.628199,117.975 Z M117.965774,77.6662842 L3.02315481,77.6662842 L3.02315481,72.6288025 L117.965774,72.6288025 L117.965774,77.6662842 L117.965774,77.6662842 Z M93.5532084,69.6038025 L87.7799865,69.6038025 L87.7799865,61.4357118 L93.5532084,61.4357118 L93.5532084,69.6038025 Z M111.040417,58.4107116 L101.111095,58.4107116 L101.111095,29.1643677 L115.188952,29.1643677 L111.040417,58.4107116 Z" id="Shape"></path>
                    <path d="M97.4519963,101.366368 C96.8493346,101.96903 96.8493346,102.945342 97.4519963,103.548004 C97.7533272,103.849334 98.1480707,104 98.542814,104 C98.9375574,104 99.332301,103.849335 99.6336318,103.548004 L105.548004,97.6336318 C106.150665,97.0309701 106.150665,96.0546581 105.548004,95.4519963 C104.945342,94.8493346 103.96903,94.8493346 103.366368,95.4519963 L97.4519963,101.366368 Z" id="Path"></path>
                    <path d="M91.5789474,101 C91.982936,101 92.3869245,100.845806 92.6953125,100.537418 L104.537418,88.6953125 C105.154194,88.0785362 105.154194,87.0793585 104.537418,86.4625822 C103.920641,85.8458059 102.921464,85.8458059 102.304688,86.4625822 L90.4625822,98.3046874 C89.8458059,98.9214637 89.8458059,99.9206414 90.4625822,100.537418 C90.7709706,100.845806 91.1749589,101 91.5789474,101 Z" id="Path"></path>
                </g>
            </g>
        </g>
    </g>
</svg>
