<?xml version="1.0" encoding="UTF-8"?>
<svg viewBox="0 0 50 49" version="1.1" xmlns="http://www.w3.org/2000/svg" xmlns:xlink="http://www.w3.org/1999/xlink">
    <!-- Generator: Sketch 58 (84663) - https://sketch.com -->
    <title>Airplane2</title>
    <desc>Created with Sketch.</desc>
    <g id="App" stroke="none" stroke-width="1" fill="none" fill-rule="evenodd">
        <g id="Room-Welcome" transform="translate(-112.000000, -557.000000)">
            <g id="Airplane2" transform="translate(112.000000, 554.000000)">
                <path d="M7.61184546,19.7682962 C12.2644566,17.001259 50.0602558,14.3372403 54.6322232,18.6006689 C59.2041907,22.8640976 56.59966,26.9569924 53.1481612,29.7945191 C49.6966623,32.6320458 14.7530637,35.9966834 6.38506973,34.728413 C-1.98292425,33.4601426 2.95923435,22.5353335 7.61184546,19.7682962 Z" id="Grey-Left" fill="#E5CBC0" transform="translate(29.471910, 25.685325) rotate(-43.000000) translate(-29.471910, -25.685325) "></path>
                <path d="M17.0427462,26.5517437 C15.3956594,28.6675739 13.7145937,30.5960308 12.0329318,32.2978555 L6.99867625,30.4152008 C5.68243752,29.9238666 4.18974655,30.2462675 3.19601008,31.2378585 L0.403771719,34.0240684 C0.1498235,34.2768735 0.0204649305,34.6290162 0.0502709849,34.9859176 C0.0800770394,35.342819 0.264875065,35.668194 0.556975254,35.8763864 L9.65619085,42.3654479 L16.1551196,51.4408545 C16.3637625,51.7317291 16.6898416,51.916723 17.0475151,51.9464648 C17.4087654,51.9738272 17.7580932,51.8471272 18.0114454,51.5937273 L20.8054721,48.8057329 C21.8027852,47.810573 22.1246914,46.3175356 21.6251407,45.0011644 L19.7282786,40.0003816 C21.9899678,37.7715327 24.2349655,35.9596634 25.4939764,34.9746156 L37.2048053,51.4854672 C37.4128521,51.7787212 37.7395273,51.9654996 38.0983931,51.9958361 C38.1329682,51.9988103 38.1669471,52 38.2015223,52 C38.5240247,52 38.8352007,51.8727052 39.0647078,51.6430986 L41.8098525,48.9038806 C43.0348845,47.6820883 43.479592,45.895797 42.9752722,44.2588095 L36.7648667,22.9987906 C38.2623267,21.5122965 39.3103103,20.4457562 40.3666396,19.3714831 C41.2739382,18.4482983 42.186602,17.5191651 43.3979231,16.311054 C44.6843557,15.0279936 45.5290615,13.4034976 45.8420258,11.6124477 L45.9314442,11.0996994 C46.1806235,9.66674054 45.7436656,8.2653078 44.7326416,7.25349246 C43.7395013,6.26011701 42.3755728,5.8276715 40.9824343,6.06263157 L40.4256558,6.15780526 C38.6194042,6.46711971 36.9812592,7.31357085 35.6876732,8.60495893 C34.3118222,9.97902916 33.3121245,10.9979825 32.2766596,12.0532208 C31.3365743,13.011501 30.3660866,14.0001177 29.0546168,15.3152993 C26.386372,14.6496782 16.2636138,11.6659829 7.75515572,9.10521574 C6.10926122,8.60971767 4.32864296,9.05703404 3.11195662,10.2722832 L0.357870102,13.0204236 C0.103325737,13.2744184 -0.0260328319,13.627156 0.00436936805,13.9846521 C0.034771568,14.3427431 0.221954176,14.668713 0.515842557,14.8757158 L17.0427462,26.5517437 Z M4.83832783,11.994927 C5.41954736,11.4155572 6.26663765,11.2014163 7.05053883,11.438161 C13.8296452,13.4784471 26.0203527,17.1015907 28.7064811,17.7386596 C29.4045407,17.9052136 30.1216762,17.6994004 30.6283805,17.1914108 C32.0256919,15.7911677 33.0396965,14.7579383 34.0215105,13.7580197 C35.0516104,12.7081349 36.046539,11.694535 37.4152366,10.3270081 C38.3493607,9.39430585 39.5332602,8.7828149 40.8381726,8.55975151 L41.3949511,8.46457782 C41.9892854,8.36286092 42.5776584,8.54725997 43.0038861,8.97435188 C43.4474012,9.41750436 43.6375644,10.0402973 43.5254934,10.6821249 L43.436075,11.1948731 C43.2107406,12.4880457 42.6003111,13.6610615 41.671552,14.5878153 C40.4536735,15.8030644 39.5356447,16.7369563 38.6235771,17.6648998 C37.5481719,18.7588024 36.4805163,19.8449723 34.932982,21.3808378 C34.3523587,21.9578283 34.1592148,22.6204751 34.359512,23.47109 L40.6360871,44.9571464 C40.8793052,45.7464932 40.6676816,46.5982978 40.0834814,47.1806418 L38.3618794,48.8991218 L26.7464302,32.5227031 C26.5485174,32.2443201 26.2301879,32.0730074 25.8915904,32.0295843 C25.8433044,32.023636 25.7944224,32.0206618 25.7461365,32.0206618 C25.4534403,32.0206618 25.1601479,32.1301116 24.9360059,32.3186745 C24.8853354,32.3615026 24.7690915,32.4501332 24.5986004,32.5821866 C23.5345216,33.4048443 20.7083043,35.5896754 17.8665877,38.4115754 C17.3777672,38.8963663 17.1470677,39.592324 17.2501969,40.2728159 C17.2633116,40.3578774 17.284772,40.4417492 17.3157704,40.5220519 L19.3419912,45.8636755 C19.5017521,46.285414 19.3986228,46.7642566 19.0791011,47.0830885 L17.3038479,48.854509 L11.5244392,40.7837797 C11.4463472,40.6749247 11.3503714,40.5791562 11.241281,40.5012328 L3.14891642,34.7301378 L4.92238117,32.960502 C5.24130681,32.6422649 5.71939707,32.5375738 6.14145198,32.6969898 L11.5733213,34.7283534 C11.6537979,34.7580952 11.737255,34.7795093 11.8219045,34.7925957 C12.4609479,34.8830107 13.1131061,34.6706543 13.5667553,34.2150103 C15.5953606,32.1830519 17.6227736,29.8358306 19.5911705,27.2393733 L19.7032414,27.0900698 C19.9303642,26.8301267 20.0364739,26.4869065 19.9959376,26.1448761 C19.9548052,25.8022508 19.7706033,25.4935311 19.4886373,25.294856 L3.10778396,13.7217348 L4.83832783,11.994927 Z" id="Shape" fill="#000000" fill-rule="nonzero"></path>
            </g>
        </g>
    </g>
</svg>
