<?xml version="1.0" encoding="UTF-8"?>
<svg width="33px" height="21px" viewBox="0 0 33 21" version="1.1" xmlns="http://www.w3.org/2000/svg" xmlns:xlink="http://www.w3.org/1999/xlink">
    <!-- Generator: Sketch 58 (84663) - https://sketch.com -->
    <title>Cloud5</title>
    <desc>Created with Sketch.</desc>
    <g id="App" stroke="none" stroke-width="1" fill="none" fill-rule="evenodd">
        <g id="Room-Welcome" transform="translate(-249.000000, -519.000000)">
            <g id="Cloud5" transform="translate(248.000000, 516.000000)">
                <path d="M5.60500822,11.9351905 C8.98219044,11.1255003 29.9905183,8.90492251 32.5975222,10.9194512 C35.2045262,12.93398 33.7269488,18.1887623 31.7455817,20.6571762 C29.7642146,23.12559 12.707154,22.3163092 7.90342408,21.2130187 C3.09969417,20.1097282 2.227826,12.7448808 5.60500822,11.9351905 Z" id="Grey-Left" fill="#E7E8EA" transform="translate(18.784072, 16.186734) rotate(-5.000000) translate(-18.784072, -16.186734) "></path>
                <path d="M8.4,23.2 C9.9,23.2 11.2,22.7 12.4,21.8 C13.9,22.7 15.7,23.2 17.5,23.2 C20.5,23.2 23.3,21.9 25.2,19.6 C25.6,19.7 26,19.7 26.5,19.7 C30.1,19.7 33.1,16.8 33.1,13.1 C33.1,9.4 30.2,6.5 26.5,6.5 C26.1,6.5 25.6,6.5 25.2,6.6 C23.3,4.3 20.5,3 17.5,3 C13,3 9.1,6 7.8,10.3 C4.5,10.6 2,13.4 2,16.7 C2,20.3 4.9,23.2 8.4,23.2 Z M8.4,12.4 C8.4,12.4 8.5,12.4 8.5,12.4 C9,12.4 9.4,12.1 9.5,11.6 C10.2,7.9 13.6,5.1 17.4,5.1 C20,5.1 22.4,6.3 23.9,8.4 C24.2,8.8 24.6,8.9 25,8.8 C25.5,8.7 25.9,8.6 26.4,8.6 C28.9,8.6 31,10.6 31,13.2 C31,15.8 29,17.7 26.5,17.7 C26,17.7 25.5,17.6 25.1,17.5 C24.7,17.4 24.2,17.5 24,17.9 C22.5,20 20.1,21.2 17.5,21.2 C15.8,21.2 14.3,20.7 12.9,19.7 C12.7,19.6 12.5,19.5 12.3,19.5 C12,19.5 11.8,19.6 11.6,19.8 C10.8,20.7 9.6,21.1 8.4,21.1 C6,21.1 4,19.1 4,16.7 C4,14.3 6,12.4 8.4,12.4 Z" id="Shape" fill="#000000" fill-rule="nonzero" transform="translate(17.550000, 13.100000) rotate(9.000000) translate(-17.550000, -13.100000) "></path>
            </g>
        </g>
    </g>
</svg>