<?xml version="1.0" encoding="UTF-8"?>
<svg width="35px" height="21px" viewBox="0 0 35 21" version="1.1" xmlns="http://www.w3.org/2000/svg" xmlns:xlink="http://www.w3.org/1999/xlink">
    <!-- Generator: Sketch 58 (84663) - https://sketch.com -->
    <title>Cloud4</title>
    <desc>Created with Sketch.</desc>
    <g id="App" stroke="none" stroke-width="1" fill="none" fill-rule="evenodd">
        <g id="Room-Welcome" transform="translate(-283.000000, -515.000000)">
            <g id="Cloud4" transform="translate(282.623881, 513.000000)">
                <path d="M2.35830684,10.7160026 C4.56956647,7.68004323 29.979304,8.01899399 32.586308,10.0335227 C35.193312,12.0480515 33.7157346,17.3028338 31.7343675,19.7712477 C29.7530003,22.2396615 9.9502253,19.6719454 5.1464954,18.5686549 C0.342765493,17.4653644 0.147047207,13.7519619 2.35830684,10.7160026 Z" id="Grey-Left" fill="#E7E8EA" transform="translate(17.492723, 14.643729) scale(-1, 1) rotate(-5.000000) translate(-17.492723, -14.643729) "></path>
                <path d="M9.97611936,18.6 C10.3761194,18.6 10.8761194,18.6 11.2761194,18.5 C13.1761194,20.8 15.9761194,22.1 18.9761194,22.1 C20.7761194,22.1 22.4761194,21.6 24.0761194,20.7 C25.1761194,21.6 26.5761194,22.1 28.0761194,22.1 C31.5761194,22.1 34.4761194,19.2 34.4761194,15.7 C34.4761194,12.4 31.8761194,9.6 28.6761194,9.3 C27.4761194,5 23.4761194,2 18.9761194,2 C15.9761194,2 13.1761194,3.3 11.2761194,5.6 C10.8761194,5.5 10.3761194,5.5 9.97611936,5.5 C6.37611936,5.5 3.37611936,8.4 3.37611936,12.1 C3.37611936,15.8 6.37611936,18.6 9.97611936,18.6 Z M9.97611936,7.5 C10.4761194,7.5 10.9761194,7.6 11.3761194,7.7 C11.7761194,7.8 12.2761194,7.7 12.4761194,7.3 C13.9761194,5.2 16.3761194,4 18.9761194,4 C22.7761194,4 26.0761194,6.7 26.8761194,10.5 C26.9761194,11 27.3761194,11.3 27.8761194,11.3 C27.8761194,11.3 27.9761194,11.3 27.9761194,11.3 C30.4761194,11.3 32.3761194,13.3 32.3761194,15.7 C32.3761194,18.1 30.3761194,20.1 27.9761194,20.1 C26.7761194,20.1 25.6761194,19.6 24.7761194,18.8 C24.5761194,18.6 24.2761194,18.5 24.0761194,18.5 C23.8761194,18.5 23.6761194,18.6 23.4761194,18.7 C22.0761194,19.6 20.4761194,20.2 18.8761194,20.2 C16.2761194,20.2 13.8761194,19 12.3761194,16.9 C12.0761194,16.5 11.6761194,16.4 11.2761194,16.5 C10.7761194,16.6 10.3761194,16.7 9.87611936,16.7 C7.37611936,16.7 5.27611936,14.7 5.27611936,12.1 C5.27611936,9.5 7.47611936,7.5 9.97611936,7.5 Z" id="Shape" fill="#000000" fill-rule="nonzero" transform="translate(18.926119, 12.050000) rotate(-4.000000) translate(-18.926119, -12.050000) "></path>
            </g>
        </g>
    </g>
</svg>