<?xml version="1.0" encoding="UTF-8"?>
<svg width="36px" height="21px" viewBox="0 0 36 21" version="1.1" xmlns="http://www.w3.org/2000/svg" xmlns:xlink="http://www.w3.org/1999/xlink">
    <!-- Generator: Sketch 58 (84663) - https://sketch.com -->
    <title>Cloud2</title>
    <desc>Created with Sketch.</desc>
    <g id="App" stroke="none" stroke-width="1" fill="none" fill-rule="evenodd">
        <g id="Room-Welcome" transform="translate(-118.000000, -133.000000)">
            <g id="Cloud2" transform="translate(117.000000, 131.000000)">
                <path d="M4.98218748,11.7160026 C7.19344712,8.68004323 32.6031847,9.01899399 35.2101887,11.0335227 C37.8171926,13.0480515 36.3396152,18.3028338 34.3582481,20.7712477 C32.376881,23.2396615 12.5741059,20.6719454 7.77037604,19.5686549 C2.96664614,18.4653644 2.77092785,14.7519619 4.98218748,11.7160026 Z" id="Grey-Left" fill="#E7E8EA" transform="translate(20.116603, 15.643729) scale(-1, 1) rotate(-5.000000) translate(-20.116603, -15.643729) "></path>
                <path d="M8.4,22.2 C9.9,22.2 11.2,21.7 12.4,20.8 C13.9,21.7 15.7,22.2 17.5,22.2 C20.5,22.2 23.3,20.9 25.2,18.6 C25.6,18.7 26,18.7 26.5,18.7 C30.1,18.7 33.1,15.8 33.1,12.1 C33.1,8.4 30.2,5.5 26.5,5.5 C26.1,5.5 25.6,5.5 25.2,5.6 C23.3,3.3 20.5,2 17.5,2 C13,2 9.1,5 7.8,9.3 C4.5,9.6 2,12.4 2,15.7 C2,19.3 4.9,22.2 8.4,22.2 Z M8.4,11.4 C8.4,11.4 8.5,11.4 8.5,11.4 C9,11.4 9.4,11.1 9.5,10.6 C10.2,6.9 13.6,4.1 17.4,4.1 C20,4.1 22.4,5.3 23.9,7.4 C24.2,7.8 24.6,7.9 25,7.8 C25.5,7.7 25.9,7.6 26.4,7.6 C28.9,7.6 31,9.6 31,12.2 C31,14.8 29,16.7 26.5,16.7 C26,16.7 25.5,16.6 25.1,16.5 C24.7,16.4 24.2,16.5 24,16.9 C22.5,19 20.1,20.2 17.5,20.2 C15.8,20.2 14.3,19.7 12.9,18.7 C12.7,18.6 12.5,18.5 12.3,18.5 C12,18.5 11.8,18.6 11.6,18.8 C10.8,19.7 9.6,20.1 8.4,20.1 C6,20.1 4,18.1 4,15.7 C4,13.3 6,11.4 8.4,11.4 Z" id="Shape" fill="#000000" fill-rule="nonzero" transform="translate(17.550000, 12.100000) rotate(7.000000) translate(-17.550000, -12.100000) "></path>
            </g>
        </g>
    </g>
</svg>