<?xml version="1.0" encoding="UTF-8"?>
<svg viewBox="0 0 32 22" version="1.1" xmlns="http://www.w3.org/2000/svg" xmlns:xlink="http://www.w3.org/1999/xlink">
    <!-- Generator: Sketch 58 (84663) - https://sketch.com -->
    <title>Cloud3</title>
    <desc>Created with Sketch.</desc>
    <g id="App" stroke="none" stroke-width="1" fill="none" fill-rule="evenodd">
        <g id="Room-Welcome" transform="translate(-203.000000, -520.000000)">
            <g id="Cloud3" transform="translate(203.000000, 520.000000)">
                <path d="M3.95408538,11.8026537 C7.33126761,10.9929635 27.7505061,9.78812496 30.35751,11.8026537 C32.964514,13.8171824 31.8925929,17.2530493 29.3778185,19.0295113 C26.8630442,20.8059733 8.75781529,21.1806229 3.95408538,20.0773324 C-0.849644522,18.9740419 0.576903161,12.6123439 3.95408538,11.8026537 Z" id="Grey-Left" fill="#E7E8EA" transform="translate(16.363266, 15.699059) rotate(-5.000000) translate(-16.363266, -15.699059) "></path>
                <path d="M6.4,20.2 C7.9,20.2 9.2,19.7 10.4,18.8 C11.9,19.7 13.7,20.2 15.5,20.2 C18.5,20.2 21.3,18.9 23.2,16.6 C23.6,16.7 24,16.7 24.5,16.7 C28.1,16.7 31.1,13.8 31.1,10.1 C31.1,6.4 28.2,3.5 24.5,3.5 C24.1,3.5 23.6,3.5 23.2,3.6 C21.3,1.3 18.5,-9.05941988e-14 15.5,-9.05941988e-14 C11,-9.05941988e-14 7.1,3 5.8,7.3 C2.5,7.6 1.81188398e-13,10.4 1.81188398e-13,13.7 C1.81188398e-13,17.3 2.9,20.2 6.4,20.2 Z M6.4,9.4 C6.4,9.4 6.5,9.4 6.5,9.4 C7,9.4 7.4,9.1 7.5,8.6 C8.2,4.9 11.6,2.1 15.4,2.1 C18,2.1 20.4,3.3 21.9,5.4 C22.2,5.8 22.6,5.9 23,5.8 C23.5,5.7 23.9,5.6 24.4,5.6 C26.9,5.6 29,7.6 29,10.2 C29,12.8 27,14.7 24.5,14.7 C24,14.7 23.5,14.6 23.1,14.5 C22.7,14.4 22.2,14.5 22,14.9 C20.5,17 18.1,18.2 15.5,18.2 C13.8,18.2 12.3,17.7 10.9,16.7 C10.7,16.6 10.5,16.5 10.3,16.5 C10,16.5 9.8,16.6 9.6,16.8 C8.8,17.7 7.6,18.1 6.4,18.1 C4,18.1 2,16.1 2,13.7 C2,11.3 4,9.4 6.4,9.4 Z" id="Shape" fill="#000000" fill-rule="nonzero"></path>
            </g>
        </g>
    </g>
</svg>
