<?xml version="1.0" encoding="UTF-8"?>
<svg width="34px" height="22px" viewBox="0 0 34 22" version="1.1" xmlns="http://www.w3.org/2000/svg" xmlns:xlink="http://www.w3.org/1999/xlink">
    <!-- Generator: Sketch 58 (84663) - https://sketch.com -->
    <title>Cloud1</title>
    <desc>Created with Sketch.</desc>
    <g id="App" stroke="none" stroke-width="1" fill="none" fill-rule="evenodd">
        <g id="Room-Welcome" transform="translate(-190.000000, -143.000000)">
            <g id="Cloud1" transform="translate(189.623881, 141.000000)">
                <path d="M2.35830684,13.7160026 C4.56956647,10.6800432 29.979304,11.018994 32.586308,13.0335227 C35.193312,15.0480515 33.7157346,20.3028338 31.7343675,22.7712477 C29.7530003,25.2396615 9.9502253,22.6719454 5.1464954,21.5686549 C0.342765493,20.4653644 0.147047207,16.7519619 2.35830684,13.7160026 Z" id="Grey-Left" fill="#E7E8EA" transform="translate(17.492723, 17.643729) scale(-1, 1) rotate(-5.000000) translate(-17.492723, -17.643729) "></path>
                <path d="M7.97611936,18.6 C8.37611936,18.6 8.87611936,18.6 9.27611936,18.5 C11.1761194,20.8 13.9761194,22.1 16.9761194,22.1 C18.7761194,22.1 20.4761194,21.6 22.0761194,20.7 C23.1761194,21.6 24.5761194,22.1 26.0761194,22.1 C29.5761194,22.1 32.4761194,19.2 32.4761194,15.7 C32.4761194,12.4 29.8761194,9.6 26.6761194,9.3 C25.4761194,5 21.4761194,2 16.9761194,2 C13.9761194,2 11.1761194,3.3 9.27611936,5.6 C8.87611936,5.5 8.37611936,5.5 7.97611936,5.5 C4.37611936,5.5 1.37611936,8.4 1.37611936,12.1 C1.37611936,15.8 4.37611936,18.6 7.97611936,18.6 Z M7.97611936,7.5 C8.47611936,7.5 8.97611936,7.6 9.37611936,7.7 C9.77611936,7.8 10.2761194,7.7 10.4761194,7.3 C11.9761194,5.2 14.3761194,4 16.9761194,4 C20.7761194,4 24.0761194,6.7 24.8761194,10.5 C24.9761194,11 25.3761194,11.3 25.8761194,11.3 C25.8761194,11.3 25.9761194,11.3 25.9761194,11.3 C28.4761194,11.3 30.3761194,13.3 30.3761194,15.7 C30.3761194,18.1 28.3761194,20.1 25.9761194,20.1 C24.7761194,20.1 23.6761194,19.6 22.7761194,18.8 C22.5761194,18.6 22.2761194,18.5 22.0761194,18.5 C21.8761194,18.5 21.6761194,18.6 21.4761194,18.7 C20.0761194,19.6 18.4761194,20.2 16.8761194,20.2 C14.2761194,20.2 11.8761194,19 10.3761194,16.9 C10.0761194,16.5 9.67611936,16.4 9.27611936,16.5 C8.77611936,16.6 8.37611936,16.7 7.87611936,16.7 C5.37611936,16.7 3.27611936,14.7 3.27611936,12.1 C3.27611936,9.5 5.47611936,7.5 7.97611936,7.5 Z" id="Shape" fill="#000000" fill-rule="nonzero" transform="translate(16.926119, 12.050000) rotate(-6.000000) translate(-16.926119, -12.050000) "></path>
            </g>
        </g>
    </g>
</svg>