<?xml version="1.0" encoding="UTF-8"?>
<svg viewBox="0 0 217 117" version="1.1" xmlns="http://www.w3.org/2000/svg" xmlns:xlink="http://www.w3.org/1999/xlink">
    <!-- Generator: Sketch 58 (84663) - https://sketch.com -->
    <title>Icon/Map/Houses</title>
    <desc>Created with Sketch.</desc>
    <g id="App" stroke="none" stroke-width="1" fill="none" fill-rule="evenodd">
        <g id="Room-Welcome" transform="translate(-114.000000, -180.000000)">
            <g id="Icon/Map/Houses" transform="translate(114.078945, 180.000000)">
                <g id="Houses">
                    <g id="House-Right" transform="translate(107.921055, 6.000000)">
                        <path d="M20.0000023,16 C37.8543375,1.24102911 85.1000069,0.0927555856 92.8781355,8.09275559 C100.656264,16.0927556 107.757009,91.4847914 97,103.471903 C86.2429911,115.459014 22.4167382,109.979466 17.0242843,101.058226 C11.6318304,92.1369863 2.14566714,30.7589709 20.0000023,16 Z" id="Rectangle" fill="#F8EBEB"></path>
                        <g id="noun_Hotel_1214335" fill="#000000" fill-rule="nonzero">
                            <path d="M21.3878545,59 L29.6107609,59 C30.3776209,59 31.0000023,58.3945141 31.0000023,57.6454453 L31.0000023,52.3640366 C31.0000023,49.4056891 28.5327113,47 25.5000023,47 C22.4672933,47 20.0000023,49.4056891 20.0000023,52.3640366 L20.0000023,57.6454453 C19.9986154,58.3945141 20.6196053,59 21.3878545,59 Z M22.7770936,52.3640366 C22.7770936,50.899763 23.9982348,49.7091094 25.4986131,49.7091094 C26.9989913,49.7091094 28.2201325,50.899763 28.2201325,52.3640366 L28.2201325,56.2908906 L22.7757044,56.2908906 L22.7757044,52.3640366 L22.7770936,52.3640366 Z" id="Shape"></path>
                            <path d="M37.3878545,59 L45.6107609,59 C46.3776209,59 47.0000023,58.3945141 47.0000023,57.6454453 L47.0000023,52.3640366 C47.0000023,49.4056891 44.5327113,47 41.5000023,47 C38.4672933,47 36.0000023,49.4056891 36.0000023,52.3640366 L36.0000023,57.6454453 C35.9986154,58.3945141 36.6209945,59 37.3878545,59 Z M38.7770936,52.3640366 C38.7770936,50.899763 39.9982348,49.7091094 41.4986131,49.7091094 C42.9989913,49.7091094 44.2201325,50.899763 44.2201325,52.3640366 L44.2201325,56.2908906 L38.7770936,56.2908906 L38.7770936,52.3640366 Z" id="Shape"></path>
                            <path d="M29.6107603,79 C30.3776206,79 31,78.3945824 31,77.6455982 L31,72.3634312 C31,69.4054176 28.5327103,67 25.5,67 C22.4672897,67 20,69.4054176 20,72.3634312 L20,77.6455982 C20,78.3945824 20.6223794,79 21.3892397,79 L29.6107603,79 Z M22.7770902,72.3620767 C22.7770902,70.8979684 23.9982319,69.7074492 25.4986108,69.7074492 C26.9989896,69.7074492 28.2201313,70.8979684 28.2201313,72.3620767 L28.2201313,76.289842 L22.7757009,76.289842 L22.7757009,72.3620767 L22.7770902,72.3620767 Z" id="Shape"></path>
                            <path d="M37.3878545,79 L45.6107609,79 C46.3776209,79 47.0000023,78.3945824 47.0000023,77.6455982 L47.0000023,72.3634312 C47.0000023,69.4054176 44.5327113,67 41.5000023,67 C38.4672933,67 36.0000023,69.4054176 36.0000023,72.3634312 L36.0000023,77.6455982 C35.9986154,78.393228 36.6209945,79 37.3878545,79 Z M38.7770936,72.3620767 C38.7770936,70.8979684 39.9982348,69.7074492 41.4986131,69.7074492 C42.9989913,69.7074492 44.2201325,70.8979684 44.2201325,72.3620767 L44.2201325,76.289842 L38.7770936,76.289842 L38.7770936,72.3620767 Z" id="Shape"></path>
                            <path d="M68.4993055,47 C65.4669782,47 63,49.4056891 63,52.3640366 L63,57.6454453 C63,58.3945141 63.6223008,59 64.3890643,59 L72.6109357,59 C73.3776992,59 74,58.3945141 74,57.6454453 L74,52.3640366 C73.9986109,49.4056891 71.5316328,47 68.4993055,47 Z M71.2204824,56.2908906 L65.7767395,56.2908906 L65.7767395,52.3640366 C65.7767395,50.899763 66.997727,49.7091094 68.4979164,49.7091094 C69.9981058,49.7091094 71.2190933,50.899763 71.2190933,52.3640366 L71.2190933,56.2908906 L71.2204824,56.2908906 Z" id="Shape"></path>
                            <path d="M84.5006945,47 C81.4669782,47 79,49.4056891 79,52.3640366 L79,57.6454453 C79,58.3945141 79.6223008,59 80.3890643,59 L88.6109357,59 C89.3776992,59 90,58.3945141 90,57.6454453 L90,52.3640366 C90,49.4056891 87.5330218,47 84.5006945,47 Z M87.2218714,56.2908906 L81.7781286,56.2908906 L81.7781286,52.3640366 C81.7781286,50.899763 82.9991161,49.7091094 84.5006945,49.7091094 C86.002273,49.7091094 87.2218714,50.899763 87.2218714,52.3640366 L87.2218714,56.2908906 Z" id="Shape"></path>
                            <path d="M21.3878545,41 L29.6107609,41 C30.3776209,41 31.0000023,40.3945141 31.0000023,39.6454453 L31.0000023,34.362682 C31.0000023,31.4056891 28.5327113,29 25.5000023,29 C22.4672933,29 20.0000023,31.4056891 20.0000023,34.362682 L20.0000023,39.6454453 C19.9986154,40.3945141 20.6196053,41 21.3878545,41 Z M22.7770936,34.362682 C22.7770936,32.899763 23.9982348,31.7091094 25.4986131,31.7091094 C26.9989913,31.7091094 28.2201325,32.899763 28.2201325,34.362682 L28.2201325,38.2908906 L22.7757044,38.2908906 L22.7757044,34.362682 L22.7770936,34.362682 Z" id="Shape"></path>
                            <path d="M37.3890643,41 L45.6109357,41 C46.3776992,41 47,40.3945141 47,39.6454453 L47,34.362682 C47,31.4056891 44.5330218,29 41.5006945,29 C38.4683672,29 36,31.4056891 36,34.362682 L36,39.6454453 C36,40.3945141 36.6223008,41 37.3890643,41 Z M38.7781286,34.362682 C38.7781286,32.899763 39.9991161,31.7091094 41.4993055,31.7091094 C42.9994949,31.7091094 44.2204824,32.899763 44.2204824,34.362682 L44.2204824,38.2908906 L38.7781286,38.2908906 L38.7781286,34.362682 Z" id="Shape"></path>
                            <path d="M21.3878545,22 L29.6107609,22 C30.3776209,22 31.0000023,21.3945824 31.0000023,20.6455982 L31.0000023,15.3634312 C31.0000023,12.4054176 28.5327113,10 25.5000023,10 C22.4672933,10 20.0000023,12.4054176 20.0000023,15.3634312 L20.0000023,20.6442438 C19.9986154,21.393228 20.6196053,22 21.3878545,22 Z M22.7770936,15.3634312 C22.7770936,13.8993228 23.9982348,12.7088036 25.4986131,12.7088036 C26.9989913,12.7088036 28.2201325,13.8993228 28.2201325,15.3634312 L28.2201325,19.289842 L22.7757044,19.289842 L22.7757044,15.3634312 L22.7770936,15.3634312 Z" id="Shape"></path>
                            <path d="M37.3878545,22 L45.6107609,22 C46.3776209,22 47.0000023,21.3945824 47.0000023,20.6455982 L47.0000023,15.3634312 C47.0000023,12.4054176 44.5327113,10 41.5000023,10 C38.4672933,10 36.0000023,12.4054176 36.0000023,15.3634312 L36.0000023,20.6442438 C35.9986154,21.393228 36.6209945,22 37.3878545,22 Z M38.7770936,15.3634312 C38.7770936,13.8993228 39.9982348,12.7088036 41.4986131,12.7088036 C42.9989913,12.7088036 44.2201325,13.8993228 44.2201325,15.3634312 L44.2201325,19.289842 L38.7770936,19.289842 L38.7770936,15.3634312 Z" id="Shape"></path>
                            <path d="M64.3878545,22 L72.6107609,22 C73.3776209,22 74.0000023,21.3945824 74.0000023,20.6455982 L74.0000023,15.3634312 C74.0000023,12.4054176 71.5327113,10 68.5000023,10 C65.4672933,10 63.0000023,12.4054176 63.0000023,15.3634312 L63.0000023,20.6442438 C62.9986154,21.393228 63.6209945,22 64.3878545,22 Z M65.7770936,15.3634312 C65.7770936,13.8993228 66.9982348,12.7088036 68.4986131,12.7088036 C69.9989913,12.7088036 71.2201325,13.8993228 71.2201325,15.3634312 L71.2201325,19.289842 L65.7757044,19.289842 L65.7757044,15.3634312 L65.7770936,15.3634312 Z" id="Shape"></path>
                            <path d="M80.3878545,22 L88.6107609,22 C89.3776209,22 90.0000023,21.3945824 90.0000023,20.6455982 L90.0000023,15.3634312 C90.0000023,12.4054176 87.5327113,10 84.5000023,10 C81.4672933,10 79.0000023,12.4054176 79.0000023,15.3634312 L79.0000023,20.6442438 C78.9986154,21.393228 79.6209945,22 80.3878545,22 Z M81.7770936,15.3634312 C81.7770936,13.8993228 82.9982348,12.7088036 84.4986131,12.7088036 C85.9989913,12.7088036 87.2201325,13.8993228 87.2201325,15.3634312 L87.2201325,19.289842 L81.7757044,19.289842 L81.7757044,15.3634312 L81.7770936,15.3634312 Z" id="Shape"></path>
                            <path d="M68.4993055,29 C65.4669782,29 63,31.4056891 63,34.362682 L63,39.6454453 C63,40.3945141 63.6223008,41 64.3890643,41 L72.6109357,41 C73.3776992,41 74,40.3945141 74,39.6454453 L74,34.362682 C73.9986109,31.4056891 71.5316328,29 68.4993055,29 Z M71.2204824,38.2908906 L65.7767395,38.2908906 L65.7767395,34.362682 C65.7767395,32.899763 66.997727,31.7091094 68.4979164,31.7091094 C69.9981058,31.7091094 71.2190933,32.899763 71.2190933,34.362682 L71.2190933,38.2908906 L71.2204824,38.2908906 Z" id="Shape"></path>
                            <path d="M84.5006945,29 C81.4669782,29 79,31.4056891 79,34.362682 L79,39.6454453 C79,40.3945141 79.6223008,41 80.3890643,41 L88.6109357,41 C89.3776992,41 90,40.3945141 90,39.6454453 L90,34.362682 C90,31.4056891 87.5330218,29 84.5006945,29 Z M87.2218714,38.2908906 L81.7781286,38.2908906 L81.7781286,34.362682 C81.7781286,32.899763 82.9991161,31.7091094 84.5006945,31.7091094 C86.002273,31.7091094 87.2218714,32.899763 87.2218714,34.362682 L87.2218714,38.2908906 Z" id="Shape"></path>
                            <path d="M68.4993055,67 C65.4669782,67 63,69.4054176 63,72.3634312 L63,77.6455982 C63,78.3945824 63.6223008,79 64.3890643,79 L72.6109357,79 C73.3776992,79 74,78.3945824 74,77.6455982 L74,72.3634312 C73.9986109,69.406772 71.5316328,67 68.4993055,67 Z M71.2204824,76.2925508 L65.7767395,76.2925508 L65.7767395,72.3647856 C65.7767395,70.9006772 66.997727,69.710158 68.4979164,69.710158 C69.9981058,69.710158 71.2190933,70.9006772 71.2190933,72.3647856 L71.2190933,76.2925508 L71.2204824,76.2925508 Z" id="Shape"></path>
                            <path d="M84.5006945,67 C81.4669782,67 79,69.4054176 79,72.3634312 L79,77.6455982 C79,78.3945824 79.6223008,79 80.3890643,79 L88.6109357,79 C89.3776992,79 90,78.3945824 90,77.6455982 L90,72.3634312 C90,69.406772 87.5330218,67 84.5006945,67 Z M87.2218714,76.2925508 L81.7781286,76.2925508 L81.7781286,72.3647856 C81.7781286,70.9006772 82.9991161,69.710158 84.5006945,69.710158 C86.002273,69.710158 87.2218714,70.9006772 87.2218714,72.3647856 L87.2218714,76.2925508 Z" id="Shape"></path>
                            <path d="M107.6375,106.275 L98.09455,106.275 L98.09455,1.3625 C98.09455,0.6090375 97.48415,0 96.73205,0 L12.1535,0 C11.4014,0 10.791,0.6090375 10.791,1.3625 L10.791,106.275 L1.3625,106.275 C0.6104,106.275 0,106.884038 0,107.6375 C0,108.390963 0.6104,109 1.3625,109 L107.6375,109 C108.3896,109 109,108.390963 109,107.6375 C109,106.884038 108.3896,106.275 107.6375,106.275 Z M95.36955,106.275 L84.4463875,106.275 L84.4463875,96.031725 C84.4463875,91.442825 80.8657375,87.709575 76.4648625,87.709575 C72.0639875,87.709575 68.4833375,91.442825 68.4833375,96.031725 L68.4833375,106.275 L55.859775,106.275 L55.859775,2.725 L95.36955,2.725 L95.36955,106.275 Z M81.7213875,106.275 L71.2083375,106.275 L71.2083375,96.031725 C71.2083375,92.9443 73.5654625,90.434575 76.4648625,90.434575 C79.3642625,90.434575 81.7213875,92.9456625 81.7213875,96.031725 L81.7213875,106.275 Z M13.516,2.725 L53.134775,2.725 L53.134775,106.275 L40.577975,106.275 L40.577975,96.031725 C40.577975,91.442825 36.997325,87.709575 32.59645,87.709575 C28.195575,87.709575 24.614925,91.442825 24.614925,96.031725 L24.614925,106.275 L13.516,106.275 L13.516,2.725 Z M37.8543375,106.275 L27.3412875,106.275 L27.3412875,96.031725 C27.3412875,92.9443 29.6984125,90.434575 32.5978125,90.434575 C35.4972125,90.434575 37.8543375,92.9456625 37.8543375,96.031725 L37.8543375,106.275 L37.8543375,106.275 Z" id="Shape"></path>
                        </g>
                    </g>
                    <g id="House-Left">
                        <path d="M9.31029567,42.9384113 C16.7723926,38.2550298 89.417433,34.5499091 100.921055,44.2908906 C112.424677,54.0318721 113.594476,100.068006 101.903852,108.247183 C90.213228,116.42636 9.46547804,117.137208 2.92105514,107.058226 C-3.62336776,96.9792444 1.84819877,47.6217929 9.31029567,42.9384113 Z" id="Rectangle" fill="#E3E4E0"></path>
                        <g id="noun_Hotel_911585" transform="translate(2.921055, 0.000000)" fill="#000000" fill-rule="nonzero">
                            <path d="M26.5245902,58 L11.4754098,58 C10.5901639,58 10,58.6027397 10,59.5068493 L10,67.4931507 C10,68.3972603 10.5901639,69 11.4754098,69 L26.5245902,69 C27.4098361,69 28,68.3972603 28,67.4931507 L28,59.5068493 C28,58.6027397 27.4098361,58 26.5245902,58 Z M25.0491803,65.9863014 L12.9508197,65.9863014 L12.9508197,61.0136986 L25.0491803,61.0136986 L25.0491803,65.9863014 Z" id="Shape"></path>
                            <path d="M26.5245902,75 L11.4754098,75 C10.5901639,75 10,75.6027397 10,76.5068493 L10,84.4931507 C10,85.3972603 10.5901639,86 11.4754098,86 L26.5245902,86 C27.4098361,86 28,85.3972603 28,84.4931507 L28,76.5068493 C28,75.6027397 27.4098361,75 26.5245902,75 Z M25.0491803,82.9863014 L12.9508197,82.9863014 L12.9508197,78.0136986 L25.0491803,78.0136986 L25.0491803,82.9863014 Z" id="Shape"></path>
                            <path d="M26.5245902,90 L11.4754098,90 C10.5901639,90 10,90.6027397 10,91.5068493 L10,99.4931507 C10,100.39726 10.5901639,101 11.4754098,101 L26.5245902,101 C27.4098361,101 28,100.39726 28,99.4931507 L28,91.5068493 C28,90.7534247 27.4098361,90 26.5245902,90 Z M25.0491803,98.1369863 L12.9508197,98.1369863 L12.9508197,93.1643836 L25.0491803,93.1643836 L25.0491803,98.1369863 Z" id="Shape"></path>
                            <path d="M96.5245902,58 L81.4754098,58 C80.5901639,58 80,58.6027397 80,59.5068493 L80,67.4931507 C80,68.3972603 80.5901639,69 81.4754098,69 L96.5245902,69 C97.4098361,69 98,68.3972603 98,67.4931507 L98,59.5068493 C98,58.6027397 97.4098361,58 96.5245902,58 Z M95.0491803,65.9863014 L82.9508197,65.9863014 L82.9508197,61.0136986 L95.0491803,61.0136986 L95.0491803,65.9863014 Z" id="Shape"></path>
                            <path d="M96.5245902,75 L81.4754098,75 C80.5901639,75 80,75.6027397 80,76.5068493 L80,84.4931507 C80,85.3972603 80.5901639,86 81.4754098,86 L96.5245902,86 C97.4098361,86 98,85.3972603 98,84.4931507 L98,76.5068493 C98,75.6027397 97.4098361,75 96.5245902,75 Z M95.0491803,82.9863014 L82.9508197,82.9863014 L82.9508197,78.0136986 L95.0491803,78.0136986 L95.0491803,82.9863014 Z" id="Shape"></path>
                            <path d="M96.5245902,90 L81.4754098,90 C80.5901639,90 80,90.6027397 80,91.5068493 L80,99.4931507 C80,100.39726 80.5901639,101 81.4754098,101 L96.5245902,101 C97.4098361,101 98,100.39726 98,99.4931507 L98,91.5068493 C98,90.7534247 97.4098361,90 96.5245902,90 Z M95.0491803,98.1369863 L82.9508197,98.1369863 L82.9508197,93.1643836 L95.0491803,93.1643836 L95.0491803,98.1369863 Z" id="Shape"></path>
                            <path d="M63,70.4269663 L63,59.5730337 C63,58.6292135 62.3793103,58 61.4482759,58 L46.5517241,58 C45.6206897,58 45,58.6292135 45,59.5730337 L45,70.4269663 C45,71.3707865 45.6206897,72 46.5517241,72 L61.2931034,72 C62.2241379,72 63,71.2134831 63,70.4269663 Z M59.8965517,68.8539326 L48.1034483,68.8539326 L48.1034483,61.1460674 L59.7413793,61.1460674 L59.7413793,68.8539326 L59.8965517,68.8539326 Z" id="Shape"></path>
                            <path d="M54,40 C59.483871,40 64,35.483871 64,30 C64,24.516129 59.483871,20 54,20 C48.516129,20 44,24.516129 44,30 C44,35.483871 48.3548387,40 54,40 Z M54,23.2258065 C57.7096774,23.2258065 60.7741935,26.2903226 60.7741935,30 C60.7741935,33.7096774 57.7096774,36.7741935 54,36.7741935 C50.2903226,36.7741935 47.2258065,33.7096774 47.2258065,30 C47.2258065,26.2903226 50.1290323,23.2258065 54,23.2258065 Z" id="Shape"></path>
                            <path d="M1.53627312,115 L36.4096728,115 C36.4096728,115 36.4096728,115 36.4096728,115 C36.4096728,115 36.4096728,115 36.4096728,115 L71.2830725,115 C71.2830725,115 71.2830725,115 71.4366999,115 C71.4366999,115 71.4366999,115 71.5903272,115 L106.463727,115 C107.385491,115 108,114.377116 108,113.442789 L108,34.0250508 C108,33.0907244 107.385491,32.4678402 106.463727,32.4678402 L72.8193457,32.4678402 L72.8193457,12.535545 C72.8193457,12.535545 72.8193457,12.379824 72.8193457,12.379824 C72.8193457,12.2241029 72.8193457,12.2241029 72.8193457,12.0683819 C72.8193457,11.9126608 72.8193457,11.9126608 72.6657183,11.7569397 C72.6657183,11.6012187 72.512091,11.6012187 72.512091,11.4454976 C72.512091,11.2897766 72.3584637,11.2897766 72.2048364,11.2897766 C72.2048364,11.2897766 72.2048364,11.1340555 72.0512091,11.1340555 L54.5376956,0.233581584 C54.0768137,-0.0778605281 53.4623044,-0.0778605281 53.0014225,0.233581584 L35.6415363,11.1340555 C35.6415363,11.1340555 35.487909,11.2897766 35.487909,11.2897766 C35.3342817,11.2897766 35.3342817,11.4454976 35.3342817,11.4454976 C35.3342817,11.4454976 35.1806543,11.6012187 35.1806543,11.7569397 C35.1806543,11.9126608 35.027027,11.9126608 35.027027,12.0683819 C35.027027,12.2241029 35.027027,12.2241029 35.027027,12.379824 C35.027027,12.379824 35.027027,12.535545 35.027027,12.535545 L35.027027,32.4678402 L1.53627312,32.4678402 C0.614509246,32.4678402 0,33.0907244 0,34.0250508 L0,113.442789 C0,114.377116 0.614509246,115 1.53627312,115 Z M3.07254623,111.885579 L3.07254623,48.9742722 L34.8733997,48.9742722 L34.8733997,112.0413 L3.07254623,112.0413 L3.07254623,111.885579 Z M59.3001422,103.943805 L48.2389758,103.943805 L48.2389758,84.0115098 L59.3001422,84.0115098 L59.3001422,103.943805 Z M60.8364154,80.8970887 L46.7027027,80.8970887 C45.7809388,80.8970887 45.1664296,81.5199729 45.1664296,82.4542993 L45.1664296,104.099526 L37.9459459,104.099526 L37.9459459,48.9742722 L69.7467994,48.9742722 L69.7467994,104.099526 L62.5263158,104.099526 L62.5263158,82.4542993 C62.3726885,81.5199729 61.7581792,80.8970887 60.8364154,80.8970887 Z M69.7467994,45.859851 L37.9459459,45.859851 L37.9459459,14.0927556 L69.7467994,14.0927556 L69.7467994,45.859851 Z M37.9459459,111.885579 L37.9459459,107.058226 L69.7467994,107.058226 L69.7467994,111.885579 L37.9459459,111.885579 Z M72.972973,111.885579 L72.972973,48.9742722 L104.773826,48.9742722 L104.773826,112.0413 L72.972973,112.0413 L72.972973,111.885579 Z M104.773826,35.5822613 L104.773826,45.859851 L72.972973,45.859851 L72.972973,35.5822613 L104.773826,35.5822613 Z M53.769559,3.50372376 L65.9061166,10.9783345 L41.7866287,10.9783345 L53.769559,3.50372376 Z M34.8733997,35.5822613 L34.8733997,45.859851 L3.07254623,45.859851 L3.07254623,35.5822613 L34.8733997,35.5822613 Z" id="Shape"></path>
                        </g>
                    </g>
                </g>
            </g>
        </g>
    </g>
</svg>
