<?xml version="1.0" encoding="UTF-8"?>
<svg viewBox="0 0 95 235" version="1.1" xmlns="http://www.w3.org/2000/svg" xmlns:xlink="http://www.w3.org/1999/xlink">
    <!-- Generator: Sketch 58 (84663) - https://sketch.com -->
    <title>Reto</title>
    <desc>Created with Sketch.</desc>
    <g id="Symbols" stroke="none" stroke-width="1" fill="none" fill-rule="evenodd">
        <g id="Icon/Avatar/Reto" transform="translate(-1.000000, -10.000000)">
            <g id="Reto" transform="translate(1.000000, 10.000000)">
                <polygon id="Path-33" fill="#FFFFFF" points="6.55272372 114.453094 7.83471239 143.533995 16 114.453094"></polygon>
                <polygon id="Path-33" fill="#FFFFFF" transform="translate(84.276362, 128.993545) scale(-1, 1) translate(-84.276362, -128.993545) " points="79.5527237 114.453094 80.8347124 143.533995 89 114.453094"></polygon>
                <polygon id="Path-16" fill="#92AA83" points="17 224 20.0571502 231.062436 27.2622616 231.062436 31.2671664 224"></polygon>
                <polygon id="Path-16" fill="#92AA83" points="63 224 66.0571502 231.062436 73.2622616 231.062436 77.2671664 224"></polygon>
                <polygon id="Path-15" fill="#FFFFFF" points="18 212 18 221.511444 32.2671664 221.511444 32.2671664 212"></polygon>
                <polygon id="Path-15" fill="#FFFFFF" points="64 212 64 221.511444 78.2671664 221.511444 78.2671664 212"></polygon>
                <polygon id="Path-32" fill="#94B4E1" points="10.4333347 149.806947 9.16929325 182.726735 11.8854224 211.57088 36.2985642 211.57088 47.4999992 170.830478 59.3656984 211.57088 82.4756094 211.57088 86.877826 180.642214 84.6767177 149.806947"></polygon>
                <polygon id="Path-31" fill="#AEC6CF" points="29.717004 88.0702982 16 88.8096593 4.67114786 100.269756 3.65452639 113 14.8795735 113 11.2329773 136.775709 10.4333347 149.806947 84.6767177 149.806947 79.6238761 113.578255 91.6384934 113 90.8991324 101.656058 84.6767177 93.2458257 76.111911 88.0702982 65.2987554 88.0702982 62.1593798 97.4971518 55.8719018 104.798342 45.0643858 105.528347 33.7834899 100.269756"></polygon>
                <polygon id="Path-14" fill="#FFFFFF" points="13 33.8489293 13.620601 47.0439473 20.1369117 61.775975 38.5368119 71.6021577 38.5368119 87.3240501 30.2733949 87.3240501 33.5975399 98.8051689 45.0643858 105.528347 56.1317705 103.25281 65.2339188 95.3918633 65.8545198 87.3240501 57.5368119 87.3240501 57.5368119 72.7399263 70.4055939 65.4995811 82.0935797 50.5439473 83.5416487 35.9175994 79.9214761 20.2991405 76.1544574 16 70.4055939 26.8154512 57.5368119 33.8489293 57.5368119 19.6785395 50.3221862 29.4454531 38.5368119 34.6787192"></polygon>
                <polygon id="Path-30" fill="#C2A79B" points="46.6060179 2.54636816 31.1066552 6.65303692 14.8795735 23.2121851 11.8980433 35.1347718 41 34.3399327 49.7853744 29.9015058 55.7466677 21.3396983 57 34.3399327 65.5496835 31.6518661 75.6176456 16.4560527 60 4.79841232"></polygon>
                <g id="noun_boy_1080129" fill="#000000" fill-rule="nonzero">
                    <path d="M76.3617835,144 L18.9794665,144 C17.3339526,144 16,142.656854 16,141 C16,139.343146 17.3339526,138 18.9794665,138 L76.3617835,138 C77.8678189,138.184914 79,139.472353 79,141 C79,142.527647 77.8678189,143.815086 76.3617835,144 L76.3617835,144 Z" id="Path"></path>
                    <path d="M38,51 C39.7087408,50.7986798 41,49.2922107 41,47.5 C41,45.7077893 39.7087408,44.2013202 38,44 C36.2912592,44.2013202 35,45.7077893 35,47.5 C35,49.2922107 36.2912592,50.7986798 38,51 L38,51 Z" id="Path"></path>
                    <path d="M57,51 C58.7087408,50.7986798 60,49.2922107 60,47.5 C60,45.7077893 58.7087408,44.2013202 57,44 C55.2912592,44.2013202 54,45.7077893 54,47.5 C54,49.2922107 55.2912592,50.7986798 57,51 L57,51 Z" id="Path"></path>
                    <path d="M71.3159903,84.9567167 L59.4300055,84.9567167 L59.4300055,75.1731927 C77.5320651,69.3429308 88.685555,51.2521033 85.7243736,32.5240415 C82.7631922,13.7959797 66.5679302,0 47.5440207,0 C28.5201111,0 12.3248491,13.7959797 9.3636677,32.5240415 C6.40248633,51.2521033 17.5559762,69.3429308 35.6580358,75.1731927 L35.6580358,84.9567167 L23.772051,84.9567167 C17.4556539,84.9683416 11.402595,87.4801332 6.94448355,91.9395235 C2.48637211,96.3989139 -0.0116048463,102.440611 4.05353482e-05,108.735506 L4.05353482e-05,113.56146 C0.0237210668,115.175011 1.3305038,116.477345 2.94956648,116.500904 L2.94956648,116.500904 L2.94956648,140.893906 C2.92780805,145.243657 4.49222321,149.453199 7.35178308,152.739428 C6.35747635,160.700463 5.85760644,168.715111 5.85502944,176.737579 C5.81126484,188.630036 6.90205202,200.499707 9.11266972,212.186401 C9.36817599,213.585139 10.5915509,214.601147 12.0181327,214.599378 L13.426842,214.599378 L13.426842,223.812562 C13.426842,229.991213 18.4527377,235 24.6524943,235 C30.8522509,235 35.8781467,229.991213 35.8781467,223.812562 L35.8781467,214.599378 L36.9346786,214.599378 C38.3151372,214.59754 39.5153288,213.655153 39.8401416,212.318018 L47.5440207,180.861576 L55.1158332,212.318018 C55.440646,213.655153 56.6408377,214.59754 58.0212962,214.599378 L59.0778282,214.599378 L59.0778282,223.812562 C59.0778282,229.991213 64.1037239,235 70.3034805,235 C76.5032371,235 81.5291328,229.991213 81.5291328,223.812562 L81.5291328,214.599378 L82.7617535,214.599378 C84.1883352,214.601147 85.4117102,213.585139 85.6672164,212.186401 C87.8778341,200.499707 88.9686213,188.630036 88.9248567,176.737579 C89.0007722,168.675744 88.5744045,160.616988 87.6482139,152.607811 C90.5077738,149.321582 92.0721889,145.11204 92.0504305,140.762289 L92.0504305,116.544776 C92.8326826,116.544776 93.5828957,116.235086 94.1360314,115.683833 C94.6891672,115.13258 94.9999579,114.384921 94.9999579,113.605332 L94.9999579,108.735506 C95.0243667,95.6611912 84.4347862,85.029195 71.3159903,84.9567167 L71.3159903,84.9567167 Z M47.5440207,5.98656763 C56.5799873,5.99672114 65.2057884,9.74673804 71.3600125,16.3404316 C71.3600125,16.7352824 68.8067268,28.8440386 59.4300055,31.2570153 L59.4300055,16.823027 C59.3446654,15.3464333 58.1866361,14.1550749 56.7084583,14.0231514 C55.2302805,13.8912279 53.8782741,14.8585722 53.5310352,16.2965593 C53.5310352,16.2965593 50.5375279,31.6518661 38.607521,31.6518661 L15.6279503,31.6518661 C18.9108419,16.6961715 32.182398,6.02385362 47.5440207,5.98656763 Z M14.8795735,38.539818 C14.8795735,38.1888395 14.8795735,37.8817334 14.8795735,37.530755 L38.7395875,37.530755 C44.5853307,37.5376841 50.0950516,34.8084473 53.6190796,30.1602077 L53.6190796,34.5474382 C53.6427193,36.1609893 54.949502,37.4633234 56.5685647,37.4868827 L56.5685647,37.4868827 C65.5250432,36.7618052 73.139959,30.6836643 75.8062512,22.1315759 C82.6889327,33.9688261 81.4106743,48.8317129 72.6071417,59.3290652 C63.8036091,69.8264174 49.3535833,73.7179725 36.4429236,69.0684973 C23.5322639,64.4190221 14.9162622,52.2207713 14.8795735,38.539818 L14.8795735,38.539818 Z M38.1672993,90.8356056 L38.7395875,90.8356056 C40.3586501,90.8120464 41.6654329,89.5097122 41.6890726,87.8961612 L41.6890726,76.5332342 C45.6224526,77.2043571 49.6416774,77.2043571 53.5750574,76.5332342 L53.5750574,87.8961612 C53.5986971,89.5097122 54.9054799,90.8120464 56.5245425,90.8356056 L62.1593798,90.8356056 C60.6894966,97.6730214 54.626516,102.557942 47.6100539,102.557942 C40.5935918,102.557942 34.5306112,97.6730214 33.060728,90.8356056 L38.1672993,90.8356056 Z M5.94307377,108.735506 C5.94307377,98.922354 13.9253788,90.9672225 23.772051,90.9672225 L26.9856691,90.9672225 C28.4824456,101.133807 37.2334867,108.668817 47.5440207,108.668817 C57.8545546,108.668817 66.6055957,101.133807 68.1023722,90.9672225 L71.3159903,90.9672225 C76.0445291,90.9672225 80.5793992,92.8392327 83.922981,96.1714323 C87.2665628,99.5036318 89.1449675,104.023064 89.1449675,108.735506 L89.1449675,110.70976 L79.6361797,110.70976 C78.7661535,110.723825 77.9453238,111.114468 77.3874424,111.779962 C76.8295609,112.445456 76.5898442,113.319933 76.7307167,114.175672 C76.7307167,114.438906 80.6486895,136.462803 81.9253323,146.904411 L13.162709,146.904411 C14.3513075,136.506675 18.3573246,114.438906 18.4013468,114.219544 C18.5565892,113.357064 18.323515,112.470178 17.7639817,111.794265 C17.2044485,111.118351 16.3750411,110.721765 15.4958838,110.70976 L5.94307377,110.70976 L5.94307377,108.735506 Z M83.157953,116.632521 L86.1954824,116.632521 L86.1954824,135.058889 C85.0949283,127.995448 83.8623076,120.712645 83.157953,116.544776 L83.157953,116.632521 Z M11.9300883,116.632521 C11.2257337,120.712645 9.99311304,127.732214 8.93658106,134.488549 L8.93658106,116.544776 L11.9300883,116.632521 Z M24.7845608,229.164983 C22.5755835,229.150683 20.6087815,227.768108 19.8540782,225.699071 L29.7150434,225.699071 C28.9314945,227.733563 26.971209,229.076671 24.7845608,229.077239 L24.7845608,229.164983 Z M29.9351542,219.688566 L19.3698344,219.688566 L19.3698344,214.555506 L29.9351542,214.555506 L29.9351542,219.688566 Z M70.2154362,229.077239 C68.0064588,229.062939 66.0396568,227.680364 65.2849536,225.611327 L75.2779853,225.611327 C74.523282,227.680364 72.55648,229.062939 70.3475027,229.077239 L70.2154362,229.077239 Z M75.4980961,219.688566 L65.1528871,219.688566 L65.1528871,214.555506 L75.7182069,214.555506 L75.4980961,219.688566 Z M80.3845565,208.676617 L60.354471,208.676617 L50.4054615,167.524395 C50.0445082,166.234659 48.8655455,165.342574 47.5220096,165.342574 C46.1784737,165.342574 44.999511,166.234659 44.6385577,167.524395 L34.6895482,208.676617 L14.6154405,208.676617 C12.7743066,198.144533 11.8610351,187.472144 11.8854224,176.781451 C11.864918,168.699939 12.3648659,160.625423 13.3828198,152.607811 L81.7052215,152.607811 C82.7175438,160.581859 83.2174805,168.612233 83.2019751,176.649834 C83.2321479,187.369825 82.3188574,198.071798 80.4726008,208.632745 L80.3845565,208.676617 Z" id="Shape"></path>
                </g>
            </g>
        </g>
    </g>
</svg>
