<?xml version="1.0" encoding="UTF-8"?>
<svg width="277px" height="414px" viewBox="0 0 277 414" version="1.1" xmlns="http://www.w3.org/2000/svg" xmlns:xlink="http://www.w3.org/1999/xlink">
    <!-- Generator: Sketch 58 (84663) - https://sketch.com -->
    <title>Street</title>
    <desc>Created with Sketch.</desc>
    <g id="App" stroke="none" stroke-width="1" fill="none" fill-rule="evenodd" stroke-linecap="round" stroke-linejoin="round">
        <g id="Room-Welcome" transform="translate(-59.000000, -325.000000)">
            <g id="Street" transform="translate(62.609267, 330.064477)">
                <path d="M3,5.58652269 C150.614678,-7.18081065 233.744922,1.93552269 252.390733,32.9355227 C280.359449,79.4355227 271.390733,124.935523 217.890733,128.935523 C164.390733,132.935523 144.189065,68.2740572 76.3907328,94.3920815 C8.59240012,120.510106 -2.37074632,337.602859 52.3907328,381.365753 C88.8983855,410.541016 146.677328,407.022038 225.727559,370.808819" id="Path-8" stroke="#E7E8EA" stroke-width="10"></path>
                <path d="M-2.84217094e-13,10.5865227 C147.614678,-2.18081065 230.744922,6.93552269 249.390733,37.9355227 C277.359449,84.4355227 268.390733,129.935523 214.890733,133.935523 C161.390733,137.935523 141.189065,73.2740572 73.3907328,99.3920815 C5.59240012,125.510106 -5.37074632,342.602859 49.3907328,386.365753 C85.8983855,415.541016 143.677328,412.022038 222.727559,375.808819" id="Path-8" stroke="#000000" stroke-width="6" stroke-dasharray="19"></path>
            </g>
        </g>
    </g>
</svg>