<?xml version="1.0" encoding="UTF-8"?>
<svg viewBox="0 0 271 243" version="1.1" xmlns="http://www.w3.org/2000/svg" xmlns:xlink="http://www.w3.org/1999/xlink">
    <!-- Generator: Sketch 58 (84663) - https://sketch.com -->
    <title>Icon/Avatar/Family</title>
    <desc>Created with Sketch.</desc>
    <g id="Icon/Avatar/Family" stroke="none" stroke-width="1" fill="none" fill-rule="evenodd">
        <g id="Icon-Family">
            <polygon id="Jupe-Girl" fill="#FADACB" points="24.5919689 121.87766 17.4352332 127.831488 5 222.007295 24.5919689 222.007295 28.8989637 224 58.5621762 224 62.5777202 222.007295 80 222.007295 66.2694301 128.807485 60.1165803 121 53.8018135 127.831488 47.7472498 134.448513 34.6834515 134.448513 27.376943 127.831488"></polygon>
            <polygon id="Hair-Girl" fill="#E0D0B5" points="17.2826705 50.5096926 8.27998195 62.8426514 4.78236621 76.7180854 5 145.205805 18.8557765 108 18.8557765 76.7180854 36.5875281 76.7180854 47.753304 65.3331139 49.5440529 76.7180854 58.6248227 72.5457521 64.8736716 63.1014008 64.8736716 96.9328786 64.8736716 106.408945 77.6682549 146 77.8961251 73.6777805 74.5757318 58.9632353 60.9223489 45.6387106 42.5 40.5 28.8063885 41.9486412"></polygon>
            <polygon id="Shirt-Man" fill="#68CAC0" points="80.6121437 77.4452926 80 143.743851 106.644362 146 134.756192 146 137.767039 104.067854 145 92.3681086 133.288724 91.5784563 133.288724 74.9312977 121.496902 70 126.394052 77.1229856 126.394052 89.2417303 121.496902 91.5784563 117.952912 98.3382229 96.850062 98.3382229 93.3705081 90.2005937 88.6988848 87.7752332 88.5861215 74.9312977"></polygon>
            <polygon id="Pants-Man" fill="#FAF5E2" points="78.0385126 149.134232 75 179.106663 81.1090096 225 97.9112857 223.881743 107.943874 179.106663 116.092514 223.881743 136.871588 223.881743 139.222403 204.655673 140 170.422306 140 158.163526 134.86018 148"></polygon>
            <polygon id="Hair-Man" fill="#987B76" points="77.8961251 32.7079543 88.5075932 28.0907699 93.2610824 17.4159641 121.7638 17.4159641 126.465016 28.0907699 136.961435 32.7079543 135.286845 17.4159641 121.7638 5.88757497 109.928155 2.50088964 95.4313241 4.42997678 84.1389635 13.8542947 77.8961251 24.0913922"></polygon>
            <polygon id="Jupe-Woman" fill="#FADB9A" points="149.257436 106.928537 144.98242 118.049846 143.165036 134.345625 139 180.980004 140.08004 203.129598 195.251596 204 199.278233 204 201 169.619789 196.210701 161.391907 197.048135 141.479215 194.39726 135.112381 197.572864 126.124609 192.807641 108.301517 183.208411 104 154.683472 104.802353"></polygon>
            <polygon id="Hair-Woman" fill="#F8EDDA" points="132.997167 89.3968037 149.83798 91.8387507 163.555066 91.8387507 163.555066 81.5372921 152.832845 74.809809 148.786174 70.1846643 148.786174 53.1395507 172.553234 50.5096926 189.9594 40.5 193.621735 35.367469 193.621735 60.75 193.621735 77.6560518 202.02024 87.5514706 202.117899 70.1846643 208.189474 60.75 206.453101 39.6706122 197.007097 22.0807399 179.671806 13.8542947 163.555066 12.365369 147.517954 19.9872899 139.225743 30.4019514 134.798552 43.3392827 134.017283 60.75"></polygon>
            <path d="M216.322402,121 C211.026952,121.25471 207.423208,121.750224 205.51117,122.486543 C203.599132,123.222863 201.671469,124.857475 199.72818,127.39038 L195,138.038531 L195.947703,142.954244 L205.51117,142.954244 L201.422351,173 L264.671073,172.095123 L260.164656,142.954244 L270,142.954244 L268.950649,130.935869 L258.838166,122.66306 L248.198573,121.839856 L243.185548,133.080072 L230.547683,136.470801 L219.052906,129.163125 L216.322402,121 Z" id="Shirt-Boy" fill="#BA494C"></path>
            <polygon id="Pants-Boy" fill="#AEC6CF" points="201 173.779404 201 209.342054 202.708619 225 223.235441 224.063692 232.19418 191.569834 241.79026 224.063692 261.745487 223.36535 265 195.05062 263.372743 173"></polygon>
            <polygon id="Hair-Boy" fill="#6B505E" points="202.02024 76.7180854 227.274047 75.8779317 238.237825 65.3331139 239.363436 75.8779317 248.394856 72.1392436 255.082589 60.75 244.078556 52.1692406 228.176476 49.4130182 213.904282 56.1287833 204.477982 67.6075868"></polygon>
            <g id="Family" fill="#000000" fill-rule="nonzero">
                <path d="M99.685022,40.5 C100.704997,40.3972252 101.475771,39.6281664 101.475771,38.7132353 C101.475771,37.7983042 100.704997,37.0292454 99.685022,36.9264706 C98.6650468,37.0292454 97.8942731,37.7983042 97.8942731,38.7132353 C97.8942731,39.6281664 98.6650468,40.3972252 99.685022,40.5 L99.685022,40.5 Z" id="Path"></path>
                <path d="M116.398678,40.5 C117.418654,40.3972252 118.189427,39.6281664 118.189427,38.7132353 C118.189427,37.7983042 117.418654,37.0292454 116.398678,36.9264706 C115.378703,37.0292454 114.60793,37.7983042 114.60793,38.7132353 C114.60793,39.6281664 115.378703,40.3972252 116.398678,40.5 L116.398678,40.5 Z" id="Path"></path>
                <path d="M161.884044,60.681716 C162.861898,60.4943051 163.555066,59.7672873 163.555066,58.9290933 C163.555066,58.0908992 162.861898,57.3638815 161.884044,57.1764706 C160.795875,57.2792454 159.973568,58.0483042 159.973568,58.9632353 C159.973568,59.8781664 160.795875,60.6472252 161.884044,60.75 L161.884044,60.681716 Z" id="Path"></path>
                <path d="M179.671806,60.75 C180.691781,60.6472252 181.462555,59.8781664 181.462555,58.9632353 C181.462555,58.0483042 180.691781,57.2792454 179.671806,57.1764706 C178.651831,57.2792454 177.881057,58.0483042 177.881057,58.9632353 C177.881057,59.8781664 178.651831,60.6472252 179.671806,60.75 L179.671806,60.75 Z" id="Path"></path>
                <path d="M163.292623,129.838235 C162.153869,129.800972 161.238794,129.16946 161.171357,128.374307 C161.103919,127.579155 161.905847,126.876549 163.030332,126.745574 L167.358124,126.379037 C169.319253,126.226596 171.29853,126.226596 173.259659,126.379037 L178.57104,126.768483 C179.652687,126.954157 180.372272,127.669122 180.256533,128.443156 C180.140795,129.21719 179.225247,129.812789 178.112031,129.838235 L172.800651,129.448789 C171.166582,129.319192 169.516774,129.319192 167.882705,129.448789 L163.554913,129.815327 L163.292623,129.838235 Z" id="Path"></path>
                <path d="M65.5788892,165.560352 L17.9893927,165.560352 C17.1446018,165.643904 16.3160372,165.325305 15.8610581,164.741966 C15.406079,164.158626 15.406079,163.414903 15.8610581,162.831564 C16.3160372,162.248224 17.1446018,161.929625 17.9893927,162.013178 L65.5788892,162.013178 C66.4236802,161.929625 67.2522447,162.248224 67.7072238,162.831564 C68.1622029,163.414903 68.1622029,164.158626 67.7072238,164.741966 C67.2522447,165.325305 66.4236802,165.643904 65.5788892,165.560352 L65.5788892,165.560352 Z" id="Path"></path>
                <path d="M32.8303965,89.3382353 C33.8503717,89.2354605 34.6211454,88.4664017 34.6211454,87.5514706 C34.6211454,86.6365395 33.8503717,85.8674807 32.8303965,85.7647059 C31.8104213,85.8674807 31.0396476,86.6365395 31.0396476,87.5514706 C31.0396476,88.4664017 31.8104213,89.2354605 32.8303965,89.3382353 L32.8303965,89.3382353 Z" id="Path"></path>
                <path d="M49.5440529,89.3382353 C50.5640281,89.2354605 51.3348018,88.4664017 51.3348018,87.5514706 C51.3348018,86.6365395 50.5640281,85.8674807 49.5440529,85.7647059 C48.5240777,85.8674807 47.753304,86.6365395 47.753304,87.5514706 C47.753304,88.4664017 48.5240777,89.2354605 49.5440529,89.3382353 L49.5440529,89.3382353 Z" id="Path"></path>
                <path d="M242.587807,167.955882 C225.319921,167.938382 211.32591,153.975505 211.30837,136.746038 C211.30837,135.562438 212.270007,134.602941 213.456246,134.602941 C214.642485,134.602941 215.604122,135.562438 215.604122,136.746038 C215.656658,151.583503 227.717175,163.588805 242.587807,163.606189 C243.774046,163.606189 244.735683,164.565686 244.735683,165.749286 C244.735683,166.932886 243.774046,167.892383 242.587807,167.892383 L242.587807,167.955882 Z" id="Path"></path>
                <path d="M251.435506,118.538449 L241.213903,118.538449 L241.213903,109.90269 C253.901975,106.01835 262.858009,94.7528798 263.722844,81.5895086 C264.587679,68.4261374 257.181652,56.0994504 245.109491,50.6092031 C233.03733,45.1189558 218.806929,47.6057029 209.344637,56.8590726 L209.344637,47.8998763 C209.367811,31.1708691 198.529958,16.3359403 182.514236,11.1742367 C166.498513,6.01253322 148.959993,11.7020469 139.095531,25.259308 C135.728146,9.33274313 120.799965,-1.49605452 104.506417,0.168607162 C88.2128688,1.83326884 75.8150278,15.4538821 75.7801882,31.7280418 C75.7801882,31.9221038 75.7801882,32.1161658 75.7801882,32.2778842 C75.7801882,32.4396025 75.7801882,32.2778842 75.7801882,32.2778842 C75.7762176,32.3533012 75.7762176,32.4288728 75.7801882,32.5042899 C76.1441592,45.625085 84.5700214,57.181129 97.0046631,61.613592 L95.7676538,68.9232612 L93.3261882,69.8935713 L93.3261882,69.8935713 L80.6956724,74.9391836 C79.4801547,54.0968594 61.7880036,38.0026129 40.7852716,38.6333762 C19.7825395,39.2641396 3.10103932,56.3907108 3.15472243,77.2679278 L1.88516027,150.299932 C1.88118967,151.355587 2.63267337,152.265148 3.67556844,152.466958 L4.09875582,152.466958 L4.09875582,164.886927 C4.1039352,168.246694 5.25101219,171.50625 7.35404339,174.137217 L0.0296463575,220.744444 C-0.0765146271,221.377821 0.105493427,222.025363 0.526587097,222.51244 C0.947680766,222.999518 1.56449499,223.275973 2.21068903,223.26725 L18.0964924,223.26725 L18.0964924,234.749252 C18.0964924,239.304296 21.8129692,242.996888 26.3974757,242.996888 L28.0902252,242.996888 C32.6365482,242.943742 36.2938646,239.26667 36.2935499,234.749252 L36.2935499,225.660681 L46.3849414,225.660681 L46.3849414,234.749252 C46.3849414,239.304296 50.1014182,242.996888 54.6859247,242.996888 L56.2810156,242.996888 C60.8655221,242.996888 64.5819989,239.304296 64.5819989,234.749252 L64.5819989,223.26725 L75.8452939,223.26725 L76.0080583,224.23756 C76.2087849,225.261861 77.1063255,226.005005 78.1565481,226.016462 L79.6214275,226.016462 L79.6214275,234.749252 C79.6214275,239.304296 83.3379043,242.996888 87.9224108,242.996888 L89.5175017,242.996888 C94.1020082,242.996888 97.818485,239.304296 97.818485,234.749252 L97.818485,226.016462 L98.9903885,226.016462 C100.063063,226.017515 100.982136,225.254271 101.171431,224.205216 L107.682006,185.813281 L114.192582,224.205216 C114.381877,225.254271 115.30095,226.017515 116.373624,226.016462 L117.545528,226.016462 L117.545528,234.749252 C117.545528,239.304296 121.262005,242.996888 125.846511,242.996888 L127.441602,242.996888 C129.671224,243.040333 131.824668,242.190606 133.416787,240.63914 C135.008905,239.087675 135.905778,236.964971 135.90535,234.749252 L135.90535,226.016462 L137.370229,226.016462 C138.425137,226.017766 139.329781,225.268741 139.518719,224.23756 C140.620408,218.475701 141.38128,212.654642 141.79742,206.804322 L147.949914,206.804322 L147.949914,234.749252 C147.949914,239.304296 151.66639,242.996888 156.250897,242.996888 L157.845988,242.996888 C162.430494,242.996888 166.146971,239.304296 166.146971,234.749252 L166.146971,206.804322 L173.634133,206.804322 L173.634133,234.749252 C173.634133,239.304296 177.350609,242.996888 181.935116,242.996888 L183.530207,242.996888 C188.114713,242.996888 191.83119,239.304296 191.83119,234.749252 L191.83119,206.804322 L197.365179,206.804322 C197.779977,212.654775 198.540859,218.475912 199.64388,224.23756 C199.832818,225.268741 200.737462,226.017766 201.79237,226.016462 L203.257249,226.016462 L203.257249,234.749252 C203.257249,239.304296 206.973726,242.996888 211.558233,242.996888 L213.153324,242.996888 C215.382946,243.040333 217.53639,242.190606 219.128509,240.63914 C220.720627,239.087675 221.6175,236.964971 221.617071,234.749252 L221.617071,226.016462 L222.788975,226.016462 C223.809776,226.015106 224.697277,225.320358 224.937465,224.334591 L231.44804,196.971847 L237.958615,224.334591 C238.198803,225.320358 239.086303,226.015106 240.107105,226.016462 L241.279008,226.016462 L241.279008,234.749252 C241.279008,239.304296 244.995485,242.996888 249.579992,242.996888 L251.175083,242.996888 C253.415851,243.058027 255.586257,242.216148 257.192631,240.662741 C258.799005,239.109333 259.704781,236.97646 259.703936,234.749252 L259.703936,226.016462 L261.168815,226.016462 C262.223723,226.017766 263.128367,225.268741 263.317305,224.23756 C265.168453,214.513526 266.084061,204.63653 266.051747,194.740134 C266.043667,188.144711 265.630563,181.555923 264.814737,175.010496 C267.382047,172.25559 268.811505,168.641403 268.818741,164.886927 L268.818741,144.186979 C270.015982,144.169611 270.982303,143.2095 270.999893,142.019953 L270.999893,138.009338 C271.017115,132.845685 268.962494,127.888087 265.290658,124.233779 C261.618822,120.57947 256.63258,118.529815 251.435506,118.538449 Z M244.078556,122.904845 C243.042362,128.970046 237.753726,133.407909 231.561975,133.407909 C225.370223,133.407909 220.081588,128.970046 219.045394,122.904845 L224.123643,122.904845 C225.320884,122.887476 226.287205,121.927366 226.304685,120.737819 L226.304685,111.034718 C229.785067,111.616758 233.338883,111.616758 236.819264,111.034718 L236.819264,120.737819 C236.836745,121.927366 237.803066,122.887476 239.000307,122.904845 L244.078556,122.904845 L244.078556,122.904845 Z M119.466147,80.8580751 C119.643894,80.637761 119.776592,80.3850567 119.856782,80.1141707 L122.493565,75.1332456 L125.162901,76.5887107 L124.869925,88.1677443 L119.596359,90.5611758 C118.909479,90.8666396 118.429612,91.5023495 118.326797,92.2430466 L117.643186,96.8358476 L111.490693,96.8358476 L119.466147,80.8580751 Z M118.522114,61.8723413 C123.524164,60.0792336 127.998846,57.0782347 131.543264,53.1395507 L130.957312,72.5457521 L122.135483,69.9906023 L119.596359,68.8585738 L118.522114,61.8723413 Z M116.308518,77.3326151 L99.2182587,77.3326151 L97.1999804,73.3220002 L98.5672012,72.7721578 C99.2879532,72.4881389 99.8065992,71.8501325 99.9344219,71.090287 L101.26909,63.0367134 C105.563885,63.9206453 109.995445,63.9206453 114.29024,63.0367134 L115.462144,70.7668503 C115.564959,71.5075474 116.044826,72.1432572 116.731706,72.4487211 L118.424455,73.1926255 L116.308518,77.3326151 Z M114.094923,81.6990105 L107.584348,94.345385 L101.073773,81.6990105 L114.094923,81.6990105 Z M109.928155,101.363961 L119.401042,101.363961 C120.482247,101.344014 121.39069,100.550816 121.549531,99.4880284 L122.493565,94.054292 L127.929895,91.5961732 C128.69445,91.2468189 129.188513,90.4916064 129.199457,89.655553 L129.557539,76.7180854 L130.989865,77.1385531 L130.566678,91.2080492 C130.558569,91.3157109 130.558569,91.4238241 130.566678,91.5314858 L130.566678,91.5314858 C130.584471,92.7335144 131.570339,93.6986417 132.780274,93.6985117 L143.001877,93.6985117 C137.231125,98.6327518 134.022804,105.900236 134.277706,113.460493 L134.277706,144.186979 L109.960708,144.186979 L109.928155,101.363961 Z M139.225743,89.461491 C144.17378,85.9360311 149.675216,81.1815118 149.675216,77.5266771 L149.675216,74.809809 C153.070215,77.5353484 156.992512,79.5389372 161.198934,80.6963567 L161.198934,89.4938347 L139.225743,89.461491 Z M149.83798,68.8262302 L149.83798,55.0478272 C168.328014,55.0478272 183.953394,49.7434654 191.212685,41.9486412 L191.212685,67.4031087 C186.753138,72.7913248 180.37637,76.2661621 173.406262,77.1062095 L166.407394,77.1062095 C160.086063,76.3352822 154.229837,73.4088406 149.83798,68.8262302 L149.83798,68.8262302 Z M156.901954,94.8628838 L163.41253,94.8628838 C164.635065,94.8628838 165.626125,93.8781925 165.626125,92.6635143 L165.626125,81.5372921 L165.984207,81.5372921 C167.23737,81.6861609 168.498253,81.7617597 169.76034,81.7636978 C171.044111,81.7630269 172.326733,81.6874281 173.60158,81.5372921 L174.643272,81.5372921 L174.643272,92.6958579 C174.661065,93.8978865 175.646933,94.8630138 176.856867,94.8628838 L182.748938,94.8628838 L182.748938,102.140209 L156.706637,102.140209 L156.901954,94.8628838 Z M179.168121,89.3968037 L179.168121,80.4376074 C183.636922,79.0975475 187.750686,76.7887604 191.212685,73.6777805 L191.212685,77.4619898 C191.212685,78.6263619 191.212685,82.1841655 200.750678,89.3968037 L179.168121,89.3968037 Z M203.420014,94.7011654 L200.620467,93.7955427 L202.834062,93.7955427 L203.420014,94.7011654 Z M187.143576,94.7011654 L187.664422,94.7011654 C194.633129,95.9845226 201.42804,98.0685073 207.912311,100.91115 C211.691214,105.008655 216.483198,108.052692 221.812389,109.740972 L221.812389,116.209705 L195.412006,109.223473 C193.644492,106.014989 190.691423,103.61437 187.176129,102.528333 L187.143576,94.7011654 Z M198.048789,123.810468 L197.007097,114.107367 L212.697583,118.2797 L211.688444,118.2797 C206.616396,118.351843 201.77155,120.381721 198.179001,123.939842 L198.048789,123.810468 Z M255.11398,65.3331139 C261.14532,75.2612594 260.240529,87.8853543 252.854095,96.8641451 C245.467662,105.842936 233.196008,109.235846 222.203351,105.338572 C211.210693,101.441298 203.872864,91.0961517 203.875753,79.499641 C203.875753,79.1115169 203.875753,78.7557366 203.875753,78.3676125 L223.960878,78.3676125 C229.042978,78.344458 233.789149,75.8415257 236.6565,71.6724731 L236.6565,76.2652741 C236.656369,77.4674326 237.627739,78.4469648 238.837543,78.4646436 L238.837543,78.4646436 C248.082559,78.2705815 253.030596,71.0255997 255.11398,65.3331139 Z M231.545698,52.1692406 C239.229622,52.1779679 246.559611,55.379621 251.761034,60.9990623 L251.761034,60.9990623 C251.761034,61.4842173 249.547439,71.9635661 241.213903,73.7748115 L241.213903,61.4842173 C241.150797,60.3956386 240.294474,59.5173419 239.201412,59.4200849 C238.108351,59.3228279 237.108588,60.0359762 236.851817,61.0960933 C236.851817,61.0960933 234.312693,74.0335609 224.123643,74.0335609 L204.591917,74.0335609 C207.263153,61.3421272 218.495999,52.230287 231.545698,52.1692406 L231.545698,52.1692406 Z M136.13322,46.5737859 C138.372195,42.3236712 139.607879,37.6228557 139.746589,32.8277265 C139.75056,32.7523095 139.75056,32.6767379 139.746589,32.6013209 L139.746589,32.6013209 C146.931025,18.5035705 162.903651,11.1349608 178.37912,14.7790761 C193.85459,18.4231913 204.799947,32.1303635 204.85234,47.93222 L204.85234,61.516561 C204.840656,61.6456752 204.840656,61.7755708 204.85234,61.904685 C200.630754,68.0762371 198.771645,75.545194 199.611327,82.9604135 C195.639877,79.3379226 195.477112,77.7207392 195.477112,77.4943335 L195.477112,31.8897601 C195.580626,31.0463298 195.18591,30.2190997 194.463203,29.7648534 C193.740497,29.3106071 192.819089,29.3106071 192.096383,29.7648534 C191.373676,30.2190997 190.97896,31.0463298 191.082474,31.8897601 C191.082474,42.0780159 172.039042,50.6814318 149.512452,50.6814318 C148.999104,50.6848798 148.503432,50.8681306 148.112678,51.1989306 C147.907557,51.1697381 147.699295,51.1697381 147.494173,51.1989306 C146.271638,51.1989306 145.280578,52.1836218 145.280578,53.3983 L145.280578,70.2816953 L145.117813,70.2816953 L145.280578,70.4757573 L145.280578,77.4619898 C145.280578,78.9497986 140.592964,83.1868192 134.798552,87.1650905 L135.970455,47.93222 C136.100667,47.4470649 136.13322,47.1559719 136.13322,46.5737859 Z M107.779665,4.52701613 C122.39128,4.5712198 134.4436,15.9083684 135.286845,30.4019514 C129.25674,29.2956201 124.877762,24.0746178 124.869925,17.9819825 C124.869925,16.7673042 123.878864,15.782613 122.656329,15.782613 L92.8704479,15.782613 C91.6606444,15.8002918 90.6892744,16.7798239 90.6894052,17.9819825 C90.5641771,24.0194662 86.16026,29.1266075 80.1748264,30.1755457 C81.086373,15.6956697 93.1776541,4.41877678 107.779665,4.42997678 L107.779665,4.52701613 Z M80.1748264,34.6066283 C87.8009267,33.5528371 93.7812673,27.5712292 94.7910676,19.9872899 L120.507839,19.9872899 C121.464893,27.1610579 126.884636,32.9482168 134.017283,34.4125663 C132.699818,37.922456 131.910067,41.6060711 131.673476,45.3447265 C125.78421,55.7912236 113.749042,61.2272716 101.954859,58.7680401 C90.1606755,56.3088087 81.3404017,46.5241461 80.1748264,34.6066283 L80.1748264,34.6066283 Z M93.1959767,75.1332456 L104.166296,96.9328786 L98.078908,96.9328786 L97.3301919,90.1730517 C97.2180381,89.2567682 96.5419827,88.5075525 95.6374423,88.2971189 L90.8196167,87.1650905 L90.4615351,76.7180854 L93.1959767,75.1332456 Z M80.793331,79.8230777 L86.1971084,77.6560518 L86.6854015,88.8469613 C86.7161678,89.8369522 87.4091548,90.6843779 88.3781511,90.9169561 L93.3261882,92.0813282 L94.1074572,99.2292791 C94.236949,100.317665 95.1531727,101.145243 96.255947,101.169899 L105.728834,101.169899 L105.728834,144.186979 L80.793331,144.186979 L80.793331,79.8230777 Z M6.47511575,137.718245 L7.51680777,77.3973025 C7.51680777,58.5072697 22.9292558,43.1938725 41.9414738,43.1938725 C60.9536919,43.1938725 76.3661399,58.5072697 76.3661399,77.3973025 L76.3661399,137.524183 C71.7761844,124.263279 67.0234646,109.708628 67.0234646,107.088791 L67.0234646,61.4842173 C67.0234646,60.2695391 66.0324041,59.2848478 64.809869,59.2848478 L64.2239173,59.2848478 L64.0611529,59.2848478 C63.4863595,59.1715923 62.8898764,59.2929088 62.406107,59.6214615 C61.9223375,59.9500142 61.5919811,60.458162 61.4894757,61.0314059 C61.4894757,61.516561 59.2758802,71.9959097 50.942344,73.8071552 L50.942344,61.4842173 C50.8792379,60.3956386 50.0229151,59.5173419 48.9298535,59.4200849 C47.836792,59.3228279 46.8370298,60.0359762 46.5802586,61.0960933 C46.5802586,61.0960933 44.0411343,74.0335609 33.8520842,74.0335609 L18.97542,74.0335609 C17.7654856,74.0334309 16.7796176,74.9985582 16.7618245,76.2005867 C16.7292511,76.4149968 16.7292511,76.6330501 16.7618245,76.8474601 L16.7618245,99.9084961 L16.7618245,99.9084961 L16.7618245,99.9084961 L16.7618245,106.862385 C16.892036,109.320504 11.8137874,123.972186 6.47511575,137.718245 Z M74.5757318,145.480726 C74.250203,149.782434 73.98978,156.671635 73.7944627,164.045992 L68.5534497,130.602638 C68.3117592,129.126494 67.839475,127.696922 67.1536761,126.365617 L68.0977095,126.850772 C70.4089637,133.610599 72.8178765,140.661519 74.5757318,145.6101 L74.5757318,145.480726 Z M47.263869,77.8501138 C47.6731711,78.2461523 48.2225351,78.4668084 48.7938542,78.4646436 L48.7938542,78.4646436 C54.6373644,78.2262364 59.9154589,74.9270848 62.6613792,69.7965402 L62.6613792,96.8681912 C57.634592,102.950239 50.2204793,106.593806 42.3045819,106.872269 C34.3886845,107.150732 26.7337899,104.037257 21.2866742,98.3236563 L21.2866742,78.4969872 L33.8846371,78.4969872 C38.9653283,78.4682739 43.7090634,75.9666265 46.5802586,71.8018477 L46.5802586,76.2652741 C46.5776833,76.8647626 46.8251726,77.4385264 47.263869,77.8501138 Z M31.6710416,109.90269 L31.6710416,118.538449 L26.4300286,118.538449 C26.0415889,118.535821 25.6594908,118.636315 25.3232308,118.829543 C23.6222564,119.180667 22.0004019,119.838394 20.5379581,120.770163 C19.4387246,120.839027 18.3486537,121.012318 17.2826705,121.287661 C19.0975357,116.693825 20.4708761,111.939683 21.3843328,107.088791 L21.3843328,104.371922 C24.4408808,106.82963 27.9283868,108.704727 31.6710416,109.90269 L31.6710416,109.90269 Z M33.3312382,122.840157 L33.8520842,122.840157 C35.0620186,122.840287 36.0478866,121.87516 36.0656798,120.673132 L36.0656798,110.970031 C37.7981881,111.252221 39.5510606,111.392848 41.3066928,111.390499 C43.0622502,111.390986 44.8149706,111.250372 46.5477058,110.970031 L46.5477058,120.673132 C46.5654989,121.87516 47.5513669,122.840287 48.7613013,122.840157 L53.8395499,122.840157 C52.8033562,128.905358 47.5147208,133.343222 41.3229692,133.343222 C35.1312176,133.343222 29.8425823,128.905358 28.8063885,122.840157 L33.3312382,122.840157 Z M50.8772382,118.538449 L50.8772382,109.935034 C55.1930128,108.632828 59.1779243,106.427088 62.5637206,103.4663 L62.5637206,107.250509 C63.3855076,112.1226 64.6605354,116.908416 66.3724071,121.546411 C64.9732491,121.15169 63.5294709,120.934342 62.0754275,120.899537 C60.6520443,119.933013 59.0636875,119.231613 57.3878134,118.829543 C57.0515534,118.636315 56.6694553,118.535821 56.2810156,118.538449 L50.8772382,118.538449 L50.8772382,118.538449 Z M14.1901473,129.050142 C14.0424192,129.560775 13.9228806,130.079046 13.8320657,130.602638 L8.29807679,166.180674 C8.27395034,165.771338 8.27395034,165.36095 8.29807679,164.951615 L8.29807679,145.027914 C10.1210378,140.661519 12.3346334,134.839659 14.4505703,129.017798 L14.1901473,129.050142 Z M28.0902252,238.662836 L26.4951343,238.662836 C24.5051642,238.657996 22.8369169,237.167615 22.6213421,235.202064 L31.9314646,235.202064 C31.717337,237.155427 30.0677346,238.64164 28.0902252,238.662836 Z M31.9965703,230.835668 L22.4911306,230.835668 L22.4911306,223.26725 L23.6304813,223.26725 L23.6304813,223.461312 C23.6304813,224.044621 23.8636987,224.604039 24.2788284,225.016501 C24.6939581,225.428963 25.2569948,225.660681 25.8440768,225.660681 L31.8989117,225.660681 L31.9965703,230.835668 Z M56.3786742,238.662836 L54.7835833,238.662836 C52.7811778,238.674542 51.0941346,237.179929 50.8772382,235.202064 L60.1873607,235.202064 C59.9704643,237.179929 58.2834211,238.674542 56.2810156,238.662836 L56.3786742,238.662836 Z M60.2850193,230.835668 L50.8772382,230.835668 L50.8772382,225.660681 L58.2992939,225.660681 C59.1525555,225.662342 59.9284333,225.169477 60.2850193,224.399278 L60.2850193,230.835668 Z M60.4803366,218.900855 L60.4803366,186.557185 C60.4803366,185.351439 59.4965633,184.373988 58.2830175,184.373988 C57.0694716,184.373988 56.0856983,185.351439 56.0856983,186.557185 L56.0856983,221.294286 L28.0902252,221.294286 L28.0902252,186.524842 C28.0902252,185.319095 27.106452,184.341644 25.8929061,184.341644 C24.6793603,184.341644 23.695587,185.319095 23.695587,186.524842 L23.695587,218.868511 L4.78236621,218.868511 L18.3243625,131.249511 C18.8331096,127.824003 21.1405342,124.927444 24.3791974,123.648749 C25.8212586,131.762007 32.9169417,137.676144 41.2090341,137.676144 C49.5011265,137.676144 56.5968097,131.762007 58.0388709,123.648749 C61.3281299,124.890269 63.6909009,127.793862 64.2239173,131.249511 L77.8961251,218.900855 L60.4803366,218.900855 Z M89.7779247,238.630493 L88.1828338,238.630493 C86.1928637,238.625652 84.5246164,237.135271 84.3090416,235.16972 L93.619164,235.16972 C93.4132181,237.237131 91.605303,238.776814 89.5175017,238.662836 L89.7779247,238.630493 Z M93.6842698,230.803325 L84.0160657,230.803325 L84.0160657,226.016462 L93.4238468,226.016462 L93.6842698,230.803325 Z M127.864789,238.630493 L126.269698,238.630493 C124.279728,238.625652 122.611481,237.135271 122.395906,235.16972 L131.706029,235.16972 C131.500083,237.237131 129.692168,238.776814 127.604366,238.662836 L127.864789,238.630493 Z M131.771134,230.803325 L122.10293,230.803325 L122.10293,226.016462 L131.510711,226.016462 L131.771134,230.803325 Z M137.695758,206.092762 C137.332633,211.297883 136.691523,216.480169 135.775138,221.617723 L118.391902,221.617723 L109.928155,172.423002 C109.793812,171.336547 108.865092,170.520226 107.763389,170.520226 C106.661685,170.520226 105.732966,171.336547 105.598622,172.423002 L97.1348746,221.617723 L82.5837392,221.617723 C82.6479339,221.319218 82.6479339,221.010605 82.5837392,220.7121 L77.6682549,189.177023 C77.6682549,189.177023 77.6682549,189.177023 77.6682549,189.015304 C77.6682549,178.180175 78.0914423,162.719901 78.5471826,152.466958 L78.9052642,152.466958 C79.9560549,152.293192 80.7267807,151.390675 80.7282253,150.332276 L80.7282253,148.715093 L134.310259,148.715093 C134.678157,152.806225 136.139125,156.725489 138.542133,160.067721 L136.849383,204.572609 C136.842144,205.150768 137.064343,205.708503 137.467888,206.125105 L137.695758,206.092762 Z M139.225743,148.262281 L139.225743,148.262281 L139.225743,149.717746 C138.987322,148.415796 138.867477,147.095145 138.867661,145.771819 L138.867661,113.42815 C138.867661,103.142863 144.889943,94.7658527 152.311999,94.7658527 L152.832845,94.7658527 L152.832845,102.625364 C147.628663,104.291254 143.837297,108.761428 143.066982,114.13971 L139.225743,148.262281 Z M158.106411,238.598149 L156.51132,238.598149 C154.52135,238.593308 152.853103,237.102928 152.637528,235.137376 L161.557016,235.137376 C161.380157,237.068652 159.795729,238.573851 157.845988,238.662836 L158.106411,238.598149 Z M162.012756,230.770981 L152.344552,230.770981 L152.344552,206.804322 L161.752333,206.804322 L162.012756,230.770981 Z M183.758077,238.598149 L182.162986,238.598149 C180.173016,238.593308 178.504769,237.102928 178.289194,235.137376 L187.599316,235.137376 C187.41,237.204574 185.61718,238.757866 183.530207,238.662836 L183.758077,238.598149 Z M187.664422,230.770981 L178.028771,230.770981 L178.028771,206.804322 L187.436552,206.804322 L187.664422,230.770981 Z M141.34168,202.405583 L143.359958,148.650405 L147.00588,114.75424 C147.691928,109.931641 151.869944,106.36164 156.771743,106.408945 L182.814044,106.408945 C187.683726,106.354875 191.849718,109.873211 192.579906,114.657209 L194.109891,129.017798 C192.66302,131.774293 191.903851,134.835821 191.896296,137.944651 L191.896296,142.052297 C191.913777,143.241844 192.880097,144.201954 194.077339,144.219323 L194.077339,144.219323 L194.077339,164.886927 C194.079593,168.651969 195.509174,172.278014 198.081342,175.042839 C197.277718,181.578217 196.875488,188.156161 196.876886,194.740134 C196.876886,197.327627 196.931141,199.893558 197.03965,202.437927 L141.34168,202.405583 Z M198.699847,164.886927 L198.699847,144.186979 L202.117899,144.186979 C201.33663,148.650405 199.708986,157.933038 198.862611,164.983958 C198.699847,165.016302 198.699847,164.951615 198.699847,164.886927 Z M213.316088,238.630493 L211.720997,238.630493 C209.731027,238.625652 208.06278,237.135271 207.847205,235.16972 L217.157327,235.16972 C216.95858,237.135876 215.304782,238.639794 213.316088,238.662836 L213.316088,238.630493 Z M217.222433,230.803325 L207.814652,230.803325 L207.814652,226.016462 L217.222433,226.016462 L217.222433,230.803325 Z M251.402953,238.630493 L249.807862,238.630493 C247.817892,238.625652 246.149644,237.135271 245.93407,235.16972 L255.244192,235.16972 C255.045444,237.135876 253.391647,238.639794 251.402953,238.662836 L251.402953,238.630493 Z M255.309298,230.803325 L245.901517,230.803325 L245.901517,226.016462 L255.309298,226.016462 L255.309298,230.803325 Z M259.215643,221.650066 L242.060277,221.650066 L233.694188,187.107028 C233.427276,186.156205 232.555473,185.498539 231.561975,185.498539 C230.568476,185.498539 229.696674,186.156205 229.429762,187.107028 L221.063672,221.650066 L203.875754,221.650066 C202.30963,212.776053 201.536201,203.781842 201.5645,194.772477 C201.557093,187.98105 201.99204,181.196264 202.866615,174.460653 L260.354993,174.460653 C261.229568,181.196264 261.664516,187.98105 261.657202,194.772477 C261.642936,203.785693 260.825927,212.779978 259.215643,221.650066 Z M264.424103,164.886927 C264.424103,164.886927 264.424103,165.17802 264.424103,165.307395 C263.414964,158.256475 261.78732,148.77978 261.168815,144.28401 L264.424103,144.28401 L264.424103,164.886927 Z M266.605146,139.917615 L258.369268,139.917615 C257.725914,139.927984 257.118938,140.215975 256.706404,140.706592 C256.29387,141.19721 256.116608,141.841895 256.220778,142.472765 C256.220778,142.666827 259.476066,161.523186 260.615416,170.061914 L202.508533,170.061914 C203.452567,161.523186 206.903172,142.666827 206.935724,142.472765 C207.050521,141.836925 206.87817,141.183092 206.464415,140.684793 C206.050659,140.186494 205.437341,139.894122 204.787235,139.885271 L196.486251,139.885271 L196.486251,137.944651 C196.486251,133.93869 198.087906,130.096803 200.938871,127.264161 C203.789835,124.431519 207.656572,122.840157 211.688444,122.840157 L214.618203,122.840157 C215.738606,131.287625 222.986362,137.602093 231.561975,137.602093 C240.137588,137.602093 247.385344,131.287625 248.505747,122.840157 L251.435506,122.840157 C255.467378,122.840157 259.334115,124.431519 262.185079,127.264161 C265.036043,130.096803 266.637698,133.93869 266.637698,137.944651 L266.605146,139.917615 Z" id="Shape"></path>
                <path d="M222.64978,85.7647059 C221.660776,85.7647059 220.859031,86.5646677 220.859031,87.5514706 C220.859031,88.5382734 221.660776,89.3382353 222.64978,89.3382353 C223.638783,89.3382353 224.440529,88.5382734 224.440529,87.5514706 C224.440529,86.5646677 223.638783,85.7647059 222.64978,85.7647059 L222.64978,85.7647059 Z" id="Path"></path>
                <path d="M239.363436,85.7647059 C238.374433,85.7647059 237.572687,86.5646677 237.572687,87.5514706 C237.572687,88.5382734 238.374433,89.3382353 239.363436,89.3382353 C240.352439,89.3382353 241.154185,88.5382734 241.154185,87.5514706 C241.154185,86.5646677 240.352439,85.7647059 239.363436,85.7647059 L239.363436,85.7647059 Z" id="Path"></path>
            </g>
        </g>
    </g>
</svg>
