<?xml version="1.0" encoding="UTF-8"?>
<svg viewBox="0 0 92 229" version="1.1" xmlns="http://www.w3.org/2000/svg" xmlns:xlink="http://www.w3.org/1999/xlink">
    <!-- Generator: Sketch 58 (84663) - https://sketch.com -->
    <title>John</title>
    <desc>Created with Sketch.</desc>
    <g id="Symbols" stroke="none" stroke-width="1" fill="none" fill-rule="evenodd">
        <g id="Icon/Avatar/Boy">
            <g id="John">
                <polygon id="Path-12" fill="#FFFFFF" points="16 207 16 216.477355 31.7643139 216.477355 31.7643139 207"></polygon>
                <polygon id="Path-12-Copy" fill="#FFFFFF" points="60 207 60 216.477355 75.7643139 216.477355 75.7643139 207"></polygon>
                <polygon id="Path-12-Copy" fill="#E5C5B7" points="60 218 62.796368 224.536871 73.3687211 225.756729 75.7643139 218"></polygon>
                <polygon id="Path-12-Copy" fill="#E5C5B7" points="16 218 18.796368 224.536871 29.3687211 225.756729 31.7643139 218"></polygon>
                <polygon id="Path-24" fill="#FFFFFF" points="5.3864959 110.620936 6.08649122 140.554365 10 144.870785 15.3761762 110.620936"></polygon>
                <polygon id="Path-24" fill="#FFFFFF" transform="translate(82.381336, 127.745860) scale(-1, 1) translate(-82.381336, -127.745860) " points="77.3864959 110.620936 78.0864912 140.554365 82 144.870785 87.3761762 110.620936"></polygon>
                <polygon id="Path-2" fill="#FFFFFF" points="54.3179582 21.657455 45.1219352 32.6438832 12 33.957576 12.8426257 49 23.2583332 63.4218294 37.5 71.7731624 37.5 85.1915962 28.6069397 85.1915962 31.6378481 96.5456556 42.4695231 103.020285 54.3179582 101.612757 62.1061067 94.0121052 63.6074699 85.1915962 55.5 85.1915962 55.5 70.5533047 71.2081213 61.826631 80.5916415 44.3732834 80.0286303 29.7349919 74 18.140979 64.7334924 30.8616224 55.5 32.6438832"></polygon>
                <polygon id="Hair-Boy" fill="#6B505E" points="12 35 41.5074771 34.0153872 54.3179582 21.657455 55.6331635 34.0153872 66.1858064 29.6338554 74 16.2863038 61.1424826 6.2301374 42.5619077 3 25.8857517 10.8704983 14.8717163 24.3230091"></polygon>
                <polygon id="Pants-Boy" fill="#AEC6CF" points="10 146.899312 10 187.933139 11.9755912 206 35.7097284 204.919645 46.0682706 167.426731 57.1637376 204.919645 80.2369692 204.113866 84 171.443023 82.1184846 146"></polygon>
                <path d="M27.8810898,86 C21.950186,86.2840991 17.9139928,86.8367883 15.7725103,87.6580677 C13.6310278,88.4793471 11.4720448,90.3025683 9.29556118,93.1277313 L4,105.004515 L5.06142721,110.487426 L15.7725103,110.487426 L11.1930336,144 L82.0316023,142.990715 L76.9844147,110.487426 L88,110.487426 L86.8247267,97.0823159 L75.4987461,87.8549518 L63.5824021,86.9367619 L57.9678134,99.4739267 L43.8134054,103.255893 L30.9392545,95.1050236 L27.8810898,86 Z" id="Shirt-Boy" fill="#BA494C"></path>
                <g id="noun_boy_1100579" fill="#000000" fill-rule="nonzero">
                    <path d="M57.3080799,140 C58.7947863,140 60,138.804594 60,137.329987 C60,135.85538 58.7947863,134.659974 57.3080799,134.659974 C39.6878554,134.659974 25.4038411,120.492205 25.4038411,103.015376 C25.5306557,101.983875 25.0470913,100.972187 24.1617086,100.416652 C23.276326,99.8611161 22.147516,99.8611161 21.2621334,100.416652 C20.3767507,100.972187 19.8931863,101.983875 20.0200009,103.015376 C20.0638719,123.423368 36.7326418,139.956486 57.3080799,140 L57.3080799,140 Z" id="Path"></path>
                    <path d="M69.0998842,82.9024017 L57.3705566,82.9024017 L57.3705566,72.9974797 C74.9057642,67.3968009 85.7492223,49.8402061 82.918249,31.6333243 C80.0872758,13.4264426 64.4262905,0 46.0202379,0 C27.6141853,0 11.9532,13.4264426 9.12222679,31.6333243 C6.29125357,49.8402061 17.1347116,67.3968009 34.6699192,72.9974797 L34.6699192,82.8624625 L22.9006959,82.8624625 C10.2624188,82.884447 0.0225407338,93.1354975 0.000282021069,105.787564 L0.000282021069,110.50039 C-0.0101048093,111.216984 0.266791003,111.907922 0.769240403,112.418427 C1.2716898,112.928932 1.95769704,113.216335 2.6735902,113.216255 L2.6735902,137.179776 C2.66993829,141.518029 4.27664779,145.702879 7.18180114,148.921901 C6.22878766,156.633423 5.74913909,164.396203 5.74555695,172.166517 C5.71293702,183.757574 6.78163372,195.325465 8.93721072,206.713926 C9.16876666,207.987268 10.2774664,208.912192 11.5703251,208.910582 L13.1262563,208.910582 L13.1262563,218.655747 C13.1262563,224.280489 17.681041,228.840243 23.2996527,228.840243 L24.3768358,228.840243 C29.9954475,228.840243 34.5502322,224.280489 34.5502322,218.655747 L34.5502322,209.030399 L35.786998,209.030399 C37.0380569,209.028726 38.1257465,208.170823 38.4201124,206.953561 L46.000282,175.48147 L53.5804678,206.9935 C53.8748337,208.210763 54.9625233,209.068665 56.2135821,209.070339 L57.450348,209.070339 L57.450348,218.815504 C57.450348,224.440246 62.0051327,229 67.6237444,229 L68.7009275,229 C74.3195392,229 78.8743239,224.440246 78.8743239,218.815504 L78.8743239,209.030399 L80.4302551,209.030399 C81.7231137,209.03201 82.8318135,208.107085 83.0633695,206.833743 C85.2182297,195.445182 86.2869201,183.87736 86.2550232,172.286334 C86.2512409,164.516027 85.771593,156.75326 84.818779,149.041719 C87.7239324,145.822696 89.3306419,141.637847 89.32699,137.299594 L89.32699,113.336073 L89.32699,113.336073 C90.8096831,113.314243 92,112.104679 92,110.620207 L92,105.827503 C91.9780394,93.1754367 81.7381614,82.9243862 69.0998842,82.9024017 Z M46.0002901,5.4203357 C55.3159315,5.43140044 64.1617984,9.5163183 70.216963,16.6033275 C69.4589453,19.5188892 66.5465612,28.5850879 58.2482614,30.5021696 L58.2482614,16.2039355 C58.1709208,14.8597168 57.1214414,13.7751624 55.7818231,13.6550657 C54.4422049,13.534969 53.2169312,14.4155919 52.9022414,15.7246651 C52.9022414,16.3636923 49.9100659,30.8616224 38.220634,30.8616224 L14.7220832,30.8616224 C17.8052824,16.0305861 30.8679957,5.4055515 46.0002901,5.4203357 L46.0002901,5.4203357 Z M14.0832925,37.3717122 C14.0832925,36.9723202 14.0832925,36.6128674 14.0832925,36.2134753 L38.4201124,36.2134753 C44.23768,36.1964431 49.6897046,33.3707894 53.061824,28.6250271 L53.061824,33.4976097 C53.0591364,34.2181158 53.3468006,34.9092631 53.8597375,35.4146913 C54.3881834,35.9122161 55.0892774,36.1843655 55.8146254,36.1735361 C64.1286241,35.5646676 71.2671112,30.0239428 73.9272605,22.1149373 C80.3983326,33.8242798 78.8949845,48.3300959 70.1605312,58.4601335 C61.426078,68.5901711 47.3111417,72.198117 34.7947079,67.5000595 C22.2782742,62.802002 14.0122764,50.7933472 14.0832925,37.4116514 L14.0832925,37.3717122 Z M37.3828249,88.2542546 C38.8501219,88.2328075 40.0344111,87.0472261 40.0558349,85.5783281 L40.0558349,74.2755342 C44.0145891,74.9775284 48.0657824,74.9775284 52.0245366,74.2755342 L52.0245366,85.5783281 C52.0459604,87.0472261 53.2302496,88.2328075 54.6975466,88.2542546 L60.362732,88.2542546 C59.0916402,95.1950475 53.0490721,100.236015 46.0002901,100.236015 C38.951508,100.236015 32.90894,95.1950475 31.6378481,88.2542546 L37.3828249,88.2542546 Z M5.46628724,105.787564 C5.48822541,96.1132962 13.3167634,88.2762167 22.9804873,88.2542546 L26.052454,88.2542546 C27.1651191,98.3767186 35.7081367,106.039579 45.8806031,106.039579 C56.0530695,106.039579 64.596087,98.3767186 65.7087521,88.2542546 L68.9801972,88.2542546 C78.6439211,88.2762167 86.4724591,96.1132962 86.4943973,105.787564 L86.4943973,107.904342 L77.15881,107.904342 C76.38305,107.897299 75.6425028,108.228005 75.1294754,108.810581 C74.616448,109.393157 74.3815572,110.170126 74.4858,110.939721 L78.4753672,142.571568 L13.4454217,142.571568 L17.4349889,110.939721 C17.5392316,110.170126 17.3043408,109.393157 16.7913134,108.810581 C16.278286,108.228005 15.5377388,107.897299 14.7619788,107.904342 L5.3864959,107.904342 L5.46628724,105.787564 Z M11.8495948,113.296134 L8.53825399,138.457831 C8.53825399,138.098378 8.53825399,137.738925 8.53825399,137.339533 L8.53825399,113.376012 L11.8495948,113.296134 Z M24.4566272,223.528329 L23.379444,223.528329 C21.1373077,223.525533 19.1974452,221.965311 18.7116504,219.774045 L29.1244208,219.774045 C28.6517082,221.995854 26.6858719,223.580246 24.4167315,223.568269 L24.4566272,223.528329 Z M29.2042121,214.342313 L18.5520677,214.342313 L18.5520677,209.030399 L29.2042121,209.030399 L29.2042121,214.342313 Z M68.7009275,223.48839 L67.6237444,223.48839 C65.3816081,223.485594 63.4417456,221.925371 62.9559507,219.734105 L73.3687211,219.734105 C72.9124663,221.9718 70.9423632,223.576345 68.6610318,223.568269 L68.7009275,223.48839 Z M73.4485125,214.342313 L62.796368,214.342313 L62.796368,209.030399 L73.4485125,209.030399 L73.4485125,214.342313 Z M78.1562018,203.598668 L58.2083657,203.598668 L48.5137174,163.260075 C48.1865987,162.085962 47.1181482,161.273851 45.9005509,161.273851 C44.6829537,161.273851 43.6145031,162.085962 43.2873844,163.260075 L33.5927361,203.598668 L13.6449,203.598668 C11.8359094,193.246773 10.9414482,182.755457 10.97189,172.246395 C10.9679745,164.125665 11.5010825,156.013583 12.5677169,147.963361 L79.2333849,147.963361 C80.2999032,156.013594 80.8330106,164.125669 80.8292118,172.246395 C80.8619988,182.768793 79.9675288,193.273576 78.1562018,203.638607 L78.1562018,203.598668 Z M83.5421175,137.259655 C83.562696,137.658781 83.562696,138.058704 83.5421175,138.457831 L80.3105681,113.256195 L83.6219089,113.256195 L83.5421175,137.259655 Z" id="Shape"></path>
                    <path d="M37.5,42 C35.5670034,42 34,43.5670034 34,45.5 C34,47.4329966 35.5670034,49 37.5,49 C39.4329966,49 41,47.4329966 41,45.5 C41,43.5670034 39.4329966,42 37.5,42 Z" id="Path"></path>
                    <path d="M55.5,49 C57.4329966,49 59,47.4329966 59,45.5 C59,43.5670034 57.4329966,42 55.5,42 C54.2495704,42 53.0941259,42.6670962 52.4689111,43.75 C51.8436963,44.8329038 51.8436963,46.1670962 52.4689111,47.25 C53.0941259,48.3329038 54.2495704,49 55.5,49 L55.5,49 Z" id="Path"></path>
                </g>
            </g>
        </g>
    </g>
</svg>
