<?xml version="1.0" encoding="UTF-8"?>
<svg viewBox="0 0 98 246" version="1.1" xmlns="http://www.w3.org/2000/svg" xmlns:xlink="http://www.w3.org/1999/xlink">
    <!-- Generator: Sketch 58 (84663) - https://sketch.com -->
    <title>Julia</title>
    <desc>Created with Sketch.</desc>
    <g id="Symbols" stroke="none" stroke-width="1" fill="none" fill-rule="evenodd">
        <g id="Icon/Avatar/Girl" transform="translate(0.000000, 0.000000)">
            <g id="Julia">
                <polygon id="Hair-Girl" fill="#E0D0B5" points="21.190561 14.3854324 10.9705537 28.4134424 7 44.1959265 7.24706163 122.09665 22.9763781 79.7772512 22.9763781 44.1959265 43.1057683 44.1959265 55.7813496 31.2461959 57.8142387 44.1959265 68.1228851 39.4501446 75.2166862 28.7077544 75.2166862 67.1890562 75.2166862 77.9675199 89.7413179 123 90 40.7377598 86.2306322 24.0008364 70.7310765 8.84497892 49.8177084 3 34.2724844 4.64774355"></polygon>
                <polygon id="Path-17" fill="#FFFFFF" points="23.3095048 45.1388338 23.3095048 74.3387739 38.8470876 82.5093993 39.754717 98 30.5425175 99.4799257 37.4416678 112.631807 51.1699981 115.593735 64.4305214 108.092833 66.5736363 98 58.5369555 97.1093694 58.5369555 82.5093993 76.0837085 72.4635484 76.0837085 30.003085 62.8679245 43.2636082 58.5369555 43.2636082 56.5277853 31.0746424 46.8837684 43.2636082"></polygon>
                <polygon id="Path-18" fill="#FFFFFF" points="24.5150069 219.668751 24.5150069 233.598998 39.6507557 233.598998 39.6507557 221.276087 30.1406835 221.276087 30.1406835 218.997629"></polygon>
                <polygon id="Path-18" fill="#FFFFFF" transform="translate(66.082881, 226.298314) scale(-1, 1) translate(-66.082881, -226.298314) " points="58.5150069 219.668751 58.5150069 233.598998 73.6507557 233.598998 73.6507557 221.276087 64.1406835 221.276087 64.1406835 218.997629"></polygon>
                <polygon id="Path-19" fill="#B6A6B9" points="25.7958529 235.206334 39.6507557 235.206334 35.9756486 242.975125 28.6086912 242.975125"></polygon>
                <polygon id="Path-19" fill="#B6A6B9" points="59 235 72.8549028 235 69.1797956 242.768791 61.8128383 242.768791"></polygon>
                <polygon id="Path-4" fill="#FFFFFF" points="16.3163267 106.612967 7 126.632728 10.1951141 154.32132 21.121476 106.062949"></polygon>
                <polygon id="Path-4" fill="#FFFFFF" transform="translate(84.060738, 130.192135) scale(-1, 1) translate(-84.060738, -130.192135) " points="86.3163267 106.612967 77 126.632728 80.1951141 154.32132 91.121476 106.062949"></polygon>
                <g id="Girl">
                    <polygon id="Path-7" fill="#FADACB" points="27.5103627 99.0821632 18.9222798 106.423291 4 222.542975 27.5103627 222.542975 32.6787565 225 68.2746114 225 73.0932642 222.542975 94 222.542975 77.5233161 107.626705 70.1398964 98 62.5621762 106.423291 55.2966998 114.582147 39.6201418 114.582147 30.8523316 106.423291"></polygon>
                    <g id="noun_girl_1080134" fill="#000000" fill-rule="nonzero">
                        <path d="M76.6392085,153.276923 L21.3607915,153.276923 C19.7756098,153.276923 18.490566,152.006101 18.490566,150.438462 C18.490566,148.870823 19.7756098,147.6 21.3607915,147.6 L76.6392085,147.6 C78.2243902,147.6 79.509434,148.870823 79.509434,150.438462 C79.509434,152.006101 78.2243902,153.276923 76.6392085,153.276923 L76.6392085,153.276923 Z" id="Path"></path>
                        <path d="M40.1012658,60.8333333 C42.030767,60.8333333 43.5949367,59.2663298 43.5949367,57.3333333 C43.5949367,55.4003368 42.030767,53.8333333 40.1012658,53.8333333 C38.1717646,53.8333333 36.6075949,55.4003368 36.6075949,57.3333333 C36.6075949,59.2663298 38.1717646,60.8333333 40.1012658,60.8333333 Z" id="Path"></path>
                        <path d="M60.1012658,60.8333333 C62.030767,60.8333333 63.5949367,59.2663298 63.5949367,57.3333333 C63.5949367,55.4003368 62.030767,53.8333333 60.1012658,53.8333333 C58.1717646,53.8333333 56.6075949,55.4003368 56.6075949,57.3333333 C56.6075949,59.2663298 58.1717646,60.8333333 60.1012658,60.8333333 Z" id="Path"></path>
                        <path d="M97.9172859,218.64408 L89.3026488,162.031908 C91.5853014,158.903581 92.8153646,155.105316 92.8091091,151.204444 L92.8091091,136.487931 L93.3285847,136.487931 C94.7259527,136.2505 95.7508832,135.017318 95.7528042,133.571144 L95.7528042,45.5372289 C94.9902516,20.1649195 74.6225163,0 49.7575686,0 C24.8926209,0 4.52488562,20.1649195 3.76233296,45.5372289 L2.24719578,133.52695 C2.24191557,134.969376 3.24125751,136.212181 4.62812563,136.487931 L5.19089086,136.487931 L5.19089086,151.116056 C5.16269183,155.047637 6.39403155,158.880882 8.69735118,162.031908 L0.0394244725,218.688273 C-0.101751077,219.553708 0.140287815,220.438495 0.700268776,221.104028 C1.26024974,221.769562 2.08050482,222.147303 2.93982992,222.135384 L21.2946345,222.135384 L21.2946345,234.730598 C21.2946345,240.954517 26.236899,246 32.3334911,246 C38.4300832,246 43.3723476,240.954517 43.3723476,234.730598 L43.3723476,225.007977 L54.6276524,225.007977 L54.6276524,234.730598 C54.6276524,240.954517 59.5699168,246 65.6665089,246 C71.763101,246 76.7053655,240.954517 76.7053655,234.730598 L76.7053655,222.046997 L95.0601701,222.046997 C95.9194952,222.058916 96.7397503,221.681174 97.2997312,221.015641 C97.8597122,220.350107 98.1017511,219.46532 97.9605755,218.599886 L97.9172859,218.64408 Z M81.3806459,109.662335 C81.2244428,108.625602 80.9781632,107.60512 80.6447221,106.612967 C82.8092038,113.374608 84.9736855,120.268831 87.0082982,125.660466 L87.0082982,146.652489 L81.3806459,109.662335 Z M40.3420733,47.1282032 C46.0905429,47.1351831 51.5085815,44.3859508 54.9739694,39.7036562 L54.9739694,44.1230294 C54.9710532,44.9202877 55.2831892,45.6850595 55.8397621,46.2443286 C56.3351873,46.7334804 56.9736738,47.0438714 57.6579267,47.1282032 C64.1982885,46.907643 70.1886518,43.3347454 73.5885118,37.6265507 L73.5885118,69.2250695 L73.5885118,69.2250695 C67.7270374,76.4134557 59.1344658,80.700136 49.9775821,81.00414 C40.8206984,81.3081441 31.973466,77.6004567 25.6668875,70.8160439 L25.6668875,47.1282032 L40.3420733,47.1282032 Z M23.9353022,97.9509957 C22.9885663,98.0324622 22.0484182,98.1801211 21.121476,98.3929331 C23.2356227,92.8738906 24.8301076,87.1618433 25.8833357,81.3341523 L25.8833357,78.7267221 C29.3520574,81.4845294 33.2626979,83.6077825 37.4416678,85.0022321 L37.4416678,94.8574345 L31.6841466,94.8574345 C31.182272,94.8616011 30.6900451,94.9986485 30.2555887,95.2551781 C27.949991,95.677506 25.7543177,96.5801354 23.8054333,97.906802 L23.9353022,97.9509957 Z M39.3897014,100.823588 L40.3420733,100.823588 C41.9509005,100.799432 43.2426527,99.4610196 43.2424787,97.8184145 L43.2424787,86.3280441 C45.144409,86.6697896 47.0692464,86.8618609 49,86.9025626 C50.9573669,86.893861 52.9111732,86.7313372 54.8441005,86.4164315 L54.8441005,97.8184145 C54.8439265,99.4610196 56.1356788,100.799432 57.744506,100.823588 L63.2855791,100.823588 C61.8401549,107.711098 55.8780628,112.631807 48.9783552,112.631807 C42.0786476,112.631807 36.1165555,107.711098 34.6711313,100.823588 L39.3897014,100.823588 Z M68.0907284,95.2551781 C67.656272,94.9986485 67.1640451,94.8616011 66.6621705,94.8574345 L60.6882011,94.8574345 L60.6882011,84.9580384 C65.4594617,83.3722444 69.8740823,80.8334028 73.6750911,77.4892975 L73.6750911,81.2899585 C74.5878196,87.2037658 76.0370415,93.0181567 78.0040545,98.6580955 C76.7061437,98.2566491 75.371816,97.9901327 74.0214082,97.8626083 C72.1927753,96.5690948 70.1339265,95.6532898 67.9608595,95.1667906 L68.0907284,95.2551781 Z M9.60643348,45.5372289 C10.317806,23.4229757 28.0840431,5.87154141 49.7575686,5.87154141 C71.4310941,5.87154141 89.1973312,23.4229757 89.9087037,45.5372289 L89.9087037,116.026232 C85.7330917,104.690262 82.2913718,93.0865251 79.6057709,81.2899585 L79.6057709,26.180374 C79.6057709,24.5206623 78.2878337,23.1752002 76.6620758,23.1752002 L75.9694417,23.1752002 L75.9694417,23.1752002 C75.205067,23.0204501 74.4118487,23.1862145 73.76852,23.6351423 C73.1251912,24.08407 72.6858749,24.7783929 72.5495606,25.5616617 C72.5495606,26.1361802 70.0387619,38.2010692 60.81807,40.6317245 L60.81807,26.180374 C60.73415,24.6929622 59.5953903,23.4928754 58.1418095,23.3599853 C56.6882287,23.2270953 55.3587198,24.2015268 55.0172591,25.6500492 C55.0172591,25.6500492 52.073564,41.1178556 40.3420733,41.1178556 L22.7231924,41.1178556 C21.1143652,41.1420115 19.822613,42.4804244 19.822787,44.1230294 C19.7837151,44.4015019 19.7837151,44.6842378 19.822787,44.9627103 L19.822787,81.3341523 C16.7000835,93.3496221 12.8544354,105.157033 8.30774448,116.689138 L9.60643348,45.5372289 Z M11.0349914,126.279178 C12.5934182,122.124967 14.4548724,117.042688 16.3163267,111.783634 L11.0349914,146.608295 L11.0349914,126.279178 Z M32.3767807,239.945459 C30.1524721,240.013048 28.133051,238.626802 27.3551832,236.498347 L37.0520611,236.498347 C36.3129159,238.520619 34.4469373,239.883794 32.3334911,239.945459 L32.3767807,239.945459 Z M37.5715367,230.488 L27.3551832,230.488 L27.3551832,222.046997 L28.0045277,222.046997 C28.0513526,223.647683 29.3362946,224.920303 30.9049332,224.91959 L37.7014056,224.91959 L37.5715367,230.488 Z M68.8699418,224.91959 C69.6087319,224.923019 70.3209578,224.638501 70.8612649,224.124102 L70.8612649,230.532194 L60.4717529,230.532194 L60.4717529,224.963783 L68.8699418,224.91959 Z M65.6665089,239.945459 C63.4942892,239.931054 61.5602149,238.538349 60.81807,236.454154 L70.6448168,236.454154 C69.8866575,238.584376 67.8862398,239.987276 65.6665089,239.945459 L65.6665089,239.945459 Z M71.7703472,216.080843 L71.7703472,177.32294 C71.7703472,175.675432 70.4621008,174.339863 68.848297,174.339863 C67.2344932,174.339863 65.9262467,175.675432 65.9262467,177.32294 L65.9262467,218.997629 L33.6754697,218.997629 L33.6754697,177.32294 C33.4953608,175.815079 32.2413735,174.681526 30.7534195,174.681526 C29.2654654,174.681526 28.0114781,175.815079 27.8313692,177.32294 L27.8313692,216.125037 L6.18655243,216.125037 L22.2037168,110.590403 C22.7562807,106.695809 25.2227106,103.360787 28.7404515,101.751657 C30.5912006,111.572363 39.0089844,118.670229 48.8051966,118.670229 C58.6014089,118.670229 67.0191927,111.572363 68.8699418,101.751657 C72.3876827,103.360787 74.8541126,106.695809 75.4066765,110.590403 L91.4238409,216.125037 L71.7703472,216.080843 Z" id="Shape"></path>
                    </g>
                </g>
            </g>
        </g>
    </g>
</svg>
