<?xml version="1.0" encoding="UTF-8"?>
<svg viewBox="0 0 91 243" version="1.1" xmlns="http://www.w3.org/2000/svg" xmlns:xlink="http://www.w3.org/1999/xlink">
    <!-- Generator: sketchtool 58 (101010) - https://sketch.com -->
    <title>8A38FE29-E4FC-4FEB-967D-ACD5064068AE</title>
    <desc>Created with sketchtool.</desc>
    <g id="Symbols" stroke="none" stroke-width="1" fill="none" fill-rule="evenodd">
        <g id="Icon/Avatar/Man">
            <polygon id="Path-2" fill="#68CAC0" points="15.4958465 79.6098558 15.4958465 145.573336 75.5397 146.604554 75.5397 79.6098558 65.361202 75.0779605 65.361202 87.0001334 58.1426735 84.141751 57.0897756 98.9622663 34.0723192 98.9622663 34.0723192 83.9804736 26.3811482 88.2375954 26.3811482 75.0779605"></polygon>
            <polygon id="Pants-Man" fill="#FAF5E2" points="16.0385126 149.134232 13 179.106663 19.1090096 225 35.9112857 223.881743 45.9438737 179.106663 54.0925136 223.881743 74.8715877 223.881743 77.2224029 204.655673 78 170.422306 78 158.163526 72.86018 148"></polygon>
            <polygon id="Hair-Man" fill="#987B76" points="16 33.2070646 26.6114681 28.5898802 31.3649573 17.9150744 59.8676747 17.9150744 64.5688906 28.5898802 75.06531 33.2070646 73.3907199 17.9150744 59.8676747 6.38668532 48.0320297 3 33.535199 4.92908713 22.2428384 14.3534051 16 24.5905025"></polygon>
            <g id="noun_Man_1100584" fill="#000000" fill-rule="nonzero">
                <path d="M38,41 C39.1391605,40.8561999 40,39.7801505 40,38.5 C40,37.2198495 39.1391605,36.1438001 38,36 C36.8608395,36.1438001 36,37.2198495 36,38.5 C36,39.7801505 36.8608395,40.8561999 38,41 L38,41 Z" id="Path"></path>
                <path d="M54,41 C55.1391605,40.8561999 56,39.7801505 56,38.5 C56,37.2198495 55.1391605,36.1438001 54,36 C52.8608395,36.1438001 52,37.2198495 52,38.5 C52,39.7801505 52.8608395,40.8561999 54,41 L54,41 Z" id="Path"></path>
                <path d="M78.2269327,78.4647862 C78.1014367,77.723822 77.59812,77.100902 76.8977556,76.8197566 L60.0399002,70.0783608 L57.4139651,68.884908 L56.3441397,61.7564465 C70.9887065,56.554876 79.7465803,41.6225346 77.0937223,26.3780132 C74.4408643,11.1334919 61.1470032,0 45.5972569,0 C30.0475105,0 16.7536494,11.1334919 14.1007914,26.3780132 C11.4479334,41.6225346 20.2058072,56.554876 34.8503741,61.7564465 L33.6184539,69.0784409 L31.1870324,70.0461053 L31.1870324,70.0461053 L14.2643392,76.8197566 C13.5851631,77.1037529 13.0969674,77.7109204 12.967581,78.4325307 C5.19745186,81.2672465 0.0232504752,88.6161746 0,96.8504109 L0,139.363136 C0.0516212132,147.154898 4.69772626,154.189956 11.8653367,157.32944 C11.3790524,171.199297 11.1521197,189.584922 11.1521197,194.745799 C11.1189618,204.636619 12.0307932,214.508184 13.8753117,224.227309 C14.0634725,225.255679 14.9643944,226.002662 16.0149626,226.001361 L17.4738155,226.001361 L17.4738155,234.774852 C17.4738155,239.317476 21.1750026,243 25.7406484,243 L27.361596,243 C31.9272418,243 35.6284289,239.317476 35.6284289,234.774852 L35.6284289,226.001361 L36.8279302,226.001361 C37.8961914,226.002411 38.8114837,225.241248 39,224.195054 L45.4837905,185.746519 L51.967581,224.195054 C52.1560973,225.241248 53.0713896,226.002411 54.1396509,226.001361 L55.3391521,226.001361 L55.3391521,234.774852 C55.3391521,239.317476 59.0403393,243 63.605985,243 L65.2269327,243 C69.7925784,243 73.4937656,239.317476 73.4937656,234.774852 L73.4937656,226.001361 L74.9526185,226.001361 C76.0031866,226.002662 76.9041085,225.255679 77.0922693,224.227309 C78.9363999,214.50813 79.8482279,204.636602 79.8154613,194.745799 C79.8154613,189.649433 79.5561097,171.296063 79.1022444,157.32944 C86.2881181,154.206227 90.9509881,147.165022 91,139.363136 L91,96.8504109 C90.9750821,88.6829125 85.8974217,81.3740996 78.2269327,78.4647862 Z M62.8279302,76.5294572 L62.5685786,83.9804736 L59.6184539,81.3355241 C58.988455,80.7797425 58.0952918,80.6295465 57.3167082,80.9484583 L57.0897756,80.9484583 L60.1047382,74.9166831 L62.8279302,76.5294572 Z M31.0573566,75.0779605 L34.0723192,81.1097357 L33.8453865,81.1097357 C33.066803,80.7908239 32.1736397,80.9410199 31.5436409,81.4968015 L28.5935162,84.141751 L28.3341646,76.6907346 L31.0573566,75.0779605 Z M42.0149626,96.9149219 L36.0174564,96.9149219 L35.2394015,83.5288968 L42.0149626,96.9149219 Z M47.7855362,101.301667 L57.2518703,101.301667 C58.3953895,101.270136 59.3246686,100.373561 59.3915212,99.2373166 L60.0723192,87.7866205 L63.1521197,90.5283364 C63.7795776,91.117947 64.6983574,91.2820051 65.4927236,90.9462767 C66.2870898,90.6105483 66.8063168,89.8387355 66.8154613,88.9800733 L67.1720698,77.787421 L73.915212,80.4968815 L73.915212,144.33048 L47.7855362,144.33048 L47.7855362,101.301667 Z M49.1795511,96.9149219 L55.9551122,83.4321304 L55.1770574,96.8181554 L49.1795511,96.9149219 Z M45.5810474,4.37394392 C60.1572485,4.39900414 72.1987953,15.7016721 73.0723192,30.1783295 C67.0221868,29.1124462 62.6180756,23.8732135 62.6334165,17.759969 C62.6335468,16.5610882 61.666173,15.5842268 60.4613466,15.5665962 L30.7007481,15.5665962 C29.4959217,15.5842268 28.528548,16.5610882 28.5286783,17.759969 C28.5177317,23.863723 24.1258716,29.0883815 18.0897756,30.1783295 C18.9632995,15.7016721 31.0048462,4.39900414 45.5810474,4.37394392 Z M18.1221945,34.4360532 C25.676139,33.3517642 31.5910199,27.4140461 32.6134663,19.8888308 L58.5486284,19.8888308 C59.5397687,27.4293458 65.4703003,33.382775 73.0399002,34.4360532 C71.587716,48.4300601 59.7369545,59.0663411 45.5972569,59.0663411 C31.4575592,59.0663411 19.6067977,48.4300601 18.1546135,34.4360532 L18.1221945,34.4360532 Z M45.5810474,63.465987 C47.7598529,63.4604254 49.9323901,63.2334593 52.0648379,62.7886219 L53.2319202,70.5299376 C53.3343129,71.2686151 53.812205,71.9025916 54.4962594,72.2072226 L56.1820449,72.9813542 L45.5810474,94.2699723 L35.0124688,73.1426316 L36.3740648,72.5942884 C37.0918517,72.3110439 37.6083639,71.6747771 37.7356608,70.9170034 L39.0972569,62.8531328 C41.2262915,63.3307305 43.3988896,63.5901276 45.5810474,63.6272644 L45.5810474,63.465987 Z M17.2468828,80.1420712 L23.9900249,77.4326107 L24.3466334,88.625263 C24.355778,89.4839252 24.875005,90.255738 25.6693712,90.5914664 C26.4637374,90.9271948 27.3825172,90.7631367 28.0099751,90.1735261 L31.0897756,87.4318102 L31.7705736,98.9470172 C31.8374262,100.083262 32.7667053,100.979837 33.9102244,101.011368 L43.3765586,101.011368 L43.3765586,144.33048 L17.2468828,144.33048 L17.2468828,80.1420712 Z M4.27930175,139.201859 L4.27930175,96.8504109 C4.2970673,91.0634344 7.59719658,85.7823862 12.8054863,83.206342 L12.8054863,146.394831 L12.1571072,152.68465 C7.34231284,149.957337 4.36189724,144.875574 4.34413965,139.363136 L4.27930175,139.201859 Z M27.2967581,238.484233 L25.6758105,238.484233 C23.6940272,238.479405 22.032643,236.993088 21.8179551,235.032896 L31.1546135,235.032896 C31.036988,237.045156 29.3869209,238.630774 27.361596,238.677765 L27.2967581,238.484233 Z M31.1870324,230.678406 L21.7855362,230.678406 L21.7855362,225.840084 L31.1870324,225.840084 L31.1870324,230.678406 Z M65.3566085,238.484233 L63.7356608,238.484233 C61.7538775,238.479405 60.0924934,236.993088 59.8778055,235.032896 L69.2144638,235.032896 C69.0968384,237.045156 67.4467712,238.630774 65.4214464,238.677765 L65.3566085,238.484233 Z M69.2468828,230.678406 L59.8453865,230.678406 L59.8453865,225.840084 L69.2468828,225.840084 L69.2468828,230.678406 Z M73.3316708,221.517849 L56.1820449,221.517849 L47.7531172,172.295983 C47.6193267,171.212491 46.6944284,170.398396 45.5972569,170.398396 C44.5000854,170.398396 43.575187,171.212491 43.4413965,172.295983 L34.9800499,221.517849 L17.8304239,221.517849 C16.2563478,212.636886 15.4752464,203.634751 15.4958465,194.616777 C15.4958465,189.326878 15.755611,169.780056 16.2743142,155.910199 L17.0523691,148.523693 L74.1097257,148.523693 L74.7581047,155.942454 C75.276808,169.909078 75.5361596,189.4559 75.5361596,194.649032 C75.5975736,203.652404 74.8598796,212.643588 73.3316708,221.517849 L73.3316708,221.517849 Z M86.8179551,139.234114 C86.7753395,144.748409 83.7699161,149.81833 78.9401496,152.523373 L78.2917706,146.233554 L78.2917706,83.206342 C83.4842775,85.7996219 86.7776716,91.069892 86.8179551,96.8504109 L86.8179551,139.234114 Z" id="Shape"></path>
            </g>
        </g>
    </g>
</svg>
