<?xml version="1.0" encoding="UTF-8"?>
<svg viewBox="0 0 107 288" version="1.1" xmlns="http://www.w3.org/2000/svg" xmlns:xlink="http://www.w3.org/1999/xlink">
    <!-- Generator: Sketch 58 (84663) - https://sketch.com -->
    <title>Rolf</title>
    <desc>Created with Sketch.</desc>
    <g id="Symbols" stroke="none" stroke-width="1" fill="none" fill-rule="evenodd">
        <g id="Icon/Avatar/Man" transform="translate(-6.000000, 0.000000)">
            <g id="Rolf" transform="translate(6.000000, 0.000000)">
                <polygon id="Path-20" fill="#FFFFFF" points="37.1295871 21 31.6539811 33.4917742 19 38.9919565 22.8616118 54.3450527 36.0664644 68.5305856 58.566006 73 76.5504145 65.61575 88.0628278 51.6245396 90 38.9919565 76.917511 33.4917742 71.4201256 21"></polygon>
                <polygon id="Path-21" fill="#FFFFFF" points="45.2214569 71 42.0256754 82.7856372 32 87.0194683 32 103.265597 38.6107284 99.4465046 40.6746133 117 67.32056 117 68.6351931 99.2554868 76 104.231633 76 87.0194683 68.6351931 84.5245017 63.7437097 71"></polygon>
                <polygon id="Path-2" fill="#92AA83" points="19 94.3855646 19 172.774532 90 174 90 94.3855646 77.9642409 89 77.9642409 103.167943 69.4285542 99.7711293 68.1835349 117.383373 40.9661045 117.383373 40.9661045 99.5794722 31.8715326 104.638505 31.8715326 89"></polygon>
                <polygon id="Pants-Man" fill="#FAF5E2" points="19.5527224 177.340456 16 212.76242 23.142842 267 42.7885802 265.678423 54.5189908 212.76242 64.0466313 265.678423 88.3421641 265.678423 91.0908095 242.956704 92 202.499088 92 188.01144 85.9903643 176"></polygon>
                <polygon id="Hair-Man" fill="#987B76" points="19 39 31.3963 33.6502099 36.9493184 21.2816396 70.2461469 21.2816396 75.7380997 33.6502099 88 39 86.0437466 21.2816396 70.2461469 7.92404849 56.4197655 4 39.4845912 6.23517414 26.2928738 17.1548425 19 29.0162536"></polygon>
                <polygon id="Path-22" fill="#FFFFFF" points="90 95 90.9836066 185 98.7295082 181.172454 105 169.973925 104.262295 110.40954 98.7295082 100.355996"></polygon>
                <polygon id="Path-22" fill="#FFFFFF" transform="translate(9.500000, 140.000000) scale(-1, 1) translate(-9.500000, -140.000000) " points="2 95 2.98360656 185 10.7295082 181.172454 17 169.973925 16.2622951 110.40954 10.7295082 100.355996"></polygon>
                <polygon id="Path-10" fill="#FFFFFF" points="23 265 23 275 37 275 37 265"></polygon>
                <polygon id="Path-10" fill="#AFB4BB" points="23 274 23 284 37 284 37 274"></polygon>
                <polygon id="Path-10" fill="#AFB4BB" points="69 274 69 284 83 284 83 274"></polygon>
                <polygon id="Path-10" fill="#FFFFFF" points="69 265 69 275 83 275 83 265"></polygon>
                <g id="noun_Man_1100584" fill="#000000" fill-rule="nonzero">
                    <path d="M45.1012658,48.8333333 C47.030767,48.8333333 48.5949367,47.2663298 48.5949367,45.3333333 C48.5949367,43.4003368 47.030767,41.8333333 45.1012658,41.8333333 C43.1717646,41.8333333 41.6075949,43.4003368 41.6075949,45.3333333 C41.6075949,47.2663298 43.1717646,48.8333333 45.1012658,48.8333333 Z" id="Path"></path>
                    <path d="M63.1012658,48.8333333 C65.030767,48.8333333 66.5949367,47.2663298 66.5949367,45.3333333 C66.5949367,43.4003368 65.030767,41.8333333 63.1012658,41.8333333 C61.1717646,41.8333333 59.6075949,43.4003368 59.6075949,45.3333333 C59.6075949,47.2663298 61.1717646,48.8333333 63.1012658,48.8333333 Z" id="Path"></path>
                    <path d="M91.9811186,92.9953021 C91.8335575,92.1171223 91.2417455,91.3788468 90.4182401,91.0456374 L70.5963662,83.055835 L67.5087282,81.6413724 L66.2508016,73.1928254 C83.4702373,67.0280012 93.7679571,49.3304113 90.6486625,31.2628305 C87.5293679,13.1952497 71.8981247,0 53.614357,0 C35.3305893,0 19.699346,13.1952497 16.5800514,31.2628305 C13.4607568,49.3304113 23.7584766,67.0280012 40.9779124,73.1928254 L39.5293908,81.8707447 L36.6704667,83.0176063 L16.7723548,91.0456374 C15.9737632,91.3822257 15.3997309,92.1018316 15.2475953,92.9570734 C6.11128955,96.3167365 0.0273384709,105.026577 0,114.785672 L0,165.171124 C0.0606974705,174.405805 5.52370011,182.743652 13.9515497,186.464521 C13.3797649,202.902871 13.112932,224.693241 13.112932,230.809836 C13.0739441,242.53229 14.1460975,254.231922 16.314927,265.750885 C16.536171,266.969694 17.5954968,267.855006 18.8307802,267.853465 L20.5461347,267.853465 L20.5461347,278.251677 C20.5461347,283.635527 24.89808,288 30.2664767,288 L32.1724261,288 C37.5408227,288 41.8927681,283.635527 41.8927681,278.251677 L41.8927681,267.853465 L43.3031706,267.853465 C44.5592581,267.85471 45.6354809,266.952591 45.8571429,265.712657 L53.4809405,220.144023 L61.1047382,265.712657 C61.3264001,266.952591 62.402623,267.85471 63.6587104,267.853465 L65.0691129,267.853465 L65.0691129,278.251677 C65.0691129,283.635527 69.4210583,288 74.7894549,288 L76.6954043,288 C82.063801,288 86.4157463,283.635527 86.4157463,278.251677 L86.4157463,267.853465 L88.1311008,267.853465 C89.3663843,267.855006 90.42571,266.969694 90.646954,265.750885 C92.8153274,254.231858 93.8874768,242.532269 93.8489491,230.809836 C93.8489491,224.769698 93.5439971,203.017557 93.0103313,186.464521 C101.459655,182.762936 106.942371,174.417804 107,165.171124 L107,114.785672 C106.970701,105.105674 101.000265,96.4433773 91.9811186,92.9953021 Z M73.8745992,90.7015789 L73.5696473,99.5324131 L70.1008194,96.3976581 C69.3600515,95.738954 68.3098486,95.560944 67.3943712,95.9389135 L67.1275383,95.9389135 L70.6726042,88.790143 L73.8745992,90.7015789 Z M36.5179907,88.9812866 L40.0630566,96.1300571 L39.7962237,96.1300571 C38.8807464,95.7520876 37.8305434,95.9300976 37.0897756,96.5888017 L33.6209476,99.7235567 L33.3159957,90.8927225 L36.5179907,88.9812866 Z M49.4022088,114.86213 L42.3501959,114.86213 L41.4353402,98.9972111 L49.4022088,114.86213 Z M56.1873887,120.061235 L67.3181332,120.061235 C68.6627107,120.023865 69.7553795,118.961258 69.8339865,117.614597 L70.6344852,104.043402 L74.2557891,107.292843 C74.9935692,107.991641 76.0738927,108.18608 77.0079277,107.78818 C77.9419627,107.390279 78.5524824,106.475538 78.5632348,105.457865 L78.9825436,92.192499 L86.9112932,95.4037114 L86.9112932,171.058347 L56.1873887,171.058347 L56.1873887,120.061235 Z M57.8265052,114.86213 L65.7933737,98.8825249 L64.878518,114.747443 L57.8265052,114.86213 Z M53.5952975,5.18393354 C70.7343472,5.21363454 84.893089,18.6093891 85.9201995,35.7669091 C78.8063076,34.50364 73.6278472,28.294179 73.6458853,21.0488521 C73.6460385,19.6279564 72.5085771,18.4701947 71.0919131,18.4492992 L36.0986819,18.4492992 C34.6820179,18.4701947 33.5445564,19.6279564 33.5447097,21.0488521 C33.5318383,28.282931 28.3677831,34.4751188 21.2703954,35.7669091 C22.297506,18.6093891 36.4562478,5.21363454 53.5952975,5.18393354 Z M21.3085144,40.8131001 C30.1906249,39.5280169 37.1454849,32.4907213 38.3477022,23.5719476 L68.8428928,23.5719476 C70.0082995,32.5088543 76.9815618,39.5647704 85.8820805,40.8131001 C84.1745672,57.3985897 70.2401553,70.0045524 53.614357,70.0045524 C36.9885586,70.0045524 23.0541467,57.3985897 21.3466334,40.8131001 L21.3085144,40.8131001 Z M53.5952975,75.2189476 C56.1571897,75.2123561 58.7117115,74.9433591 61.2190951,74.4161445 L62.5913787,83.5910371 C62.7117745,84.4665068 63.2736916,85.2178864 64.0780192,85.5789305 L66.0602066,86.4964198 L53.5952975,111.727375 L41.1685073,86.6875634 L42.7695048,86.0376752 C43.6134959,85.701978 44.2208235,84.947884 44.3705023,84.0497818 L45.9714998,74.4926019 C48.4748702,75.0586435 51.0294636,75.3660772 53.5952975,75.4100912 L53.5952975,75.2189476 Z M20.2793017,94.9831955 L28.2080513,91.7719831 L28.6273602,105.037349 C28.6381125,106.055022 29.2486322,106.969764 30.1826672,107.367664 C31.1167022,107.765564 32.1970257,107.571125 32.9348058,106.872327 L36.5561097,103.622886 L37.3566085,117.270539 C37.4352154,118.617199 38.5278842,119.679807 39.8724617,119.717177 L51.0032063,119.717177 L51.0032063,171.058347 L20.2793017,171.058347 L20.2793017,94.9831955 Z M5.03170645,164.979981 L5.03170645,114.785672 C5.05259562,107.927033 8.93296741,101.668013 15.0570004,98.6149239 L15.0570004,173.504985 L14.2946206,180.959586 C8.63326894,177.727214 5.12882423,171.704384 5.10794442,165.171124 L5.03170645,164.979981 Z M32.0961881,282.647979 L30.1902387,282.647979 C27.8600099,282.642258 25.9065143,280.880697 25.6540791,278.557506 L36.6323477,278.557506 C36.4940408,280.942407 34.553852,282.821658 32.1724261,282.877352 L32.0961881,282.647979 Z M36.6704667,273.396629 L25.6159601,273.396629 L25.6159601,267.662321 L36.6704667,267.662321 L36.6704667,273.396629 Z M76.8478803,282.647979 L74.9419309,282.647979 C72.6117021,282.642258 70.6582065,280.880697 70.4057713,278.557506 L81.3840399,278.557506 C81.245733,280.942407 79.3055442,282.821658 76.9241183,282.877352 L76.8478803,282.647979 Z M81.4221589,273.396629 L70.3676523,273.396629 L70.3676523,267.662321 L81.4221589,267.662321 L81.4221589,273.396629 Z M86.2251514,262.539673 L66.0602066,262.539673 L56.1492697,204.202647 C55.9919556,202.918508 54.9044377,201.953654 53.614357,201.953654 C52.3242762,201.953654 51.2367584,202.918508 51.0794442,204.202647 L41.1303883,262.539673 L20.9654435,262.539673 C19.1146067,252.014087 18.1961689,241.34489 18.2203909,230.656921 C18.2203909,224.387411 18.5258283,201.220807 19.1357321,184.782457 L20.0505878,176.028081 L87.1400071,176.028081 L87.9023869,184.820686 C88.5122907,201.373722 88.8172426,224.540326 88.8172426,230.69515 C88.8894547,241.365812 88.0220562,252.022031 86.2251514,262.539673 L86.2251514,262.539673 Z M102.082651,165.01821 C102.032542,171.55367 98.4986926,177.562465 92.8197364,180.768442 L92.0573566,173.313842 L92.0573566,98.6149239 C98.1628318,101.688441 102.035284,107.934687 102.082651,114.785672 L102.082651,165.01821 Z" id="Shape"></path>
                </g>
            </g>
        </g>
    </g>
</svg>
