<?xml version="1.0" encoding="UTF-8"?>
<svg viewBox="0 0 92 273" version="1.1" xmlns="http://www.w3.org/2000/svg" xmlns:xlink="http://www.w3.org/1999/xlink">
    <!-- Generator: Sketch 58 (84663) - https://sketch.com -->
    <title>Sophie</title>
    <desc>Created with Sketch.</desc>
    <g id="Symbols" stroke="none" stroke-width="1" fill="none" fill-rule="evenodd">
        <g id="Icon/Avatar/Woman" transform="translate(-11.000000, -15.000000)">
            <g id="Sophie" transform="translate(11.000000, 15.000000)">
                <polygon id="Jupe-Woman" fill="#FADB9A" points="22.9118609 115.426389 17.9473264 128.43832 15.8368159 147.504382 11 202.066605 12.2542402 227.981629 76.324434 229 81.000529 229 83 188.775153 77.4382329 179.148531 78.4107379 155.850682 75.3323014 148.401486 79.0201005 137.885793 73.4862931 117.032774 62.3387993 112 29.2130646 112.938753"></polygon>
                <polygon id="Hair-Woman" fill="#E0BAA3" points="4 97 22.3435325 94.9726801 38.2480022 94.9726801 38.2480022 82.9214223 25.8159707 75.0512131 21.1240011 69.6404443 21.1240011 49.7000585 48.6810562 46.6234943 68.8628819 34.9135617 73.1092283 28.9092222 73.1092283 58.6032139 73.1092283 72.402585 53.116862 82.9214223 54.8584762 94.9726801 90 94.9726801 90 72.402585 90 58.6032139 87.9867384 33.9432945 77.0344349 13.3656176 56.9347854 3.74183369 38.2480022 2 19.6535454 10.9165756 10.039023 23.1002649 4.90585346 38.2351231 4 58.6032139"></polygon>
                <polygon id="Path-23" fill="#FFFFFF" points="20.2736751 51.02096 20.2736751 72.6883144 37.1976108 81.4544959 37.1976108 96.5906221 17.2610122 98.6560597 9.38245174 107.601333 7 118.007819 7.82960469 166.966116 12.7119662 157.042137 17.2610122 119.000217 27.7401173 110.234035 61.7539096 110.234035 72.8266041 116.525888 80.7734366 169 86 152.576346 83.9873154 110.234035 72.8266041 97.4982622 55.3374946 97.4982622 55.3374946 81.4544959 67.8929844 72.6883144 73.8627583 66.7339269 72.8266041 32 59.0139143 42.7509774 35.6177264 51.02096"></polygon>
                <polygon id="Path-11" fill="#A5B4B3" points="25 262 40 262 38.9775617 269.090214 33.6163052 271 26.5502826 269.090214"></polygon>
                <polygon id="Path-11-Copy" fill="#A5B4B3" points="52 262 67 262 65.9775617 269.090214 60.6163052 271 53.5502826 269.090214"></polygon>
                <g id="noun_Woman_1089876">
                    <polygon id="Path-2" fill="#FFFFFF" points="22.9226669 228.666667 22.9226669 260.953269 38.7484294 260.953269 38.7484294 228.666667"></polygon>
                    <polygon id="Path-2" fill="#FFFFFF" points="53.2011479 228.666667 53.2011479 260.953269 69.0269104 260.953269 69.0269104 228.666667"></polygon>
                    <path d="M36.1012658,61.8333333 C38.030767,61.8333333 39.5949367,60.2663298 39.5949367,58.3333333 C39.5949367,56.4003368 38.030767,54.8333333 36.1012658,54.8333333 C34.1717646,54.8333333 32.6075949,56.4003368 32.6075949,58.3333333 C32.6075949,60.2663298 34.1717646,61.8333333 36.1012658,61.8333333 Z" id="Path" fill="#000000" fill-rule="nonzero"></path>
                    <path d="M55.8987342,61.8333333 C57.8282354,61.8333333 59.3924051,60.2663298 59.3924051,58.3333333 C59.3924051,56.4003368 57.8282354,54.8333333 55.8987342,54.8333333 C53.969233,54.8333333 52.4050633,56.4003368 52.4050633,58.3333333 C52.4050633,60.2663298 53.969233,61.8333333 55.8987342,61.8333333 L55.8987342,61.8333333 Z" id="Path" fill="#000000" fill-rule="nonzero"></path>
                    <path d="M37.3341669,142.292149 C36.0172118,142.059931 35.0242717,140.873335 34.9421725,139.433635 C34.8600732,137.993936 35.7106759,136.684492 36.9912759,136.279183 L42.0584436,135.537858 C44.3119466,135.265158 46.5865637,135.265158 48.8400667,135.537858 L54.8597096,136.237998 C56.2637044,136.594846 57.2015884,138.026788 57.0465693,139.57685 C56.8915503,141.126912 55.6922324,142.309092 54.2501255,142.333333 L48.2304826,141.633193 C46.4074451,141.412173 44.5672632,141.412173 42.7442257,141.633193 L37.829454,142.250964 L37.3341669,142.292149 Z" id="Path" fill="#000000" fill-rule="nonzero"></path>
                    <path d="M46.7523338,0 C21.7715238,0 1.50864665,20.232014 1.46612613,45.2173115 L0.00155089865,97.4118893 C-0.0256881214,98.238341 0.306971175,99.0359473 0.913335311,99.5980451 C1.51969945,100.160143 2.3400936,100.431414 3.16195007,100.34157 L12.4118989,100.34157 C7.02637161,106.146281 4.1099362,113.818863 4.27965222,121.73595 L4.27965222,159.62906 C4.18856814,165.522483 5.95506551,171.294985 9.3285826,176.127789 L7.47859284,227.821237 C7.45778796,228.601282 7.75312389,229.356616 8.29748957,229.9156 C8.84185525,230.474583 9.58902039,230.789744 10.3692018,230.789466 L20.3514383,230.789466 L20.3514383,262.090794 C20.3514381,265.974506 22.4229986,269.563204 25.785783,271.50506 C29.1485675,273.446916 33.2916887,273.446916 36.6544731,271.50506 C40.0172576,269.563204 42.0888181,265.974506 42.0888179,262.090794 L42.0888179,230.828015 L49.8741915,230.828015 L49.8741915,262.129342 C49.8741915,268.133041 54.7402697,273 60.7428813,273 C66.745493,273 71.6115712,268.133041 71.6115712,262.129342 L71.6115712,230.828015 L81.5938076,230.828015 C82.3739891,230.828292 83.1211542,230.513131 83.6655199,229.954148 C84.2098856,229.395165 84.5052215,228.639831 84.4844166,227.859785 L82.6344268,176.08924 C86.0025769,171.268323 87.7689403,165.509745 87.6833572,159.62906 L87.6833572,121.774499 C87.8530732,113.857412 84.9366378,106.18483 79.5511106,100.380119 L89.109391,100.380119 C90.7058303,100.380119 92,99.0857145 92,97.4889862 L92,45.2944084 C91.9787886,20.3028351 71.7393551,0.0424936862 46.7523338,0 L46.7523338,0 Z M7.20880267,45.2944084 C7.20880267,23.4618092 24.9044168,5.76299068 46.7330631,5.76299068 C68.5617093,5.76299068 86.2573235,23.4618092 86.2573235,45.2944084 L86.2573235,91.5525275 C80.86152,86.965264 76.1209212,81.8383225 76.1209212,79.7567071 L76.1209212,26.5984185 C75.9517488,25.1404135 74.7171075,24.0405684 73.249583,24.0405684 C71.7820585,24.0405684 70.5474172,25.1404135 70.3782447,26.5984185 C70.3782447,38.1629483 48.4866992,48.1855408 22.5868426,48.1855408 C19.2722776,48.1855408 17.3837464,49.4576391 17.3837464,51.5392544 L17.3837464,79.7181587 C17.3837464,81.4913866 12.2962745,86.5412313 5.82131035,91.591076 L7.20880267,45.2944084 Z M70.3782447,67.8837899 C64.6165709,74.852165 56.1440333,79.015062 47.1082022,79.3172938 C38.0723711,79.6195256 29.3406928,76.0320776 23.1264229,69.4642756 L23.1264229,54.0449026 C44.0158906,54.0449026 61.6678762,48.0313471 70.3782447,39.2423044 L70.3782447,67.8837899 Z M52.1866787,99.5320531 C52.728253,100.074401 53.4629969,100.379444 54.2293757,100.380119 L60.7428813,100.380119 L60.7428813,108.089805 L31.297211,108.089805 L31.297211,100.380119 L38.6586286,100.380119 C40.2550679,100.380119 41.5492376,99.0857145 41.5492376,97.4889862 L41.5492376,84.8065518 C43.0328091,84.9854177 44.5257352,85.0755244 46.0200462,85.0763909 C47.8652013,85.0729828 49.7075054,84.9312415 51.531474,84.6523581 L51.531474,97.4889862 C51.469002,98.2237445 51.6896003,98.9546089 52.1481373,99.5320531 L52.1866787,99.5320531 Z M11.3327382,94.5978537 C16.9597904,89.9720418 22.8951742,83.9584863 22.8951742,79.7181587 L22.8951742,77.251059 C26.6732145,80.1764936 30.9779154,82.3488637 35.5753123,83.6500988 L35.5753123,94.5978537 L11.3327382,94.5978537 Z M9.98378731,121.581757 C9.98378731,109.785936 16.8056246,100.187376 25.4003686,100.187376 L25.6701588,100.187376 L25.6701588,108.783677 C19.5368531,110.743003 15.0519637,116.021179 14.1077228,122.391274 L10.2535775,160.284383 C10.2535775,160.014544 10.2535775,159.706156 10.2535775,159.436317 L9.98378731,121.581757 Z M31.0659623,267.063541 C28.9546233,267.029961 27.0835037,265.695397 26.363905,263.709828 L35.9221854,263.709828 C35.2586076,265.797753 33.333319,267.226452 31.1430452,267.256284 L31.0659623,267.063541 Z M36.1919756,257.966111 L26.0170319,257.966111 L26.0170319,230.828015 L36.230517,230.828015 L36.1919756,257.966111 Z M60.7814228,267.063541 C58.6700838,267.029961 56.7989642,265.695397 56.0793655,263.709828 L65.6376459,263.709828 C64.9740681,265.797753 63.0487795,267.226452 60.8585057,267.256284 L60.7814228,267.063541 Z M65.9074361,257.966111 L55.7324924,257.966111 L55.7324924,230.828015 L65.9459775,230.828015 L65.9074361,257.966111 Z M13.2983523,225.161395 L15.649381,162.867128 L19.8118579,123.316436 C20.6342293,117.868873 25.3264523,113.848583 30.8347136,113.871628 L61.1282959,113.871628 C66.6049593,113.823437 71.2926232,117.79064 72.1511515,123.200791 L76.3521699,162.751483 L78.7031986,225.161395 L13.2983523,225.161395 Z M81.9792221,121.851596 L81.9792221,159.62906 C81.9792221,159.937447 81.9792221,160.207286 81.9792221,160.515674 L77.9323695,122.468371 C76.964716,116.134295 72.4803631,110.901603 66.3699335,108.976419 L66.3699335,100.34157 L66.6397237,100.34157 C75.1188434,100.34157 81.9406807,109.978678 81.9406807,121.774499 L81.9792221,121.851596 Z M57.1199847,94.8676927 L57.1199847,83.3802598 C62.0061101,81.854475 66.5303309,79.3493079 70.4167861,76.0175092 L70.4167861,79.8723524 C70.4167861,84.3825191 76.0438383,90.3575261 81.0542273,94.7520474 L57.1199847,94.8676927 Z" id="Shape" fill="#000000" fill-rule="nonzero"></path>
                </g>
            </g>
        </g>
    </g>
</svg>
