<?xml version="1.0" encoding="UTF-8"?>
<svg width="79px" height="234px" viewBox="0 0 79 234" version="1.1" xmlns="http://www.w3.org/2000/svg" xmlns:xlink="http://www.w3.org/1999/xlink">
    <!-- Generator: sketchtool 58 (101010) - https://sketch.com -->
    <title>23B05FC2-19E7-4AA8-8190-ECF330DD6738</title>
    <desc>Created with sketchtool.</desc>
    <g id="Symbols" stroke="none" stroke-width="1" fill="none" fill-rule="evenodd">
        <g id="Icon/Avatar/Woman">
            <polygon id="Jupe-Woman" fill="#FADB9A" points="19.2574358 98.9285375 14.98242 110.049846 13.1650359 126.345625 9 172.980004 10.0800402 195.129598 65.251596 196 69.2782333 196 71 161.619789 66.2107006 153.391907 67.0481354 133.479215 64.3972595 127.112381 67.5728643 118.124609 62.8076413 100.301517 53.2084105 96 24.6834723 96.8023532"></polygon>
            <polygon id="Hair-Woman" fill="#F8EDDA" points="2 79.0314347 18.8408137 81.4733817 32.5578994 81.4733817 32.5578994 71.1719231 21.8356783 64.4444399 17.7890078 59.8192953 17.7890078 42.7741817 41.5560677 40.1443236 58.9622331 30.134631 62.6245682 25.0021 62.6245682 50.384631 62.6245682 62.1803831 45.3818053 71.1719231 46.8838906 81.4733817 77.1923071 81.4733817 77.1923071 62.1803831 77.1923071 50.384631 75.4559347 29.3052432 66.0099307 11.7153708 48.6746395 3.48892571 32.5578994 2 16.5207877 9.62192093 8.22857626 20.0365824 3.80138516 32.9739137 3.02011615 50.384631"></polygon>
            <g id="noun_Woman_1089876" fill="#000000" fill-rule="nonzero">
                <path d="M31,53 C32.6568543,53 34,51.6568542 34,50 C34,48.3431458 32.6568543,47 31,47 C29.3431457,47 28,48.3431458 28,50 C28,51.6568542 29.3431457,53 31,53 Z" id="Path"></path>
                <path d="M48,53 C49.6568543,53 51,51.6568542 51,50 C51,48.3431458 49.6568543,47 48,47 C46.3431457,47 45,48.3431458 45,50 C45,51.6568542 46.3431457,53 48,53 L48,53 Z" id="Path"></path>
                <path d="M32.0586868,121.964699 C30.9278232,121.765655 30.0751899,120.748573 30.0046916,119.514544 C29.9341933,118.280516 30.6646021,117.158136 31.7642478,116.810728 L36.1154027,116.175307 C38.0504759,115.941564 40.0036797,115.941564 41.9387529,116.175307 L47.1077941,116.775427 C48.3133983,117.081297 49.1187552,118.308675 48.9856411,119.6373 C48.8525269,120.965924 47.8226778,121.979222 46.5843469,122 L41.4153057,121.39988 C39.8498714,121.210434 38.2697151,121.210434 36.7042808,121.39988 L32.4839877,121.929398 L32.0586868,121.964699 Z" id="Path"></path>
                <path d="M40.1460258,0 C18.6951128,0 1.29546832,17.3417263 1.25895613,38.7576956 L0.00133174993,83.4959051 C-0.0220582782,84.2042922 0.263594813,84.8879549 0.78427706,85.369753 C1.30495931,85.8515511 2.0094282,86.0840689 2.71515278,86.0070602 L10.6580436,86.0070602 C6.03351475,90.9825269 3.52918435,97.5590256 3.67491875,104.3451 L3.67491875,136.824908 C3.59670525,141.876414 5.11358886,146.824273 8.01041332,150.966676 L6.42183516,195.275346 C6.40397009,195.943956 6.65757378,196.591385 7.12501822,197.070514 C7.59246266,197.549642 8.23405011,197.81978 8.90398854,197.819543 L17.4756915,197.819543 L17.4756915,224.649252 C17.4756914,227.978148 19.2545314,231.054175 22.1421398,232.718623 C25.0297481,234.383071 28.5874284,234.383071 31.4750367,232.718623 C34.3626451,231.054175 36.1414851,227.978148 36.141485,224.649252 L36.141485,197.852584 L42.8267514,197.852584 L42.8267514,224.682293 C42.8267514,229.828321 47.0052316,234 52.1596481,234 C57.3140646,234 61.4925448,229.828321 61.4925448,224.682293 L61.4925448,197.852584 L70.0642478,197.852584 C70.7341863,197.852822 71.3757737,197.582684 71.8432182,197.103555 C72.3106626,196.624427 72.5642663,195.976998 72.5464012,195.308387 L70.957823,150.933635 C73.8500388,146.80142 75.3668074,141.865496 75.2933176,136.824908 L75.2933176,104.378142 C75.439052,97.5920671 72.9347216,91.0155684 68.3101928,86.0401017 L76.5178466,86.0401017 C77.8887021,86.0401017 79,84.9306124 79,83.5619881 L79,38.8237786 C78.9817859,17.4024301 61.6022723,0.0364231596 40.1460258,0 L40.1460258,0 Z M6.19016751,38.8237786 C6.19016751,20.1101222 21.3853144,4.9397063 40.1294781,4.9397063 C58.8736417,4.9397063 74.0687886,20.1101222 74.0687886,38.8237786 L74.0687886,78.473595 C69.4354356,74.5416549 65.3647041,70.1471336 65.3647041,68.3628918 L65.3647041,22.7986445 C65.2194364,21.5489259 64.1592553,20.6062015 62.8990984,20.6062015 C61.6389415,20.6062015 60.5787604,21.5489259 60.4334927,22.7986445 C60.4334927,32.7110986 41.6353178,41.3018921 19.3952235,41.3018921 C16.549021,41.3018921 14.9273474,42.3922621 14.9273474,44.1765038 L14.9273474,68.3298503 C14.9273474,69.84976 10.5587575,74.1781982 4.99873389,78.5066365 L6.19016751,38.8237786 Z M60.4334927,58.1861056 C55.4859685,64.1589985 48.2106373,67.727196 40.4516084,67.9862518 C32.6925795,68.2453076 25.1947253,65.1703522 19.8585588,59.5408077 L19.8585588,46.3242022 C37.7962539,46.3242022 52.9539372,41.1697261 60.4334927,33.6362609 L60.4334927,58.1861056 Z M44.8124741,85.3131884 C45.2775216,85.7780576 45.908443,86.0395233 46.5665292,86.0401017 L52.1596481,86.0401017 L52.1596481,92.6484044 L26.874779,92.6484044 L26.874779,86.0401017 L33.1959963,86.0401017 C34.5668517,86.0401017 35.6781497,84.9306124 35.6781497,83.5619881 L35.6781497,72.6913301 C36.9520861,72.8446438 38.2340553,72.9218781 39.5172136,72.9226207 C41.1016403,72.9196996 42.6836188,72.798207 44.2498527,72.5591641 L44.2498527,83.5619881 C44.1962082,84.191781 44.3856351,84.8182362 44.7793787,85.3131884 L44.8124741,85.3131884 Z M9.731373,81.0838746 C14.5632982,77.118893 19.6599865,71.9644168 19.6599865,68.3298503 L19.6599865,66.2151934 C22.9041734,68.7227088 26.6006013,70.5847403 30.548366,71.7000847 L30.548366,81.0838746 L9.731373,81.0838746 Z M8.57303476,104.212934 C8.57303476,94.102231 14.4309167,85.8748941 21.8111861,85.8748941 L22.0428538,85.8748941 L22.0428538,93.2431517 C16.7762108,94.9225741 12.9250558,99.4467246 12.1142402,104.906806 L8.80470241,137.386614 C8.80470241,137.155323 8.80470241,136.890991 8.80470241,136.659701 L8.57303476,104.212934 Z M26.6762067,228.911607 C24.8632092,228.882824 23.2564869,227.738912 22.6385706,226.036995 L30.8462244,226.036995 C30.2764131,227.826645 28.6231761,229.051244 26.7423975,229.076814 L26.6762067,228.911607 Z M31.0778921,221.11381 L22.3407122,221.11381 L22.3407122,197.852584 L31.1109874,197.852584 L31.0778921,221.11381 Z M52.1927435,228.911607 C50.3797459,228.882824 48.7730236,227.738912 48.1551073,226.036995 L56.3627612,226.036995 C55.7929498,227.826645 54.1397128,229.051244 52.2589342,229.076814 L52.1927435,228.911607 Z M56.5944288,221.11381 L47.8572489,221.11381 L47.8572489,197.852584 L56.6275242,197.852584 L56.5944288,221.11381 Z M11.4192373,192.995482 L13.4380554,139.600395 L17.0123562,105.699802 C17.718523,101.030462 21.7477144,97.5845001 26.4776345,97.6042523 L52.4906019,97.6042523 C57.193389,97.5629457 61.2186656,100.963405 61.9558801,105.600678 L65.5632764,139.501271 L67.5820945,192.995482 L11.4192373,192.995482 Z M70.3952016,104.444225 L70.3952016,136.824908 C70.3952016,137.08924 70.3952016,137.320531 70.3952016,137.584863 L66.9201869,104.972889 C66.089267,99.5436814 62.2385727,95.0585165 56.9915734,93.4083592 L56.9915734,86.0070602 L57.223241,86.0070602 C64.5042243,86.0070602 70.3621062,94.2674386 70.3621062,104.378142 L70.3952016,104.444225 Z M49.0486825,81.3151652 L49.0486825,71.4687941 C53.2443772,70.1609786 57.1293059,68.0136925 60.4665881,65.157865 L60.4665881,68.4620164 C60.4665881,72.3278735 65.2985133,77.4493081 69.6009125,81.2160407 L49.0486825,81.3151652 Z" id="Shape"></path>
            </g>
        </g>
    </g>
</svg>