<?xml version="1.0" encoding="UTF-8"?>
<svg viewBox="0 0 117 116" version="1.1" xmlns="http://www.w3.org/2000/svg" xmlns:xlink="http://www.w3.org/1999/xlink">
    <!-- Generator: Sketch 58 (84663) - https://sketch.com -->
    <title>Room/1-Welt-der-Informatik</title>
    <desc>Created with Sketch.</desc>
    <g id="Room/1-Welt-der-Informatik" stroke="none" stroke-width="1" fill="none" fill-rule="evenodd">
        <g id="Welt-der-Informatik">
            <g id="Background">
                <path d="M14.4270054,19.9323476 C25.7866334,2.78884078 100.333118,4.06190123 108.142765,10.0297333 C115.952412,15.9975653 115.952412,100.738573 108.142765,106.933888 C100.333118,113.129203 17.1959511,116.718169 10.877166,106.933888 C4.55838088,97.1496065 3.06737735,37.0758544 14.4270054,19.9323476 Z" id="Rectangle" fill="var(--room-color)"></path>
                <path d="M9.12925581,15.1042273 C21.4355195,-3.48125673 102.194212,-2.10111643 110.654662,4.36868281 C119.115113,10.8384821 119.115113,102.707238 110.654662,109.423654 C102.194212,116.14007 12.128947,120.030912 5.28359648,109.423654 C-1.56175404,98.8163958 -3.17700788,33.6897113 9.12925581,15.1042273 Z" id="Rectangle" stroke="#000000" stroke-width="2"></path>
            </g>
        </g>
        <g id="Icon/Park-Sign" transform="translate(34.000000, 27.000000)" fill="#000000">
            <g id="park-sign">
                <path d="M17.7230769,32.21675 L26.6538462,32.21675 C27.0786806,32.21675 27.4230769,31.8697707 27.4230769,31.44175 C27.4230769,31.0137293 27.0786806,30.66675 26.6538462,30.66675 L17.7230769,30.66675 C17.2982425,30.66675 16.9538462,31.0137293 16.9538462,31.44175 C16.9538462,31.8697707 17.2982425,32.21675 17.7230769,32.21675 Z" id="Path" fill-rule="nonzero"></path>
                <path d="M31.0692308,34.379 L17.7230769,34.379 C17.2982425,34.379 16.9538462,34.7259793 16.9538462,35.154 C16.9538462,35.5820207 17.2982425,35.929 17.7230769,35.929 L31.0692308,35.929 C31.4940652,35.929 31.8384615,35.5820207 31.8384615,35.154 C31.8384615,34.7259793 31.4940652,34.379 31.0692308,34.379 Z" id="Path" fill-rule="nonzero"></path>
                <path d="M17.7230769,11.1135 L26.6538462,11.1135 C27.0786806,11.1135 27.4230769,10.7665207 27.4230769,10.3385 C27.4230769,9.91047932 27.0786806,9.5635 26.6538462,9.5635 L17.7230769,9.5635 C17.2982425,9.5635 16.9538462,9.91047932 16.9538462,10.3385 C16.9538462,10.7665207 17.2982425,11.1135 17.7230769,11.1135 Z" id="Path" fill-rule="nonzero"></path>
                <path d="M31.0692308,13.27575 L17.7230769,13.27575 C17.2982425,13.27575 16.9538462,13.6227293 16.9538462,14.05075 C16.9538462,14.4787707 17.2982425,14.82575 17.7230769,14.82575 L31.0692308,14.82575 C31.4940652,14.82575 31.8384615,14.4787707 31.8384615,14.05075 C31.8384615,13.6227293 31.4940652,13.27575 31.0692308,13.27575 Z" id="Path" fill-rule="nonzero"></path>
                <path d="M21.3076923,62 L27.5538462,62 L27.5538462,40.7805 L41.4769231,40.7805 C41.9017575,40.7805 42.2461538,40.4335207 42.2461538,40.0055 L42.2461538,26.59025 C42.2461538,26.1622293 41.9017575,25.81525 41.4769231,25.81525 L27.6307692,25.81525 L27.6307692,19.778 L41.6153846,19.778 C41.8086794,19.779434 41.9954248,19.7074958 42.1384615,19.5765 L49.4538462,12.76425 C49.6117009,12.6175304 49.7014868,12.4110041 49.7014868,12.194625 C49.7014868,11.9782459 49.6117009,11.7717196 49.4538462,11.625 L42.1692308,4.81275 C42.026194,4.68175418 41.8394486,4.609816 41.6461538,4.61125 L27.6230769,4.61125 L27.6230769,3.007 C27.6230769,1.34627976 26.2868191,0 24.6384615,0 L24.2692308,0 C22.6196242,0 21.2811637,1.34502692 21.2769231,3.007 L21.2769231,4.61125 L8.2,4.61125 C7.77516558,4.61125 7.43076923,4.95822932 7.43076923,5.38625 L7.43076923,19.003 C7.43076923,19.4310207 7.77516558,19.778 8.2,19.778 L21.2769231,19.778 L21.2769231,25.81525 L8.08461538,25.81525 C7.89397243,25.8157514 7.71030638,25.8875594 7.56923077,26.01675 L0.253846154,32.72825 C0.0934505863,32.8751315 0.00200528372,33.0833736 0.00200528372,33.30175 C0.00200528372,33.5201264 0.0934505863,33.7283685 0.253846154,33.87525 L7.55384615,40.579 C7.69492177,40.7081906 7.87858782,40.7799986 8.06923077,40.7805 L21.2769231,40.7805 M22.7615385,3.007 C22.7615385,2.19804091 23.4124476,1.54225 24.2153846,1.54225 L24.5846154,1.54225 C25.378526,1.55494786 26.0154846,2.2070343 26.0153846,3.007 L26.0153846,4.61125 L22.7615385,4.61125 L22.7615385,3.007 Z M8.91538462,6.16125 L41.2230769,6.16125 L47.7,12.1985 L41.2230769,18.228 L8.91538462,18.228 L8.91538462,6.16125 Z M22.7615385,19.778 L26.0153846,19.778 L26.0153846,25.81525 L22.7615385,25.81525 L22.7615385,19.778 Z M1.86153846,33.30175 L8.32307692,27.36525 L40.6307692,27.36525 L40.6307692,39.2305 L8.32307692,39.2305 L1.86153846,33.30175 Z M22.7615385,40.7805 L26.0153846,40.7805 L26.0153846,60.45 L22.7615385,60.45 L22.7615385,40.7805 Z" id="Shape" fill-rule="nonzero"></path>
            </g>
        </g>
    </g>
</svg>
