<?xml version="1.0" encoding="UTF-8"?>
<svg viewBox="0 0 121 120" version="1.1" xmlns="http://www.w3.org/2000/svg" xmlns:xlink="http://www.w3.org/1999/xlink">
    <!-- Generator: Sketch 58 (84663) - https://sketch.com -->
    <title>Room/2-Req-and-Design-unlocked</title>
    <desc>Created with Sketch.</desc>
    <g id="Room/2-Req-and-Design-unlocked" stroke="none" stroke-width="1" fill="none" fill-rule="evenodd">
        <g id="Background" transform="translate(60.500000, 60.000000) rotate(179.000000) translate(-60.500000, -60.000000) translate(2.000000, 2.000000)">
            <path d="M11.4274623,19.8799904 C22.7870903,2.73648356 97.3335753,4.00954401 105.143222,9.97737607 C112.952869,15.9452081 112.952869,100.686215 105.143222,106.88153 C97.3335753,113.076845 14.196408,116.665812 7.87762289,106.88153 C1.5588378,97.0972493 0.0678342605,37.0234972 11.4274623,19.8799904 Z" id="Rectangle" fill="#E0BAA3"></path>
            <path d="M9.12925581,15.1042273 C21.4355195,-3.48125673 102.194212,-2.10111643 110.654662,4.36868281 C119.115113,10.8384821 119.115113,102.707238 110.654662,109.423654 C102.194212,116.14007 12.128947,120.030912 5.28359648,109.423654 C-1.56175404,98.8163958 -3.17700788,33.6897113 9.12925581,15.1042273 Z" id="Rectangle" stroke="#000000" stroke-width="2"></path>
        </g>
        <g id="Icon/Idea" transform="translate(37.000000, 34.000000)" fill="#000000">
            <g id="Idea">
                <path d="M33.59375,22.7051984 C33.59375,16.1584909 28.3106124,10.8169014 21.8358235,10.8169014 C15.3610347,10.8169014 10.078125,16.1584909 10.078125,22.7051984 C10.078125,23.6483433 10.1813176,24.5914881 10.4403091,25.532538 C10.7519071,27.0505362 11.320466,27.993681 12.0974407,29.3030225 C12.2532397,29.6180815 12.4596249,29.9310875 12.6680509,30.2972841 C12.9270424,30.7166819 13.1334276,31.1361006 13.3923985,31.5022972 C14.4283647,33.231047 15.04953,34.2253085 15.04953,36.2691382 L15.04953,41.1914243 C15.04953,42.4475541 15.9296869,43.4439106 17.1214625,43.6525673 C17.6394456,46.3244619 19.1933949,48 21.8359375,48 C24.4784801,48 26.0829846,46.3244619 26.5504125,43.6525673 C27.7421881,43.4438897 28.622345,42.3964374 28.622345,41.1914243 L28.622345,36.2691382 C28.622345,34.2274035 29.2435103,33.1799303 30.2794765,31.5022972 C30.4858617,31.1360901 30.7448533,30.7166923 31.0038241,30.2972841 C31.2102093,29.931077 31.4186146,29.6160075 31.5744343,29.3030225 C32.351409,27.993681 32.9220191,27.0505362 33.2315659,25.532538 C33.4905574,24.5914357 33.59375,23.6482909 33.59375,22.7051984 L33.59375,22.7051984 Z M26.6007501,37.5274678 L17.1739756,37.5274678 L17.1739756,36.3224546 C17.1739756,36.0605863 17.1739756,35.8519087 17.1213692,35.6411781 L26.6009781,35.6411781 C26.6009781,35.8498557 26.5483717,36.0605759 26.5483717,36.3224546 L26.5503949,37.5274678 L26.6007501,37.5274678 Z M26.1353734,41.6661915 L17.5358179,41.6661915 C17.2768263,41.6661915 17.1210273,41.4575139 17.1210273,41.2467937 L17.1210273,39.6223723 L26.5478019,39.6223723 L26.5478019,41.2467937 C26.6004083,41.4554713 26.3940231,41.6661915 26.1350315,41.6661915 L26.1353734,41.6661915 Z M21.8356992,45.9604126 C21.265089,45.9604126 19.8163939,45.9604126 19.2457837,43.7611379 L24.478449,43.7611379 C23.9078388,45.9604126 22.4065166,45.9604126 21.8359064,45.9604126 L21.8356992,45.9604126 Z M31.2122294,25.1151723 C30.9532379,26.2669739 30.538437,27.0525788 29.8140894,28.2575919 C29.6077042,28.5726509 29.4519053,28.8856568 29.2434792,29.2518535 C28.9844877,29.6712513 28.7781025,30.09067 28.5696868,30.403655 C27.9485215,31.4511282 27.3779113,32.394273 27.0157375,33.4928629 L16.759154,33.4928629 C16.3969698,32.3921781 15.8789971,31.4511282 15.2052047,30.403655 C14.9988195,30.0374479 14.7398279,29.6712617 14.5314122,29.2518535 C14.3250271,28.8856464 14.1166217,28.5194602 13.9608021,28.2575919 C13.2364545,27.0014621 12.8216536,26.2669739 12.5626621,25.0619607 C12.3562769,24.2763558 12.2510641,23.4907509 12.2510641,22.705146 C12.2510641,17.3101353 16.6012935,12.9117954 21.9368302,12.9117954 C27.2725742,12.9117954 31.6225964,17.3103448 31.6225964,22.705146 C31.5214291,23.4907509 31.4182365,24.2763558 31.2118513,25.1151723 L31.2122294,25.1151723 Z" id="Shape" fill-rule="nonzero"></path>
                <path d="M42.0168322,20.9577465 L37.9362928,20.9577465 C37.394764,20.9577465 36.953125,21.4132935 36.953125,21.971831 C36.953125,22.5303887 37.3947836,22.9859155 37.9362928,22.9859155 L42.0168322,22.9859155 C42.558361,22.9859155 43,22.5303685 43,21.971831 C43,21.4152507 42.5583414,20.9577465 42.0168322,20.9577465 Z" id="Path" fill-rule="nonzero"></path>
                <path d="M33.2015088,11.4929577 C33.4390315,11.4929577 33.6765541,11.3977396 33.8658122,11.2054393 L36.6678199,8.38627132 C37.0482267,8.00353476 37.0482267,7.43036193 36.6678199,7.0476158 C36.287413,6.66487924 35.7177291,6.66487924 35.3373128,7.0476158 L32.5353051,9.8667838 C32.1548983,10.2495204 32.1548983,10.8226932 32.5353051,11.2054393 C32.7264349,11.3977396 32.9639576,11.4929577 33.2014613,11.4929577 L33.2015088,11.4929577 Z" id="Path" fill-rule="nonzero"></path>
                <path d="M21.1640625,6.08450704 C21.7191656,6.08450704 22.171875,5.64009981 22.171875,5.09522065 L22.171875,0.989286395 C22.171875,0.444387449 21.7191455,0 21.1640625,0 C20.6089795,0 20.15625,0.444407234 20.15625,0.989286395 L20.15625,5.09522065 C20.15625,5.64011959 20.6089795,6.08450704 21.1640625,6.08450704 Z" id="Path" fill-rule="nonzero"></path>
                <path d="M9.13608796,11.2054393 C9.32536504,11.3958756 9.56288773,11.4929577 9.80039142,11.4929577 C10.0378951,11.4929577 10.2754368,11.3977396 10.4646949,11.2054393 C10.8451017,10.8227028 10.8451017,10.2495299 10.4646949,9.8667838 L7.66268722,7.0476158 C7.28228038,6.66487924 6.71259647,6.66487924 6.33218013,7.0476158 C5.95177329,7.43035237 5.95177329,8.0035252 6.33218013,8.38627132 L9.13608796,11.2054393 Z" id="Path" fill-rule="nonzero"></path>
                <path d="M5.06370724,20.9577465 L0.983167761,20.9577465 C0.441638958,20.9577465 0,21.4132935 0,21.971831 C0,22.5303887 0.441658622,22.9859155 0.983167761,22.9859155 L5.06370724,22.9859155 C5.60523604,22.9859155 6.046875,22.5303685 6.046875,21.971831 C6.046875,21.4152507 5.60521638,20.9577465 5.06370724,20.9577465 Z" id="Path" fill-rule="nonzero"></path>
                <path d="M9.13543564,34.0898693 L6.33229544,36.9090373 C5.95173485,37.2917739 5.95173485,37.8649467 6.33229544,38.2476928 C6.52164903,38.4381291 6.75926772,38.5352113 6.9968674,38.5352113 C7.23446709,38.5352113 7.47210479,38.4399931 7.66143936,38.2476928 L10.4645796,35.4285248 C10.8451401,35.0457883 10.8451401,34.4726154 10.4645796,34.0898693 C10.0858771,33.7071328 9.46952752,33.7071328 9.13538811,34.0898693 L9.13543564,34.0898693 Z" id="Path" fill-rule="nonzero"></path>
                <path d="M33.8664677,34.0898693 C33.4859073,33.7071328 32.9159936,33.7071328 32.5354238,34.0898693 C32.154854,34.4726059 32.1548635,35.0457787 32.5354238,35.4285248 L35.3385619,38.2476928 C35.5279153,38.4381291 35.7655338,38.5352113 36.0031333,38.5352113 C36.2407328,38.5352113 36.4783703,38.4399931 36.6677048,38.2476928 C37.0482651,37.8649563 37.0482651,37.2917834 36.6677048,36.9090373 L33.8664677,34.0898693 Z" id="Path" fill-rule="nonzero"></path>
            </g>
        </g>
    </g>
</svg>
