<?xml version="1.0" encoding="UTF-8"?>
<svg viewBox="0 0 119 120" version="1.1" xmlns="http://www.w3.org/2000/svg" xmlns:xlink="http://www.w3.org/1999/xlink">
    <!-- Generator: Sketch 58 (84663) - https://sketch.com -->
    <title>Room/4-Build-Deploy-and-Operate-unlocked</title>
    <desc>Created with Sketch.</desc>
    <g id="Room/4-Build-Deploy-and-Operate-unlocked" stroke="none" stroke-width="1" fill="none" fill-rule="evenodd">
        <g id="Background" transform="translate(59.500000, 60.000000) rotate(271.000000) translate(-59.500000, -60.000000) translate(1.000000, 2.000000)">
            <path d="M13.3389925,16.811562 C24.6986205,-0.331944785 99.2451056,0.941115666 107.054752,6.90894772 C114.864399,12.8767798 114.864399,97.6177871 107.054752,103.813102 C99.2451056,110.008417 16.1079382,113.597383 9.78915315,103.813102 C3.47036805,94.0288209 1.97936451,33.9550689 13.3389925,16.811562 Z" id="Rectangle" fill="#A5B4B3"></path>
            <path d="M9.12925581,15.1042273 C21.4355195,-3.48125673 102.194212,-2.10111643 110.654662,4.36868281 C119.115113,10.8384821 119.115113,102.707238 110.654662,109.423654 C102.194212,116.14007 12.128947,120.030912 5.28359648,109.423654 C-1.56175404,98.8163958 -3.17700788,33.6897113 9.12925581,15.1042273 Z" id="Rectangle" stroke="#000000" stroke-width="2"></path>
        </g>
        <g id="noun_build_2714806" transform="translate(34.000000, 34.000000)" fill="#000000" fill-rule="nonzero">
            <g id="Group" transform="translate(9.000000, 7.000000)">
                <path d="M19.3842701,35.8157183 L15.2692397,35.8157183 C14.81868,35.8157183 14.4530084,35.4395989 14.4530084,34.976166 L14.4530084,31.9248134 C12.8344216,31.5650653 11.2758279,30.8955224 9.88170476,29.9602612 L7.80521222,32.1128731 C7.65216884,32.2715485 7.44321362,32.3609608 7.22568797,32.3609608 L7.22568797,32.3609608 C7.00816231,32.3609608 6.79961521,32.2715485 6.64616371,32.1128731 L3.73670709,29.0963619 C3.42123368,28.7689366 3.42123368,28.2408582 3.73670709,27.9138526 L5.82054571,25.7536847 C4.91534515,24.3058769 4.26725746,22.6868004 3.92035914,21.005597 L0.984375,21.005597 C0.533815299,21.005597 0.168143657,20.6294776 0.168143657,20.1660448 L0.168143657,15.9002799 C0.168143657,15.436847 0.533815299,15.0607276 0.984375,15.0607276 L3.92035914,15.0607276 C4.26766558,13.379944 4.91534515,11.7608675 5.82054571,10.3126399 L3.73670709,8.15247201 C3.42123368,7.82504664 3.42123368,7.29696828 3.73670709,6.96996269 L6.64616371,3.95345149 C6.95265858,3.63568097 7.49871735,3.63568097 7.80521222,3.95345149 L9.88170476,6.10606343 C11.276236,5.17080224 12.8344216,4.50125933 14.4530084,4.14151119 L14.4530084,1.09015858 C14.4530084,0.626725746 14.81868,0.250606343 15.2692397,0.250606343 L19.3842701,0.250606343 C19.8348298,0.250606343 20.2005014,0.626725746 20.2005014,1.09015858 L20.2005014,4.14151119 C21.8190882,4.50125933 23.3776819,5.17080224 24.771805,6.10606343 L26.8482976,3.95345149 C27.1547924,3.63568097 27.7008512,3.63568097 28.0073461,3.95345149 L30.9168027,6.96996269 C31.2322761,7.29738806 31.2322761,7.82546642 30.9168027,8.15247201 L28.8329641,10.3126399 C29.7381646,11.7608675 30.3862523,13.3795243 30.7331507,15.0607276 L33.6691348,15.0607276 C34.1196945,15.0607276 34.4853661,15.436847 34.4853661,15.9002799 L34.4853661,20.1664646 C34.4853661,20.6298974 34.1196945,21.0060168 33.6691348,21.0060168 L30.7331507,21.0060168 C30.3858442,22.6872201 29.7381646,24.3058769 28.8329641,25.7541045 L30.9168027,27.9142724 C31.2322761,28.2416978 31.2322761,28.7697761 30.9168027,29.0967817 L28.0073461,32.1132929 C27.7008512,32.4310634 27.1547924,32.4310634 26.8482976,32.1132929 L24.771805,29.960681 C23.3772738,30.8959422 21.8190882,31.5654851 20.2005014,31.9252332 L20.2005014,34.9765858 C20.2005014,35.4395989 19.8352379,35.8157183 19.3842701,35.8157183 Z M16.0854711,34.1366138 L18.5680387,34.1366138 L18.5680387,31.2292444 C18.5680387,30.817444 18.8586171,30.4660914 19.2540812,30.4001866 C21.095091,30.0941698 22.8712104,29.330597 24.3902169,28.1921642 C24.7158932,27.9482743 25.1660448,27.9847948 25.4505014,28.2794776 L27.4282299,30.3296642 L29.1880247,28.5053172 L27.2009095,26.4458955 C26.9201259,26.1549907 26.885028,25.6982743 27.1172458,25.3653918 C28.2163013,23.7895522 28.9533582,21.9458955 29.2492421,20.0346549 C29.3120919,19.6270522 29.6540928,19.3269123 30.0552705,19.3269123 L32.8533116,19.3269123 L32.8533116,16.7398321 L30.0552705,16.7398321 C29.6540928,16.7398321 29.3120919,16.4396922 29.2492421,16.0320896 C28.9537663,14.1208489 28.2163013,12.2780317 27.1172458,10.7013526 C26.885028,10.3684701 26.920534,9.91175373 27.2009095,9.62084888 L29.1876166,7.56100746 L27.4278218,5.73666045 L25.4500933,7.78684701 C25.1660448,8.08194963 24.7154851,8.11888993 24.3898088,7.87416045 C22.8708022,6.73572761 21.0946828,5.97215485 19.253673,5.66613806 C18.858209,5.60023321 18.5676306,5.24930037 18.5676306,4.83708022 L18.5676306,1.92971082 L16.085063,1.92971082 L16.085063,4.83708022 C16.085063,5.2488806 15.7944846,5.60023321 15.3990205,5.66613806 C13.5580107,5.97215485 11.7818913,6.73572761 10.2628848,7.87416045 C9.9376166,8.11847015 9.4870569,8.08194963 9.20260028,7.78684701 L7.22487174,5.73666045 L5.46507696,7.56100746 L7.45178405,9.62084888 C7.73256763,9.91175373 7.76766558,10.3684701 7.53544776,10.7013526 C6.43639226,12.2776119 5.69892724,14.1208489 5.40345149,16.0320896 C5.34060168,16.4396922 4.99860075,16.7398321 4.59742304,16.7398321 L1.799382,16.7398321 L1.799382,19.3269123 L4.59742304,19.3269123 C4.99860075,19.3269123 5.34060168,19.6270522 5.40345149,20.0346549 C5.69933535,21.9458955 6.43639226,23.7891325 7.53544776,25.3653918 C7.76766558,25.6982743 7.73215951,26.1549907 7.45178405,26.4458955 L5.46507696,28.5057369 L7.22487174,30.330084 L9.20260028,28.2798974 C9.4870569,27.9856343 9.93720849,27.948694 10.2628848,28.192584 C11.7818913,29.3310168 13.5580107,30.0945896 15.3990205,30.4006063 C15.7944846,30.4665112 16.085063,30.817444 16.085063,31.2296642 L16.085063,34.1366138 L16.0854711,34.1366138 Z" id="Shape"></path>
                <path d="M17.326959,25.1429104 C13.5420942,25.1429104 10.4628615,21.9534515 10.4628615,18.0335821 C10.4628615,14.1132929 13.5420942,10.923834 17.326959,10.923834 C21.1118237,10.923834 24.1910564,14.1132929 24.1910564,18.0335821 C24.1910564,21.9534515 21.1118237,25.1429104 17.326959,25.1429104 Z M17.326959,12.6029384 C14.4419893,12.6029384 12.0953242,15.0388993 12.0953242,18.0335821 C12.0953242,21.0278451 14.4419893,23.463806 17.326959,23.463806 C20.2119286,23.463806 22.5585937,21.0278451 22.5585937,18.0335821 C22.5585937,15.039319 20.2115205,12.6029384 17.326959,12.6029384 Z" id="Shape"></path>
            </g>
            <g id="Group">
                <g transform="translate(5.744949, 0.000000)" id="Path">
                    <path d="M41.6410354,13.304273 C41.3747159,13.304273 41.1133207,13.1736926 40.9553346,12.9320153 C36.5469066,6.18867985 28.2897727,1.65816327 20.4089331,1.65816327 C13.0902778,1.65816327 6.31698232,5.02506378 1.82648359,10.8957908 C1.5490846,11.2580995 1.03368056,11.3240115 0.675441919,11.044611 C0.316382576,10.7647959 0.25072601,10.2441327 0.527714646,9.88140944 C5.33131313,3.60153061 12.5777462,0 20.4089331,0 C28.8183081,0 37.625726,4.82981505 42.3250947,12.0183673 C42.575,12.4001594 42.4707702,12.9146046 42.0924242,13.1670599 C41.952904,13.2599171 41.796149,13.304273 41.6410354,13.304273 Z"></path>
                    <path d="M41.6402146,13.304273 L37.7767361,13.304273 C37.3237058,13.304273 36.956029,12.9328444 36.956029,12.4751913 C36.956029,12.0175383 37.3237058,11.6461097 37.7767361,11.6461097 L40.8125316,11.6461097 L40.7899621,8.82101403 C40.7862689,8.36336097 41.1506629,7.98903061 41.6041035,7.98527163 C42.0386679,7.98156888 42.4276831,8.34968112 42.4313763,8.80774872 L42.4605345,12.4689732 C42.4621528,12.6899235 42.3763889,12.9025829 42.2225063,13.0596939 C42.0686237,13.2159758 41.8589331,13.304273 41.6402146,13.304273 Z"></path>
                </g>
                <g transform="translate(31.597222, 15.752551)" id="Path">
                    <path d="M0.820707071,34.1565051 C0.471085859,34.1565051 0.147316919,33.9293367 0.0373421717,33.5744898 C-0.0976641414,33.1375638 0.143213384,32.672449 0.576136364,32.5360651 C10.7044823,29.3395408 18.0555556,19.7462372 18.0555556,9.72471301 C18.0555556,6.77898597 17.5315341,3.90414541 16.4986742,1.17978316 C16.3365846,0.752391582 16.548327,0.272767857 16.9714015,0.109024235 C17.3940657,-0.0551339286 17.8692551,0.159183673 18.0313447,0.586575255 C19.1364268,3.50079719 19.6969697,6.57503189 19.6969697,9.72429847 C19.6969697,20.4522003 11.8612689,30.7112564 1.06568813,34.1183673 C0.984027778,34.1444834 0.901546717,34.1565051 0.820707071,34.1565051 Z"></path>
                    <path d="M4.11830808,35.6505102 C4.00587121,35.6505102 3.89179293,35.6268814 3.78304924,35.577551 L0.485448232,34.0835459 C0.267140152,33.9848852 0.102588384,33.7950255 0.034469697,33.5632972 C-0.0336489899,33.3319834 0.00123106061,33.0820153 0.130492424,32.8788903 L2.08787879,29.8021684 C2.3332702,29.4170599 2.84046717,29.3055485 3.22209596,29.5526148 C3.60331439,29.8000957 3.71410985,30.3128827 3.46912879,30.6984056 L2.02714646,32.9647003 L4.45479798,34.064477 C4.86843434,34.2518495 5.05309343,34.7422513 4.86761364,35.1601084 C4.73096591,35.4685268 4.43140783,35.6505102 4.11830808,35.6505102 Z"></path>
                </g>
                <g transform="translate(0.000000, 14.508929)" id="Path">
                    <path d="M26.1538826,36.4455995 C12.2917298,36.4455995 1.01357323,25.0167092 1.01357323,10.9683355 C1.01357323,7.84021046 2.47443182,3.99907526 3.54094066,1.19470663 L3.68579545,0.813743622 C3.84829545,0.386352041 4.32184343,0.171619898 4.74573864,0.336192602 C5.16881313,0.500350765 5.38055556,0.979559949 5.21846591,1.40695153 L5.07320076,1.78915816 C4.05265152,4.47289541 2.65498737,8.14779974 2.65498737,10.9683355 C2.65498737,24.1022321 13.1965593,34.7874362 26.1538826,34.7874362 C26.4797033,34.7874362 26.8038826,34.7808029 27.1268308,34.7675383 C27.5856061,34.749713 27.9619003,35.1045599 27.9803662,35.562213 C27.9988321,36.0198661 27.6467487,36.4058036 27.1937184,36.4244579 C26.8490215,36.4385523 26.5018624,36.4455995 26.1538826,36.4455995 Z"></path>
                    <path d="M5.98254419,5.41763393 C5.66821338,5.41763393 5.36824495,5.23399235 5.23200758,4.92515944 L4.05306187,2.24598214 L1.60325126,3.50660077 C1.19987374,3.71345663 0.705397727,3.55220026 0.499400253,3.14387755 C0.293813131,2.73596939 0.454261364,2.23686224 0.858459596,2.02876276 L4.07932449,0.371428571 C4.28039773,0.268207908 4.51388889,0.252455357 4.72604167,0.328730867 C4.93819444,0.404591837 5.11054293,0.565433673 5.20164141,0.773118622 L6.73184975,4.25111607 C6.91609848,4.6698023 6.72938763,5.159375 6.31534091,5.34550383 C6.20700758,5.39483418 6.09416035,5.41763393 5.98254419,5.41763393 Z"></path>
                </g>
            </g>
        </g>
    </g>
</svg>
