<?xml version="1.0" encoding="UTF-8"?>
<svg viewBox="0 0 119 120" version="1.1" xmlns="http://www.w3.org/2000/svg" xmlns:xlink="http://www.w3.org/1999/xlink">
    <!-- Generator: Sketch 58 (84663) - https://sketch.com -->
    <title>Room/4-Build-Deploy-and-OPerate</title>
    <desc>Created with Sketch.</desc>
    <g id="Room/4-Build-Deploy-and-OPerate" stroke="none" stroke-width="1" fill="none" fill-rule="evenodd">
        <g id="Background" transform="translate(59.500000, 60.000000) rotate(271.000000) translate(-59.500000, -60.000000) translate(1.000000, 2.000000)">
            <path d="M13.3389925,16.811562 C24.6986205,-0.331944785 99.2451056,0.941115666 107.054752,6.90894772 C114.864399,12.8767798 114.864399,97.6177871 107.054752,103.813102 C99.2451056,110.008417 16.1079382,113.597383 9.78915315,103.813102 C3.47036805,94.0288209 1.97936451,33.9550689 13.3389925,16.811562 Z" id="Rectangle" fill="#AFB4BB"></path>
            <path d="M9.12925581,15.1042273 C21.4355195,-3.48125673 102.194212,-2.10111643 110.654662,4.36868281 C119.115113,10.8384821 119.115113,102.707238 110.654662,109.423654 C102.194212,116.14007 12.128947,120.030912 5.28359648,109.423654 C-1.56175404,98.8163958 -3.17700788,33.6897113 9.12925581,15.1042273 Z" id="Rectangle" stroke="#000000" stroke-width="2"></path>
        </g>
        <g id="Lock" transform="translate(47.000000, 39.000000)" fill="#000000" fill-rule="nonzero">
            <path d="M23.9446596,15.0616292 L22.7808522,15.0616292 L22.7808522,8.80326195 C22.7808522,3.95907905 18.8314826,0 13.9999647,0 C9.1684468,0 5.21907716,3.95943295 5.21907716,8.80326195 L5.21907716,15.0255314 L4.05526979,15.0255314 C1.79800807,15.0255314 0,16.8641479 0,19.0911343 L0,30.9343971 C0,33.1974105 1.83394352,35 4.05526979,35 L23.9447302,35 C26.2019919,35 28,33.1613834 28,30.9343971 L28,19.1272321 C28,16.8642187 26.201886,15.0616292 23.9447302,15.0616292 L23.9446596,15.0616292 Z M7.37022693,8.80326195 C7.37022693,5.16198508 10.332113,2.15666646 13.9999294,2.15666646 C17.6679576,2.15666646 20.6296319,5.12609962 20.6296319,8.80326195 L20.6296319,15.0255314 L7.37022693,15.0255314 L7.37022693,8.80326195 Z M25.8490973,30.9704949 C25.8490973,32.0308146 25.0024609,32.8796083 23.9448361,32.8796083 L4.02113464,32.8796083 C2.96350983,32.8796083 2.11687342,32.0308146 2.11687342,30.9704949 L2.11687342,19.1272321 C2.11687342,18.0669124 2.96350983,17.2181187 4.02113464,17.2181187 L23.9105951,17.2181187 C24.9682199,17.2181187 25.8148563,18.0669124 25.8148563,19.1272321 L25.8148563,30.9704949 L25.8490973,30.9704949 Z" id="Shape"></path>
            <path d="M14.5,22 C12.5596333,22 11,23.5595986 11,25.5 C11,27.4404014 12.5595986,29 14.5,29 C16.4404014,29 18,27.4404014 18,25.5 C18,23.5595986 16.4404014,22 14.5,22 Z M14.5,26.8521308 C13.7371457,26.8521308 13.1490833,26.2288256 13.1490833,25.5012141 C13.1490833,24.7383598 13.7723885,24.1502973 14.5,24.1502973 C15.2628543,24.1502973 15.8509167,24.7736026 15.8509167,25.5012141 C15.8509167,26.2275074 15.2615015,26.8521308 14.5,26.8521308 Z" id="Shape"></path>
        </g>
    </g>
</svg>
