<?xml version="1.0" encoding="UTF-8"?>
<svg viewBox="0 0 121 122" version="1.1" xmlns="http://www.w3.org/2000/svg" xmlns:xlink="http://www.w3.org/1999/xlink">
    <!-- Generator: Sketch 58 (84663) - https://sketch.com -->
    <title>Room/5-Rekrutierung-unlock</title>
    <desc>Created with Sketch.</desc>
    <g id="Room/5-Rekrutierung-unlock" stroke="none" stroke-width="1" fill="none" fill-rule="evenodd">
        <g id="Background" transform="translate(60.500000, 61.000000) rotate(92.000000) translate(-60.500000, -61.000000) translate(2.000000, 3.000000)">
            <path d="M13.3389925,16.811562 C24.6986205,-0.331944785 99.2451056,0.941115666 107.054752,6.90894772 C114.864399,12.8767798 114.864399,97.6177871 107.054752,103.813102 C99.2451056,110.008417 16.1079382,113.597383 9.78915315,103.813102 C3.47036805,94.0288209 1.97936451,33.9550689 13.3389925,16.811562 Z" id="Rectangle" fill="var(--room-color)"></path>
            <path d="M9.12925581,15.1042273 C21.4355195,-3.48125673 102.194212,-2.10111643 110.654662,4.36868281 C119.115113,10.8384821 119.115113,102.707238 110.654662,109.423654 C102.194212,116.14007 12.128947,120.030912 5.28359648,109.423654 C-1.56175404,98.8163958 -3.17700788,33.6897113 9.12925581,15.1042273 Z" id="Rectangle" stroke="#000000" stroke-width="2"></path>
        </g>
        <g id="noun_Recruitment_2152696" transform="translate(37.000000, 38.000000)" fill="#000000" fill-rule="nonzero">
            <path d="M23.6722855,19.4831151 C25.518704,17.8852393 26.203734,15.2590008 25.3860639,12.9129054 C24.5683938,10.56681 22.4229449,9.00274972 20.0186728,9.0000036 C17.6144007,8.99726471 15.465643,10.5564267 14.643004,12.900651 C13.820365,15.2448754 14.4998289,17.8726703 16.3428573,19.4747546 C13.686269,20.8857875 12.0107637,23.7173633 12.0000002,26.8141097 C11.9998184,27.1286852 12.1201677,27.4304307 12.3345345,27.6528692 C12.5489012,27.8753077 12.8396972,28.0000036 13.1428575,28.0000036 L26.8571425,28.0000036 C27.1603028,28.0000036 27.4510988,27.8753077 27.6654655,27.6528692 C27.8798323,27.4304307 28.0001816,27.1286852 28.0000002,26.8141097 C27.9892814,23.7237814 26.3205263,20.8969693 23.6722855,19.4831151 L23.6722855,19.4831151 Z M16.5837675,14.9680758 C16.580865,13.009879 18.1035416,11.4173875 19.9906448,11.4049972 C21.8777481,11.3926069 23.4197238,12.9649765 23.4406983,14.9230547 C23.4616727,16.881133 21.9537595,18.4886789 20.0668571,18.5198166 C20.044,18.5198166 20.0228571,18.5128792 20,18.5128792 C19.9813143,18.5128792 19.9641143,18.5185121 19.9454286,18.5188086 C18.080661,18.48104 16.5870534,16.9034247 16.5837675,14.9680758 Z M14.4008003,25.6282196 C14.9440258,22.8931307 17.2508119,20.9206299 19.9418857,20.8901144 C19.9658857,20.8904109 19.9881714,20.8974669 20.0123429,20.8974669 C20.0325714,20.8974669 20.0512571,20.8915375 20.0713143,20.891241 C22.7572218,20.9277117 25.0569341,22.89835 25.599314,25.6282196 L14.4008003,25.6282196 Z" id="Shape"></path>
            <path d="M45.9512353,40.9756292 L36.3846277,31.4080216 C42.3020901,22.9128035 40.7521302,11.3050058 32.8130286,4.65997547 C24.873927,-1.98505483 13.1744299,-1.4670564 5.85367798,5.85360808 C-1.46707392,13.1742726 -1.98507853,24.87363 4.66003112,32.8126368 C11.3051408,40.7516436 22.9130771,42.301585 31.4083967,36.3841932 L40.9750043,45.9506866 C41.8615034,46.8505659 43.1623781,47.2061591 44.3833761,46.8823628 C45.6043742,46.5585665 46.5580858,45.6050798 46.8821594,44.3841688 C47.206233,43.1632579 46.8509268,41.8623192 45.9512353,40.9756292 Z M10.5269915,34.8380382 C3.16166075,30.1120073 0.388956776,20.6915307 4.01973265,12.7291221 C7.65050853,4.76671346 16.5811201,0.682700126 24.9789845,3.14435134 C33.3768489,5.60600255 38.6892738,13.8650521 37.4467142,22.5275143 C36.2041545,31.1899765 28.7843104,37.6227294 20.0330821,37.6245538 C16.6624486,37.6284869 13.3620781,36.6610551 10.5269915,34.8380382 Z M44.2929412,44.2924123 C43.8294476,44.7367988 43.0980234,44.7367988 42.6345298,44.2924123 L33.2552199,34.9143285 C33.8401959,34.3939017 34.3943124,33.8397918 34.9147454,33.2548228 L44.2929412,42.6351935 C44.5142209,42.8537424 44.6380942,43.1522396 44.6365882,43.4632458 C44.6369282,43.7743487 44.513257,44.0727599 44.2929412,44.2924123 Z" id="Shape"></path>
        </g>
    </g>
</svg>
