<?xml version="1.0" encoding="UTF-8"?>
<svg viewBox="0 0 117 116" version="1.1" xmlns="http://www.w3.org/2000/svg" xmlns:xlink="http://www.w3.org/1999/xlink">
    <!-- Generator: Sketch 58 (84663) - https://sketch.com -->
    <title>Room/6-Playground-unlocked</title>
    <desc>Created with Sketch.</desc>
    <g id="Room/6-Playground-unlocked" stroke="none" stroke-width="1" fill="none" fill-rule="evenodd">
        <g id="Background" transform="translate(58.500000, 58.000000) rotate(180.000000) translate(-58.500000, -58.000000) ">
            <path d="M13.3389925,16.811562 C24.6986205,-0.331944785 99.2451056,0.941115666 107.054752,6.90894772 C114.864399,12.8767798 114.864399,97.6177871 107.054752,103.813102 C99.2451056,110.008417 16.1079382,113.597383 9.78915315,103.813102 C3.47036805,94.0288209 1.97936451,33.9550689 13.3389925,16.811562 Z" id="Rectangle" fill="var(--room-color)"></path>
            <path d="M9.12925581,15.1042273 C21.4355195,-3.48125673 102.194212,-2.10111643 110.654662,4.36868281 C119.115113,10.8384821 119.115113,102.707238 110.654662,109.423654 C102.194212,116.14007 12.128947,120.030912 5.28359648,109.423654 C-1.56175404,98.8163958 -3.17700788,33.6897113 9.12925581,15.1042273 Z" id="Rectangle" stroke="#000000" stroke-width="2"></path>
        </g>
        <g id="noun_Park_1322023" transform="translate(31.000000, 30.000000)" fill="#000000" fill-rule="nonzero">
            <path d="M0,55.2979905 C0,55.6862018 0.312982158,56 0.700183798,56 L4.25151602,56 C4.63871766,56 4.95169982,55.6862018 4.95169982,55.2979905 L4.95169982,6.71963496 L16.8394203,6.71963496 L16.8394203,28.8329343 C12.1453882,29.1937672 8.43371385,33.1299344 8.43371385,37.9267654 C8.43371385,42.9608755 12.5185861,47.0563989 17.5396041,47.0563989 C22.5606222,47.0563989 26.6454944,42.9608755 26.6454944,37.9267654 C26.6454944,33.1299344 22.9338201,29.1937672 18.2397879,28.8329343 L18.2397879,6.71963496 L30.674352,6.71963496 L30.674352,42.3824197 L30.1667188,42.3824197 C29.7795171,42.3824197 29.466535,42.6962179 29.466535,43.0844292 L29.466535,46.0553334 C29.466535,46.4435446 29.7795171,46.7573429 30.1667188,46.7573429 L46.7547731,46.7573429 C47.1419748,46.7573429 47.4549569,46.4435446 47.4549569,46.0553334 L47.4549569,43.0844292 C47.4549569,42.6962179 47.1419748,42.3824197 46.7547731,42.3824197 L46.3528676,42.3824197 L46.3528676,6.71963496 L51.0490004,6.71963496 L51.0490004,55.2979905 C51.0490004,55.6862018 51.3619825,56 51.7491842,56 L55.2998162,56 C55.6870178,56 56,55.6862018 56,55.2979905 L56,2.48160359 C56,1.11338707 54.8895085,0 53.5248503,0 C52.3219345,0 51.3185711,0.864875707 51.0966129,2.00634316 L4.90408732,2.00634316 C4.68212906,0.864875707 3.67946586,0 2.47584991,0 C1.1104915,0 0,1.11338707 0,2.48160359 L0,55.2979905 Z M25.2451268,37.9267654 C25.2451268,42.186559 21.7883194,45.6523799 17.5396041,45.6523799 C13.2908889,45.6523799 9.83408145,42.186559 9.83408145,37.9267654 C9.83408145,33.6669717 13.2908889,30.2011508 17.5396041,30.2011508 C21.7883194,30.2011508 25.2451268,33.6669717 25.2451268,37.9267654 Z M4.95169982,5.31561595 L4.95169982,3.41036216 L16.8394203,3.41036216 L16.8394203,5.31561595 L4.95169982,5.31561595 Z M18.2397879,5.31561595 L18.2397879,3.41036216 L30.674352,3.41036216 L30.674352,5.31561595 L18.2397879,5.31561595 Z M32.0740194,3.41036216 L44.9525,3.41036216 L44.9525,5.31561595 L32.0740194,5.31561595 L32.0740194,3.41036216 Z M46.0545893,45.3533239 L30.8669026,45.3533239 L30.8669026,43.7864387 L46.0545893,43.7864387 L46.0545893,45.3533239 Z M44.9525,42.3824197 L32.0740194,42.3824197 L32.0740194,6.71963496 L44.9525,6.71963496 L44.9525,42.3824197 Z M46.3528676,5.31561595 L46.3528676,3.41036216 L51.0490004,3.41036216 L51.0490004,5.31561595 L46.3528676,5.31561595 Z M52.449368,2.48160359 C52.449368,1.88700154 52.9317946,1.404019 53.5248503,1.404019 C54.117906,1.404019 54.5996324,1.88700154 54.5996324,2.48160359 L54.5996324,54.595981 L52.449368,54.595981 L52.449368,2.48160359 Z M1.4003676,2.48160359 C1.4003676,1.88700154 1.88279423,1.404019 2.47584991,1.404019 C3.06890559,1.404019 3.55133222,1.88700154 3.55133222,2.48160359 L3.55133222,54.595981 L1.4003676,54.595981 L1.4003676,2.48160359 Z" id="Shape"></path>
            <path d="M12,38.4996584 C12,41.5319506 14.4666832,44 17.4996584,44 C20.5326337,44 23,41.5326337 23,38.4996584 C23,35.4666832 20.5326337,33 17.4996584,33 C14.4666832,33 12,35.4673663 12,38.4996584 Z M21.6331118,38.4996584 C21.6331118,40.7791716 19.7784885,42.6337949 17.4989753,42.6337949 C15.2201453,42.6337949 13.365522,40.7791716 13.365522,38.4996584 C13.365522,36.2208284 15.2201453,34.3662051 17.4989753,34.3662051 C19.7791716,34.3668882 21.6331118,36.2208284 21.6331118,38.4996584 Z" id="Shape"></path>
        </g>
    </g>
</svg>
